<?xml version="1.0" encoding="UTF-8"?>
<svg version="1.1" xmlns="http://www.w3.org/2000/svg" width="218" height="442">
<path d="M0 0 C3.49419815 2.17206912 4.99613474 3.48840422 6.3125 7.4375 C6.46139747 9.28216442 6.5604101 11.13107275 6.62890625 12.98046875 C6.67080078 14.05361328 6.71269531 15.12675781 6.75585938 16.23242188 C6.79517578 17.35197266 6.83449219 18.47152344 6.875 19.625 C6.91818359 20.75615234 6.96136719 21.88730469 7.00585938 23.05273438 C7.11199099 25.84753354 7.21404385 28.64242162 7.3125 31.4375 C8.240625 31.2209375 9.16875 31.004375 10.125 30.78125 C11.7028125 30.61109375 11.7028125 30.61109375 13.3125 30.4375 C15.3125 32.10416667 17.3125 33.77083333 19.3125 35.4375 C21.31970923 35.15075582 23.3210944 34.81883299 25.3125 34.4375 C28.1875 36.375 28.1875 36.375 30.3125 38.4375 C30.6425 38.1075 30.9725 37.7775 31.3125 37.4375 C34.97370928 37.03069897 36.6743744 36.9373475 39.625 39.25 C43.54774135 44.33503508 42.49853948 50.58464665 42.49780273 56.7121582 C42.49995108 58.70463177 42.51834123 60.6970668 42.53710938 62.68945312 C42.55681717 75.88710577 42.48086168 91.68750712 33.875 102.5 C27.27534974 107.48997946 20.79737963 106.61414534 12.875 106.3125 C11.66005859 106.28929688 10.44511719 106.26609375 9.19335938 106.2421875 C-1.84145334 105.85521325 -1.84145334 105.85521325 -6.6875 101.4375 C-9.37664356 98.54149925 -10.83460108 95.12582482 -12.5390625 91.6015625 C-13.67580186 89.45954343 -14.9578141 87.59026885 -16.375 85.625 C-19.58379862 81.00529746 -21.71656882 76.05079514 -24 70.9375 C-27.05677899 64.14327743 -30.05852333 59.02364416 -35.9375 54.2265625 C-38.13465967 51.98035909 -38.53508968 50.55453697 -38.6875 47.4375 C-36.25076925 43.59780306 -35.0015972 41.8755324 -30.6875 40.4375 C-27.50147291 40.4375 -25.5186764 41.0219118 -22.6875 42.4375 C-22.6875 43.0975 -22.6875 43.7575 -22.6875 44.4375 C-22.09453125 44.67210937 -21.5015625 44.90671875 -20.890625 45.1484375 C-18.17656 46.73645425 -17.10256759 48.41352884 -15.4375 51.0625 C-14.91671875 51.87976562 -14.3959375 52.69703125 -13.859375 53.5390625 C-13.47265625 54.16554687 -13.0859375 54.79203125 -12.6875 55.4375 C-11.89814274 51.89682938 -11.51166187 48.52529391 -11.37109375 44.90234375 C-11.32919922 43.84466797 -11.28730469 42.78699219 -11.24414062 41.69726562 C-11.20482422 40.60091797 -11.16550781 39.50457031 -11.125 38.375 C-11.08181641 37.30572266 -11.03863281 36.23644531 -10.99414062 35.13476562 C-10.75296571 28.7991389 -10.65707257 22.48473682 -10.7331543 16.14477539 C-10.62947066 9.99639127 -10.38623969 5.09848992 -5.875 0.6875 C-2.6875 -0.5625 -2.6875 -0.5625 0 0 Z M-3.6875 5.4375 C-6.04103427 11.02085963 -5.9669812 16.17973476 -5.9609375 22.12890625 C-5.98121684 24.22852105 -6.00206743 26.32813039 -6.0234375 28.42773438 C-6.04607437 31.72164542 -6.06252716 35.01534078 -6.06835938 38.30932617 C-6.07787328 41.49957726 -6.11162425 44.68886978 -6.1484375 47.87890625 C-6.14339203 48.86234512 -6.13834656 49.845784 -6.13314819 50.85902405 C-6.19765058 55.33919748 -6.24705558 57.7531456 -8.72119141 61.59741211 C-9.37007324 62.20464111 -10.01895508 62.81187012 -10.6875 63.4375 C-14.17071217 62.02939295 -15.50187105 60.57163212 -17.3125 57.3125 C-18.46791673 55.1671182 -18.46791673 55.1671182 -19.6875 53.4375 C-20.3475 53.4375 -21.0075 53.4375 -21.6875 53.4375 C-22.0896875 52.509375 -22.0896875 52.509375 -22.5 51.5625 C-23.64306848 49.1379767 -23.64306848 49.1379767 -26.6875 47.4375 C-29.31281524 47.27036431 -29.31281524 47.27036431 -31.6875 47.4375 C-30.29817556 50.45745259 -28.57504703 53.1511055 -26.71826172 55.90332031 C-22.30762506 62.47362233 -18.82117686 69.16448072 -15.57885742 76.375 C-13.24961079 81.46931419 -10.52764308 85.93515466 -7.14453125 90.41796875 C-5.6875 92.4375 -5.6875 92.4375 -4.0625 95.9375 C-2.30671024 99.12984503 -1.11318469 99.36757921 2.3125 100.4375 C6.3051031 100.84494544 10.30111605 100.76196714 14.3125 100.75 C15.39273438 100.76611328 16.47296875 100.78222656 17.5859375 100.79882812 C18.63007812 100.79947266 19.67421875 100.80011719 20.75 100.80078125 C22.17119141 100.80525269 22.17119141 100.80525269 23.62109375 100.80981445 C26.81907341 100.3674234 28.69937572 99.3007116 31.3125 97.4375 C38.33730916 87.44147247 37.61265678 73.09178992 37.5 61.5 C37.49935547 60.21287109 37.49871094 58.92574219 37.49804688 57.59960938 C37.48498742 49.96058253 37.48498742 49.96058253 36.3125 42.4375 C34.9925 42.4375 33.6725 42.4375 32.3125 42.4375 C31.6525 44.7475 30.9925 47.0575 30.3125 49.4375 C28.9925 49.1075 27.6725 48.7775 26.3125 48.4375 C25.6525 45.7975 24.9925 43.1575 24.3125 40.4375 C23.3225 40.4375 22.3325 40.4375 21.3125 40.4375 C20.3225 42.4175 19.3325 44.3975 18.3125 46.4375 C17.6525 46.4375 16.9925 46.4375 16.3125 46.4375 C14.42858215 43.17204239 13.81962033 40.15638239 13.3125 36.4375 C12.3225 36.1075 11.3325 35.7775 10.3125 35.4375 C7.91486815 37.83513185 7.96969414 38.77023498 7.6875 42.0625 C7.61273438 42.87976562 7.53796875 43.69703125 7.4609375 44.5390625 C7.41195312 45.16554687 7.36296875 45.79203125 7.3125 46.4375 C5.6625 46.4375 4.0125 46.4375 2.3125 46.4375 C2.31773682 45.64166504 2.32297363 44.84583008 2.32836914 44.02587891 C2.34933513 40.37142751 2.36222207 36.71698884 2.375 33.0625 C2.38756836 31.18498047 2.38756836 31.18498047 2.40039062 29.26953125 C3.07665664 16.81808337 3.07665664 16.81808337 -0.6875 5.4375 C-1.6775 5.4375 -2.6675 5.4375 -3.6875 5.4375 Z " fill="#D563A8" transform="translate(54.6875,8.5625)"/>
<path d="M0 0 C-0.13277344 0.64066406 -0.26554687 1.28132812 -0.40234375 1.94140625 C-1.5961988 7.78868172 -2.66991837 13.61666331 -3.25 19.5625 C-4.76325944 24.48059319 -7.85915951 27.31549571 -12.125 29.875 C-15 31 -15 31 -18 31 C-17.35550393 27.98782888 -16.34977818 25.48344164 -14.9375 22.75 C-14.57527344 22.04359375 -14.21304688 21.3371875 -13.83984375 20.609375 C-13.56269531 20.07828125 -13.28554687 19.5471875 -13 19 C-13.99 19 -14.98 19 -16 19 C-15.41919629 14.84424935 -13.13038666 12.20909714 -10.625 8.9375 C-9.83351563 7.89464844 -9.04203125 6.85179687 -8.2265625 5.77734375 C-3.59493671 0 -3.59493671 0 0 0 Z " fill="#D961AA" transform="translate(98,7)"/>
<path d="M0 0 C5.39807141 4.90733764 11.73229232 11.11823861 12.25 18.625 C12.1675 19.73875 12.085 20.8525 12 22 C12.80671248 24.77922287 13.87397603 27.32569306 15 30 C11 30 11 30 8.74609375 28.13671875 C7.98425781 27.32847656 7.22242188 26.52023438 6.4375 25.6875 C5.67308594 24.88699219 4.90867187 24.08648437 4.12109375 23.26171875 C3.42113281 22.51535156 2.72117187 21.76898437 2 21 C1.40445312 20.49597656 0.80890625 19.99195312 0.1953125 19.47265625 C-1 18 -1 18 -1.00390625 15.984375 C-0.85824219 15.24703125 -0.71257813 14.5096875 -0.5625 13.75 C0.13612003 9.20896978 -0.44648137 6.29502209 -2 2 C-1.34 1.34 -0.68 0.68 0 0 Z " fill="#DE61A8" transform="translate(26,9)"/>
<path d="M0 0 C4.29 0.66 8.58 1.32 13 2 C13 3.32 13 4.64 13 6 C12.38511719 6.32613281 11.77023438 6.65226562 11.13671875 6.98828125 C9.92435547 7.64376953 9.92435547 7.64376953 8.6875 8.3125 C7.88699219 8.74175781 7.08648437 9.17101563 6.26171875 9.61328125 C4.15846272 10.90284237 2.72361649 12.26615434 1 14 C-2.77329784 13.73047873 -6.57631198 11.51432355 -10 10 C-9.67 9.01 -9.34 8.02 -9 7 C-7.865625 6.525625 -6.73125 6.05125 -5.5625 5.5625 C-1.60736208 4.28051981 -1.60736208 4.28051981 0 0 Z " fill="#D35AA5" transform="translate(108,32)"/>
<path d="M0 0 C3 0 3 0 4.9375 1.875 C5.9584375 2.926875 5.9584375 2.926875 7 4 C9.13309192 5.23512079 9.13309192 5.23512079 11 6 C10.67 6.99 10.34 7.98 10 9 C9.34 9 8.68 9 8 9 C8 9.66 8 10.32 8 11 C0.53498823 13.26212478 -6.33286188 9.11435477 -13 6 C-13 5.01 -13 4.02 -13 3 C-12.14535156 2.86722656 -11.29070313 2.73445313 -10.41015625 2.59765625 C-9.30542969 2.42105469 -8.20070313 2.24445312 -7.0625 2.0625 C-5.96035156 1.88847656 -4.85820312 1.71445312 -3.72265625 1.53515625 C-1.09573071 1.28154864 -1.09573071 1.28154864 0 0 Z " fill="#E262AA" transform="translate(17,34)"/>
<path d="M0 0 C0.66 1.32 1.32 2.64 2 4 C2.66 4 3.32 4 4 4 C4 13.9 4 23.8 4 34 C3.34 34 2.68 34 2 34 C1.67 35.98 1.34 37.96 1 40 C0.67 40 0.34 40 0 40 C0 34.72 0 29.44 0 24 C-0.66 23.67 -1.32 23.34 -2 23 C-1.34 23 -0.68 23 0 23 C0 15.41 0 7.82 0 0 Z " fill="#D966B2" transform="translate(93,49)"/>
<path d="M0 0 C0 5.94 0 11.88 0 18 C-0.66 18 -1.32 18 -2 18 C-1.98952637 18.6297876 -1.97905273 19.2595752 -1.96826172 19.90844727 C-1.9263977 22.79309006 -1.90057799 25.67766866 -1.875 28.5625 C-1.85824219 29.55314453 -1.84148438 30.54378906 -1.82421875 31.56445312 C-1.78725641 37.12728491 -2.12917449 41.74843075 -4 47 C-4.66 47 -5.32 47 -6 47 C-5.93941406 46.28158936 -5.87882812 45.56317871 -5.81640625 44.82299805 C-4.60230108 30.18485893 -3.6779209 15.69038541 -4 1 C-1 0 -1 0 0 0 Z " fill="#DC59A6" transform="translate(48,21)"/>
<path d="M0 0 C0.33 0 0.66 0 1 0 C2.09783883 7.60355038 1.93135165 14.90140879 1.5625 22.5625 C1.51029297 23.76197266 1.45808594 24.96144531 1.40429688 26.19726562 C1.27568988 29.13184343 1.14077908 32.06598521 1 35 C1.66 35 2.32 35 3 35 C2.97679687 34.40832031 2.95359375 33.81664062 2.9296875 33.20703125 C2.72642457 24.3070188 2.72642457 24.3070188 5 21 C7.9375 20 7.9375 20 11 20 C12.875 21.4375 12.875 21.4375 14 23 C11.69 23 9.38 23 7 23 C7.33 23.99 7.66 24.98 8 26 C7.37943989 27.68437744 6.70710678 29.35008418 6 31 C5.63128912 32.65919896 5.28718326 34.3247643 5 36 C3.515 36.495 3.515 36.495 2 37 C0.52050781 35.87207031 0.52050781 35.87207031 -1 34 C-1.35644531 31.29199219 -1.35644531 31.29199219 -1.328125 28.046875 C-1.32039063 26.28150391 -1.32039063 26.28150391 -1.3125 24.48046875 C-1.291875 23.24941406 -1.27125 22.01835938 -1.25 20.75 C-1.24484375 19.53441406 -1.2396875 18.31882812 -1.234375 17.06640625 C-1.18397694 11.2895288 -1.04330246 5.68768117 0 0 Z " fill="#D15F9E" transform="translate(57,19)"/>
<path d="M0 0 C0.33 0 0.66 0 1 0 C1.95261487 4.76307437 2.08333357 9.1666528 2 14 C2.66 12.68 3.32 11.36 4 10 C4.44032071 17.51806849 3.28612778 23.84224277 1 31 C-0.32 31 -1.64 31 -3 31 C-3.24756993 25.55346147 -2.46693902 20.58137422 -1.51171875 15.22265625 C-0.70985276 10.17273684 -0.3435333 5.09875737 0 0 Z " fill="#D463AB" transform="translate(92,73)"/>
<path d="M0 0 C0.66 0 1.32 0 2 0 C3.19509163 6.09496734 3.35573964 12.17554896 3.60546875 18.36328125 C3.64285156 19.18699219 3.68023437 20.01070312 3.71875 20.859375 C3.74904297 21.60670898 3.77933594 22.35404297 3.81054688 23.12402344 C3.89690767 25.08971545 3.89690767 25.08971545 5 27 C4.75290429 29.05061033 4.43007496 31.09252671 4.0625 33.125 C3.86785156 34.22070312 3.67320313 35.31640625 3.47265625 36.4453125 C3.31667969 37.28835937 3.16070312 38.13140625 3 39 C2.34 39 1.68 39 1 39 C1.00523682 38.17387207 1.01047363 37.34774414 1.01586914 36.49658203 C1.03307591 33.38411728 1.04552946 30.27167706 1.05493164 27.15917969 C1.06233777 25.16860325 1.07505474 23.17804883 1.08789062 21.1875 C1.10589603 14.05736081 0.92522041 7.07423314 0 0 Z " fill="#E261B2" transform="translate(57,15)"/>
<path d="M0 0 C3 0 3 0 4.9375 1.875 C5.618125 2.57625 6.29875 3.2775 7 4 C9.13309192 5.23512079 9.13309192 5.23512079 11 6 C10.67 6.99 10.34 7.98 10 9 C9.34 9 8.68 9 8 9 C8 9.66 8 10.32 8 11 C4.30458414 11.95024979 1.69541586 11.95024979 -2 11 C-1.360625 10.71125 -0.72125 10.4225 -0.0625 10.125 C2.15206079 9.17176549 2.15206079 9.17176549 3 7 C2.34 6.67 1.68 6.34 1 6 C0 5 0 5 -0.0625 2.4375 C-0.041875 1.633125 -0.02125 0.82875 0 0 Z " fill="#D15A98" transform="translate(17,34)"/>
<path d="M0 0 C0.598125 0.78375 1.19625 1.5675 1.8125 2.375 C3.91085249 5.14574323 3.91085249 5.14574323 7 7 C7.66 7 8.32 7 9 7 C9.66 5.68 10.32 4.36 11 3 C12.32 6.96 13.64 10.92 15 15 C11 15 11 15 8.74609375 13.13671875 C7.98425781 12.32847656 7.22242188 11.52023438 6.4375 10.6875 C5.67308594 9.88699219 4.90867187 9.08648437 4.12109375 8.26171875 C3.42113281 7.51535156 2.72117187 6.76898437 2 6 C1.0043859 4.99563325 0.00641006 3.99354859 -1 3 C-0.67 2.01 -0.34 1.02 0 0 Z " fill="#C75D99" transform="translate(26,24)"/>
<path d="M0 0 C3 0.3125 3 0.3125 6 1 C6.33 1.66 6.66 2.32 7 3 C8.89533342 3.46523063 8.89533342 3.46523063 11.0625 3.625 C12.361875 3.74875 13.66125 3.8725 15 4 C15.33 5.32 15.66 6.64 16 8 C11.545 7.01 11.545 7.01 7 6 C7 6.66 7 7.32 7 8 C7.66 8.33 8.32 8.66 9 9 C8.34 9 7.68 9 7 9 C6.67 9.99 6.34 10.98 6 12 C5.67 12 5.34 12 5 12 C4.81824219 11.37351562 4.63648437 10.74703125 4.44921875 10.1015625 C4.07216797 8.87566406 4.07216797 8.87566406 3.6875 7.625 C3.32205078 6.40683594 3.32205078 6.40683594 2.94921875 5.1640625 C2.08631815 2.66815371 2.08631815 2.66815371 -1 1 C-0.67 0.67 -0.34 0.34 0 0 Z " fill="#E363B0" transform="translate(66,41)"/>
<path d="M0 0 C-1.20381448 2.49361571 -2.45428722 4.68143083 -4 7 C-5.32 7 -6.64 7 -8 7 C-8 7.66 -8 8.32 -8 9 C-9.98 9.33 -11.96 9.66 -14 10 C-13.00261116 6.40940017 -12.11279244 5.08827235 -9.125 2.75 C-5.89289644 0.94002201 -3.66360947 0 0 0 Z " fill="#CB65A4" transform="translate(102,32)"/>
<path d="M0 0 C2.5 2.3125 2.5 2.3125 5 5 C5 5.99 5 6.98 5 8 C4.34 8 3.68 8 3 8 C3 9.65 3 11.3 3 13 C0.625 12.75 0.625 12.75 -2 12 C-3.3125 9.9375 -3.3125 9.9375 -4 8 C-3.34 8 -2.68 8 -2 8 C-2.33 6.35 -2.66 4.7 -3 3 C-1.68 3 -0.36 3 1 3 C0.67 2.01 0.34 1.02 0 0 Z " fill="#D359A3" transform="translate(33,19)"/>
<path d="M0 0 C0.66 0.66 1.32 1.32 2 2 C1.34 3.32 0.68 4.64 0 6 C0.66 5.67 1.32 5.34 2 5 C2.33 7.64 2.66 10.28 3 13 C1.02 13.99 1.02 13.99 -1 15 C-1 14.01 -1 13.02 -1 12 C-2.65 11.67 -4.3 11.34 -6 11 C-5.39305845 7.84669446 -4.3583335 5.81111133 -2.4375 3.25 C-1.98246094 2.63640625 -1.52742188 2.0228125 -1.05859375 1.390625 C-0.70925781 0.93171875 -0.35992187 0.4728125 0 0 Z " fill="#D35AA5" transform="translate(88,15)"/>
<path d="M0 0 C0.33 0 0.66 0 1 0 C1.05865035 3.18742115 1.09381259 6.37470118 1.125 9.5625 C1.14175781 10.45775391 1.15851562 11.35300781 1.17578125 12.27539062 C1.21479596 17.60089905 0.75475782 21.96370689 -1 27 C-1.66 27 -2.32 27 -3 27 C-2.69357747 23.06200216 -2.37882317 19.12471395 -2.0625 15.1875 C-1.97548828 14.06794922 -1.88847656 12.94839844 -1.79882812 11.79492188 C-1.71181641 10.72177734 -1.62480469 9.64863281 -1.53515625 8.54296875 C-1.456604 7.55321045 -1.37805176 6.56345215 -1.29711914 5.54370117 C-1 3 -1 3 0 0 Z " fill="#D15A99" transform="translate(45,41)"/>
<path d="M0 0 C0.33 0 0.66 0 1 0 C1.95261487 4.76307437 2.08333357 9.1666528 2 14 C2.66 12.68 3.32 11.36 4 10 C4 12.97 4 15.94 4 19 C3.34 19 2.68 19 2 19 C2 18.34 2 17.68 2 17 C1.34 17 0.68 17 0 17 C0 18.32 0 19.64 0 21 C-0.66 21 -1.32 21 -2 21 C-1.01 10.605 -1.01 10.605 0 0 Z " fill="#CD63A1" transform="translate(92,73)"/>
<path d="M0 0 C1.76923828 0.01353516 1.76923828 0.01353516 3.57421875 0.02734375 C4.47785156 0.03894531 5.38148437 0.05054687 6.3125 0.0625 C6.3125 0.7225 6.3125 1.3825 6.3125 2.0625 C2.47525828 2.96663673 -1.06252274 3.16826898 -5 3.125 C-6.06863281 3.11597656 -7.13726562 3.10695313 -8.23828125 3.09765625 C-9.04652344 3.08605469 -9.85476562 3.07445313 -10.6875 3.0625 C-8.63221196 -1.04807609 -4.03316787 -0.03993236 0 0 Z " fill="#D4579F" transform="translate(73.6875,109.9375)"/>
<path d="M0 0 C-0.33 0.99 -0.66 1.98 -1 3 C-1 3.66 -1 4.32 -1 5 C-3.97 4.01 -6.94 3.02 -10 2 C-10 1.01 -10 0.02 -10 -1 C-3.375 -2.25 -3.375 -2.25 0 0 Z " fill="#C85D9C" transform="translate(14,38)"/>
<path d="M0 0 C0.66 0 1.32 0 2 0 C2.33 0.66 2.66 1.32 3 2 C5.31 2 7.62 2 10 2 C10.33 3.32 10.66 4.64 11 6 C9.125 6.625 9.125 6.625 7 7 C6.34 6.34 5.68 5.68 5 5 C3.01643517 4.28591666 1.01684563 3.61382258 -1 3 C-0.67 2.01 -0.34 1.02 0 0 Z " fill="#C25A93" transform="translate(99,39)"/>
<path d="M0 0 C0.99 0.33 1.98 0.66 3 1 C4.1875 3.5625 4.1875 3.5625 5 6 C3.02 7.32 1.04 8.64 -1 10 C-1.66 9.67 -2.32 9.34 -3 9 C-2.34 8.01 -1.68 7.02 -1 6 C-0.60986284 4.0103005 -0.26797351 2.00980131 0 0 Z " fill="#E768B7" transform="translate(85,26)"/>
<path d="M0 0 C0.66 0.33 1.32 0.66 2 1 C2 1.66 2 2.32 2 3 C4.97065509 2.65772428 4.97065509 2.65772428 8 2 C8.33 1.34 8.66 0.68 9 0 C8.75 2.375 8.75 2.375 8 5 C5.9375 6.3125 5.9375 6.3125 4 7 C2.35 5.02 0.7 3.04 -1 1 C-0.67 0.67 -0.34 0.34 0 0 Z " fill="#CB609F" transform="translate(38,66)"/>
<path d="M0 0 C1.67542976 0.28604898 3.34385343 0.61781233 5 1 C5.28875 1.94875 5.5775 2.8975 5.875 3.875 C6.76825109 7.05211578 6.76825109 7.05211578 9 9 C8.34 9 7.68 9 7 9 C6.67 9.99 6.34 10.98 6 12 C5.67 12 5.34 12 5 12 C4.81824219 11.37351562 4.63648437 10.74703125 4.44921875 10.1015625 C4.07216797 8.87566406 4.07216797 8.87566406 3.6875 7.625 C3.32205078 6.40683594 3.32205078 6.40683594 2.94921875 5.1640625 C2.08631815 2.66815371 2.08631815 2.66815371 -1 1 C-0.67 0.67 -0.34 0.34 0 0 Z " fill="#EB66B7" transform="translate(66,41)"/>
<path d="M0 0 C-0.66 3.3 -1.32 6.6 -2 10 C-2.33 10 -2.66 10 -3 10 C-3 8.35 -3 6.7 -3 5 C-5.475 6.485 -5.475 6.485 -8 8 C-5.18918919 0 -5.18918919 0 0 0 Z " fill="#D26C9E" transform="translate(98,7)"/>
<path d="M0 0 C2.10633718 1.70828921 2.93801608 2.52148416 3.29296875 5.26171875 C3.25816406 6.06222656 3.22335938 6.86273438 3.1875 7.6875 C3.16042969 8.49574219 3.13335938 9.30398437 3.10546875 10.13671875 C3.07066406 10.75160156 3.03585938 11.36648437 3 12 C2.67 11.01 2.34 10.02 2 9 C1.34 9 0.68 9 0 9 C-0.66 6.69 -1.32 4.38 -2 2 C-1.34 1.34 -0.68 0.68 0 0 Z " fill="#DF6DB0" transform="translate(26,9)"/>
<path d="M0 0 C1 2 1 2 1 5 C1.66 5.66 2.32 6.32 3 7 C1.625 9.5 1.625 9.5 0 12 C-0.66 12 -1.32 12 -2 12 C-2 3.625 -2 3.625 0 0 Z " fill="#CC60A2" transform="translate(89,99)"/>
<path d="M0 0 C0.99 0.33 1.98 0.66 3 1 C4.52160014 4.6037898 5 7.05220686 5 11 C4.34 11 3.68 11 3 11 C1.68 7.7 0.36 4.4 -1 1 C-0.67 0.67 -0.34 0.34 0 0 Z " fill="#EC67B9" transform="translate(31,72)"/>
<path d="M0 0 C2.38672669 2.96283313 4.7353371 5.94270509 7 9 C6.67 9.66 6.34 10.32 6 11 C3.09197539 8.78071806 1.04687238 7.07030857 -1 4 C-0.625 1.8125 -0.625 1.8125 0 0 Z " fill="#C95C9F" transform="translate(22,55)"/>
<path d="M0 0 C0.66 0 1.32 0 2 0 C2 1.65 2 3.3 2 5 C0.68 5.33 -0.64 5.66 -2 6 C-2.66 4.68 -3.32 3.36 -4 2 C-3.34 1.67 -2.68 1.34 -2 1 C-1.34 1.33 -0.68 1.66 0 2 C0 1.34 0 0.68 0 0 Z " fill="#C65DA2" transform="translate(84,53)"/>
<path d="M0 0 C3.80881639 1.44472346 5.29742886 3.32603071 7 7 C6.67 7.99 6.34 8.98 6 10 C5.34 10 4.68 10 4 10 C4 8.02 4 6.04 4 4 C1.525 3.01 1.525 3.01 -1 2 C-0.67 1.34 -0.34 0.68 0 0 Z " fill="#DB5EA6" transform="translate(64,41)"/>
<path d="M0 0 C0.66 0 1.32 0 2 0 C1.67 3.3 1.34 6.6 1 10 C0.01 9.67 -0.98 9.34 -2 9 C-1.34 6.03 -0.68 3.06 0 0 Z " fill="#E25EA9" transform="translate(91,95)"/>
<path d="M0 0 C0.66 0 1.32 0 2 0 C2.66 0.99 3.32 1.98 4 3 C4.99 2.67 5.98 2.34 7 2 C7.33 2.99 7.66 3.98 8 5 C7.01 5 6.02 5 5 5 C5.33 6.32 5.66 7.64 6 9 C2.91910327 6.22719294 1.31224548 3.93673644 0 0 Z " fill="#D464A8" transform="translate(36,89)"/>
<path d="M0 0 C2.75 -0.25 2.75 -0.25 6 0 C8.375 2 8.375 2 10 4 C9.67 4.99 9.34 5.98 9 7 C8.7215625 6.0409375 8.7215625 6.0409375 8.4375 5.0625 C7.05753944 2.57873787 7.05753944 2.57873787 3.375 2.25 C2.26125 2.1675 1.1475 2.085 0 2 C0 1.34 0 0.68 0 0 Z " fill="#CC63A0" transform="translate(86,46)"/>
<path d="M0 0 C2.0625 0.4375 2.0625 0.4375 4 1 C3.67 2.65 3.34 4.3 3 6 C1.35 5.67 -0.3 5.34 -2 5 C-1.125 1.125 -1.125 1.125 0 0 Z " fill="#E15FAA" transform="translate(33,26)"/>
<path d="M0 0 C3.465 1.485 3.465 1.485 7 3 C6.01 3.33 5.02 3.66 4 4 C4 4.66 4 5.32 4 6 C3.01 6 2.02 6 1 6 C0.67 6.66 0.34 7.32 0 8 C0 5.36 0 2.72 0 0 Z " fill="#DA66B5" transform="translate(83,47)"/>
<path d="M0 0 C0.99 0.66 1.98 1.32 3 2 C2.67 2.33 2.34 2.66 2 3 C2.99 3.66 3.98 4.32 5 5 C3.35 5.33 1.7 5.66 0 6 C-0.99 4.35 -1.98 2.7 -3 1 C-2.01 0.67 -1.02 0.34 0 0 Z " fill="#DB5BA7" transform="translate(14,39)"/>
<path d="M0 0 C2.64 0 5.28 0 8 0 C7.01 1.485 7.01 1.485 6 3 C2.875 3.1875 2.875 3.1875 0 3 C0 2.01 0 1.02 0 0 Z " fill="#E664B5" transform="translate(103,39)"/>
</svg>
