<?xml version="1.0" encoding="UTF-8"?>
<svg version="1.1" xmlns="http://www.w3.org/2000/svg" width="218" height="442">
<path d="M0 0 C1.77123542 3.5061998 2.2078266 6.23024718 2.0625 10.125 C1.94646122 15.81090034 2.38809447 21.35080077 3 27 C3.9075 26.9175 4.815 26.835 5.75 26.75 C9 27 9 27 10.9375 29 C11.9584375 29.99 11.9584375 29.99 13 31 C14.7015625 30.9690625 14.7015625 30.9690625 16.4375 30.9375 C20 31 20 31 22.875 33.3125 C25 36 25 36 26 39 C26.99 39.5775 27.98 40.155 29 40.75 C32 43 32 43 32.703125 46.1953125 C33.62800996 58.04844343 31.83672062 70.06291301 27.83984375 81.24609375 C26.67669229 83.92727601 26.67669229 83.92727601 28 86 C28.0969531 88.3525384 28.1297905 90.7079695 28.125 93.0625 C28.12886719 94.96708984 28.12886719 94.96708984 28.1328125 96.91015625 C28 100 28 100 27 101 C15.42130313 102.55302939 3.64089065 101.96213667 -8 101.625 C-9.16835892 101.59300507 -9.16835892 101.59300507 -10.36032104 101.56036377 C-12.59463377 101.4970861 -14.82853454 101.42601902 -17.0625 101.3515625 C-18.37347656 101.30854004 -19.68445313 101.26551758 -21.03515625 101.22119141 C-24 101 -24 101 -25 100 C-25.02650913 96.25842603 -24.97099869 92.52904079 -24.87304688 88.7890625 C-24.81054432 84.27417237 -25.1215437 81.16271152 -27 77 C-29.42981084 68.55684434 -29.4429191 60.09022626 -29.625 51.375 C-29.66330172 49.9049279 -29.70235986 48.4348753 -29.7421875 46.96484375 C-29.83607783 43.35353028 -29.90725455 39.74232087 -29.96447754 36.13024902 C-29.98831229 34.70090091 -30.01594831 33.27161151 -30.04724121 31.84240723 C-30.09125464 29.78297975 -30.12162698 27.72377702 -30.1484375 25.6640625 C-30.16825684 24.47506348 -30.18807617 23.28606445 -30.20849609 22.06103516 C-30.00365813 19.05370683 -29.69533601 17.4583426 -28 15 C-24.72942857 12.81961905 -23.79480531 12.36753245 -20 13 C-18.29003356 14.62221156 -16.61862561 16.28663878 -15 18 C-14.73445313 16.87980469 -14.46890625 15.75960938 -14.1953125 14.60546875 C-13.83885504 13.13273662 -13.48206692 11.66008449 -13.125 10.1875 C-12.86396484 9.08051758 -12.86396484 9.08051758 -12.59765625 7.95117188 C-11.75507489 4.50282963 -10.98714425 1.98071638 -9 -1 C-5.52931854 -2.55582272 -3.22575756 -1.86754385 0 0 Z M-7 6 C-9.1823882 8.1823882 -8.47681908 13.03019214 -8.625 16.0625 C-8.67003662 16.95614258 -8.71507324 17.84978516 -8.76147461 18.77050781 C-9.1093698 26.91458239 -8.73668999 34.88507637 -8 43 C-6.35 43.33 -4.7 43.66 -3 44 C-2.95023046 39.85572898 -2.91410712 35.71162047 -2.89013672 31.56713867 C-2.88013443 30.15988124 -2.86652822 28.7526443 -2.84912109 27.34545898 C-2.82461634 25.31228552 -2.81345917 23.27938894 -2.8046875 21.24609375 C-2.78897705 19.41582642 -2.78897705 19.41582642 -2.77294922 17.54858398 C-3.01562828 13.75574513 -3.72060028 10.5751896 -5 7 C-5.66 6.67 -6.32 6.34 -7 6 Z M-24 19 C-25.0161692 23.62921525 -24.83796731 27.34462607 -24 32 C-23.67 32 -23.34 32 -23 32 C-23 30.35 -23 28.7 -23 27 C-22.34 27 -21.68 27 -21 27 C-21 24.69 -21 22.38 -21 20 C-21.99 19.67 -22.98 19.34 -24 19 Z M-14 23 C-14 26.3 -14 29.6 -14 33 C-13.67 33 -13.34 33 -13 33 C-13 29.7 -13 26.4 -13 23 C-13.33 23 -13.66 23 -14 23 Z M5 32 C2.97441119 35.34939881 2.78261013 37.86962551 2.875 41.75 C2.89304688 42.73484375 2.91109375 43.7196875 2.9296875 44.734375 C2.95289063 45.48203125 2.97609375 46.2296875 3 47 C4.98 47.66 6.96 48.32 9 49 C9 43.72 9 38.44 9 33 C7.68 32.67 6.36 32.34 5 32 Z M-24 33 C-24.09997246 37.64064472 -24.17197966 42.28064272 -24.21972656 46.92211914 C-24.23966084 48.49612365 -24.26681871 50.07005589 -24.30175781 51.64379883 C-24.5371625 62.5312654 -24.17472661 72.2681415 -17.8125 81.625 C-13.94076898 84.89446175 -10.93952777 84.97613755 -6 85 C-4.72189453 85.02126953 -4.72189453 85.02126953 -3.41796875 85.04296875 C-1.2786642 85.05981367 0.8608986 85.03395399 3 85 C2.96570697 77.59270542 0.8950434 73.46365955 -4 68 C-4.680625 67.195625 -5.36125 66.39125 -6.0625 65.5625 C-8.35630819 63.71265469 -10.09990162 63.32223315 -13 63 C-13.061875 62.401875 -13.12375 61.80375 -13.1875 61.1875 C-14.3236757 58.12856542 -16.17330142 57.44958901 -19 56 C-18.54657425 53.35501649 -18.0808547 51.16170941 -16.875 48.75 C-15.71499514 45.10427043 -16.41068095 42.85933024 -17.375 39.1875 C-17.67148437 38.02605469 -17.96796875 36.86460938 -18.2734375 35.66796875 C-18.51320313 34.78753906 -18.75296875 33.90710937 -19 33 C-20.65 33 -22.3 33 -24 33 Z M17 36 C15.63467451 37.13701597 15.63467451 37.13701597 15.90234375 40.16015625 C15.91394531 41.44792969 15.92554688 42.73570313 15.9375 44.0625 C15.94652344 45.35285156 15.95554688 46.64320312 15.96484375 47.97265625 C15.97644531 48.97167969 15.98804688 49.97070312 16 51 C16.99 51 17.98 51 19 51 C19.33 46.71 19.66 42.42 20 38 C19.01 37.34 18.02 36.68 17 36 Z M26 47 C24.16308743 50.78187881 23.84162374 52.94568308 25 57 C25.66 56.67 26.32 56.34 27 56 C27.46523063 54.10466658 27.46523063 54.10466658 27.625 51.9375 C27.74875 50.638125 27.8725 49.33875 28 48 C27.34 47.67 26.68 47.34 26 47 Z M-12 48 C-14.5547002 51.23112508 -14.5547002 51.23112508 -14 57 C-5.585 56.505 -5.585 56.505 3 56 C3.33 55.34 3.66 54.68 4 54 C-1.36812782 50.13095043 -5.36501601 48.35544557 -12 48 Z M-1 63 C-0.40251953 63.76570313 -0.40251953 63.76570313 0.20703125 64.546875 C4.69926594 70.71140143 6.5630861 76.55073585 8 84 C15.03502805 84.64947583 15.03502805 84.64947583 21.5 82.5 C25.38016969 76.03305051 26.469791 70.51665602 26 63 C17.77558593 57.57538646 6.77686285 55.22313715 -1 63 Z " fill="#D167A8" transform="translate(54,6)"/>
<path d="M0 0 C3.56330162 1.45985485 5.32184716 3.32103963 7.625 6.375 C8.21539062 7.14585938 8.80578125 7.91671875 9.4140625 8.7109375 C10.83055462 10.75543106 11.96037553 12.74576476 13 15 C12.07873291 11.88186522 11.31139566 9.40366104 9.3125 6.8125 C8.879375 6.214375 8.44625 5.61625 8 5 C8.33 4.01 8.66 3.02 9 2 C13.87054378 8.89227893 17.41552982 14.27387385 17 23 C18.77174819 22.91276622 20.54247377 22.80458345 22.3125 22.6875 C23.29863281 22.62949219 24.28476563 22.57148437 25.30078125 22.51171875 C28.31922812 21.93948063 29.20414981 21.43762737 31 19 C33.42946843 14.2241219 34.44907742 9.28885674 35 4 C35.66 4 36.32 4 37 4 C36.5464821 11.02952752 34.87940913 16.5849443 32 23 C33.32 21.68 34.64 20.36 36 19 C36.86860031 23.48776828 37.13464852 27.74392767 37.125 32.3125 C37.12886719 34.16294922 37.12886719 34.16294922 37.1328125 36.05078125 C37 39 37 39 36 40 C24.42130313 41.55302939 12.64089065 40.96213667 1 40.625 C-0.16835892 40.59300507 -0.16835892 40.59300507 -1.36032104 40.56036377 C-3.59463377 40.4970861 -5.82853454 40.42601902 -8.0625 40.3515625 C-10.02896484 40.28702881 -10.02896484 40.28702881 -12.03515625 40.22119141 C-15 40 -15 40 -16 39 C-16.02650913 35.25842603 -15.97099869 31.52904079 -15.87304688 27.7890625 C-15.81096518 23.30457295 -16.07462168 20.12581068 -18 16 C-18.42148875 14.07207923 -18.79676438 12.1334683 -19.125 10.1875 C-19.29257812 9.21167969 -19.46015625 8.23585938 -19.6328125 7.23046875 C-19.81457031 6.12638672 -19.81457031 6.12638672 -20 5 C-19.01 5 -18.02 5 -17 5 C-16.80664062 5.84304687 -16.61328125 6.68609375 -16.4140625 7.5546875 C-16.15367188 8.65039062 -15.89328125 9.74609375 -15.625 10.875 C-15.36976562 11.96554688 -15.11453125 13.05609375 -14.8515625 14.1796875 C-14.21093785 17.10408455 -14.21093785 17.10408455 -12 19 C-12.66 18.01 -13.32 17.02 -14 16 C-14.125 13.3125 -14.125 13.3125 -14 11 C-11.51112616 14.23553599 -9.26366839 17.60449741 -7 21 C-5.5000589 22.4999411 -4.05340395 22.31607651 -1.96484375 22.53515625 C-1.15595703 22.62216797 -0.34707031 22.70917969 0.48632812 22.79882812 C1.33646484 22.88583984 2.18660156 22.97285156 3.0625 23.0625 C3.91650391 23.15337891 4.77050781 23.24425781 5.65039062 23.33789062 C7.76651535 23.56250722 9.88320894 23.78175227 12 24 C10.71366702 15.4793123 7.2854047 9.87513024 1 4 C0.01 3.34 -0.98 2.68 -2 2 C-1.34 2 -0.68 2 0 2 C0 1.34 0 0.68 0 0 Z " fill="#C15896" transform="translate(45,67)"/>
<path d="M0 0 C1.77123542 3.5061998 2.2078266 6.23024718 2.0625 10.125 C1.94646122 15.81090034 2.38809447 21.35080077 3 27 C3.9075 26.9175 4.815 26.835 5.75 26.75 C9 27 9 27 10.9375 29 C11.9584375 29.99 11.9584375 29.99 13 31 C14.7015625 30.9690625 14.7015625 30.9690625 16.4375 30.9375 C20 31 20 31 22.875 33.3125 C25 36 25 36 26 39 C26.99 39.5775 27.98 40.155 29 40.75 C32 43 32 43 33 46.5 C33 50.05881892 32.62788642 51.01554156 31 54 C30.52611066 56.66305206 30.26949138 59.3050862 30 62 C29.34 61.34 28.68 60.68 28 60 C27.01 60.33 26.02 60.66 25 61 C24.34 60.34 23.68 59.68 23 59 C23.804375 58.79375 24.60875 58.5875 25.4375 58.375 C26.283125 57.92125 27.12875 57.4675 28 57 C28.89830839 53.94727535 28.89830839 53.94727535 29 51 C28.01 50.505 28.01 50.505 27 50 C27.66 50 28.32 50 29 50 C29 48.35 29 46.7 29 45 C27.68 44.67 26.36 44.34 25 44 C24.34 46.64 23.68 49.28 23 52 C22.34 52 21.68 52 21 52 C21.33 47.05 21.66 42.1 22 37 C20.02 37 18.04 37 16 37 C15.34 37 14.68 37 14 37 C14.05220703 38.91425781 14.05220703 38.91425781 14.10546875 40.8671875 C14.13360231 42.53644521 14.16090293 44.2057171 14.1875 45.875 C14.21263672 46.71675781 14.23777344 47.55851562 14.26367188 48.42578125 C14.27333984 49.23144531 14.28300781 50.03710938 14.29296875 50.8671875 C14.3086792 51.61081543 14.32438965 52.35444336 14.34057617 53.12060547 C14.17199097 54.05090576 14.17199097 54.05090576 14 55 C10.81237635 57.12508244 8.73487777 57.5020163 5 58 C6 56 6 56 7 55 C6.67 54.01 6.34 53.02 6 52 C3.27576536 50.83893251 3.27576536 50.83893251 0 50 C-2.22957354 49.37645299 -4.45873626 48.75143534 -6.6875 48.125 C-7.80511719 47.81820312 -8.92273438 47.51140625 -10.07421875 47.1953125 C-13.33806383 45.8618858 -14.38428403 45.09723627 -16 42 C-16.6953125 39.08203125 -16.6953125 39.08203125 -17.125 35.8125 C-17.28355469 34.66652344 -17.44210938 33.52054688 -17.60546875 32.33984375 C-17.93871685 29.51878307 -18.2004943 26.70512694 -18.4375 23.875 C-19.03215649 19.77847752 -19.26301301 19.58371572 -22 17 C-22 16.34 -22 15.68 -22 15 C-18 15 -18 15 -16.25 16.5 C-15.8375 16.995 -15.425 17.49 -15 18 C-14.73445313 16.87980469 -14.46890625 15.75960938 -14.1953125 14.60546875 C-13.83885504 13.13273662 -13.48206692 11.66008449 -13.125 10.1875 C-12.95097656 9.44951172 -12.77695312 8.71152344 -12.59765625 7.95117188 C-11.75507489 4.50282963 -10.98714425 1.98071638 -9 -1 C-5.52931854 -2.55582272 -3.22575756 -1.86754385 0 0 Z M-7 6 C-9.1823882 8.1823882 -8.47681908 13.03019214 -8.625 16.0625 C-8.67003662 16.95614258 -8.71507324 17.84978516 -8.76147461 18.77050781 C-9.1093698 26.91458239 -8.73668999 34.88507637 -8 43 C-6.35 43.33 -4.7 43.66 -3 44 C-2.95023046 39.85572898 -2.91410712 35.71162047 -2.89013672 31.56713867 C-2.88013443 30.15988124 -2.86652822 28.7526443 -2.84912109 27.34545898 C-2.82461634 25.31228552 -2.81345917 23.27938894 -2.8046875 21.24609375 C-2.78897705 19.41582642 -2.78897705 19.41582642 -2.77294922 17.54858398 C-3.01562828 13.75574513 -3.72060028 10.5751896 -5 7 C-5.66 6.67 -6.32 6.34 -7 6 Z M-14 23 C-14 26.3 -14 29.6 -14 33 C-13.67 33 -13.34 33 -13 33 C-13 29.7 -13 26.4 -13 23 C-13.33 23 -13.66 23 -14 23 Z M5 32 C2.97441119 35.34939881 2.78261013 37.86962551 2.875 41.75 C2.89304687 42.73484375 2.91109375 43.7196875 2.9296875 44.734375 C2.95289062 45.48203125 2.97609375 46.2296875 3 47 C4.98 47.66 6.96 48.32 9 49 C9 43.72 9 38.44 9 33 C7.68 32.67 6.36 32.34 5 32 Z " fill="#E46AB4" transform="translate(54,6)"/>
<path d="M0 0 C0.54398438 0.31839844 1.08796875 0.63679688 1.6484375 0.96484375 C4.39414454 2.17350217 6.6381293 2.37330469 9.625 2.5625 C14.80555556 2.90277778 14.80555556 2.90277778 17 4 C16.67 6.64 16.34 9.28 16 12 C16.99 12 17.98 12 19 12 C19.103125 11.360625 19.20625 10.72125 19.3125 10.0625 C19.6528125 9.0415625 19.6528125 9.0415625 20 8 C20.99 7.67 21.98 7.34 23 7 C23.66 9.64 24.32 12.28 25 15 C26.65 15 28.3 15 30 15 C29.34 14.01 28.68 13.02 28 12 C27.875 9.3125 27.875 9.3125 28 7 C28.66 7 29.32 7 30 7 C30 8.65 30 10.3 30 12 C30.66 12 31.32 12 32 12 C32.495 13.485 32.495 13.485 33 15 C35.01508358 15.73323796 35.01508358 15.73323796 37 16 C37 14.68 37 13.36 37 12 C36.34 12 35.68 12 35 12 C35 10.35 35 8.7 35 7 C34.67 7.99 34.34 8.98 34 10 C33.34 10 32.68 10 32 10 C32 8.35 32 6.7 32 5 C27.38 5 22.76 5 18 5 C18 4.67 18 4.34 18 4 C27.01824887 2.93003827 35.93664124 2.89765341 45 3 C45 4.65 45 6.3 45 8 C44.34 7.01 43.68 6.02 43 5 C40.41619823 4.74969023 40.41619823 4.74969023 38 5 C38.495 5.391875 38.99 5.78375 39.5 6.1875 C41.45593143 8.55091715 41.24207973 10.01435003 41 13 C41.99 13 42.98 13 44 13 C44.495 14.98 44.495 14.98 45 17 C38.34310718 17.02529589 31.6862267 17.04284396 25.02929688 17.05493164 C22.76334164 17.05996926 20.49738967 17.06679952 18.23144531 17.07543945 C14.97980953 17.08752996 11.72821661 17.09323392 8.4765625 17.09765625 C6.94994492 17.10539818 6.94994492 17.10539818 5.39248657 17.11329651 C3.98125015 17.11340981 3.98125015 17.11340981 2.54150391 17.11352539 C1.29574081 17.11685631 1.29574081 17.11685631 0.02481079 17.12025452 C-2 17 -2 17 -4 16 C-4.02705729 14.22925083 -4.04642195 12.45838289 -4.0625 10.6875 C-4.07410156 9.70136719 -4.08570312 8.71523437 -4.09765625 7.69921875 C-4 5 -4 5 -3 2 C-2.01 2 -1.02 2 0 2 C0 1.34 0 0.68 0 0 Z " fill="#DE65AB" transform="translate(35,89)"/>
<path d="M0 0 C0.99 0.66 1.98 1.32 3 2 C3.51171875 4.6015625 3.51171875 4.6015625 3.6875 7.625 C3.78611328 9.12933594 3.78611328 9.12933594 3.88671875 10.6640625 C3.92410156 11.43492188 3.96148437 12.20578125 4 13 C4.9075 12.9175 5.815 12.835 6.75 12.75 C10 13 10 13 11.9375 15 C12.9584375 15.99 12.9584375 15.99 14 17 C15.134375 16.979375 16.26875 16.95875 17.4375 16.9375 C21 17 21 17 23.875 19.3125 C26 22 26 22 27 25 C27.99 25.5775 28.98 26.155 30 26.75 C33 29 33 29 34 32.5 C34 36.05881892 33.62788642 37.01554156 32 40 C31.52611066 42.66305206 31.26949138 45.3050862 31 48 C30.34 47.34 29.68 46.68 29 46 C28.01 46.33 27.02 46.66 26 47 C25.34 46.34 24.68 45.68 24 45 C24.804375 44.79375 25.60875 44.5875 26.4375 44.375 C27.283125 43.92125 28.12875 43.4675 29 43 C29.89830839 39.94727535 29.89830839 39.94727535 30 37 C29.01 36.505 29.01 36.505 28 36 C28.66 36 29.32 36 30 36 C30 34.35 30 32.7 30 31 C28.68 30.67 27.36 30.34 26 30 C25.34 32.64 24.68 35.28 24 38 C23.34 38 22.68 38 22 38 C22.33 33.05 22.66 28.1 23 23 C21.02 23 19.04 23 17 23 C16.34 23 15.68 23 15 23 C15.05220703 24.91425781 15.05220703 24.91425781 15.10546875 26.8671875 C15.13360231 28.53644521 15.16090293 30.2057171 15.1875 31.875 C15.21263672 32.71675781 15.23777344 33.55851562 15.26367188 34.42578125 C15.27333984 35.23144531 15.28300781 36.03710938 15.29296875 36.8671875 C15.3086792 37.61081543 15.32438965 38.35444336 15.34057617 39.12060547 C15.22818604 39.74080566 15.1157959 40.36100586 15 41 C11.81237635 43.12508244 9.73487777 43.5020163 6 44 C7 42 7 42 8 41 C7.67 40.01 7.34 39.02 7 38 C4.28120083 36.85632185 4.28120083 36.85632185 1 36 C-0.69769531 35.47019531 -0.69769531 35.47019531 -2.4296875 34.9296875 C-4.13511719 34.40761719 -4.13511719 34.40761719 -5.875 33.875 C-7.60363281 33.34519531 -7.60363281 33.34519531 -9.3671875 32.8046875 C-10.23601563 32.53914063 -11.10484375 32.27359375 -12 32 C-12 31.67 -12 31.34 -12 31 C3.20689655 32.20689655 3.20689655 32.20689655 7 36 C9.38392117 34.06029948 9.38392117 34.06029948 9.1953125 30.5234375 C9.18201493 29.14049032 9.15816232 27.75761346 9.125 26.375 C9.11597656 25.66859375 9.10695313 24.9621875 9.09765625 24.234375 C9.07407603 22.48943902 9.03820461 20.74467705 9 19 C8.01 19 7.02 19 6 19 C5.67 19.99 5.34 20.98 5 22 C4.01 22 3.02 22 2 22 C2 25.63 2 29.26 2 33 C-0.45286296 29.32070555 -0.23228878 27.52622093 -0.1953125 23.14453125 C-0.1924826 22.48289474 -0.18965271 21.82125824 -0.18673706 21.13957214 C-0.17555918 19.03036263 -0.15045981 16.92158075 -0.125 14.8125 C-0.11496707 13.38086552 -0.10584176 11.94922436 -0.09765625 10.51757812 C-0.07562795 7.01158023 -0.04111485 3.50583187 0 0 Z " fill="#CB6BA8" transform="translate(53,20)"/>
<path d="M0 0 C0.99 0 1.98 0 3 0 C3.66 5.94 4.32 11.88 5 18 C5.33 18 5.66 18 6 18 C7.07554417 35.28553137 7.07554417 35.28553137 7 42.5 C6.58915091 52.97471245 6.58915091 52.97471245 11 62 C10.67 62.66 10.34 63.32 10 64 C5.88197696 59.47017465 4.13608534 55.19800555 3.875 49.0625 C3.91625 48.381875 3.9575 47.70125 4 47 C3.01 47 2.02 47 1 47 C0.85436989 42.71746778 0.7121456 38.43483835 0.57275391 34.15209961 C0.5251326 32.70252612 0.47666321 31.25298018 0.42724609 29.8034668 C0.089145 19.86398469 -0.06509273 9.94562596 0 0 Z " fill="#DA6FAB" transform="translate(24,25)"/>
<path d="M0 0 C0 1.65 0 3.3 0 5 C-0.66 4.01 -1.32 3.02 -2 2 C-4.58380177 1.74969023 -4.58380177 1.74969023 -7 2 C-6.505 2.391875 -6.01 2.78375 -5.5 3.1875 C-3.54406857 5.55091715 -3.75792027 7.01435003 -4 10 C-3.01 10 -2.02 10 -1 10 C-0.505 11.98 -0.505 11.98 0 14 C-13.2 14 -26.4 14 -40 14 C-40 13.01 -40 12.02 -40 11 C-39.34 11.33 -38.68 11.66 -38 12 C-36.2595583 12.08449628 -34.51590278 12.10723024 -32.7734375 12.09765625 C-31.2265625 12.09282227 -31.2265625 12.09282227 -29.6484375 12.08789062 C-28.56820312 12.07951172 -27.48796875 12.07113281 -26.375 12.0625 C-25.28703125 12.05798828 -24.1990625 12.05347656 -23.078125 12.04882812 C-20.38536211 12.03701776 -17.69270812 12.02054778 -15 12 C-15.66 11.01 -16.32 10.02 -17 9 C-17.125 6.3125 -17.125 6.3125 -17 4 C-16.34 4 -15.68 4 -15 4 C-15 5.65 -15 7.3 -15 9 C-14.34 9 -13.68 9 -13 9 C-12.67 9.99 -12.34 10.98 -12 12 C-9.98491642 12.73323796 -9.98491642 12.73323796 -8 13 C-8 11.68 -8 10.36 -8 9 C-8.66 9 -9.32 9 -10 9 C-10 7.35 -10 5.7 -10 4 C-10.33 4.99 -10.66 5.98 -11 7 C-11.66 7 -12.32 7 -13 7 C-13 5.35 -13 3.7 -13 2 C-17.62 2 -22.24 2 -27 2 C-27 1.67 -27 1.34 -27 1 C-17.98175113 -0.06996173 -9.06335876 -0.10234659 0 0 Z " fill="#DB67AA" transform="translate(80,92)"/>
<path d="M0 0 C0.33 0 0.66 0 1 0 C1.66 9.24 2.32 18.48 3 28 C3.33 25.36 3.66 22.72 4 20 C4.66 20 5.32 20 6 20 C6 23.63 6 27.26 6 31 C7.32 31.33 8.64 31.66 10 32 C9.67 32.99 9.34 33.98 9 35 C8.67 34.34 8.34 33.68 8 33 C6.17177803 32.34626641 6.17177803 32.34626641 3.96484375 31.9296875 C2.75151367 31.66865234 2.75151367 31.66865234 1.51367188 31.40234375 C0.2384668 31.14130859 0.2384668 31.14130859 -1.0625 30.875 C-1.91650391 30.69324219 -2.77050781 30.51148437 -3.65039062 30.32421875 C-5.76533296 29.87523658 -7.88247647 29.43664649 -10 29 C-10.33 27.68 -10.66 26.36 -11 25 C-10.34 24.67 -9.68 24.34 -9 24 C-9 24.99 -9 25.98 -9 27 C-8.34 27 -7.68 27 -7 27 C-7 22.71 -7 18.42 -7 14 C-6.34 13.67 -5.68 13.34 -5 13 C-5 17.62 -5 22.24 -5 27 C-3.35 27.33 -1.7 27.66 0 28 C0 18.76 0 9.52 0 0 Z " fill="#C969A3" transform="translate(51,22)"/>
<path d="M0 0 C3.16115776 1.36983503 3.9927092 1.9890638 6 5 C6.33313182 7.83794579 6.44108295 10.64953096 6.55859375 13.50390625 C6.70425781 14.32761719 6.84992187 15.15132812 7 16 C7.99 16.66 8.98 17.32 10 18 C9.95875 17.05125 9.9175 16.1025 9.875 15.125 C10 12 10 12 12 10 C13.0625 11.875 13.0625 11.875 14 14 C13.67 14.66 13.34 15.32 13 16 C13 18.00783952 13.00204815 20.01581034 13.03125 22.0234375 C12.99772102 24.14414565 12.67089655 25.98731036 12 28 C11 28 10 28 9 28 C8.67 28.66 8.34 29.32 8 30 C4.92794608 23.75571649 4.31448638 18.19569388 3.828125 11.3203125 C3.76109375 10.54945312 3.6940625 9.77859375 3.625 8.984375 C3.55152344 7.94361816 3.55152344 7.94361816 3.4765625 6.88183594 C2.87980836 4.52539079 1.74130452 3.64003882 0 2 C0 1.34 0 0.68 0 0 Z " fill="#D960AF" transform="translate(32,21)"/>
<path d="M0 0 C0.66 1.32 1.32 2.64 2 4 C1.030625 3.814375 0.06125 3.62875 -0.9375 3.4375 C-1.948125 3.293125 -2.95875 3.14875 -4 3 C-4.33 3.33 -4.66 3.66 -5 4 C-2.525 4.99 -2.525 4.99 0 6 C0.08333357 10.8333472 -0.04738513 15.23692563 -1 20 C-1.99 20 -2.98 20 -4 20 C-4.33 24.29 -4.66 28.58 -5 33 C-5.33 33 -5.66 33 -6 33 C-6.75741925 23.97859571 -7.13534286 15.05293337 -7 6 C-7.66 6 -8.32 6 -9 6 C-8.6875 4.125 -8.6875 4.125 -8 2 C-4.77208445 -0.1519437 -3.71599191 -0.20086443 0 0 Z M-4 6 C-5.0161692 10.62921525 -4.83796731 14.34462607 -4 19 C-3.67 19 -3.34 19 -3 19 C-3 17.35 -3 15.7 -3 14 C-2.34 14 -1.68 14 -1 14 C-1 11.69 -1 9.38 -1 7 C-1.99 6.67 -2.98 6.34 -4 6 Z " fill="#C36298" transform="translate(34,19)"/>
<path d="M0 0 C4.62 0 9.24 0 14 0 C12 2 12 2 9 4 C9.35855766 7.76485548 9.89208651 9.84303493 12.0625 13 C14.23574573 16.36502565 14.37330023 18.08034762 14 22 C13.71769531 21.41992188 13.43539062 20.83984375 13.14453125 20.2421875 C8.10475889 10.21294375 8.10475889 10.21294375 0 3 C0 3.66 0 4.32 0 5 C-1.32 5.33 -2.64 5.66 -4 6 C-4 4.35 -4 2.7 -4 1 C-2.68 1.33 -1.36 1.66 0 2 C0 1.34 0 0.68 0 0 Z " fill="#E471B6" transform="translate(45,64)"/>
<path d="M0 0 C0.99 0.99 1.98 1.98 3 3 C3.33 2.34 3.66 1.68 4 1 C4.66 1 5.32 1 6 1 C6.33 2.65 6.66 4.3 7 6 C7.66 5.67 8.32 5.34 9 5 C9 6.98 9 8.96 9 11 C8.01 11.495 8.01 11.495 7 12 C6.34227572 15.02934491 6.34227572 15.02934491 6 18 C4.04296875 17.3671875 4.04296875 17.3671875 2 16 C1.42578125 13.3203125 1.42578125 13.3203125 1.3125 10.125 C1.16101241 6.60183137 1.00710136 3.38975579 0 0 Z " fill="#CA65A4" transform="translate(36,21)"/>
<path d="M0 0 C0.66 0 1.32 0 2 0 C2 1.65 2 3.3 2 5 C2.66 5 3.32 5 4 5 C4.33 5.99 4.66 6.98 5 8 C7.97 8.33 10.94 8.66 14 9 C14 9.33 14 9.66 14 10 C1.79 10 -10.42 10 -23 10 C-23 9.01 -23 8.02 -23 7 C-22.34 7.33 -21.68 7.66 -21 8 C-19.2595583 8.08449628 -17.51590278 8.10723024 -15.7734375 8.09765625 C-14.2265625 8.09282227 -14.2265625 8.09282227 -12.6484375 8.08789062 C-11.56820312 8.07951172 -10.48796875 8.07113281 -9.375 8.0625 C-8.28703125 8.05798828 -7.1990625 8.05347656 -6.078125 8.04882812 C-3.38536211 8.03701776 -0.69270812 8.02054778 2 8 C1.34 7.01 0.68 6.02 0 5 C-0.125 2.3125 -0.125 2.3125 0 0 Z " fill="#E371BC" transform="translate(63,96)"/>
<path d="M0 0 C15.20689655 1.20689655 15.20689655 1.20689655 19 5 C19.66 4.34 20.32 3.68 21 3 C22.4606285 5.64738916 23 6.89448334 23 10 C23.99 10.33 24.98 10.66 26 11 C24.02253397 11.73080266 22.01927511 12.39421747 20 13 C19.34 12.67 18.68 12.34 18 12 C18.99 11.67 19.98 11.34 21 11 C20.34 10.67 19.68 10.34 19 10 C19 9.01 19 8.02 19 7 C14.72730289 5.55845173 10.43675971 4.19492644 6.125 2.875 C4.97257812 2.52179687 3.82015625 2.16859375 2.6328125 1.8046875 C1.76398437 1.53914063 0.89515625 1.27359375 0 1 C0 0.67 0 0.34 0 0 Z " fill="#F17BC2" transform="translate(41,51)"/>
<path d="M0 0 C2.64 0 5.28 0 8 0 C8 1.65 8 3.3 8 5 C7.01 5.33 6.02 5.66 5 6 C4.01 5.01 3.02 4.02 2 3 C2 4.65 2 6.3 2 8 C2.66 8 3.32 8 4 8 C4 9.32 4 10.64 4 12 C2.35 11.67 0.7 11.34 -1 11 C-1.0270043 9.54176788 -1.04639787 8.08339325 -1.0625 6.625 C-1.07410156 5.81289062 -1.08570313 5.00078125 -1.09765625 4.1640625 C-1 2 -1 2 0 0 Z " fill="#C85196" transform="translate(35,93)"/>
<path d="M0 0 C2.72306098 4.27909582 2.19183406 9.1082315 2 14 C-0.30010876 11.69989124 -0.45884754 10.62478923 -1.0625 7.5 C-1.71952131 4.14540186 -1.71952131 4.14540186 -3 1 C-5.43717258 1.27034634 -5.43717258 1.27034634 -8 2 C-10.00293347 5.00440021 -10.49271626 6.70993945 -11.125 10.1875 C-11.29257812 11.08855469 -11.46015625 11.98960938 -11.6328125 12.91796875 C-11.75398438 13.60503906 -11.87515625 14.29210937 -12 15 C-12.33 15 -12.66 15 -13 15 C-12.37801609 2.75335121 -12.37801609 2.75335121 -9 -1 C-5.61025353 -2.69487324 -3.18832018 -1.84586958 0 0 Z " fill="#C56D9D" transform="translate(54,6)"/>
<path d="M0 0 C0.33 0 0.66 0 1 0 C1.06058594 1.13179687 1.12117188 2.26359375 1.18359375 3.4296875 C1.26799917 4.91147145 1.35264717 6.3932416 1.4375 7.875 C1.47681641 8.62136719 1.51613281 9.36773437 1.55664062 10.13671875 C1.71573624 14.19986864 1.71573624 14.19986864 3 18 C1.0625 18.5625 1.0625 18.5625 -1 19 C-3.04266429 16.95733571 -2.18507944 12.86308566 -2.1875 10.0625 C-2.19974609 9.32064453 -2.21199219 8.57878906 -2.22460938 7.81445312 C-2.22988478 5.87486371 -2.12188902 3.9357629 -2 2 C-1.34 1.34 -0.68 0.68 0 0 Z " fill="#C0569A" transform="translate(69,41)"/>
<path d="M0 0 C3.16115776 1.36983503 3.9927092 1.9890638 6 5 C6.39477539 7.02124023 6.39477539 7.02124023 6.59765625 9.30859375 C6.67693359 10.13810547 6.75621094 10.96761719 6.83789062 11.82226562 C6.91201172 12.68529297 6.98613281 13.54832031 7.0625 14.4375 C7.21747325 16.1447673 7.37493844 17.85181064 7.53515625 19.55859375 C7.600979 20.31454834 7.66680176 21.07050293 7.73461914 21.84936523 C7.94986414 24.02101729 7.94986414 24.02101729 8.59155273 26.15258789 C9 28 9 28 8 30 C4.92794608 23.75571649 4.31448638 18.19569388 3.828125 11.3203125 C3.76109375 10.54945312 3.6940625 9.77859375 3.625 8.984375 C3.55152344 7.94361816 3.55152344 7.94361816 3.4765625 6.88183594 C2.87980836 4.52539079 1.74130452 3.64003882 0 2 C0 1.34 0 0.68 0 0 Z " fill="#EE70BD" transform="translate(32,21)"/>
<path d="M0 0 C0.66 0 1.32 0 2 0 C2.04898437 0.98742188 2.09796875 1.97484375 2.1484375 2.9921875 C2.22320313 4.27351563 2.29796875 5.55484375 2.375 6.875 C2.44460937 8.15117188 2.51421875 9.42734375 2.5859375 10.7421875 C2.67241106 14.08061699 2.67241106 14.08061699 5 16 C4.979375 16.78375 4.95875 17.5675 4.9375 18.375 C5.01306693 21.54881118 5.930512 22.671826 8 25 C7.67 25.66 7.34 26.32 7 27 C2.88197696 22.47017465 1.13608534 18.19800555 0.875 12.0625 C0.91625 11.381875 0.9575 10.70125 1 10 C0.01 10 -0.98 10 -2 10 C-2 9.34 -2 8.68 -2 8 C-1.34 8 -0.68 8 0 8 C0 5.36 0 2.72 0 0 Z " fill="#F271BE" transform="translate(27,62)"/>
<path d="M0 0 C0.99 0 1.98 0 3 0 C3.17015625 0.80824219 3.3403125 1.61648437 3.515625 2.44921875 C5.29762287 10.42674494 5.29762287 10.42674494 10 17 C10 17.66 10 18.32 10 19 C8.68 19 7.36 19 6 19 C2.46468022 12.75426838 0.99055639 7.09029841 0 0 Z " fill="#C468A4" transform="translate(25,72)"/>
<path d="M0 0 C0.33 0 0.66 0 1 0 C1 5.61 1 11.22 1 17 C1.99 16.67 2.98 16.34 4 16 C3.84660156 16.52078125 3.69320312 17.0415625 3.53515625 17.578125 C2.86017489 20.63278515 2.65588882 23.63015971 2.4375 26.75 C2.35371094 27.92046875 2.26992188 29.0909375 2.18359375 30.296875 C2.12300781 31.18890625 2.06242187 32.0809375 2 33 C-0.45286296 29.32070555 -0.23228878 27.52622093 -0.1953125 23.14453125 C-0.1924826 22.48289474 -0.18965271 21.82125824 -0.18673706 21.13957214 C-0.17555918 19.03036263 -0.15045981 16.92158075 -0.125 14.8125 C-0.11496707 13.38086552 -0.10584176 11.94922436 -0.09765625 10.51757812 C-0.07562795 7.01158023 -0.04111485 3.50583187 0 0 Z " fill="#F57DC9" transform="translate(53,20)"/>
<path d="M0 0 C0.33 0.99 0.66 1.98 1 3 C1.66 3 2.32 3 3 3 C3 5.97 3 8.94 3 12 C2.34 11.67 1.68 11.34 1 11 C0.26924352 8.6859378 -0.40138258 6.35171131 -1 4 C-1.33 4 -1.66 4 -2 4 C-2.33 7.63 -2.66 11.26 -3 15 C-3.66 14.67 -4.32 14.34 -5 14 C-5.08121924 12.39667209 -5.13929134 10.79215974 -5.1875 9.1875 C-5.22230469 8.29417969 -5.25710937 7.40085937 -5.29296875 6.48046875 C-4.95081002 3.58352485 -4.24606427 2.77444972 -2 1 C-1.34 1.33 -0.68 1.66 0 2 C0 1.34 0 0.68 0 0 Z " fill="#C8639D" transform="translate(49,9)"/>
<path d="M0 0 C3.56330162 1.45985485 5.32184716 3.32103963 7.625 6.375 C8.51058594 7.53128906 8.51058594 7.53128906 9.4140625 8.7109375 C13.14956982 14.10258107 13.14956982 14.10258107 12.625 17.25 C12.41875 17.8275 12.2125 18.405 12 19 C11.62488281 18.33613281 11.24976563 17.67226562 10.86328125 16.98828125 C7.22794695 10.7157271 4.08990124 6.05993416 -2 2 C-1.34 2 -0.68 2 0 2 C0 1.34 0 0.68 0 0 Z " fill="#CC6CAA" transform="translate(45,67)"/>
<path d="M0 0 C1.875 0.1875 1.875 0.1875 4 1 C5.52164099 3.89111788 6 5.71823412 6 9 C7.32 9.33 8.64 9.66 10 10 C9.01 10.33 8.02 10.66 7 11 C6.19787372 12.87387216 6.19787372 12.87387216 5.8125 15.0625 C5.65394531 15.79597656 5.49539062 16.52945313 5.33203125 17.28515625 C5.22246094 17.85105469 5.11289063 18.41695312 5 19 C4.34 19 3.68 19 3 19 C3.33 14.05 3.66 9.1 4 4 C2.02 4 0.04 4 -2 4 C-2 3.34 -2 2.68 -2 2 C-1.34 2 -0.68 2 0 2 C0 1.34 0 0.68 0 0 Z " fill="#EF77BF" transform="translate(72,39)"/>
<path d="M0 0 C0.99 0.33 1.98 0.66 3 1 C3.03758423 1.83978394 3.03758423 1.83978394 3.07592773 2.6965332 C3.19203745 5.23541305 3.3146958 7.77393553 3.4375 10.3125 C3.47681641 11.19357422 3.51613281 12.07464844 3.55664062 12.98242188 C3.59853516 13.82998047 3.64042969 14.67753906 3.68359375 15.55078125 C3.73858032 16.72120972 3.73858032 16.72120972 3.79467773 17.9152832 C3.94125263 20.19329101 3.94125263 20.19329101 5 23 C4.01 23 3.02 23 2 23 C-0.07434732 17.88763219 -0.24424065 13.53669107 -0.125 8.125 C-0.11597656 7.34125 -0.10695312 6.5575 -0.09765625 5.75 C-0.07428063 3.83319945 -0.03841653 1.91655809 0 0 Z " fill="#C25F9E" transform="translate(62,38)"/>
<path d="M0 0 C0.99 0 1.98 0 3 0 C2.01 4.62 1.02 9.24 0 14 C-1.32 13.01 -2.64 12.02 -4 11 C-3.39301257 6.87248551 -1.96189209 3.6678852 0 0 Z " fill="#D66AB3" transform="translate(38,51)"/>
<path d="M0 0 C0.33 0 0.66 0 1 0 C1 1.65 1 3.3 1 5 C1.55171875 4.83628906 2.1034375 4.67257813 2.671875 4.50390625 C5.26614007 3.94239586 7.59835411 3.90260992 10.25 3.9375 C11.14203125 3.94652344 12.0340625 3.95554688 12.953125 3.96484375 C13.62859375 3.97644531 14.3040625 3.98804688 15 4 C15.33 4.66 15.66 5.32 16 6 C12.7 6 9.4 6 6 6 C6 6.66 6 7.32 6 8 C4.68 7.67 3.36 7.34 2 7 C2.33 8.32 2.66 9.64 3 11 C2.34 11 1.68 11 1 11 C1 9.68 1 8.36 1 7 C0.34 7 -0.32 7 -1 7 C-0.67 4.69 -0.34 2.38 0 0 Z " fill="#C35E97" transform="translate(39,58)"/>
<path d="M0 0 C0.26046037 3.12552446 0.27021697 4.59467454 -1.5 7.25 C-1.995 7.8275 -2.49 8.405 -3 9 C-3 9.33 -3 9.66 -3 10 C-4.65 10 -6.3 10 -8 10 C-7.34 6.7 -6.68 3.4 -6 0 C-3 -1 -3 -1 0 0 Z " fill="#C65197" transform="translate(50,95)"/>
<path d="M0 0 C0.33 0.66 0.66 1.32 1 2 C2.32 1.67 3.64 1.34 5 1 C4.01 2.485 4.01 2.485 3 4 C2.72598982 6.02921669 2.72598982 6.02921669 2.8046875 8.23046875 C2.81113281 9.03291016 2.81757812 9.83535156 2.82421875 10.66210938 C2.84935547 11.91217773 2.84935547 11.91217773 2.875 13.1875 C2.88402344 14.03248047 2.89304687 14.87746094 2.90234375 15.74804688 C2.92589297 17.83215243 2.96176353 19.91611217 3 22 C1.01489942 20.36292167 0.08152696 19.49903853 -0.34057617 16.9152832 C-0.32486572 16.13499756 -0.30915527 15.35471191 -0.29296875 14.55078125 C-0.28330078 13.70322266 -0.27363281 12.85566406 -0.26367188 11.98242188 C-0.23853516 11.10134766 -0.21339844 10.22027344 -0.1875 9.3125 C-0.17396484 8.41982422 -0.16042969 7.52714844 -0.14648438 6.60742188 C-0.11114079 4.40433834 -0.06180493 2.20247418 0 0 Z " fill="#EE77C7" transform="translate(65,39)"/>
<path d="M0 0 C0.99 0.33 1.98 0.66 3 1 C3 2.65 3 4.3 3 6 C3.66 6.33 4.32 6.66 5 7 C4.690625 7.495 4.38125 7.99 4.0625 8.5 C2.58355618 11.97986781 2.37597149 15.24028509 2 19 C1.34 18.34 0.68 17.68 0 17 C-0.99 17.33 -1.98 17.66 -3 18 C-3.66 17.34 -4.32 16.68 -5 16 C-4.195625 15.79375 -3.39125 15.5875 -2.5625 15.375 C-1.716875 14.92125 -0.87125 14.4675 0 14 C0.89830839 10.94727535 0.89830839 10.94727535 1 8 C0.34 7.67 -0.32 7.34 -1 7 C-0.34 7 0.32 7 1 7 C1.15149298 3.37114676 1.15149298 3.37114676 0 0 Z " fill="#E36CBA" transform="translate(82,49)"/>
<path d="M0 0 C0.66 0 1.32 0 2 0 C2.25 2.8125 2.25 2.8125 2 6 C0.0625 7.6875 0.0625 7.6875 -2 9 C-2.33 9.99 -2.66 10.98 -3 12 C-4.32 10.68 -5.64 9.36 -7 8 C-6.34 8 -5.68 8 -5 8 C-5.33 7.01 -5.66 6.02 -6 5 C-5.34 5 -4.68 5 -4 5 C-3.67 4.34 -3.34 3.68 -3 3 C-2.34 3.66 -1.68 4.32 -1 5 C-0.67 3.35 -0.34 1.7 0 0 Z " fill="#BE609E" transform="translate(81,57)"/>
<path d="M0 0 C0.33 0.66 0.66 1.32 1 2 C2.65 2 4.3 2 6 2 C6 2.66 6 3.32 6 4 C4.700625 3.938125 3.40125 3.87625 2.0625 3.8125 C-3.05549789 3.78812858 -7.28068221 5.12566102 -12 7 C-12.66 6.34 -13.32 5.68 -14 5 C-12.41800369 4.35089846 -10.83434276 3.70585306 -9.25 3.0625 C-8.36828125 2.70285156 -7.4865625 2.34320313 -6.578125 1.97265625 C-4.38813896 1.14643424 -2.28101729 0.50630057 0 0 Z " fill="#BC669A" transform="translate(67,61)"/>
<path d="M0 0 C1.875 0.6875 1.875 0.6875 4 2 C4.28875 2.78375 4.5775 3.5675 4.875 4.375 C5.83567661 7.30066981 5.83567661 7.30066981 9.0625 8.9375 C12 11 12 11 12.875 14.25 C12.91625 15.1575 12.9575 16.065 13 17 C12.34 17 11.68 17 11 17 C10.67 15.35 10.34 13.7 10 12 C9.071875 11.835 8.14375 11.67 7.1875 11.5 C3.63605177 9.82873024 3.44654444 9.47496266 2.1875 6 C1.7838039 4.6690262 1.38687204 3.33596101 1 2 C0.67 1.34 0.34 0.68 0 0 Z " fill="#CE76A8" transform="translate(74,38)"/>
<path d="M0 0 C4.67980688 4.01126304 8.03595466 9.86055335 9 16 C7.5625 18.25 7.5625 18.25 6 20 C5 17 5 17 5.25 14.3125 C4.94009082 10.20620341 3.43616813 8.13093679 1.09375 4.83203125 C0 3 0 3 0 0 Z " fill="#C561A0" transform="translate(53,69)"/>
<path d="M0 0 C1.32 0.33 2.64 0.66 4 1 C4.02715383 2.74991334 4.04646551 4.49994945 4.0625 6.25 C4.07410156 7.22453125 4.08570312 8.1990625 4.09765625 9.203125 C4.01195577 11.65758678 3.70706066 13.66168914 3 16 C2.01 15.67 1.02 15.34 0 15 C0.08378906 14.08476563 0.16757813 13.16953125 0.25390625 12.2265625 C0.35574219 11.03804687 0.45757812 9.84953125 0.5625 8.625 C0.66691406 7.44164062 0.77132812 6.25828125 0.87890625 5.0390625 C1.24153596 2.08101369 1.24153596 2.08101369 0 0 Z " fill="#C9629D" transform="translate(72,42)"/>
<path d="M0 0 C0.99 0.495 0.99 0.495 2 1 C2 4.96 2 8.92 2 13 C3.32 13.33 4.64 13.66 6 14 C4.02 14.66 2.04 15.32 0 16 C0 10.72 0 5.44 0 0 Z " fill="#D164A2" transform="translate(54,21)"/>
<path d="M0 0 C4.8771107 3.62947773 8.47573431 7.39416321 11 13 C11.3125 16.5 11.3125 16.5 11 19 C10.71898437 18.42121094 10.43796875 17.84242187 10.1484375 17.24609375 C7.76183949 12.57842757 4.97215648 8.20862697 1.6875 4.125 C0 2 0 2 0 0 Z " fill="#F67FCB" transform="translate(48,67)"/>
<path d="M0 0 C1.2065625 0.0309375 1.2065625 0.0309375 2.4375 0.0625 C3.0975 1.3825 3.7575 2.7025 4.4375 4.0625 C2.4575 4.0625 0.4775 4.0625 -1.5625 4.0625 C-1.8925 5.0525 -2.2225 6.0425 -2.5625 7.0625 C-3.5525 7.0625 -4.5425 7.0625 -5.5625 7.0625 C-3.33446653 0.08132845 -3.33446653 0.08132845 0 0 Z " fill="#DC6DB3" transform="translate(60.5625,34.9375)"/>
<path d="M0 0 C2 0.66666667 4 1.33333333 6 2 C6 3.32 6 4.64 6 6 C6.66 6.33 7.32 6.66 8 7 C6.02 7 4.04 7 2 7 C2 6.34 2 5.68 2 5 C1.34 5 0.68 5 0 5 C0 3.35 0 1.7 0 0 Z " fill="#D35FA7" transform="translate(37,96)"/>
<path d="M0 0 C0.66 0 1.32 0 2 0 C2.0270043 1.45823212 2.04639787 2.91660675 2.0625 4.375 C2.07410156 5.18710938 2.08570313 5.99921875 2.09765625 6.8359375 C2 9 2 9 1 11 C3.97 11.495 3.97 11.495 7 12 C7 12.33 7 12.66 7 13 C4.69 13 2.38 13 0 13 C-1.06671952 9.79984144 -0.94845472 8.11455706 -0.5625 4.8125 C-0.46066406 3.91144531 -0.35882813 3.01039062 -0.25390625 2.08203125 C-0.17011719 1.39496094 -0.08632813 0.70789063 0 0 Z " fill="#D560A4" transform="translate(33,93)"/>
<path d="M0 0 C0.33 0 0.66 0 1 0 C1 2.64 1 5.28 1 8 C1.66 8.33 2.32 8.66 3 9 C2.34 9 1.68 9 1 9 C1 11.64 1 14.28 1 17 C0.34 17 -0.32 17 -1 17 C-1.18451025 5.47835991 -1.18451025 5.47835991 0 0 Z " fill="#E66FA0" transform="translate(26,53)"/>
<path d="M0 0 C3 3.625 3 3.625 3 7 C3.99 7.33 4.98 7.66 6 8 C4.02253397 8.73080266 2.01927511 9.39421747 0 10 C-0.66 9.67 -1.32 9.34 -2 9 C-1.01 8.67 -0.02 8.34 1 8 C0.34 7.67 -0.32 7.34 -1 7 C-0.67 4.69 -0.34 2.38 0 0 Z " fill="#E66BBA" transform="translate(61,54)"/>
<path d="M0 0 C0.99 0.495 0.99 0.495 2 1 C2.8515625 3.72265625 2.8515625 3.72265625 3.625 7.0625 C3.88539062 8.16722656 4.14578125 9.27195312 4.4140625 10.41015625 C4.60742188 11.26480469 4.80078125 12.11945312 5 13 C4.01 13 3.02 13 2 13 C-0.28571429 4.57142857 -0.28571429 4.57142857 0 0 Z " fill="#C3679D" transform="translate(35,39)"/>
<path d="M0 0 C1.875 0.25 1.875 0.25 4 1 C5.25 3.0625 5.25 3.0625 6 5 C3 7 3 7 0.3125 6.625 C-0.450625 6.41875 -1.21375 6.2125 -2 6 C-1.01 5.01 -0.02 4.02 1 3 C0.67 2.01 0.34 1.02 0 0 Z " fill="#CF68A6" transform="translate(56,57)"/>
<path d="M0 0 C0.99 0.33 1.98 0.66 3 1 C3 2.65 3 4.3 3 6 C2.01 6.33 1.02 6.66 0 7 C-0.99 5.68 -1.98 4.36 -3 3 C-2 1 -2 1 0 0 Z " fill="#D2529C" transform="translate(47,94)"/>
<path d="M0 0 C1.32 0.66 2.64 1.32 4 2 C3.34 2 2.68 2 2 2 C2 3.98 2 5.96 2 8 C1.01 8 0.02 8 -1 8 C-1.125 2.25 -1.125 2.25 0 0 Z " fill="#CA5C92" transform="translate(52,93)"/>
<path d="M0 0 C1.485 0.99 1.485 0.99 3 2 C2.4140625 8.15234375 2.4140625 8.15234375 2 10 C1.01 10.495 1.01 10.495 0 11 C0 7.37 0 3.74 0 0 Z " fill="#E457BD" transform="translate(43,31)"/>
<path d="M0 0 C0.66 0 1.32 0 2 0 C2 1.65 2 3.3 2 5 C2.66 5 3.32 5 4 5 C4.33 5.99 4.66 6.98 5 8 C4.01 8 3.02 8 2 8 C-0.1519437 4.77208445 -0.20086443 3.71599191 0 0 Z " fill="#DE5EB0" transform="translate(63,96)"/>
<path d="M0 0 C0.66 0.66 1.32 1.32 2 2 C1.9765625 4.3828125 1.9765625 4.3828125 1.625 7.125 C1.51414062 8.03507812 1.40328125 8.94515625 1.2890625 9.8828125 C1.19367187 10.58148438 1.09828125 11.28015625 1 12 C0.67 12 0.34 12 0 12 C-0.19477739 10.37585622 -0.38059458 8.75063577 -0.5625 7.125 C-0.66691406 6.22007813 -0.77132813 5.31515625 -0.87890625 4.3828125 C-1 2 -1 2 0 0 Z " fill="#C15C97" transform="translate(30,89)"/>
<path d="M0 0 C1.67542976 0.28604898 3.34385343 0.61781233 5 1 C4.67 1.66 4.34 2.32 4 3 C3.01 3.33 2.02 3.66 1 4 C1 4.66 1 5.32 1 6 C0.34 6 -0.32 6 -1 6 C-1.042721 4.33388095 -1.04063832 2.66617115 -1 1 C-0.67 0.67 -0.34 0.34 0 0 Z " fill="#D55AA2" transform="translate(68,93)"/>
<path d="M0 0 C0.33 0 0.66 0 1 0 C1 1.65 1 3.3 1 5 C1.99 5.33 2.98 5.66 4 6 C3.67 7.65 3.34 9.3 3 11 C2.34 11 1.68 11 1 11 C1 9.68 1 8.36 1 7 C0.34 7 -0.32 7 -1 7 C-0.67 4.69 -0.34 2.38 0 0 Z " fill="#BB6C9B" transform="translate(39,58)"/>
<path d="M0 0 C1.70884005 1.62339805 3.37446717 3.29319053 5 5 C5 5.66 5 6.32 5 7 C3.68 7 2.36 7 1 7 C0.67 4.69 0.34 2.38 0 0 Z " fill="#CD5BA3" transform="translate(30,84)"/>
<path d="M0 0 C2.52349243 3.12432397 4.27256146 6.38060496 6 10 C2.83884224 8.63016497 2.0072908 8.0109362 0 5 C-0.125 2.3125 -0.125 2.3125 0 0 Z " fill="#C4649B" transform="translate(31,78)"/>
<path d="M0 0 C1.89213369 2.38573379 3.02391783 4.07175348 4 7 C3.34 7 2.68 7 2 7 C1.67 7.66 1.34 8.32 1 9 C0.34 8.01 -0.32 7.02 -1 6 C-0.67 5.01 -0.34 4.02 0 3 C-0.66 2.67 -1.32 2.34 -2 2 C-1.34 2 -0.68 2 0 2 C0 1.34 0 0.68 0 0 Z " fill="#E158B4" transform="translate(42,19)"/>
<path d="M0 0 C0.66 0 1.32 0 2 0 C2 0.66 2 1.32 2 2 C2.99 2.33 3.98 2.66 5 3 C5.33 4.98 5.66 6.96 6 9 C4 6 4 6 3 4 C0.47266765 3.34444881 0.47266765 3.34444881 -2 3 C-1.34 2.01 -0.68 1.02 0 0 Z " fill="#DE63A4" transform="translate(30,21)"/>
<path d="M0 0 C0.66 0 1.32 0 2 0 C0.125 5.75 0.125 5.75 -1 8 C-1.66 8 -2.32 8 -3 8 C-2.37240135 5.07120629 -1.41377341 2.63904371 0 0 Z " fill="#C668A8" transform="translate(78,54)"/>
<path d="M0 0 C-0.75 1.9375 -0.75 1.9375 -2 4 C-4.125 4.75 -4.125 4.75 -6 5 C-6 4.01 -6 3.02 -6 2 C-2.25 0 -2.25 0 0 0 Z " fill="#DA6BAD" transform="translate(74,58)"/>
<path d="M0 0 C2.97 0.495 2.97 0.495 6 1 C6 1.33 6 1.66 6 2 C5.195625 2.12375 4.39125 2.2475 3.5625 2.375 C2.2940625 2.684375 2.2940625 2.684375 1 3 C0.67 3.66 0.34 4.32 0 5 C-0.66 5 -1.32 5 -2 5 C-1.34 3.35 -0.68 1.7 0 0 Z " fill="#C966A4" transform="translate(41,52)"/>
</svg>
