<?xml version="1.0" encoding="UTF-8"?>
<svg version="1.1" xmlns="http://www.w3.org/2000/svg" width="218" height="442">
<path d="M0 0 C1.39047399 0.00918817 2.78097571 0.01480482 4.17147827 0.01702881 C7.075693 0.03078656 9.97738723 0.07383994 12.88085938 0.140625 C16.59441245 0.22563319 20.30599199 0.25827888 24.0204258 0.2716713 C27.5763686 0.28716552 31.13182076 0.33075993 34.6875 0.375 C35.69799345 0.38346325 35.69799345 0.38346325 36.72890091 0.39209747 C38.64322964 0.41281879 40.55726888 0.45642945 42.47119141 0.50097656 C43.55816315 0.52146057 44.64513489 0.54194458 45.76504517 0.56304932 C50.74061456 1.27466228 53.82907161 3.72368601 56.90234375 7.56640625 C57.45470703 8.25154297 58.00707031 8.93667969 58.57617188 9.64257812 C59.13626953 10.35349609 59.69636719 11.06441406 60.2734375 11.796875 C61.11938477 12.84584961 61.11938477 12.84584961 61.98242188 13.91601562 C65.10476395 17.81985619 68.01018118 21.7780626 70.7109375 25.984375 C69.42509766 27.36109375 69.42509766 27.36109375 68.11328125 28.765625 C60.13736153 37.31402497 60.13736153 37.31402497 52.3828125 46.0625 C50.35335677 48.39542574 48.2832905 50.68948745 46.2109375 52.984375 C41.30621119 58.42491174 36.47278098 63.91891287 31.71484375 69.48828125 C31.17964111 70.11444336 30.64443848 70.74060547 30.09301758 71.38574219 C29.02257119 72.63921329 27.95335427 73.89373561 26.88549805 75.14941406 C26.38961182 75.73045898 25.89372559 76.31150391 25.3828125 76.91015625 C24.9403418 77.43005127 24.49787109 77.94994629 24.04199219 78.4855957 C22.65447539 80.04795183 21.20217522 81.52126869 19.7109375 82.984375 C16.81461876 81.68420984 14.85899444 80.34927077 12.72265625 78.0078125 C12.18487549 77.42362549 11.64709473 76.83943848 11.09301758 76.23754883 C10.25420044 75.30785278 10.25420044 75.30785278 9.3984375 74.359375 C8.52578247 73.40550903 8.52578247 73.40550903 7.63549805 72.43237305 C4.19039178 68.65562649 0.78907482 64.8429113 -2.55078125 60.97265625 C-4.76162739 58.44384572 -7.02502693 55.96564936 -9.2890625 53.484375 C-12.67403529 49.77411954 -16.01287649 46.03575868 -19.28125 42.22265625 C-20.95514797 40.35661824 -22.66599859 38.56489031 -24.421875 36.77734375 C-25.25259521 35.91761963 -25.25259521 35.91761963 -26.10009766 35.04052734 C-27.20993162 33.89475773 -28.33177732 32.76048001 -29.46630859 31.63916016 C-33.24208456 27.71029603 -33.24208456 27.71029603 -33.453125 24.44921875 C-31.90170412 21.16416313 -29.68925516 18.78643141 -27.1640625 16.234375 C-26.22015541 15.26410179 -25.28012989 14.29003945 -24.34375 13.3125 C-23.86810608 12.82857788 -23.39246216 12.34465576 -22.90240479 11.84606934 C-21.21104539 10.00836986 -21.21104539 10.00836986 -19.96185303 7.72521973 C-14.87560907 -0.5314039 -9.04428118 -0.26180702 0 0 Z M-8.2890625 5.984375 C-6.03991743 13.02876456 -6.03991743 13.02876456 -3.1015625 19.546875 C-2.5034375 20.68125 -1.9053125 21.815625 -1.2890625 22.984375 C2.10513013 19.69967245 5.33001485 16.27740348 8.5234375 12.796875 C9.31363281 11.93707031 10.10382813 11.07726562 10.91796875 10.19140625 C12.9211178 8.19957978 12.9211178 8.19957978 12.7109375 5.984375 C5.7809375 5.984375 -1.1490625 5.984375 -8.2890625 5.984375 Z M23.7109375 5.984375 C25.27619714 9.66230749 27.56489858 12.19650008 30.2734375 15.109375 C34.61371528 19.78993056 34.61371528 19.78993056 35.7109375 21.984375 C36.7009375 21.984375 37.6909375 21.984375 38.7109375 21.984375 C39.88001334 19.67306434 41.04629642 17.36041877 42.2109375 15.046875 C42.54480469 14.38751953 42.87867187 13.72816406 43.22265625 13.04882812 C44.95235224 10.15132356 44.95235224 10.15132356 45.7109375 6.984375 C38.35518585 6.27660508 31.1014851 5.83721808 23.7109375 5.984375 Z M-14.2890625 7.984375 C-19.2390625 14.419375 -19.2390625 14.419375 -24.2890625 20.984375 C-20.60818897 23.43829069 -17.84550662 23.21240259 -13.6015625 23.109375 C-12.89966797 23.10035156 -12.19777344 23.09132813 -11.47460938 23.08203125 C-9.74594725 23.05851204 -8.01746105 23.02264213 -6.2890625 22.984375 C-7.23940496 20.66828882 -8.19881308 18.3567393 -9.1640625 16.046875 C-9.43347656 15.38751953 -9.70289063 14.72816406 -9.98046875 14.04882812 C-11.33558084 10.33883369 -11.33558084 10.33883369 -14.2890625 7.984375 Z M17.7109375 7.984375 C16.22453445 9.56256788 14.77192543 11.17267506 13.3359375 12.796875 C8.86327917 17.84500565 8.86327917 17.84500565 6.921875 19.62109375 C5.37888857 21.05429244 5.37888857 21.05429244 5.7109375 23.984375 C13.6309375 23.984375 21.5509375 23.984375 29.7109375 23.984375 C30.0409375 22.994375 30.3709375 22.004375 30.7109375 20.984375 C29.69 19.994375 29.69 19.994375 28.6484375 18.984375 C25.64187287 15.99503997 22.90915016 12.78705554 20.1640625 9.55859375 C19.68453125 9.03910156 19.205 8.51960938 18.7109375 7.984375 C18.3809375 7.984375 18.0509375 7.984375 17.7109375 7.984375 Z M50.7109375 8.984375 C47.52790361 13.35411491 45.15061394 17.74918794 43.7109375 22.984375 C46.92435119 24.59108184 50.34052718 23.80948355 53.8359375 23.546875 C54.96708984 23.46856445 54.96708984 23.46856445 56.12109375 23.38867188 C57.9847312 23.25892496 59.84788746 23.12230012 61.7109375 22.984375 C61.3809375 21.994375 61.0509375 21.004375 60.7109375 19.984375 C59.7209375 19.984375 58.7309375 19.984375 57.7109375 19.984375 C57.5975 19.40171875 57.4840625 18.8190625 57.3671875 18.21875 C56.6568421 15.80019305 55.69813521 14.25765561 54.2109375 12.234375 C53.7675 11.62078125 53.3240625 11.0071875 52.8671875 10.375 C52.485625 9.91609375 52.1040625 9.4571875 51.7109375 8.984375 C51.3809375 8.984375 51.0509375 8.984375 50.7109375 8.984375 Z M-23.2890625 27.984375 C-18.55994281 36.20195027 -12.11417955 44.38061309 -5.2890625 50.984375 C-4.6290625 50.984375 -3.9690625 50.984375 -3.2890625 50.984375 C-3.0003125 51.5825 -2.7115625 52.180625 -2.4140625 52.796875 C-1.24164224 55.17765292 -1.24164224 55.17765292 0.7109375 57.984375 C1.3709375 57.984375 2.0309375 57.984375 2.7109375 57.984375 C2.7109375 58.644375 2.7109375 59.304375 2.7109375 59.984375 C4.67241624 61.37375577 6.67260326 62.7104161 8.7109375 63.984375 C6.71749336 55.76729601 3.90181963 48.12828616 0.5859375 40.359375 C-0.09662109 38.72935547 -0.09662109 38.72935547 -0.79296875 37.06640625 C-2.51137068 32.19843278 -2.51137068 32.19843278 -5.2890625 27.984375 C-6.63173663 27.89805626 -7.97880572 27.87731027 -9.32421875 27.88671875 C-10.13310547 27.88994141 -10.94199219 27.89316406 -11.77539062 27.89648438 C-12.62552734 27.90486328 -13.47566406 27.91324219 -14.3515625 27.921875 C-15.20556641 27.92638672 -16.05957031 27.93089844 -16.93945312 27.93554688 C-19.05601913 27.94737127 -21.17254935 27.96530731 -23.2890625 27.984375 Z M40.7109375 28.984375 C39.00696759 31.82277402 39.00696759 31.82277402 37.8515625 35.43359375 C37.61685242 36.08383011 37.38214233 36.73406647 37.14031982 37.40400696 C36.39453021 39.48700303 35.67823358 41.57891953 34.9609375 43.671875 C34.4640036 45.06248059 33.96532443 46.45246383 33.46484375 47.84179688 C31.44826295 53.51935239 29.54245225 58.99025321 28.7109375 64.984375 C32.25513312 62.31392205 34.98972884 59.60655332 37.7109375 56.109375 C41.92940916 50.82920745 46.42763704 45.89646465 51.10546875 41.02001953 C54.7032536 37.22665486 57.75427772 33.29890817 60.7109375 28.984375 C59.59434663 27.64279392 59.59434663 27.64279392 56.7265625 27.8515625 C55.48390625 27.85414062 54.24125 27.85671875 52.9609375 27.859375 C51.72859375 27.85679688 50.49625 27.85421875 49.2265625 27.8515625 C44.86695733 27.93899759 44.86695733 27.93899759 40.7109375 28.984375 Z M1.7109375 28.984375 C2.30909081 33.54966049 3.52387358 37.38807109 5.29296875 41.6328125 C5.54841965 42.24903473 5.80387054 42.86525696 6.06706238 43.50015259 C6.60624597 44.79724994 7.14847842 46.09308374 7.69360352 47.38769531 C8.51702058 49.34412845 9.33058167 51.30442834 10.14257812 53.265625 C12.78774091 59.62189813 15.5202241 65.88107334 18.7109375 71.984375 C20.33448908 69.54904764 21.35148801 67.62344457 22.41015625 64.94921875 C22.8887207 63.74724854 22.8887207 63.74724854 23.37695312 62.52099609 C23.88258789 61.23443115 23.88258789 61.23443115 24.3984375 59.921875 C24.74712891 59.04096191 25.09582031 58.16004883 25.45507812 57.25244141 C26.18064342 55.41655129 26.90441295 53.57995055 27.62646484 51.74267578 C28.67725256 49.07005092 29.73468309 46.40013171 30.79296875 43.73046875 C31.43277404 42.10696085 32.07211757 40.48327088 32.7109375 38.859375 C33.01346436 38.09616943 33.31599121 37.33296387 33.62768555 36.54663086 C35.16791642 32.87601388 35.16791642 32.87601388 35.7109375 28.984375 C24.24889341 28.12206844 13.16438999 27.97010468 1.7109375 28.984375 Z " fill="#3CB3BD" transform="translate(54.2890625,20.015625)"/>
<path d="M0 0 C0.66 0.66 1.32 1.32 2 2 C1.34 2 0.68 2 0 2 C-0.33 4.31 -0.66 6.62 -1 9 C2.43877416 8.72225457 5.87563818 8.42541715 9.3125 8.125 C10.28896484 8.04636719 11.26542969 7.96773437 12.27148438 7.88671875 C13.20927734 7.80292969 14.14707031 7.71914063 15.11328125 7.6328125 C15.97735596 7.55949707 16.84143066 7.48618164 17.73168945 7.41064453 C20.27164237 7.10606542 20.27164237 7.10606542 23 5 C24.65 6.65 26.3 8.3 28 10 C26.71416016 11.37671875 26.71416016 11.37671875 25.40234375 12.78125 C17.42642403 21.32964997 17.42642403 21.32964997 9.671875 30.078125 C7.64241927 32.41105074 5.572353 34.70511245 3.5 37 C-1.40472631 42.44053674 -6.23815652 47.93453787 -10.99609375 53.50390625 C-11.53129639 54.13006836 -12.06649902 54.75623047 -12.61791992 55.40136719 C-13.68836631 56.65483829 -14.75758323 57.90936061 -15.82543945 59.16503906 C-16.5692688 60.03660645 -16.5692688 60.03660645 -17.328125 60.92578125 C-17.7705957 61.44567627 -18.21306641 61.96557129 -18.66894531 62.5012207 C-20.05646211 64.06357683 -21.50876228 65.53689369 -23 67 C-25.89631874 65.69983484 -27.85194306 64.36489577 -29.98828125 62.0234375 C-30.52622314 61.43908936 -31.06416504 60.85474121 -31.6184082 60.25268555 C-32.1774585 59.63304932 -32.73650879 59.01341309 -33.3125 58.375 C-33.89281982 57.74053955 -34.47313965 57.1060791 -35.07104492 56.45239258 C-38.55284428 52.63476286 -42.00627019 48.79250467 -45.37109375 44.87109375 C-46.61092494 43.44692316 -47.8793057 42.04755133 -49.16015625 40.66015625 C-49.89105469 39.86480469 -50.62195312 39.06945312 -51.375 38.25 C-52.04273438 37.53328125 -52.71046875 36.8165625 -53.3984375 36.078125 C-55.01269711 33.98352472 -55.59260954 32.5840195 -56 30 C-50.81810884 30.79721402 -47.06572524 33.82209315 -43.625 37.625 C-42 40 -42 40 -42 42 C-41.34 42 -40.68 42 -40 42 C-39.608125 42.66 -39.21625 43.32 -38.8125 44 C-36.34131037 48.0902449 -33.19981515 51.46705341 -30 55 C-30 53.68 -30 52.36 -30 51 C-27.00675737 52.0975223 -26.15389099 52.67682892 -24.75 55.625 C-24.5025 56.40875 -24.255 57.1925 -24 58 C-21.78600697 54.20458337 -20.99019802 50.24370579 -20 46 C-19.34 46 -18.68 46 -18 46 C-17.34 44.35 -16.68 42.7 -16 41 C-15.67 41 -15.34 41 -15 41 C-15.0721875 41.69867188 -15.144375 42.39734375 -15.21875 43.1171875 C-15.35796875 44.48230469 -15.35796875 44.48230469 -15.5 45.875 C-15.63921875 47.23238281 -15.63921875 47.23238281 -15.78125 48.6171875 C-16.03047295 50.93313211 -16.03047295 50.93313211 -16 53 C-15.57332031 52.36835937 -15.14664063 51.73671875 -14.70703125 51.0859375 C-10.19469507 44.62911007 -5.28511996 38.91843438 0.1315918 33.21679688 C4.35137507 28.75927068 8.22856112 24.15157575 12 19.3046875 C14.12765191 16.85290112 16.45517637 15.00318887 19 13 C19.33 12.34 19.66 11.68 20 11 C12.74 11.33 5.48 11.66 -2 12 C-2.33 12.66 -2.66 13.32 -3 14 C-3.66 14 -4.32 14 -5 14 C-5.33 14.66 -5.66 15.32 -6 16 C-6.495 14.02 -6.495 14.02 -7 12 C-24.325 11.505 -24.325 11.505 -42 11 C-42 10.34 -42 9.68 -42 9 C-31.11 9 -20.22 9 -9 9 C-11.475 6.03 -11.475 6.03 -14 3 C-13.01 2.67 -12.02 2.34 -11 2 C-10.38125 2.7115625 -10.38125 2.7115625 -9.75 3.4375 C-7.817815 5.16266518 -6.51807725 5.56584875 -4 6 C-4 5.34 -4 4.68 -4 4 C-3.01 4 -2.02 4 -1 4 C-0.67 2.68 -0.34 1.36 0 0 Z " fill="#37A4AF" transform="translate(97,36)"/>
<path d="M0 0 C1.24509338 -0.00960754 2.49018677 -0.01921509 3.77301025 -0.02911377 C5.14391905 -0.03396245 6.51482995 -0.03824111 7.88574219 -0.04199219 C9.28481041 -0.04774263 10.68387861 -0.05350038 12.08294678 -0.05926514 C15.02193571 -0.06978671 17.96089721 -0.07562114 20.89990234 -0.07910156 C24.66050505 -0.08457536 28.42074367 -0.10857413 32.18123245 -0.13707352 C35.0740666 -0.15573099 37.96681383 -0.16090723 40.85970306 -0.16243744 C42.24555187 -0.16545974 43.6313993 -0.17347407 45.01718903 -0.18662262 C46.96060489 -0.20373885 48.90417055 -0.19995 50.84765625 -0.1953125 C51.95272522 -0.19895813 53.05779419 -0.20260376 54.1963501 -0.20635986 C59.28520574 0.41987922 62.35331883 2.97348628 65.51464844 6.84863281 C66.08505859 7.54730469 66.65546875 8.24597656 67.24316406 8.96582031 C67.82130859 9.69027344 68.39945312 10.41472656 68.99511719 11.16113281 C69.59259766 11.88558594 70.19007812 12.61003906 70.80566406 13.35644531 C75.18261719 18.77886496 75.18261719 18.77886496 75.18261719 22.16113281 C74.19261719 22.16113281 73.20261719 22.16113281 72.18261719 22.16113281 C72.18261719 22.49113281 72.18261719 22.82113281 72.18261719 23.16113281 C64.82467985 24.07273567 57.59278742 24.27572307 50.18261719 24.16113281 C50.51261719 21.85113281 50.84261719 19.54113281 51.18261719 17.16113281 C50.85261719 17.82113281 50.52261719 18.48113281 50.18261719 19.16113281 C49.52261719 19.16113281 48.86261719 19.16113281 48.18261719 19.16113281 C49.77366517 15.1223187 51.47060409 11.15583003 53.18261719 7.16113281 C46.25261719 6.50113281 39.32261719 5.84113281 32.18261719 5.16113281 C34.31730469 7.79082031 34.31730469 7.79082031 36.49511719 10.47363281 C37.295625 11.45976563 38.09613281 12.44589844 38.92089844 13.46191406 C40.60950075 15.47715447 42.27892417 17.3560129 44.18261719 19.16113281 C43.85261719 19.82113281 43.52261719 20.48113281 43.18261719 21.16113281 C42.19261719 20.17113281 41.20261719 19.18113281 40.18261719 18.16113281 C39.68761719 18.65613281 39.68761719 18.65613281 39.18261719 19.16113281 C38.19261719 19.16113281 37.20261719 19.16113281 36.18261719 19.16113281 C33.92089844 16.75488281 33.92089844 16.75488281 31.49511719 13.66113281 C30.28275391 12.12972656 30.28275391 12.12972656 29.04589844 10.56738281 C28.43101563 9.77332031 27.81613281 8.97925781 27.18261719 8.16113281 C26.43496094 8.91136719 25.68730469 9.66160156 24.91699219 10.43457031 C23.35481192 11.99228721 21.7860695 13.5436296 20.19824219 15.07519531 C19.61558594 15.63980469 19.03292969 16.20441406 18.43261719 16.78613281 C17.83964844 17.35589844 17.24667969 17.92566406 16.63574219 18.51269531 C14.94991529 20.20904396 14.94991529 20.20904396 14.18261719 23.16113281 C14.84261719 22.83113281 15.50261719 22.50113281 16.18261719 22.16113281 C17.80314992 22.07686221 19.42711068 22.05388268 21.04980469 22.06347656 C22.50193359 22.06831055 22.50193359 22.06831055 23.98339844 22.07324219 C24.99789062 22.08162109 26.01238281 22.09 27.05761719 22.09863281 C28.064375 22.10314453 29.07113281 22.10765625 30.10839844 22.11230469 C31.98585171 22.12103123 33.86329733 22.13180726 35.74072266 22.14526367 C37.88798201 22.15921807 40.0353125 22.16113281 42.18261719 22.16113281 C42.18261719 22.82113281 42.18261719 23.48113281 42.18261719 24.16113281 C31.95261719 24.16113281 21.72261719 24.16113281 11.18261719 24.16113281 C11.84261719 22.51113281 12.50261719 20.86113281 13.18261719 19.16113281 C11.20261719 20.15113281 11.20261719 20.15113281 9.18261719 21.16113281 C10.74787683 17.48320032 13.03657827 14.94900773 15.74511719 12.03613281 C18.81980905 8.84605772 18.81980905 8.84605772 21.18261719 5.16113281 C20.33699219 5.24492187 19.49136719 5.32871094 18.62011719 5.41503906 C12.25687482 5.98628468 6.48113057 6.27263517 0.18261719 5.16113281 C0.54355469 5.93199219 0.90449219 6.70285156 1.27636719 7.49707031 C1.74042969 8.49996094 2.20449219 9.50285156 2.68261719 10.53613281 C3.14667969 11.53386719 3.61074219 12.53160156 4.08886719 13.55957031 C5.18261719 16.16113281 5.18261719 16.16113281 5.18261719 18.16113281 C4.19261719 18.16113281 3.20261719 18.16113281 2.18261719 18.16113281 C1.85261719 19.15113281 1.52261719 20.14113281 1.18261719 21.16113281 C0.3163432 19.56347178 -0.53504747 17.95773338 -1.37988281 16.34863281 C-1.85554688 15.4553125 -2.33121094 14.56199219 -2.82128906 13.64160156 C-3.81738281 11.16113281 -3.81738281 11.16113281 -2.81738281 8.16113281 C-2.15738281 8.16113281 -1.49738281 8.16113281 -0.81738281 8.16113281 C-1.14738281 6.84113281 -1.47738281 5.52113281 -1.81738281 4.16113281 C6.76261719 4.16113281 15.34261719 4.16113281 24.18261719 4.16113281 C24.18261719 4.49113281 24.18261719 4.82113281 24.18261719 5.16113281 C26.65761719 5.65613281 26.65761719 5.65613281 29.18261719 6.16113281 C28.68761719 4.18113281 28.68761719 4.18113281 28.18261719 2.16113281 C23.39508038 2.25468544 18.60804825 2.36078265 13.82104492 2.47851562 C12.1925417 2.516799 10.56395409 2.55165305 8.93530273 2.58300781 C6.59425704 2.62867283 4.25379189 2.68666358 1.91308594 2.74707031 C0.82074898 2.76439713 0.82074898 2.76439713 -0.2936554 2.78207397 C-3.98699655 2.88991793 -5.66564695 3.05997557 -8.81738281 5.16113281 C-6.37125153 0.10579484 -5.71094364 0.03538871 0 0 Z M59.18261719 8.16113281 C55.99958329 12.53087272 53.62229363 16.92594575 52.18261719 22.16113281 C55.39603088 23.76783966 58.81220687 22.98624136 62.30761719 22.72363281 C63.43876953 22.64532227 63.43876953 22.64532227 64.59277344 22.56542969 C66.45641088 22.43568278 68.31956715 22.29905793 70.18261719 22.16113281 C69.85261719 21.17113281 69.52261719 20.18113281 69.18261719 19.16113281 C68.19261719 19.16113281 67.20261719 19.16113281 66.18261719 19.16113281 C66.06917969 18.57847656 65.95574219 17.99582031 65.83886719 17.39550781 C65.12852179 14.97695087 64.1698149 13.43441342 62.68261719 11.41113281 C62.23917969 10.79753906 61.79574219 10.18394531 61.33886719 9.55175781 C60.95730469 9.09285156 60.57574219 8.63394531 60.18261719 8.16113281 C59.85261719 8.16113281 59.52261719 8.16113281 59.18261719 8.16113281 Z " fill="#24707D" transform="translate(45.8173828125,20.8388671875)"/>
<path d="M0 0 C5.94 0 11.88 0 18 0 C18 0.33 18 0.66 18 1 C12.72 1 7.44 1 2 1 C7.13366822 14.93224399 12.73565785 28.53735128 19 42 C19.99 41.01 20.98 40.02 22 39 C21.25 44.75 21.25 44.75 19 47 C17.53515625 44.31445312 17.53515625 44.31445312 16.0703125 41.62890625 C15.08589976 39.83381685 15.08589976 39.83381685 13 39 C13.33 40.65 13.66 42.3 14 44 C9.30435607 40.68542782 6.27530896 36.63720719 3 32 C4.32 32.66 5.64 33.32 7 34 C7 30.05805135 5.58616602 26.87396681 4.1875 23.25 C3.92646484 22.5590625 3.66542969 21.868125 3.39648438 21.15625 C2.10744303 17.76973149 0.75984037 14.43117919 -0.71484375 11.12109375 C-2.03445838 7.91631536 -2.27695428 7.08597284 -1 4 C-0.67 2.68 -0.34 1.36 0 0 Z " fill="#338F9F" transform="translate(54,48)"/>
<path d="M0 0 C0.66 0.66 1.32 1.32 2 2 C1.34 2 0.68 2 0 2 C-0.33 4.31 -0.66 6.62 -1 9 C2.43877416 8.72225457 5.87563818 8.42541715 9.3125 8.125 C10.77719727 8.00705078 10.77719727 8.00705078 12.27148438 7.88671875 C13.67817383 7.76103516 13.67817383 7.76103516 15.11328125 7.6328125 C15.97735596 7.55949707 16.84143066 7.48618164 17.73168945 7.41064453 C20.27164237 7.10606542 20.27164237 7.10606542 23 5 C24.65 6.65 26.3 8.3 28 10 C24.535 13.96 24.535 13.96 21 18 C20.34 17.01 19.68 16.02 19 15 C19.33 13.68 19.66 12.36 20 11 C12.74 11.33 5.48 11.66 -2 12 C-2.33 12.66 -2.66 13.32 -3 14 C-3.66 14 -4.32 14 -5 14 C-5.33 14.66 -5.66 15.32 -6 16 C-6.495 14.02 -6.495 14.02 -7 12 C-18.55 11.67 -30.1 11.34 -42 11 C-42 10.34 -42 9.68 -42 9 C-31.11 9 -20.22 9 -9 9 C-10.65 7.02 -12.3 5.04 -14 3 C-13.01 2.67 -12.02 2.34 -11 2 C-10.5875 2.474375 -10.175 2.94875 -9.75 3.4375 C-7.817815 5.16266518 -6.51807725 5.56584875 -4 6 C-4 5.34 -4 4.68 -4 4 C-3.01 4 -2.02 4 -1 4 C-0.67 2.68 -0.34 1.36 0 0 Z " fill="#47BFD1" transform="translate(97,36)"/>
<path d="M0 0 C7.26 0 14.52 0 22 0 C21.67 0.99 21.34 1.98 21 3 C20.34 2.67 19.68 2.34 19 2 C17.55151418 1.91657841 16.09929131 1.89267139 14.6484375 1.90234375 C13.79765625 1.90556641 12.946875 1.90878906 12.0703125 1.91210938 C10.73613281 1.92467773 10.73613281 1.92467773 9.375 1.9375 C8.02921875 1.94426758 8.02921875 1.94426758 6.65625 1.95117188 C4.43743352 1.96297409 2.21874982 1.97943845 0 2 C-0.11859375 2.69222656 -0.2371875 3.38445313 -0.359375 4.09765625 C-1.07427562 7.3365048 -2.11182099 10.32191504 -3.25 13.4375 C-3.6934375 14.66210938 -4.136875 15.88671875 -4.59375 17.1484375 C-5.29735322 19.07745025 -6.0021956 21.00600759 -6.70703125 22.93457031 C-7.39090663 24.8094968 -8.07050305 26.68598227 -8.75 28.5625 C-9.15734375 29.67753906 -9.5646875 30.79257813 -9.984375 31.94140625 C-11.04932647 34.91554106 -11.04932647 34.91554106 -11.51171875 37.7578125 C-12.16739922 40.76869721 -13.72076525 42.01486006 -16 44 C-15.47916667 42.046875 -14.95833333 40.09375 -14.4375 38.140625 C-13.86650651 35.71098139 -13.86650651 35.71098139 -14 32 C-14.99 32.99 -15.98 33.98 -17 35 C-16.38713613 31.55617944 -15.51158233 28.42750383 -14.2578125 25.1640625 C-13.91363281 24.26429687 -13.56945312 23.36453125 -13.21484375 22.4375 C-12.67537109 21.0453125 -12.67537109 21.0453125 -12.125 19.625 C-11.77308594 18.70460938 -11.42117187 17.78421875 -11.05859375 16.8359375 C-9.13719952 11.83602687 -7.11241486 6.928968 -5 2 C-10.61 2 -16.22 2 -22 2 C-22 1.67 -22 1.34 -22 1 C-16.06 1 -10.12 1 -4 1 C-3.67 1.66 -3.34 2.32 -3 3 C-2.34 3 -1.68 3 -1 3 C-0.67 2.01 -0.34 1.02 0 0 Z " fill="#3FA7BC" transform="translate(95,47)"/>
<path d="M0 0 C1.05750625 3.17251876 1.08693652 3.97374381 0 7 C-1.82518872 9.176408 -3.65642113 11.21284601 -5.625 13.25 C-6.72730659 14.41596365 -7.82887293 15.58262759 -8.9296875 16.75 C-9.46174805 17.31074219 -9.99380859 17.87148437 -10.54199219 18.44921875 C-12.8759669 20.93170492 -15.10276372 23.50208253 -17.33203125 26.078125 C-20.51895462 29.75017722 -23.76511988 33.37021243 -27 37 C-27.33 36.34 -27.66 35.68 -28 35 C-29.98 35.495 -29.98 35.495 -32 36 C-27.93459434 30.24067531 -23.42840801 25.13583014 -18.61206055 20.01123047 C-14.51198498 15.62415598 -10.73108564 11.07547582 -7.03515625 6.33984375 C-4.89131362 3.87504195 -2.60492258 1.96161996 0 0 Z " fill="#3391A1" transform="translate(116,49)"/>
<path d="M0 0 C7.59 0 15.18 0 23 0 C23.33 1.32 23.66 2.64 24 4 C23.34 3.34 22.68 2.68 22 2 C19.0906442 1.85482256 16.280054 1.81369204 13.375 1.875 C12.17230469 1.88853516 12.17230469 1.88853516 10.9453125 1.90234375 C8.96341477 1.92593777 6.98167019 1.96180935 5 2 C12.42524875 12.00022147 12.42524875 12.00022147 21 21 C20.67 21.66 20.34 22.32 20 23 C19.54625 22.505 19.0925 22.01 18.625 21.5 C17.12364481 19.77390663 17.12364481 19.77390663 15 20 C14.67 20.66 14.34 21.32 14 22 C13.37351562 21.30132812 12.74703125 20.60265625 12.1015625 19.8828125 C11.28429688 18.97273438 10.46703125 18.06265625 9.625 17.125 C8.81289063 16.22007813 8.00078125 15.31515625 7.1640625 14.3828125 C5.80923795 12.89103817 4.42494565 11.42494565 3 10 C3 9.01 3 8.02 3 7 C3.66 6.67 4.32 6.34 5 6 C3.35 4.02 1.7 2.04 0 0 Z " fill="#2D8793" transform="translate(27,47)"/>
<path d="M0 0 C0.33 0.66 0.66 1.32 1 2 C3.02463255 2.65213292 3.02463255 2.65213292 5 3 C4.28972656 3.68707031 3.57945313 4.37414063 2.84765625 5.08203125 C1.92855469 5.98308594 1.00945312 6.88414063 0.0625 7.8125 C-0.85402344 8.70582031 -1.77054688 9.59914063 -2.71484375 10.51953125 C-5.17935108 12.85436593 -5.17935108 12.85436593 -6 16 C-5.34 15.67 -4.68 15.34 -4 15 C-2.37946727 14.9157294 -0.75550651 14.89274987 0.8671875 14.90234375 C2.31931641 14.90717773 2.31931641 14.90717773 3.80078125 14.91210938 C5.32251953 14.92467773 5.32251953 14.92467773 6.875 14.9375 C7.88175781 14.94201172 8.88851562 14.94652344 9.92578125 14.95117188 C11.80323452 14.95989842 13.68068014 14.97067444 15.55810547 14.98413086 C17.70536482 14.99808525 19.85269531 15 22 15 C22 15.66 22 16.32 22 17 C11.77 17 1.54 17 -9 17 C-8.34 15.35 -7.68 13.7 -7 12 C-8.98 12.99 -8.98 12.99 -11 14 C-9.42219077 10.28954753 -7.09296752 7.70093616 -4.375 4.75 C-3.55773438 3.85796875 -2.74046875 2.9659375 -1.8984375 2.046875 C-1.27195312 1.37140625 -0.64546875 0.6959375 0 0 Z " fill="#2D888F" transform="translate(66,28)"/>
<path d="M0 0 C5.18189116 0.79721402 8.93427476 3.82209315 12.375 7.625 C14 10 14 10 14 12 C14.66 12 15.32 12 16 12 C17.04644066 13.63790712 18.0398183 15.31008021 19 17 C19.98244845 18.34631825 20.97676564 19.68441297 22 21 C21.34 21.33 20.68 21.66 20 22 C19.67 22.66 19.34 23.32 19 24 C14.98533568 19.68001331 10.98528721 15.34710056 7 11 C6.30777344 10.2471875 5.61554687 9.494375 4.90234375 8.71875 C2.3464837 5.85518198 0.73696335 3.76580173 0 0 Z " fill="#399EAB" transform="translate(41,66)"/>
<path d="M0 0 C2.96175123 0.61277612 4.38058783 1.25372522 7 3 C7 2.01 7 1.02 7 0 C9.99324263 1.0975223 10.84610901 1.67682892 12.25 4.625 C12.4975 5.40875 12.745 6.1925 13 7 C13.66 7 14.32 7 15 7 C15.66 6.34 16.32 5.68 17 5 C16.67 7.31 16.34 9.62 16 12 C15.01 12 14.02 12 13 12 C12.67 12.66 12.34 13.32 12 14 C7.29897072 11.64948536 3.93463446 8.31837032 1 4 C0.328125 1.77734375 0.328125 1.77734375 0 0 Z " fill="#33AAB9" transform="translate(60,87)"/>
<path d="M0 0 C1.43352212 0.00015908 2.86704998 0.00585132 4.30053711 0.01586914 C5.43041298 0.01799156 5.43041298 0.01799156 6.58311462 0.02015686 C8.99807646 0.02577163 11.41294687 0.03832656 13.82788086 0.05102539 C15.46134307 0.05603849 17.09480672 0.06060173 18.72827148 0.06469727 C22.74067671 0.07574585 26.75301326 0.09302033 30.76538086 0.11352539 C31.26038086 2.09352539 31.26038086 2.09352539 31.76538086 4.11352539 C29.78538086 4.11352539 27.80538086 4.11352539 25.76538086 4.11352539 C25.76538086 3.78352539 25.76538086 3.45352539 25.76538086 3.11352539 C17.51538086 2.78352539 9.26538086 2.45352539 0.76538086 2.11352539 C1.09538086 3.43352539 1.42538086 4.75352539 1.76538086 6.11352539 C0.77538086 6.44352539 -0.21461914 6.77352539 -1.23461914 7.11352539 C-1.23461914 6.12352539 -1.23461914 5.13352539 -1.23461914 4.11352539 C-1.89461914 4.11352539 -2.55461914 4.11352539 -3.23461914 4.11352539 C-3.56461914 3.12352539 -3.89461914 2.13352539 -4.23461914 1.11352539 C-3.23461914 0.11352539 -3.23461914 0.11352539 0 0 Z " fill="#4EC1D0" transform="translate(43.234619140625,22.886474609375)"/>
<path d="M0 0 C8.58 0 17.16 0 26 0 C25.01 0.99 24.02 1.98 23 3 C23 2.34 23 1.68 23 1 C22.154375 1.08378906 21.30875 1.16757812 20.4375 1.25390625 C14.07425763 1.82515187 8.29851338 2.11150236 2 1 C2.3609375 1.77085938 2.721875 2.54171875 3.09375 3.3359375 C3.78984375 4.84027344 3.78984375 4.84027344 4.5 6.375 C4.9640625 7.37273438 5.428125 8.37046875 5.90625 9.3984375 C7 12 7 12 7 14 C6.01 14 5.02 14 4 14 C3.67 14.99 3.34 15.98 3 17 C2.13372601 15.40233897 1.28233535 13.79660056 0.4375 12.1875 C-0.03816406 11.29417969 -0.51382813 10.40085937 -1.00390625 9.48046875 C-2 7 -2 7 -1 4 C-0.34 4 0.32 4 1 4 C0.67 2.68 0.34 1.36 0 0 Z " fill="#247684" transform="translate(44,25)"/>
<path d="M0 0 C8.58 0 17.16 0 26 0 C26 1.65 26 3.3 26 5 C25.01 5.495 25.01 5.495 24 6 C23.27306096 7.97888961 22.60183749 9.97954558 22 12 C20.68 12 19.36 12 18 12 C19.00193437 8.20696275 19.81024227 5.28463659 22 2 C15.07 2 8.14 2 1 2 C0.67 1.34 0.34 0.68 0 0 Z " fill="#4EC2D5" transform="translate(80,23)"/>
<path d="M0 0 C0.99 0.99 1.98 1.98 3 3 C4.65 2.34 6.3 1.68 8 1 C7.6875 2.9375 7.6875 2.9375 7 5 C6.01 5.33 5.02 5.66 4 6 C4 6.66 4 7.32 4 8 C15.55 8 27.1 8 39 8 C39 8.33 39 8.66 39 9 C27.12 9 15.24 9 3 9 C2.67 10.65 2.34 12.3 2 14 C1.34 14 0.68 14 0 14 C-0.36923077 9.44615385 -0.36923077 9.44615385 1.5 7.1875 C2.2425 6.5996875 2.2425 6.5996875 3 6 C2.34 6 1.68 6 1 6 C0.67 4.02 0.34 2.04 0 0 Z " fill="#3AA0B0" transform="translate(51,39)"/>
<path d="M0 0 C1.98 1.32 3.96 2.64 6 4 C5.04270084 5.12588014 4.08412105 6.2506715 3.125 7.375 C2.59132813 8.00148438 2.05765625 8.62796875 1.5078125 9.2734375 C0.38567993 10.55836651 -0.79371975 11.79371975 -2 13 C-3 10 -3 10 -2 6 C-5.63 5.67 -9.26 5.34 -13 5 C-10.2173829 2.2173829 -7.89667775 2.59069336 -4.09375 2.34375 C-1.78487741 2.17368193 -1.78487741 2.17368193 0 0 Z " fill="#3AA6B6" transform="translate(119,41)"/>
<path d="M0 0 C7.26 0 14.52 0 22 0 C21.67 0.99 21.34 1.98 21 3 C20.34 2.67 19.68 2.34 19 2 C17.55151418 1.91657841 16.09929131 1.89267139 14.6484375 1.90234375 C13.79765625 1.90556641 12.946875 1.90878906 12.0703125 1.91210938 C10.73613281 1.92467773 10.73613281 1.92467773 9.375 1.9375 C8.02921875 1.94426758 8.02921875 1.94426758 6.65625 1.95117188 C4.43743352 1.96297409 2.21874982 1.97943845 0 2 C-0.12375 2.763125 -0.2475 3.52625 -0.375 4.3125 C-1 7 -1 7 -3 10 C-3 9.01 -3 8.02 -3 7 C-4.98 7.99 -4.98 7.99 -7 9 C-6.34 6.69 -5.68 4.38 -5 2 C-10.61 2 -16.22 2 -22 2 C-22 1.67 -22 1.34 -22 1 C-16.06 1 -10.12 1 -4 1 C-3.67 1.66 -3.34 2.32 -3 3 C-2.34 3 -1.68 3 -1 3 C-0.67 2.01 -0.34 1.02 0 0 Z " fill="#165C67" transform="translate(95,47)"/>
<path d="M0 0 C2 2 2 2 3.5 5.5625 C4.58995587 9.06202674 4.58995587 9.06202674 7 10 C7.33 8.68 7.66 7.36 8 6 C9.32 8.64 10.64 11.28 12 14 C12.99 13.01 13.98 12.02 15 11 C14.25 16.75 14.25 16.75 12 19 C11.0234375 17.20963542 10.046875 15.41927083 9.0703125 13.62890625 C8.08589976 11.83381685 8.08589976 11.83381685 6 11 C6.33 12.65 6.66 14.3 7 16 C2.30435607 12.68542782 -0.72469104 8.63720719 -4 4 C-2.02 4.99 -2.02 4.99 0 6 C0 5.01 0 4.02 0 3 C0 2.01 0 1.02 0 0 Z " fill="#0F4856" transform="translate(61,76)"/>
<path d="M0 0 C0.625 1.8125 0.625 1.8125 1 4 C0.01 5.485 0.01 5.485 -1 7 C-0.01 7 0.98 7 2 7 C1.34 9.64 0.68 12.28 0 15 C5.94 14.67 11.88 14.34 18 14 C18.33 14.66 18.66 15.32 19 16 C11.64206267 16.91160286 4.41017023 17.11459026 -3 17 C-2.67 14.69 -2.34 12.38 -2 10 C-2.33 10.66 -2.66 11.32 -3 12 C-3.66 12 -4.32 12 -5 12 C-3.41037341 7.96479403 -1.71767682 3.98188718 0 0 Z " fill="#155A65" transform="translate(99,28)"/>
<path d="M0 0 C1.08949453 3.26848358 1.23747441 3.90631397 0 7 C-1.56913121 9.10771091 -3.25350927 11.0296002 -5 13 C-5.99 12.34 -6.98 11.68 -8 11 C-9.65 12.32 -11.3 13.64 -13 15 C-11.4307213 11.34119259 -9.1680204 8.74472372 -6.5 5.8125 C-5.7059375 4.93207031 -4.911875 4.05164062 -4.09375 3.14453125 C-2 1 -2 1 0 0 Z " fill="#328896" transform="translate(116,49)"/>
<path d="M0 0 C4.02511753 0.61924885 6.82648821 2.51638207 10 5 C11.3125 7.625 11.3125 7.625 12 10 C12.33 10.66 12.66 11.32 13 12 C9.88630052 12.32210684 8.49665291 12.40279724 6.015625 10.390625 C5.14164063 9.33101562 5.14164063 9.33101562 4.25 8.25 C3.65703125 7.55390625 3.0640625 6.8578125 2.453125 6.140625 C1.02278072 4.0335587 0.42593142 2.48833621 0 0 Z " fill="#3B9FA9" transform="translate(41,66)"/>
<path d="M0 0 C1.14274621 3.42823863 0.83857544 4.11282015 -0.375 7.375 C-1.29630849 9.9240912 -2.01946525 12.12513373 -2.4375 14.8125 C-3.19071474 17.74166845 -4.75765399 19.04698896 -7 21 C-6.47916667 19.046875 -5.95833333 17.09375 -5.4375 15.140625 C-4.86650651 12.71098139 -4.86650651 12.71098139 -5 9 C-5.99 9.99 -6.98 10.98 -8 12 C-7.39009109 8.44219804 -6.4216319 5.3171411 -5 2 C-4.67 3.32 -4.34 4.64 -4 6 C-1.2160817 4.60804085 -1.02101003 2.84424221 0 0 Z " fill="#185567" transform="translate(86,70)"/>
<path d="M0 0 C0 0.66 0 1.32 0 2 C0.66 2 1.32 2 2 2 C0.73851196 4.52297609 -0.97986886 6.03928448 -3 8 C-3.5775 8.5775 -4.155 9.155 -4.75 9.75 C-5.1625 10.1625 -5.575 10.575 -6 11 C-6 10.34 -6 9.68 -6 9 C-6.61875 9.309375 -7.2375 9.61875 -7.875 9.9375 C-9.25 10.625 -10.625 11.3125 -12 12 C-10.65263662 9.06559801 -9.11433035 6.74926573 -7 4.3125 C-6.484375 3.71050781 -5.96875 3.10851562 -5.4375 2.48828125 C-3.63305698 0.62009432 -2.61553534 0 0 0 Z " fill="#2C8992" transform="translate(40,25)"/>
<path d="M0 0 C0.33 0.66 0.66 1.32 1 2 C1.66 2 2.32 2 3 2 C2.82374165 4.37948772 2.30280227 5.70225849 0.59765625 7.37890625 C-0.90649092 8.62115486 -2.45129851 9.81376056 -4 11 C-4 10.34 -4 9.68 -4 9 C-5.32 9.33 -6.64 9.66 -8 10 C-7.04367001 8.70684939 -6.08486149 7.41553147 -5.125 6.125 C-4.59132813 5.40570313 -4.05765625 4.68640625 -3.5078125 3.9453125 C-2 2 -2 2 0 0 Z " fill="#379BAB" transform="translate(92,75)"/>
<path d="M0 0 C0.33 0.66 0.66 1.32 1 2 C1.66 1.67 2.32 1.34 3 1 C4.62053273 0.9157294 6.24449349 0.89274987 7.8671875 0.90234375 C9.31931641 0.90717773 9.31931641 0.90717773 10.80078125 0.91210938 C12.32251953 0.92467773 12.32251953 0.92467773 13.875 0.9375 C14.88175781 0.94201172 15.88851562 0.94652344 16.92578125 0.95117188 C18.80323452 0.95989842 20.68068014 0.97067444 22.55810547 0.98413086 C24.70536482 0.99808525 26.85269531 1 29 1 C29 1.66 29 2.32 29 3 C18.77 3 8.54 3 -2 3 C-1.34 2.01 -0.68 1.02 0 0 Z " fill="#0D4E5E" transform="translate(59,42)"/>
<path d="M0 0 C5.94 0 11.88 0 18 0 C18 0.33 18 0.66 18 1 C12.72 1 7.44 1 2 1 C2.33 2.98 2.66 4.96 3 7 C2.01 6.67 1.02 6.34 0 6 C0.33 8.31 0.66 10.62 1 13 C-1.63326457 10.36673543 -1.71180635 8.67446899 -2 5 C-1.34 3.35 -0.68 1.7 0 0 Z " fill="#124854" transform="translate(54,48)"/>
<path d="M0 0 C7.59 0 15.18 0 23 0 C23.33 1.32 23.66 2.64 24 4 C23.34 3.34 22.68 2.68 22 2 C19.0906442 1.85482256 16.280054 1.81369204 13.375 1.875 C12.17230469 1.88853516 12.17230469 1.88853516 10.9453125 1.90234375 C8.96341477 1.92593777 6.98167019 1.96180935 5 2 C6.32 3.65 7.64 5.3 9 7 C8.67 7.66 8.34 8.32 8 9 C6.66368764 7.6905332 5.33102075 6.37734515 4 5.0625 C3.2575 4.33160156 2.515 3.60070313 1.75 2.84765625 C0 1 0 1 0 0 Z " fill="#064350" transform="translate(27,47)"/>
<path d="M0 0 C2.86724686 0.57344937 3.8614515 0.8614515 6 3 C8.06874034 3.6425235 8.06874034 3.6425235 10 4 C10.33 3.34 10.66 2.68 11 2 C10.625 4.4375 10.625 4.4375 10 7 C7.35541621 8.32229189 5.32238699 8.09677194 2.375 8.0625 C1.37210937 8.05347656 0.36921875 8.04445313 -0.6640625 8.03515625 C-1.43492188 8.02355469 -2.20578125 8.01195312 -3 8 C-3 7.67 -3 7.34 -3 7 C-0.36 7 2.28 7 5 7 C4.175 6.030625 3.35 5.06125 2.5 4.0625 C0 1 0 1 0 0 Z " fill="#3CA2B2" transform="translate(83,38)"/>
<path d="M0 0 C2.96404505 2.80804268 5.44499019 5.18315774 7 9 C6.34 9 5.68 9 5 9 C4.34 9.66 3.68 10.32 3 11 C1.68 9.68 0.36 8.36 -1 7 C-1.99 7.495 -1.99 7.495 -3 8 C-2.690625 7.236875 -2.38125 6.47375 -2.0625 5.6875 C-1.32106407 3.81210323 -0.63771783 1.91315348 0 0 Z " fill="#31909C" transform="translate(106,23)"/>
<path d="M0 0 C8.58 0 17.16 0 26 0 C25.67 0.99 25.34 1.98 25 3 C17.41 2.34 9.82 1.68 2 1 C1.67 1.66 1.34 2.32 1 3 C0.67 2.01 0.34 1.02 0 0 Z " fill="#125A69" transform="translate(76,25)"/>
<path d="M0 0 C2.5 2.0625 2.5 2.0625 5 5 C5.3125 8.8125 5.3125 8.8125 5 12 C2 11 2 11 0.25 7.6875 C-1.33072237 3.02436902 -1.33072237 3.02436902 0 0 Z " fill="#378E98" transform="translate(63,74)"/>
<path d="M0 0 C3.87132028 0.57352893 6.08172796 2.48704352 9 5 C8.67 6.98 8.34 8.96 8 11 C4.71773991 7.89515937 2.11486077 5.00710462 0 1 C0 0.67 0 0.34 0 0 Z " fill="#36A8B3" transform="translate(60,87)"/>
<path d="M0 0 C-0.15481795 2.70931419 -0.48172081 4.46584039 -2.40234375 6.4453125 C-3.89771708 7.67679642 -5.4462924 8.8429837 -7 10 C-7.75 8.3125 -7.75 8.3125 -8 6 C-3.95348837 0 -3.95348837 0 0 0 Z " fill="#39A5B5" transform="translate(88,84)"/>
<path d="M0 0 C2.24956302 2.24956302 3.00510965 4.06323263 4.1875 7 C4.55230469 7.886875 4.91710937 8.77375 5.29296875 9.6875 C6 12 6 12 5 14 C4.34 13.34 3.68 12.68 3 12 C2.01 12 1.02 12 0 12 C-0.33 10.35 -0.66 8.7 -1 7 C-0.01 7.33 0.98 7.66 2 8 C1.67 7.4225 1.34 6.845 1 6.25 C0 4 0 4 0 0 Z " fill="#256F78" transform="translate(60,63)"/>
<path d="M0 0 C0 0.99 0 1.98 0 3 C-0.33 3.33 -0.66 3.66 -1 4 C2.18824568 5.59412284 5.62896662 5.10174735 9.125 5.0625 C10.25615234 5.05573242 10.25615234 5.05573242 11.41015625 5.04882812 C13.27347127 5.03703499 15.13674555 5.01909942 17 5 C17 5.66 17 6.32 17 7 C9.74 7 2.48 7 -5 7 C-5 6.34 -5 5.68 -5 5 C-4.34 5 -3.68 5 -3 5 C-2.5359375 4.0409375 -2.5359375 4.0409375 -2.0625 3.0625 C-1 1 -1 1 0 0 Z " fill="#093C47" transform="translate(32,37)"/>
<path d="M0 0 C0.99 0.33 1.98 0.66 3 1 C1.61918777 5.1424367 -0.59825558 6.32203099 -4 9 C-5.32 8.34 -6.64 7.68 -8 7 C-6.74057614 5.80040625 -5.46704714 4.61560557 -4.1875 3.4375 C-3.12595703 2.44556641 -3.12595703 2.44556641 -2.04296875 1.43359375 C-1.36878906 0.96050781 -0.69460937 0.48742188 0 0 Z " fill="#39AEB8" transform="translate(32,33)"/>
<path d="M0 0 C0.99 0 1.98 0 3 0 C3.33 1.98 3.66 3.96 4 6 C4.66 6 5.32 6 6 6 C5.67 6.99 5.34 7.98 5 9 C2.03 8.67 -0.94 8.34 -4 8 C0 6 0 6 2 6 C1.34 5.01 0.68 4.02 0 3 C0 2.01 0 1.02 0 0 Z " fill="#44C2CD" transform="translate(48,39)"/>
<path d="M0 0 C2.125 0.375 2.125 0.375 4 1 C3.34 1.66 2.68 2.32 2 3 C1.28591666 4.98356483 0.61382258 6.98315437 0 9 C-1.32 9 -2.64 9 -4 9 C-2.25 2.25 -2.25 2.25 0 0 Z " fill="#3BABB8" transform="translate(102,26)"/>
<path d="M0 0 C0.33 0 0.66 0 1 0 C0.88601335 1.62580966 0.75844341 3.25067157 0.625 4.875 C0.55539063 5.77992187 0.48578125 6.68484375 0.4140625 7.6171875 C0 10 0 10 -2 12 C-2 10.68 -2 9.36 -2 8 C-2.66 8 -3.32 8 -4 8 C-4.33 8.66 -4.66 9.32 -5 10 C-4.67 8.35 -4.34 6.7 -4 5 C-3.34 5 -2.68 5 -2 5 C-1.34 3.35 -0.68 1.7 0 0 Z " fill="#3693A2" transform="translate(81,77)"/>
<path d="M0 0 C0.99 0.99 1.98 1.98 3 3 C4.65 2.34 6.3 1.68 8 1 C7.6875 2.9375 7.6875 2.9375 7 5 C6.01 5.33 5.02 5.66 4 6 C3.67 6.66 3.34 7.32 3 8 C3 7.34 3 6.68 3 6 C2.34 6 1.68 6 1 6 C0.67 4.02 0.34 2.04 0 0 Z " fill="#2E99A7" transform="translate(51,39)"/>
<path d="M0 0 C0.33 0.66 0.66 1.32 1 2 C3.02463255 2.65213292 3.02463255 2.65213292 5 3 C3.35 4.32 1.7 5.64 0 7 C-0.66 6.34 -1.32 5.68 -2 5 C-2.99 5.66 -3.98 6.32 -5 7 C-3.70700306 4.11562221 -2.34058637 2.12780579 0 0 Z " fill="#26727D" transform="translate(66,28)"/>
<path d="M0 0 C2.27795022 2.27795022 3.05219877 3.93787293 4 7 C3.67 8.32 3.34 9.64 3 11 C0.69 9.02 -1.62 7.04 -4 5 C-1 5 -1 5 1 6 C0.67 4.02 0.34 2.04 0 0 Z " fill="#022F39" transform="translate(61,76)"/>
<path d="M0 0 C0.83438967 2.33629107 1.22334675 3.50176494 0.1875 5.8125 C-0.204375 6.534375 -0.59625 7.25625 -1 8 C-1.33 9.216875 -1.66 10.43375 -2 11.6875 C-2.33 12.780625 -2.66 13.87375 -3 15 C-3.99 15.495 -3.99 15.495 -5 16 C-3.90301833 10.30860098 -2.45946923 5.25432063 0 0 Z " fill="#165160" transform="translate(87,56)"/>
<path d="M0 0 C0.625 1.8125 0.625 1.8125 1 4 C0.01 5.485 0.01 5.485 -1 7 C-0.01 7 0.98 7 2 7 C1.34 8.32 0.68 9.64 0 11 C-0.66 10.34 -1.32 9.68 -2 9 C-2.33 9.99 -2.66 10.98 -3 12 C-3.66 12 -4.32 12 -5 12 C-3.41037341 7.96479403 -1.71767682 3.98188718 0 0 Z " fill="#20636E" transform="translate(99,28)"/>
<path d="M0 0 C-0.3125 2.375 -0.3125 2.375 -1 5 C-1.99 5.66 -2.98 6.32 -4 7 C-4.66 6.67 -5.32 6.34 -6 6 C-6 5.01 -6 4.02 -6 3 C-2.66666667 0 -2.66666667 0 0 0 Z " fill="#44B1BD" transform="translate(99,71)"/>
<path d="M0 0 C1.04449911 3.13349732 0.93423645 3.98968256 0 7 C-0.99 7 -1.98 7 -3 7 C-3.33 7.66 -3.66 8.32 -4 9 C-4.66 8.67 -5.32 8.34 -6 8 C-6 7.34 -6 6.68 -6 6 C-5.34 6 -4.68 6 -4 6 C-4 5.34 -4 4.68 -4 4 C-2.70766393 2.62689293 -1.37562854 1.28965176 0 0 Z " fill="#40CAD9" transform="translate(76,92)"/>
<path d="M0 0 C2 1.375 2 1.375 4 3 C4 3.66 4 4.32 4 5 C4.66 5 5.32 5 6 5 C6 5.66 6 6.32 6 7 C5.01 7 4.02 7 3 7 C2.67 7.66 2.34 8.32 2 9 C1.01 7.68 0.02 6.36 -1 5 C-0.01 4.67 0.98 4.34 2 4 C1.34 2.68 0.68 1.36 0 0 Z " fill="#25707C" transform="translate(51,73)"/>
<path d="M0 0 C0.33 0.66 0.66 1.32 1 2 C-3.68493876 4.48887372 -6.9444214 3.85687773 -12 3 C-9.50494038 0.50494038 -8.32671112 0.64051624 -4.875 0.375 C-3.96492188 0.30023438 -3.05484375 0.22546875 -2.1171875 0.1484375 C-1.06917969 0.07496094 -1.06917969 0.07496094 0 0 Z " fill="#3AB6C3" transform="translate(118,43)"/>
<path d="M0 0 C2.2636564 1.40445835 4.0208685 3.1967913 6 5 C5.67 5.66 5.34 6.32 5 7 C4.54625 6.505 4.0925 6.01 3.625 5.5 C2.12364481 3.77390663 2.12364481 3.77390663 0 4 C-0.33 4.66 -0.66 5.32 -1 6 C-1.99 5.01 -2.98 4.02 -4 3 C-3 1 -3 1 0 0 Z " fill="#226B78" transform="translate(78,28)"/>
<path d="M0 0 C1.32 0 2.64 0 4 0 C5.75 2.5 5.75 2.5 7 5 C5.35 5 3.7 5 2 5 C1.34 3.35 0.68 1.7 0 0 Z " fill="#42ACB8" transform="translate(47,73)"/>
<path d="M0 0 C1.04449911 3.13349732 0.93423645 3.98968256 0 7 C-0.33 6.01 -0.66 5.02 -1 4 C-3.475 5.485 -3.475 5.485 -6 7 C-4.60667426 3.63279613 -3.0210714 2.0140476 0 0 Z " fill="#277481" transform="translate(116,49)"/>
<path d="M0 0 C0.99 0.33 1.98 0.66 3 1 C3.6875 3.75 3.6875 3.75 4 7 C2.5625 9.375 2.5625 9.375 1 11 C0 8 0 8 1 5 C0.60602665 2.36195411 0.60602665 2.36195411 0 0 Z " fill="#48C5D4" transform="translate(67,87)"/>
<path d="M0 0 C0 2.66666667 0 5.33333333 0 8 C-0.99 8.495 -0.99 8.495 -2 9 C-2 8.34 -2 7.68 -2 7 C-3.32 7.33 -4.64 7.66 -6 8 C-4.02 5.36 -2.04 2.72 0 0 Z " fill="#2C7E8C" transform="translate(90,77)"/>
<path d="M0 0 C0.66 0 1.32 0 2 0 C2.125 2.875 2.125 2.875 2 6 C1.34 6.66 0.68 7.32 0 8 C-0.66 6.02 -1.32 4.04 -2 2 C-1.34 1.34 -0.68 0.68 0 0 Z " fill="#379CAA" transform="translate(90,54)"/>
<path d="M0 0 C0.66 0 1.32 0 2 0 C2.66 2.64 3.32 5.28 4 8 C2.68 7.67 1.36 7.34 0 7 C0 4.69 0 2.38 0 0 Z " fill="#44B4C7" transform="translate(58,63)"/>
<path d="M0 0 C0.66 0 1.32 0 2 0 C4 3 4 3 4 7 C3.01 6.67 2.02 6.34 1 6 C0.67 4.02 0.34 2.04 0 0 Z " fill="#49C1C6" transform="translate(64,79)"/>
<path d="M0 0 C2 3 2 3 1.625 5.6875 C1.41875 6.450625 1.2125 7.21375 1 8 C0.01 7.34 -0.98 6.68 -2 6 C-1.125 1.125 -1.125 1.125 0 0 Z " fill="#28818A" transform="translate(23,41)"/>
<path d="M0 0 C1.65 0 3.3 0 5 0 C5.33 1.32 5.66 2.64 6 4 C4.02 4 2.04 4 0 4 C0 2.66666667 0 1.33333333 0 0 Z " fill="#42C6D0" transform="translate(69,23)"/>
<path d="M0 0 C1.485 0.99 1.485 0.99 3 2 C2.625 4.4375 2.625 4.4375 2 7 C1.01 7.495 1.01 7.495 0 8 C0 5.36 0 2.72 0 0 Z " fill="#309AA9" transform="translate(78,90)"/>
<path d="M0 0 C0.66 1.32 1.32 2.64 2 4 C0.35 5.65 -1.3 7.3 -3 9 C-2.01 6.03 -1.02 3.06 0 0 Z " fill="#04384D" transform="translate(82,82)"/>
<path d="M0 0 C1.32 0.66 2.64 1.32 4 2 C4 2.99 4 3.98 4 5 C2.68 4.67 1.36 4.34 0 4 C0 2.68 0 1.36 0 0 Z " fill="#43B3C1" transform="translate(111,31)"/>
<path d="M0 0 C0.66 0.33 1.32 0.66 2 1 C1.67 2.32 1.34 3.64 1 5 C-0.32 5 -1.64 5 -3 5 C-1.125 1.125 -1.125 1.125 0 0 Z " fill="#43B1B6" transform="translate(64,32)"/>
<path d="M0 0 C1.65 0.33 3.3 0.66 5 1 C5.33 2.65 5.66 4.3 6 6 C4.35 4.68 2.7 3.36 1 2 C0.01 2.495 0.01 2.495 -1 3 C-0.67 2.01 -0.34 1.02 0 0 Z " fill="#206D78" transform="translate(104,28)"/>
<path d="M0 0 C2.31 0 4.62 0 7 0 C4.4345406 2.5654594 2.52313332 2.54046087 -1 3 C-0.67 2.01 -0.34 1.02 0 0 Z " fill="#36A4AF" transform="translate(68,27)"/>
</svg>
