<?xml version="1.0" encoding="UTF-8"?>
<svg version="1.1" xmlns="http://www.w3.org/2000/svg" width="218" height="442">
<path d="M0 0 C6.92404461 0.76933829 14.34552931 4.08981027 19 9.4375 C23.54071346 16.46828213 25.07700374 21.37109575 25 29.6875 C24.99097656 30.95078125 24.98195312 32.2140625 24.97265625 33.515625 C24.96105469 34.47984375 24.94945312 35.4440625 24.9375 36.4375 C25.72125 36.705625 26.505 36.97375 27.3125 37.25 C29.9375 38.4375 29.9375 38.4375 31.9375 41.4375 C32.157928 44.3640059 32.2655386 47.19297765 32.2734375 50.12109375 C32.2834227 51.39896507 32.2834227 51.39896507 32.29360962 52.70265198 C32.30373202 54.50397584 32.30842677 56.30533718 32.30810547 58.10668945 C32.31247852 60.86146853 32.34880042 63.61464508 32.38671875 66.36914062 C32.39258705 68.11978619 32.39655635 69.87043936 32.3984375 71.62109375 C32.41280853 72.44411484 32.42717957 73.26713593 32.44198608 74.11509705 C32.41375952 77.65106381 32.28853626 79.84174365 30.47119141 82.92602539 C24.22906792 86.64976662 15.67301024 85.59673778 8.609375 85.60546875 C7.65734192 85.60879715 6.70530884 85.61212555 5.72442627 85.61555481 C3.72774739 85.6205841 1.73106021 85.62296438 -0.265625 85.62280273 C-3.3178472 85.62500386 -6.36971585 85.64324166 -9.421875 85.66210938 C-11.36979044 85.66504123 -13.31770758 85.66702742 -15.265625 85.66796875 C-16.62823456 85.67874702 -16.62823456 85.67874702 -18.01837158 85.68974304 C-23.41388616 85.67024772 -27.61320769 85.58629654 -31.84350586 81.875 C-33.71121104 78.14033777 -33.55005181 74.56108821 -33.56640625 70.4375 C-33.57639145 69.56480469 -33.58637665 68.69210938 -33.59666443 67.79296875 C-33.61183037 65.950569 -33.61889069 64.10808711 -33.6184082 62.265625 C-33.62497893 59.44654094 -33.67949635 56.63096231 -33.73632812 53.8125 C-33.745129 52.02084537 -33.75108402 50.22917402 -33.75390625 48.4375 C-33.7754628 47.59574219 -33.79701935 46.75398438 -33.81922913 45.88671875 C-33.79221918 43.58187005 -33.71836179 41.64852406 -33.0625 39.4375 C-30.06079102 37.10058594 -30.06079102 37.10058594 -27.0625 35.4375 C-26.54138592 32.6050917 -26.36600012 30.50264538 -26.4375 27.6875 C-26.32095029 21.36112489 -25.81008356 16.64600596 -22.0625 11.4375 C-21.340625 10.365 -20.61875 9.2925 -19.875 8.1875 C-14.26841468 2.70550547 -7.55824281 1.07974897 0 0 Z M-11.0625 14.4375 C-11.619375 14.89125 -12.17625 15.345 -12.75 15.8125 C-16.08946047 19.94707011 -16.29177388 24.08844275 -16.1875 29.25 C-16.16945313 30.41144531 -16.15140625 31.57289062 -16.1328125 32.76953125 C-16.10960938 33.64996094 -16.08640625 34.53039062 -16.0625 35.4375 C-12.66799169 36.46632464 -9.55731687 36.56655489 -6.01953125 36.5703125 C-4.86388672 36.57160156 -3.70824219 36.57289062 -2.51757812 36.57421875 C-0.71450195 36.56841797 -0.71450195 36.56841797 1.125 36.5625 C2.33865234 36.56636719 3.55230469 36.57023437 4.80273438 36.57421875 C5.95451172 36.57292969 7.10628906 36.57164063 8.29296875 36.5703125 C9.35153076 36.56918457 10.41009277 36.56805664 11.50073242 36.56689453 C13.88529025 36.71258201 13.88529025 36.71258201 14.9375 35.4375 C15.57394505 28.4733224 15.11782892 22.68849133 11.9375 16.4375 C7.07348527 11.69508564 2.91692476 11.14822639 -3.62109375 11.21484375 C-6.78177961 11.5030983 -8.61687742 12.43653607 -11.0625 14.4375 Z M-6.0625 52.4375 C-6.0625 53.0975 -6.0625 53.7575 -6.0625 54.4375 C-6.7225 54.4375 -7.3825 54.4375 -8.0625 54.4375 C-7.61780671 59.47735731 -5.34906638 61.81384988 -2.0625 65.4375 C0.80981652 64.14990983 3.12975634 63.05872831 4.9375 60.4375 C5.60416667 56.9375 5.60416667 56.9375 4.9375 53.4375 C0.9233116 50.07426107 -1.61267227 49.47094818 -6.0625 52.4375 Z M-1.0625 67.4375 C-1.3925 68.7575 -1.7225 70.0775 -2.0625 71.4375 C-1.0725 71.9325 -1.0725 71.9325 -0.0625 72.4375 C-0.0625 70.7875 -0.0625 69.1375 -0.0625 67.4375 C-0.3925 67.4375 -0.7225 67.4375 -1.0625 67.4375 Z " fill="#CF559D" transform="translate(70.0625,26.5625)"/>
<path d="M0 0 C6.92404461 0.76933829 14.34552931 4.08981027 19 9.4375 C23.54071346 16.46828213 25.07700374 21.37109575 25 29.6875 C24.99097656 30.95078125 24.98195312 32.2140625 24.97265625 33.515625 C24.96105469 34.47984375 24.94945312 35.4440625 24.9375 36.4375 C25.72125 36.705625 26.505 36.97375 27.3125 37.25 C29.9375 38.4375 29.9375 38.4375 31.9375 41.4375 C32.10972348 44.41141061 32.16944201 47.28952918 32.1328125 50.26171875 C32.1299826 51.12311966 32.12715271 51.98452057 32.12423706 52.87202454 C32.11304237 55.62315769 32.08793921 58.37396525 32.0625 61.125 C32.05246927 62.99022967 32.04334359 64.85546445 32.03515625 66.72070312 C32.01310538 71.2930942 31.97858049 75.86524189 31.9375 80.4375 C30.9475 80.9325 30.9475 80.9325 29.9375 81.4375 C29.6075 67.9075 29.2775 54.3775 28.9375 40.4375 C28.9375 40.7675 28.9375 41.0975 28.9375 41.4375 C28.6075 42.4275 28.2775 43.4175 27.9375 44.4375 C27.2775 43.7775 26.6175 43.1175 25.9375 42.4375 C25.9375 41.1175 25.9375 39.7975 25.9375 38.4375 C7.7875 38.1075 -10.3625 37.7775 -29.0625 37.4375 C-28.4025 36.4475 -27.7425 35.4575 -27.0625 34.4375 C-26.86397041 32.04663648 -26.75004282 29.64827662 -26.6875 27.25 C-26.4045715 21.14297375 -25.61604754 16.4847421 -22.0625 11.4375 C-21.340625 10.365 -20.61875 9.2925 -19.875 8.1875 C-14.26841468 2.70550547 -7.55824281 1.07974897 0 0 Z M-11.0625 14.4375 C-11.619375 14.89125 -12.17625 15.345 -12.75 15.8125 C-16.08946047 19.94707011 -16.29177388 24.08844275 -16.1875 29.25 C-16.16945313 30.41144531 -16.15140625 31.57289062 -16.1328125 32.76953125 C-16.10960937 33.64996094 -16.08640625 34.53039062 -16.0625 35.4375 C-12.66799169 36.46632464 -9.55731687 36.56655489 -6.01953125 36.5703125 C-4.86388672 36.57160156 -3.70824219 36.57289062 -2.51757812 36.57421875 C-0.71450195 36.56841797 -0.71450195 36.56841797 1.125 36.5625 C2.33865234 36.56636719 3.55230469 36.57023437 4.80273438 36.57421875 C5.95451172 36.57292969 7.10628906 36.57164063 8.29296875 36.5703125 C9.35153076 36.56918457 10.41009277 36.56805664 11.50073242 36.56689453 C13.88529025 36.71258201 13.88529025 36.71258201 14.9375 35.4375 C15.57394505 28.4733224 15.11782892 22.68849133 11.9375 16.4375 C7.07348527 11.69508564 2.91692476 11.14822639 -3.62109375 11.21484375 C-6.78177961 11.5030983 -8.61687742 12.43653607 -11.0625 14.4375 Z " fill="#AC4784" transform="translate(70.0625,26.5625)"/>
<path d="M0 0 C0 0.33 0 0.66 0 1 C-0.84304687 1.04898437 -1.68609375 1.09796875 -2.5546875 1.1484375 C-3.65039062 1.22320313 -4.74609375 1.29796875 -5.875 1.375 C-7.51082031 1.47941406 -7.51082031 1.47941406 -9.1796875 1.5859375 C-12.13046474 1.73253491 -12.13046474 1.73253491 -14 4 C-11.36 4.66 -8.72 5.32 -6 6 C-8.2903935 7.27244083 -10.00765948 8.00109421 -12.625 8.375 C-13.40875 8.58125 -14.1925 8.7875 -15 9 C-16.09166275 10.93330603 -16.09166275 10.93330603 -17 13 C-17.680625 13.33 -18.36125 13.66 -19.0625 14 C-21.135792 14.79094786 -21.135792 14.79094786 -21.5859375 16.640625 C-22.11797281 19.67222244 -22.34759186 22.6798837 -22.5625 25.75 C-22.64628906 26.92046875 -22.73007812 28.0909375 -22.81640625 29.296875 C-22.87699219 30.18890625 -22.93757813 31.0809375 -23 32 C-25.64 32 -28.28 32 -31 32 C-31.10852923 29.12397545 -31.1875515 26.25209168 -31.25 23.375 C-31.28351562 22.56675781 -31.31703125 21.75851563 -31.3515625 20.92578125 C-31.44163317 15.3864353 -30.59368516 12.44836309 -27 8 C-26.46375 7.113125 -25.9275 6.22625 -25.375 5.3125 C-18.68278355 -1.20360549 -8.7200992 -0.36903241 0 0 Z " fill="#B4548F" transform="translate(76,29)"/>
<path d="M0 0 C2 1 2 1 3.125 3.6875 C4.71852949 9.61343779 4.15174116 15.92192359 4 22 C4.78375 22.268125 5.5675 22.53625 6.375 22.8125 C9 24 9 24 11 27 C11.17222348 29.97391061 11.23194201 32.85202918 11.1953125 35.82421875 C11.1924826 36.68561966 11.18965271 37.54702057 11.18673706 38.43452454 C11.17554237 41.18565769 11.15043921 43.93646525 11.125 46.6875 C11.11496927 48.55272967 11.10584359 50.41796445 11.09765625 52.28320312 C11.07560538 56.8555942 11.04108049 61.42774189 11 66 C10.01 66.495 10.01 66.495 9 67 C8.67 53.47 8.34 39.94 8 26 C8 26.33 8 26.66 8 27 C7.505 28.485 7.505 28.485 7 30 C6.34 29.34 5.68 28.68 5 28 C5 26.68 5 25.36 5 24 C-13.15 23.67 -31.3 23.34 -50 23 C-49.01 21.515 -49.01 21.515 -48 20 C-47.70008931 17.41114829 -47.49134775 14.90850918 -47.375 12.3125 C-47.33632813 11.61060547 -47.29765625 10.90871094 -47.2578125 10.18554688 C-47.1637666 8.45745345 -47.0808032 6.72876325 -47 5 C-46.67 5 -46.34 5 -46 5 C-46 9.95 -46 14.9 -46 20 C-43.36 20 -40.72 20 -38 20 C-38.05220703 18.66195312 -38.05220703 18.66195312 -38.10546875 17.296875 C-38.13253906 16.12640625 -38.15960938 14.9559375 -38.1875 13.75 C-38.22230469 12.58984375 -38.25710937 11.4296875 -38.29296875 10.234375 C-38 7 -38 7 -35 3 C-35.66 8.94 -36.32 14.88 -37 21 C-27.1 21 -17.2 21 -7 21 C-7 16.05 -7 11.1 -7 6 C-4.71937172 9.42094242 -4.78074993 10.68187222 -4.875 14.6875 C-4.89304688 15.68136719 -4.91109375 16.67523438 -4.9296875 17.69921875 C-4.95289063 18.45847656 -4.97609375 19.21773437 -5 20 C-2.69 20 -0.38 20 2 20 C1.01 10.1 1.01 10.1 0 0 Z " fill="#5B2249" transform="translate(91,41)"/>
<path d="M0 0 C0.66 0.33 1.32 0.66 2 1 C1.67 1.33 1.34 1.66 1 2 C0.83989519 4.73701178 0.74053172 7.4516759 0.68359375 10.19140625 C0.66281265 11.01124496 0.64203156 11.83108368 0.62062073 12.67576599 C0.55503506 15.30458901 0.49619874 17.93351504 0.4375 20.5625 C0.39432333 22.34050561 0.35070933 24.11850065 0.30664062 25.89648438 C0.19934457 30.26421634 0.09810296 34.63205227 0 39 C1.98 39.66 3.96 40.32 6 41 C6 42.32 6 43.64 6 45 C23.82 45 41.64 45 60 45 C59.505 45.99 59.505 45.99 59 47 C52.5572542 48.0107449 46.18284761 48.15992089 39.671875 48.16796875 C38.71984192 48.17129715 37.76780884 48.17462555 36.78692627 48.17805481 C34.79024739 48.1830841 32.79356021 48.18546438 30.796875 48.18530273 C27.7446528 48.18750386 24.69278415 48.20574166 21.640625 48.22460938 C19.69270956 48.22754123 17.74479242 48.22952742 15.796875 48.23046875 C14.88846863 48.23765427 13.98006226 48.24483978 13.04412842 48.25224304 C7.64211252 48.23272423 3.45652383 48.13852613 -0.78979492 44.44189453 C-2.6561267 40.6760986 -2.40831344 37.07624374 -2.36328125 32.9296875 C-2.36377975 32.05224884 -2.36427826 31.17481018 -2.36479187 30.27078247 C-2.36245505 28.41991913 -2.35274964 26.56905238 -2.33618164 24.71826172 C-2.31252743 21.87829364 -2.31563116 19.03926071 -2.32226562 16.19921875 C-2.31669078 14.40103605 -2.30958212 12.60285731 -2.30078125 10.8046875 C-2.30169266 9.95260712 -2.30260406 9.10052673 -2.30354309 8.22262573 C-2.23104483 2.23104483 -2.23104483 2.23104483 0 0 Z " fill="#592148" transform="translate(39,64)"/>
<path d="M0 0 C4.41120103 0.36760009 5.81453287 1.04155092 8.75 4.3125 C11.59223594 10.67369473 10.93541361 17.46249724 10.75 24.3125 C8.44 24.3125 6.13 24.3125 3.75 24.3125 C3.42 19.6925 3.09 15.0725 2.75 10.3125 C2.09 10.3125 1.43 10.3125 0.75 10.3125 C-0.9 7.3425 -2.55 4.3725 -4.25 1.3125 C-3.25 0.3125 -3.25 0.3125 0 0 Z " fill="#CC579E" transform="translate(82.25,36.6875)"/>
<path d="M0 0 C1.15242188 0.01804687 2.30484375 0.03609375 3.4921875 0.0546875 C4.36101562 0.07789062 5.22984375 0.10109375 6.125 0.125 C6.125 0.455 6.125 0.785 6.125 1.125 C5.28195313 1.17398437 4.43890625 1.22296875 3.5703125 1.2734375 C2.47460938 1.34820313 1.37890625 1.42296875 0.25 1.5 C-1.38582031 1.60441406 -1.38582031 1.60441406 -3.0546875 1.7109375 C-6.00546474 1.85753491 -6.00546474 1.85753491 -7.875 4.125 C-5.235 4.785 -2.595 5.445 0.125 6.125 C-1.19838632 6.81120031 -2.53449948 7.47286461 -3.875 8.125 C-4.679375 8.516875 -5.48375 8.90875 -6.3125 9.3125 C-8.875 10.125 -8.875 10.125 -11.5 9.5625 C-12.675625 9.3459375 -12.675625 9.3459375 -13.875 9.125 C-15.7104799 10.45878575 -15.7104799 10.45878575 -16.875 12.125 C-17.875 9.125 -17.875 9.125 -16.9375 6.9375 C-16.586875 6.339375 -16.23625 5.74125 -15.875 5.125 C-15.215 5.125 -14.555 5.125 -13.875 5.125 C-13.545 4.135 -13.215 3.145 -12.875 2.125 C-8.5215531 0.17434575 -4.72758049 -0.09648123 0 0 Z " fill="#C75A9B" transform="translate(69.875,28.875)"/>
<path d="M0 0 C1.32 0 2.64 0 4 0 C5.38226016 2.76452033 5.09525387 5.0461363 5.0625 8.125 C5.05347656 9.22070312 5.04445313 10.31640625 5.03515625 11.4453125 C5.02355469 12.28835937 5.01195312 13.13140625 5 14 C3.02 14 1.04 14 -1 14 C-1.18451025 4.58997722 -1.18451025 4.58997722 0 0 Z " fill="#D159A1" transform="translate(47,46)"/>
<path d="M0 0 C0.66 0.33 1.32 0.66 2 1 C2 1.99 2 2.98 2 4 C1.360625 4.433125 0.72125 4.86625 0.0625 5.3125 C-2.73689435 7.60291356 -2.54549664 9.5154742 -3 13 C-3.99 13.495 -3.99 13.495 -5 14 C-6.95216435 15.95216435 -7.84826645 17.53199953 -9 20 C-10.47107438 12.88980716 -10.47107438 12.88980716 -8.3125 8.8125 C-7.549375 7.884375 -6.78625 6.95625 -6 6 C-5.29875 5.071875 -4.5975 4.14375 -3.875 3.1875 C-2 1 -2 1 0 0 Z " fill="#9B4177" transform="translate(55,31)"/>
<path d="M0 0 C3.36720387 1.39332574 4.9859524 2.9789286 7 6 C6.67 6.66 6.34 7.32 6 8 C5.29875 7.505 4.5975 7.01 3.875 6.5 C0.62880281 4.8063319 -1.39340156 4.74837685 -5 5 C-5 5.66 -5 6.32 -5 7 C-5.68449219 6.83628906 -6.36898437 6.67257813 -7.07421875 6.50390625 C-10.3743278 5.93552966 -13.46554069 5.90369233 -16.8125 5.9375 C-17.97394531 5.94652344 -19.13539062 5.95554687 -20.33203125 5.96484375 C-21.21246094 5.97644531 -22.09289063 5.98804688 -23 6 C-20.39474888 3.39474888 -19.06624988 3.68537675 -15.4375 3.5 C-10.09154336 3.14532254 -5.19242033 2.29810508 0 1 C0 0.67 0 0.34 0 0 Z " fill="#893468" transform="translate(84,33)"/>
<path d="M0 0 C1.32 0.33 2.64 0.66 4 1 C4.66 0.67 5.32 0.34 6 0 C6 3.63 6 7.26 6 11 C4.02 11 2.04 11 0 11 C0 7.37 0 3.74 0 0 Z M3 4 C2.67 5.32 2.34 6.64 2 8 C2.99 8.495 2.99 8.495 4 9 C4 7.35 4 5.7 4 4 C3.67 4 3.34 4 3 4 Z " fill="#2A0825" transform="translate(66,90)"/>
<path d="M0 0 C0.66 0 1.32 0 2 0 C2 0.99 2 1.98 2 3 C-1.75848174 4.25282725 -5.25490919 4.12381835 -9.16796875 4.09765625 C-10.36018791 4.09553383 -10.36018791 4.09553383 -11.57649231 4.09336853 C-14.11353325 4.08777378 -16.65048575 4.07522228 -19.1875 4.0625 C-20.90820185 4.05748432 -22.62890508 4.05292153 -24.34960938 4.04882812 C-28.5664403 4.03780607 -32.78320516 4.02054506 -37 4 C-37 3.67 -37 3.34 -37 3 C-35.95021973 2.98018066 -34.90043945 2.96036133 -33.81884766 2.93994141 C-29.93106739 2.86397802 -26.04366597 2.77524702 -22.15625 2.68261719 C-20.47240671 2.64428896 -18.78848045 2.60944288 -17.10449219 2.578125 C-14.68654694 2.53255713 -12.26917472 2.47455077 -9.8515625 2.4140625 C-8.71867294 2.39673569 -8.71867294 2.39673569 -7.56289673 2.37905884 C-3.32174802 2.39669934 -3.32174802 2.39669934 0 0 Z " fill="#C06299" transform="translate(98,106)"/>
<path d="M0 0 C3 1 3 1 4.1875 2.8125 C5 5 5 5 5 9 C3.35 9 1.7 9 0 9 C0 6.03 0 3.06 0 0 Z " fill="#CA529B" transform="translate(46,51)"/>
<path d="M0 0 C0.33 0.99 0.66 1.98 1 3 C2.32 3 3.64 3 5 3 C4.34 5.97 3.68 8.94 3 12 C2.01 11.67 1.02 11.34 0 11 C0 7.37 0 3.74 0 0 Z " fill="#D05AA3" transform="translate(86,48)"/>
<path d="M0 0 C0.33 0 0.66 0 1 0 C1.07347656 0.95712891 1.07347656 0.95712891 1.1484375 1.93359375 C1.22320312 2.75988281 1.29796875 3.58617188 1.375 4.4375 C1.44460937 5.26121094 1.51421875 6.08492188 1.5859375 6.93359375 C1.72257812 7.61550781 1.85921875 8.29742187 2 9 C2.66 9.33 3.32 9.66 4 10 C3.34 11.32 2.68 12.64 2 14 C-0.97 14 -3.94 14 -7 14 C-7 13.34 -7 12.68 -7 12 C-4.69 12 -2.38 12 0 12 C0 8.04 0 4.08 0 0 Z " fill="#D062A4" transform="translate(73,90)"/>
<path d="M0 0 C1.98 0.66 3.96 1.32 6 2 C5.67 3.65 5.34 5.3 5 7 C3.68 6.67 2.36 6.34 1 6 C0.67 4.02 0.34 2.04 0 0 Z " fill="#C35799" transform="translate(39,103)"/>
<path d="M0 0 C0.99 0 1.98 0 3 0 C3.625 1.875 3.625 1.875 4 4 C3.34 4.66 2.68 5.32 2 6 C1.30251417 7.31747324 0.63040043 8.64914193 0 10 C-1.125 2.25 -1.125 2.25 0 0 Z " fill="#A34580" transform="translate(46,41)"/>
<path d="M0 0 C1.134375 0.020625 2.26875 0.04125 3.4375 0.0625 C3.4375 1.0525 3.4375 2.0425 3.4375 3.0625 C2.7775 2.7325 2.1175 2.4025 1.4375 2.0625 C1.4375 2.7225 1.4375 3.3825 1.4375 4.0625 C0.1175 4.3925 -1.2025 4.7225 -2.5625 5.0625 C-3.2225 3.7425 -3.8825 2.4225 -4.5625 1.0625 C-3.5625 0.0625 -3.5625 0.0625 0 0 Z " fill="#C45095" transform="translate(82.5625,36.9375)"/>
<path d="M0 0 C0.125 2.875 0.125 2.875 0 6 C-0.66 6.66 -1.32 7.32 -2 8 C-2.33 7.01 -2.66 6.02 -3 5 C-3.99 5.495 -3.99 5.495 -5 6 C-5 4.35 -5 2.7 -5 1 C-1.125 0 -1.125 0 0 0 Z " fill="#0D0211" transform="translate(72,90)"/>
<path d="M0 0 C1.32 0.33 2.64 0.66 4 1 C4.33 2.32 4.66 3.64 5 5 C5.66 5 6.32 5 7 5 C6.67 6.32 6.34 7.64 6 9 C5.34 8.67 4.68 8.34 4 8 C4 7.01 4 6.02 4 5 C3.34 5 2.68 5 2 5 C1.34 3.35 0.68 1.7 0 0 Z " fill="#A64B82" transform="translate(81,42)"/>
<path d="M0 0 C0.33 0.66 0.66 1.32 1 2 C3.02463255 2.65213292 3.02463255 2.65213292 5 3 C3.68 3.99 2.36 4.98 1 6 C1 5.34 1 4.68 1 4 C0.01 3.67 -0.98 3.34 -2 3 C-2 2.34 -2 1.68 -2 1 C-1.34 0.67 -0.68 0.34 0 0 Z " fill="#993C77" transform="translate(56,37)"/>
<path d="M0 0 C2.0625 0.4375 2.0625 0.4375 4 1 C4 1.99 4 2.98 4 4 C3.34 4 2.68 4 2 4 C1.67 4.66 1.34 5.32 1 6 C0.34 4.35 -0.32 2.7 -1 1 C-0.67 0.67 -0.34 0.34 0 0 Z " fill="#B34B8C" transform="translate(53,40)"/>
</svg>
