<?xml version="1.0" encoding="UTF-8"?>
<svg version="1.1" xmlns="http://www.w3.org/2000/svg" width="218" height="442">
<path d="M0 0 C5.16836721 1.72278907 8.78308717 4.57939659 11.484375 9.35546875 C13.68697191 14.2474684 15.33476915 18.65547333 15.375 24.0625 C15.38917969 24.92875 15.40335937 25.795 15.41796875 26.6875 C15.1875 29.0625 15.1875 29.0625 13.1875 32.0625 C12.5275 32.0625 11.8675 32.0625 11.1875 32.0625 C10.50403318 33.72234798 9.84161685 35.39086805 9.1875 37.0625 C8.630625 38.42375 8.630625 38.42375 8.0625 39.8125 C6.55895367 45.39710065 6.35398048 50.1523511 8.6875 55.5 C10.57870195 59.99160464 11.04759805 64.23920503 10.1875 69.0625 C8.8203125 70.859375 8.8203125 70.859375 7.1875 72.0625 C4.6875 72.0625 4.6875 72.0625 2.1875 71.0625 C-0.41027838 68.11835117 -0.84375034 66.62500617 -0.625 62.6875 C0.1875 59.0625 0.1875 59.0625 1.3125 55.75 C2.44559647 50.97480773 1.90355796 46.87170009 1.1875 42.0625 C-0.6996875 42.2171875 -0.6996875 42.2171875 -2.625 42.375 C-3.33269531 42.43300781 -4.04039063 42.49101563 -4.76953125 42.55078125 C-7.22761279 43.16647663 -8.19386299 44.15792081 -9.8125 46.0625 C-9.47025391 47.16658203 -9.47025391 47.16658203 -9.12109375 48.29296875 C-8.83363281 49.26878906 -8.54617187 50.24460938 -8.25 51.25 C-7.81494141 52.69439453 -7.81494141 52.69439453 -7.37109375 54.16796875 C-6.64001573 57.95628215 -7.09736452 60.63222903 -8.8125 64.0625 C-11.1875 64.25 -11.1875 64.25 -13.8125 64.0625 C-15.7881562 61.09901571 -16.07626859 60.38229627 -16.2265625 57.05078125 C-16.26523438 56.29345703 -16.30390625 55.53613281 -16.34375 54.75585938 C-16.3746875 53.97017578 -16.405625 53.18449219 -16.4375 52.375 C-16.47617188 51.57771484 -16.51484375 50.78042969 -16.5546875 49.95898438 C-16.64882494 47.99386525 -16.73174632 46.0282146 -16.8125 44.0625 C-17.48796875 44.33964844 -18.1634375 44.61679687 -18.859375 44.90234375 C-20.19742188 45.44568359 -20.19742188 45.44568359 -21.5625 46 C-22.44421875 46.35964844 -23.3259375 46.71929687 -24.234375 47.08984375 C-28.73389738 48.78739083 -28.73389738 48.78739083 -30.8125 49.0625 C-31.8025 48.4025 -32.7925 47.7425 -33.8125 47.0625 C-36.90219753 47.32144608 -39.82397652 48.25770037 -42.8125 49.0625 C-43.885 49.248125 -44.9575 49.43375 -46.0625 49.625 C-49.84506702 51.60225094 -50.87152261 54.27517742 -52.63671875 58.06640625 C-53.8125 60.0625 -53.8125 60.0625 -56.8125 61.0625 C-56.585625 62.25875 -56.35875 63.455 -56.125 64.6875 C-55.67060718 68.08946726 -55.73803726 68.91655303 -57.375 72.125 C-59.21440577 75.12175213 -59.21440577 75.12175213 -58 78.9375 C-57.4121875 80.484375 -57.4121875 80.484375 -56.8125 82.0625 C-56.19375 81.093125 -55.575 80.12375 -54.9375 79.125 C-52.8125 76.0625 -52.8125 76.0625 -50.8125 75.0625 C-47.13863468 74.65429274 -45.25963863 74.81408965 -42 76.625 C-39.13449187 79.81799477 -38.8125 81.80369188 -38.8125 86.0625 C-40.10727508 89.22750574 -41.48119813 90.77721228 -44.0625 93 C-47.93392872 94.49577928 -50.05076536 93.62397476 -53.8125 92.0625 C-54.4725 91.0725 -55.1325 90.0825 -55.8125 89.0625 C-56.4725 90.7125 -57.1325 92.3625 -57.8125 94.0625 C-60.5964183 92.67054085 -60.79148997 90.90674221 -61.8125 88.0625 C-62.4725 89.7125 -63.1325 91.3625 -63.8125 93.0625 C-64.4725 93.0625 -65.1325 93.0625 -65.8125 93.0625 C-66.8025 90.0925 -66.8025 90.0925 -67.8125 87.0625 C-68.1425 89.0425 -68.4725 91.0225 -68.8125 93.0625 C-69.8025 93.0625 -70.7925 93.0625 -71.8125 93.0625 C-71.83959444 90.97923869 -71.85893873 88.89587559 -71.875 86.8125 C-71.88660156 85.65234375 -71.89820312 84.4921875 -71.91015625 83.296875 C-71.83032092 80.65272872 -71.59893778 78.56423909 -70.8125 76.0625 C-69.8225 76.0625 -68.8325 76.0625 -67.8125 76.0625 C-66.8225 78.7025 -65.8325 81.3425 -64.8125 84.0625 C-64.296875 82.845625 -63.78125 81.62875 -63.25 80.375 C-62.81494141 79.34826172 -62.81494141 79.34826172 -62.37109375 78.30078125 C-61.68230508 75.54080987 -62.18779192 73.82436731 -62.8125 71.0625 C-62.8784735 68.95926466 -62.89812245 66.85414276 -62.875 64.75 C-62.86597656 63.68136719 -62.85695312 62.61273438 -62.84765625 61.51171875 C-62.83605469 60.70347656 -62.82445312 59.89523438 -62.8125 59.0625 C-63.54339844 59.38734375 -64.27429688 59.7121875 -65.02734375 60.046875 C-67.69881326 61.0210434 -69.56720669 61.25390257 -72.375 61.3125 C-75.94838889 61.68298514 -76.66578619 61.93284594 -79.5 64.4375 C-81.14917581 68.99236653 -80.46667418 71.73414377 -79.40625 76.3671875 C-78.65710755 79.76789996 -78.51769564 82.59854875 -78.8125 86.0625 C-80.8125 88.0625 -80.8125 88.0625 -83.3125 88.3125 C-85.8125 88.0625 -85.8125 88.0625 -87.8125 86.0625 C-88.04296875 83.96875 -88.04296875 83.96875 -88 81.5625 C-87.99033203 80.37140625 -87.99033203 80.37140625 -87.98046875 79.15625 C-87.8125 77.0625 -87.8125 77.0625 -86.8125 75.0625 C-86.22141665 70.96980895 -85.68491311 66.76458527 -88.046875 63.19921875 C-89.11481564 62.09162685 -90.19196576 60.99285355 -91.27734375 59.90234375 C-95.0776529 55.34777477 -96.5115404 48.03415352 -96.21484375 42.20703125 C-95.18714453 36.72929464 -93.41541604 30.91130017 -88.72265625 27.578125 C-86.44856801 26.56741912 -84.18767255 25.79962251 -81.8125 25.0625 C-80.59866869 24.49069517 -79.38977417 23.90822144 -78.1875 23.3125 C-74.46638238 21.93430829 -71.74989412 21.83962863 -67.8125 22.0625 C-66.4925 22.0625 -65.1725 22.0625 -63.8125 22.0625 C-63.3175 20.5775 -63.3175 20.5775 -62.8125 19.0625 C-60.23046875 17.4921875 -60.23046875 17.4921875 -57 15.9375 C-55.94167969 15.41929688 -54.88335937 14.90109375 -53.79296875 14.3671875 C-47.58293059 11.64876975 -42.18599381 12.05521366 -35.44140625 12.22265625 C-29.99824478 11.98243061 -26.9114448 10.26833752 -22.6875 7 C-18.22902049 3.90819009 -14.6544156 3.38649098 -9.29296875 3.36328125 C-5.39697725 2.89085393 -3.95592577 0.08790946 0 0 Z M-5.1875 6.5625 C-8.04850265 8.19735866 -9.58193128 8.33940589 -12.8125 8.0625 C-12.14751617 12.45139325 -10.62492323 16.0436485 -8.8125 20.0625 C-8.1525 20.0625 -7.4925 20.0625 -6.8125 20.0625 C-6.8125 17.4225 -6.8125 14.7825 -6.8125 12.0625 C-4.1725 11.7325 -1.5325 11.4025 1.1875 11.0625 C1.1875 12.3825 1.1875 13.7025 1.1875 15.0625 C0.1975 15.0625 -0.7925 15.0625 -1.8125 15.0625 C-2.8025 18.0325 -3.7925 21.0025 -4.8125 24.0625 C-7.1225 24.0625 -9.4325 24.0625 -11.8125 24.0625 C-12.3075 21.0925 -12.3075 21.0925 -12.8125 18.0625 C-13.9571875 18.0934375 -13.9571875 18.0934375 -15.125 18.125 C-17.8125 18.0625 -17.8125 18.0625 -20.8125 17.0625 C-21.4725 17.3925 -22.1325 17.7225 -22.8125 18.0625 C-22.8125 17.0725 -22.8125 16.0825 -22.8125 15.0625 C-23.8025 15.0625 -24.7925 15.0625 -25.8125 15.0625 C-25.91038681 19.85895373 -25.50189973 24.32287685 -24.8125 29.0625 C-24.77614237 31.0621695 -24.76373402 33.06309462 -24.8125 35.0625 C-26.68359375 34.85546875 -26.68359375 34.85546875 -28.8125 34.0625 C-29.97265625 31.98828125 -29.97265625 31.98828125 -30.875 29.375 C-31.20757812 28.47394531 -31.54015625 27.57289062 -31.8828125 26.64453125 C-32.18960938 25.79246094 -32.49640625 24.94039062 -32.8125 24.0625 C-34.49493747 19.61496328 -34.49493747 19.61496328 -38.07421875 16.8671875 C-43.8743819 15.1627173 -50.53013871 17.16160805 -55.875 19.75 C-59.52631873 22.6244424 -60.08458038 24.53322238 -60.8125 29.0625 C-60.8125 30.3825 -60.8125 31.7025 -60.8125 33.0625 C-62.1325 33.0625 -63.4525 33.0625 -64.8125 33.0625 C-64.8125 31.4125 -64.8125 29.7625 -64.8125 28.0625 C-65.4725 28.0625 -66.1325 28.0625 -66.8125 28.0625 C-67.4725 31.0325 -68.1325 34.0025 -68.8125 37.0625 C-70.029375 36.85625 -71.24625 36.65 -72.5 36.4375 C-76.16056773 35.96286156 -78.48861512 36.29668616 -81.8125 38.0625 C-81.8125 38.7225 -81.8125 39.3825 -81.8125 40.0625 C-80.4925 40.0625 -79.1725 40.0625 -77.8125 40.0625 C-77.4825 41.0525 -77.1525 42.0425 -76.8125 43.0625 C-76.1525 43.0625 -75.4925 43.0625 -74.8125 43.0625 C-74.8125 43.7225 -74.8125 44.3825 -74.8125 45.0625 C-74.1525 45.0625 -73.4925 45.0625 -72.8125 45.0625 C-73.5625 47.9375 -73.5625 47.9375 -74.8125 51.0625 C-76.875 52.1875 -76.875 52.1875 -78.8125 53.0625 C-79.61778889 55.11250871 -79.61778889 55.11250871 -79.8125 57.0625 C-77.1725 57.0625 -74.5325 57.0625 -71.8125 57.0625 C-70.60945249 55.08810055 -70.60945249 55.08810055 -71 52.75 C-70.8125 50.0625 -70.8125 50.0625 -68.875 47.6875 C-66.35045498 44.47444271 -66.12743197 42.0778826 -65.8125 38.0625 C-65.1525 38.0625 -64.4925 38.0625 -63.8125 38.0625 C-63.585625 38.619375 -63.35875 39.17625 -63.125 39.75 C-60.83645941 43.78219057 -57.63662102 46.51308599 -53.8125 49.0625 C-53.8125 48.4025 -53.8125 47.7425 -53.8125 47.0625 C-52.966875 46.93875 -52.12125 46.815 -51.25 46.6875 C-46.64393886 45.85003434 -42.24975576 44.54158525 -37.8125 43.0625 C-37.8125 42.4025 -37.8125 41.7425 -37.8125 41.0625 C-36.760625 41.578125 -35.70875 42.09375 -34.625 42.625 C-31.22825863 44.06129745 -29.38208178 44.31185362 -25.8125 43.0625 C-24.678125 42.546875 -23.54375 42.03125 -22.375 41.5 C-18.83845779 40.0729742 -16.57115642 39.78747636 -12.8125 40.0625 C-13.1425 39.464375 -13.4725 38.86625 -13.8125 38.25 C-14.8125 36.0625 -14.8125 36.0625 -14.8125 33.0625 C-14.4825 32.4025 -14.1525 31.7425 -13.8125 31.0625 C-14.43125 30.98 -15.05 30.8975 -15.6875 30.8125 C-17.8125 30.0625 -17.8125 30.0625 -18.875 28.4375 C-19.184375 27.65375 -19.49375 26.87 -19.8125 26.0625 C-20.35205658 24.81158774 -20.89384708 23.56163741 -21.4375 22.3125 C-21.89125 21.24 -22.345 20.1675 -22.8125 19.0625 C-17.07952279 22.31635193 -14.48589347 24.95188634 -11.8125 31.0625 C-11.8125 32.0525 -11.8125 33.0425 -11.8125 34.0625 C-10.86271103 36.21278304 -10.86271103 36.21278304 -9.8125 38.0625 C-9.1525 38.0625 -8.4925 38.0625 -7.8125 38.0625 C-7.8125 37.0725 -7.8125 36.0825 -7.8125 35.0625 C-6.4925 34.7325 -5.1725 34.4025 -3.8125 34.0625 C-3.8125 35.0525 -3.8125 36.0425 -3.8125 37.0625 C-0.8425 37.0625 2.1275 37.0625 5.1875 37.0625 C9.82171641 29.82153687 9.61441034 23.50583791 9.1875 15.0625 C8.1975 14.7325 7.2075 14.4025 6.1875 14.0625 C6.1875 12.4125 6.1875 10.7625 6.1875 9.0625 C3.8775 8.7325 1.5675 8.4025 -0.8125 8.0625 C-0.4825 7.0725 -0.1525 6.0825 0.1875 5.0625 C-2.85792649 4.7955035 -2.85792649 4.7955035 -5.1875 6.5625 Z M-21.8125 12.0625 C-22.1425 13.0525 -22.4725 14.0425 -22.8125 15.0625 C-22.1525 15.0625 -21.4925 15.0625 -20.8125 15.0625 C-20.4825 14.0725 -20.1525 13.0825 -19.8125 12.0625 C-20.4725 12.0625 -21.1325 12.0625 -21.8125 12.0625 Z M-29.8125 20.0625 C-28.8125 22.0625 -28.8125 22.0625 -28.8125 22.0625 Z M-84 31.0625 C-84.71542969 31.43375 -85.43085937 31.805 -86.16796875 32.1875 C-86.98201172 32.620625 -86.98201172 32.620625 -87.8125 33.0625 C-87.4825 34.0525 -87.1525 35.0425 -86.8125 36.0625 C-86.27625 35.588125 -85.74 35.11375 -85.1875 34.625 C-82.38407164 32.78063924 -80.11629742 32.43793153 -76.8125 32.0625 C-76.8125 31.0725 -76.8125 30.0825 -76.8125 29.0625 C-80.00860552 29.0625 -81.22967626 29.60921542 -84 31.0625 Z M-88.8125 38.0625 C-90.80482694 40.15061189 -91.74732527 41.46370721 -92.0625 44.359375 C-91.44959506 50.3735047 -90.1335623 55.60167288 -85.8125 60.0625 C-83.72699491 60.8155959 -83.72699491 60.8155959 -81.8125 61.0625 C-81.998125 60.010625 -82.18375 58.95875 -82.375 57.875 C-82.76329331 54.49130118 -82.69497485 52.29824112 -81.8125 49.0625 C-80.4925 49.0625 -79.1725 49.0625 -77.8125 49.0625 C-77.93427688 47.14783633 -77.93427688 47.14783633 -78.8125 45.0625 C-80.45583504 44.02460419 -82.12493867 43.02682076 -83.8125 42.0625 C-84.83050576 40.74286291 -85.83498365 39.41240354 -86.8125 38.0625 C-87.4725 38.0625 -88.1325 38.0625 -88.8125 38.0625 Z M-64.8125 47.0625 C-64.71080839 50.00977535 -64.71080839 50.00977535 -63.8125 53.0625 C-61.34994315 54.51541273 -61.34994315 54.51541273 -58.8125 55.0625 C-58.4825 54.0725 -58.1525 53.0825 -57.8125 52.0625 C-59.4831919 49.30746542 -59.4831919 49.30746542 -61.8125 47.0625 C-62.8025 47.0625 -63.7925 47.0625 -64.8125 47.0625 Z M-65.8125 52.0625 C-66.4725 53.3825 -67.1325 54.7025 -67.8125 56.0625 C-66.8225 55.7325 -65.8325 55.4025 -64.8125 55.0625 C-65.1425 54.0725 -65.4725 53.0825 -65.8125 52.0625 Z M4.1875 59.0625 C4.1875 61.0425 4.1875 63.0225 4.1875 65.0625 C4.8475 64.0725 5.5075 63.0825 6.1875 62.0625 C5.5275 61.0725 4.8675 60.0825 4.1875 59.0625 Z M-51.5625 79.125 C-53.48570562 82.1059687 -53.12641972 84.60938306 -52.8125 88.0625 C-50.92590125 90.36912599 -50.92590125 90.36912599 -47.8125 90.375 C-46.8225 90.271875 -45.8325 90.16875 -44.8125 90.0625 C-42.49967413 86.59326119 -42.38771414 85.14044425 -42.8125 81.0625 C-43.93890605 79.10209519 -43.93890605 79.10209519 -45.8125 78.0625 C-49.58385706 77.71651458 -49.58385706 77.71651458 -51.5625 79.125 Z " fill="#43C1C9" transform="translate(107.8125,18.9375)"/>
<path d="M0 0 C4 0 4 0 5.75 1.375 C7 3 7 3 7 5 C7.66 5 8.32 5 9 5 C9.36458333 9.49652778 9.36458333 9.49652778 7.6875 11.8125 C6 13 6 13 3 13 C3 13.99 3 14.98 3 16 C5.31 16 7.62 16 10 16 C9.896875 15.0925 9.79375 14.185 9.6875 13.25 C10 10 10 10 12.5 7.625 C13.325 7.08875 14.15 6.5525 15 6 C15.99 6.66 16.98 7.32 18 8 C18.1875 10.625 18.1875 10.625 18 13 C19.32 13.33 20.64 13.66 22 14 C20.68 14.99 19.36 15.98 18 17 C18.99 17.66 19.98 18.32 21 19 C21.99 18.67 22.98 18.34 24 18 C24.99 18 25.98 18 27 18 C27 18.99 27 19.98 27 21 C26.34 21 25.68 21 25 21 C25.226875 22.19625 25.45375 23.3925 25.6875 24.625 C26.14189282 28.02696726 26.07446274 28.85405303 24.4375 32.0625 C22.59809423 35.05925213 22.59809423 35.05925213 23.8125 38.875 C24.204375 39.90625 24.59625 40.9375 25 42 C25.61875 41.030625 26.2375 40.06125 26.875 39.0625 C29 36 29 36 31 35 C34.67386532 34.59179274 36.55286137 34.75158965 39.8125 36.5625 C42.67800813 39.75549477 43 41.74119188 43 46 C41.70522492 49.16500574 40.33130187 50.71471228 37.75 52.9375 C33.87857128 54.43327928 31.76173464 53.56147476 28 52 C27.34 51.01 26.68 50.02 26 49 C25.01 51.475 25.01 51.475 24 54 C21.2160817 52.60804085 21.02101003 50.84424221 20 48 C19.01 50.475 19.01 50.475 18 53 C17.34 53 16.68 53 16 53 C15.34 51.02 14.68 49.04 14 47 C13.67 48.98 13.34 50.96 13 53 C12.01 53 11.02 53 10 53 C9.97290556 50.91673869 9.95356127 48.83337559 9.9375 46.75 C9.92589844 45.58984375 9.91429687 44.4296875 9.90234375 43.234375 C9.98217908 40.59022872 10.21356222 38.50173909 11 36 C11.99 36 12.98 36 14 36 C14.99 38.64 15.98 41.28 17 44 C17.515625 42.783125 18.03125 41.56625 18.5625 40.3125 C18.99755859 39.28576172 18.99755859 39.28576172 19.44140625 38.23828125 C20.13019492 35.47830987 19.62470808 33.76186731 19 31 C18.9340265 28.89676466 18.91437755 26.79164276 18.9375 24.6875 C18.94652344 23.61886719 18.95554687 22.55023438 18.96484375 21.44921875 C18.97644531 20.64097656 18.98804687 19.83273438 19 19 C17.90365234 19.48726562 17.90365234 19.48726562 16.78515625 19.984375 C14.11368674 20.9585434 12.24529331 21.19140257 9.4375 21.25 C5.86411111 21.62048514 5.14671381 21.87034594 2.3125 24.375 C0.66332419 28.92986653 1.34582582 31.67164377 2.40625 36.3046875 C3.15539245 39.70539996 3.29480436 42.53604875 3 46 C1 48 1 48 -1.5 48.25 C-4 48 -4 48 -6 46 C-6.23046875 43.90625 -6.23046875 43.90625 -6.1875 41.5 C-6.18105469 40.7059375 -6.17460937 39.911875 -6.16796875 39.09375 C-6 37 -6 37 -5 35 C-5.00875154 32.20388262 -5.13135927 29.42203501 -5.2578125 26.62890625 C-5 24 -5 24 -3.6171875 22.15234375 C-2 21 -2 21 0 21 C-0.66 20.01 -1.32 19.02 -2 18 C-1.46808511 11.93617021 -1.46808511 11.93617021 0 9 C1.32 9 2.64 9 4 9 C3.33131686 5.88667752 3.33131686 5.88667752 0.9375 4.8125 C0.298125 4.544375 -0.34125 4.27625 -1 4 C0.32 3.67 1.64 3.34 3 3 C2.01 2.01 1.02 1.02 0 0 Z M16 12 C15.34 13.32 14.68 14.64 14 16 C14.99 15.67 15.98 15.34 17 15 C16.67 14.01 16.34 13.02 16 12 Z M30.25 39.0625 C28.32679438 42.0434687 28.68608028 44.54688306 29 48 C30.88659875 50.30662599 30.88659875 50.30662599 34 50.3125 C34.99 50.209375 35.98 50.10625 37 50 C39.31282587 46.53076119 39.42478586 45.07794425 39 41 C37.87359395 39.03959519 37.87359395 39.03959519 36 38 C32.22864294 37.65401458 32.22864294 37.65401458 30.25 39.0625 Z " fill="#3FBCC5" transform="translate(26,59)"/>
<path d="M0 0 C0.66 0 1.32 0 2 0 C2.06058594 0.68964844 2.12117188 1.37929687 2.18359375 2.08984375 C2.26738281 3.02957031 2.35117188 3.96929687 2.4375 4.9375 C2.52644531 5.94167969 2.61539063 6.94585937 2.70703125 7.98046875 C2.95940108 10.58156049 3.28057213 13.16008133 3.625 15.75 C4.08871627 19.70942355 3.74834305 23.0919863 3 27 C3.7425 27.226875 4.485 27.45375 5.25 27.6875 C8.66484607 29.3173129 10.0539825 30.7566375 12 34 C12.7007844 38.36043626 12.50495172 40.23442804 10.0625 43.9375 C6.02289168 46.65805254 2.75242728 46.68733452 -2 46 C-3 45 -3 45 -3.02734375 42.5859375 C-2.99769531 41.52632812 -2.96804687 40.46671875 -2.9375 39.375 C-2.87031069 31.79940579 -3.63529623 24.45108337 -5 17 C-5.33 16.67 -5.66 16.34 -6 16 C-6.26293056 11.96839809 -6.29404844 10.44107266 -4 7 C-3.34 7 -2.68 7 -2 7 C-1.855625 6.030625 -1.71125 5.06125 -1.5625 4.0625 C-1 1 -1 1 0 0 Z M1 32 C1 35.63 1 39.26 1 43 C2.98 42.67 4.96 42.34 7 42 C7.20625 40.72125 7.4125 39.4425 7.625 38.125 C7.74101563 37.40570313 7.85703125 36.68640625 7.9765625 35.9453125 C7.98429687 35.30335937 7.99203125 34.66140625 8 34 C7.34 33.34 6.68 32.68 6 32 C4.35 32 2.7 32 1 32 Z " fill="#D75AAC" transform="translate(72,66)"/>
<path d="M0 0 C2.71843438 3.62457917 3.41789544 4.80884715 4 9 C4.61875 8.030625 5.2375 7.06125 5.875 6.0625 C8 3 8 3 10 2 C13.67386532 1.59179274 15.55286137 1.75158965 18.8125 3.5625 C21.67800813 6.75549477 22 8.74119188 22 13 C20.70522492 16.16500574 19.33130187 17.71471228 16.75 19.9375 C12.87857128 21.43327928 10.76173464 20.56147476 7 19 C6.34 18.01 5.68 17.02 5 16 C4.01 18.475 4.01 18.475 3 21 C0.2160817 19.60804085 0.02101003 17.84424221 -1 15 C-1.99 17.475 -1.99 17.475 -3 20 C-3.66 20 -4.32 20 -5 20 C-5.66 18.02 -6.32 16.04 -7 14 C-7.33 15.98 -7.66 17.96 -8 20 C-8.99 20 -9.98 20 -11 20 C-11.02709444 17.91673869 -11.04643873 15.83337559 -11.0625 13.75 C-11.07410156 12.58984375 -11.08570313 11.4296875 -11.09765625 10.234375 C-11.01782092 7.59022872 -10.78643778 5.50173909 -10 3 C-9.01 3 -8.02 3 -7 3 C-6.01 5.64 -5.02 8.28 -4 11 C-2.68 7.37 -1.36 3.74 0 0 Z M9.25 6.0625 C7.32679438 9.0434687 7.68608028 11.54688306 8 15 C9.88659875 17.30662599 9.88659875 17.30662599 13 17.3125 C13.99 17.209375 14.98 17.10625 16 17 C18.31282587 13.53076119 18.42478586 12.07794425 18 8 C16.87359395 6.03959519 16.87359395 6.03959519 15 5 C11.22864294 4.65401458 11.22864294 4.65401458 9.25 6.0625 Z " fill="#CC60A6" transform="translate(47,92)"/>
<path d="M0 0 C4.28364261 0.47596029 6.26023924 2.83873758 9 6 C10.91075639 9.29440756 12 11.18366637 12 15 C12.3062434 16.33981486 12.63451555 17.67511887 13 19 C13.66 19 14.32 19 15 19 C15.33 18.01 15.66 17.02 16 16 C16.66 16.33 17.32 16.66 18 17 C18 17.66 18 18.32 18 19 C21.3 19 24.6 19 28 19 C28 21 28 23 28 25 C27.34 25 26.68 25 26 25 C25.67 25.99 25.34 26.98 25 28 C24.505 25.525 24.505 25.525 24 23 C18.82528561 23.31024675 18.82528561 23.31024675 14.0625 25.0625 C11.35355739 30.00233652 11.885338 36.49622386 12 42 C11.34 41.67 10.68 41.34 10 41 C9.65283203 39.17407227 9.65283203 39.17407227 9.5078125 36.81640625 C9.44207031 35.97142578 9.37632813 35.12644531 9.30859375 34.25585938 C9.18649802 32.46468897 9.07187577 30.672993 8.96484375 28.88085938 C8.89652344 28.03458984 8.82820313 27.18832031 8.7578125 26.31640625 C8.7077002 25.53724854 8.65758789 24.75809082 8.60595703 23.95532227 C8.17108468 21.79629081 8.17108468 21.79629081 5.95263672 20.73022461 C5.3082666 20.48925049 4.66389648 20.24827637 4 20 C5.65 20 7.3 20 9 20 C8.01 18.35 7.02 16.7 6 15 C6.66 14.34 7.32 13.68 8 13 C7.236875 12.2575 6.47375 11.515 5.6875 10.75 C0 4.93023256 0 4.93023256 0 0 Z " fill="#3EC0C6" transform="translate(85,38)"/>
<path d="M0 0 C1.24200752 5.3177215 2.30834212 10.58201328 3 16 C2.95875 14.72125 2.9175 13.4425 2.875 12.125 C2.8046875 9.9453125 2.8046875 9.9453125 3 8 C3.66 7.34 4.32 6.68 5 6 C5.53532823 7.55759343 6.05265378 9.12138045 6.5625 10.6875 C6.85253906 11.55761719 7.14257812 12.42773438 7.44140625 13.32421875 C8.20827228 16.99766793 7.66546613 19.66906774 6 23 C3.625 23.1875 3.625 23.1875 1 23 C-0.9756562 20.03651571 -1.26376859 19.31979627 -1.4140625 15.98828125 C-1.45273438 15.23095703 -1.49140625 14.47363281 -1.53125 13.69335938 C-1.5621875 12.90767578 -1.593125 12.12199219 -1.625 11.3125 C-1.66367188 10.51521484 -1.70234375 9.71792969 -1.7421875 8.89648438 C-1.83632494 6.93136525 -1.91924632 4.9657146 -2 3 C-3.01320313 3.41572266 -3.01320313 3.41572266 -4.046875 3.83984375 C-4.93890625 4.20207031 -5.8309375 4.56429687 -6.75 4.9375 C-7.63171875 5.29714844 -8.5134375 5.65679687 -9.421875 6.02734375 C-13.92139738 7.72489083 -13.92139738 7.72489083 -16 8 C-16.99 7.34 -17.98 6.68 -19 6 C-19 5.01 -19 4.02 -19 3 C-17.7625 2.71125 -16.525 2.4225 -15.25 2.125 C-12.86466717 1.54433229 -11.07354948 1.04234667 -8.9375 -0.1875 C-5.87045122 -1.47368175 -3.18376071 -0.61226167 0 0 Z " fill="#44C9D2" transform="translate(93,60)"/>
<path d="M0 0 C0.66 0 1.32 0 2 0 C2.06058594 0.68964844 2.12117188 1.37929687 2.18359375 2.08984375 C2.65816233 7.41231289 3.17190421 12.72259618 3.81640625 18.02734375 C4.00098641 20.01059867 4 22.00817422 4 24 C3.34 24 2.68 24 2 24 C2 24.66 2 25.32 2 26 C0.33388095 26.042721 -1.33382885 26.04063832 -3 26 C-4.81191882 24.18808118 -4.4723513 21.27648701 -4.71875 18.8125 C-4.81998043 16.9832467 -4.81998043 16.9832467 -6 16 C-6.26293056 11.96839809 -6.29404844 10.44107266 -4 7 C-3.34 7 -2.68 7 -2 7 C-1.855625 6.030625 -1.71125 5.06125 -1.5625 4.0625 C-1 1 -1 1 0 0 Z " fill="#45C3D0" transform="translate(72,66)"/>
<path d="M0 0 C-2.64738916 1.4606285 -3.89448334 2 -7 2 C-7 2.66 -7 3.32 -7 4 C-7.99 4.495 -7.99 4.495 -9 5 C-8.67 5.33 -8.34 5.66 -8 6 C-7.95919217 7.99958364 -7.95745644 10.00045254 -8 12 C-7.34 11.67 -6.68 11.34 -6 11 C-5.53476937 9.10466658 -5.53476937 9.10466658 -5.375 6.9375 C-5.25125 5.638125 -5.1275 4.33875 -5 3 C-1.87498361 3.37294434 1.06418547 3.84070212 4 5 C5.5625 8.125 5.5625 8.125 6 11 C5.01 11 4.02 11 3 11 C3 9.35 3 7.7 3 6 C2.34 6 1.68 6 1 6 C1.04125 7.093125 1.0825 8.18625 1.125 9.3125 C1 13 1 13 -1 16 C-2.19625 15.79375 -3.3925 15.5875 -4.625 15.375 C-8.5576018 14.86418162 -11.3121243 15.43265283 -15 17 C-14 14 -14 14 -11.9375 12.8125 C-10.9784375 12.4103125 -10.9784375 12.4103125 -10 12 C-11.65 11.67 -13.3 11.34 -15 11 C-15 10.67 -15 10.34 -15 10 C-13.02 10 -11.04 10 -9 10 C-9 9.01 -9 8.02 -9 7 C-11.31 7.66 -13.62 8.32 -16 9 C-15.67 8.01 -15.34 7.02 -15 6 C-15.66 5.34 -16.32 4.68 -17 4 C-11.15439723 1.36536213 -6.45512034 -0.56131481 0 0 Z " fill="#49BAC2" transform="translate(40,41)"/>
<path d="M0 0 C0.70511719 0.33773437 1.41023438 0.67546875 2.13671875 1.0234375 C5.37014446 2.12624299 7.44257702 2.03101482 10.8125 1.625 C11.78832031 1.51414063 12.76414062 1.40328125 13.76953125 1.2890625 C14.87361328 1.14597656 14.87361328 1.14597656 16 1 C15.67 3.31 15.34 5.62 15 8 C14.34 8 13.68 8 13 8 C13 8.66 13 9.32 13 10 C11.68 10.33 10.36 10.66 9 11 C8.67 12.32 8.34 13.64 8 15 C5.69 14.67 3.38 14.34 1 14 C-0.42009551 10.02373258 -1.61650247 6.21847279 -2 2 C-1.34 1.34 -0.68 0.68 0 0 Z M5 7 C4.67 8.32 4.34 9.64 4 11 C5.65 11 7.3 11 9 11 C9 9.68 9 8.36 9 7 C7.68 7 6.36 7 5 7 Z " fill="#4DC3C9" transform="translate(56,47)"/>
<path d="M0 0 C1.32 0.66 2.64 1.32 4 2 C4 3.65 4 5.3 4 7 C5.32 7.33 6.64 7.66 8 8 C6.68 8.99 5.36 9.98 4 11 C4.99 11.66 5.98 12.32 7 13 C7.99 12.67 8.98 12.34 10 12 C10.99 12 11.98 12 13 12 C13 12.99 13 13.98 13 15 C12.34 15 11.68 15 11 15 C11.2475 16.216875 11.495 17.43375 11.75 18.6875 C12.22550545 22.25696088 12.13855674 22.78546053 10.0625 26 C9.381875 26.66 8.70125 27.32 8 28 C6.51171875 26.88671875 6.51171875 26.88671875 5 25 C4.70703125 22.08203125 4.70703125 22.08203125 4.8125 18.8125 C4.83957031 17.72582031 4.86664063 16.63914062 4.89453125 15.51953125 C4.92933594 14.68808594 4.96414062 13.85664062 5 13 C2.36 12.67 -0.28 12.34 -3 12 C-4.05699482 6.71502591 -4.05699482 6.71502591 -4 4 C-2.0625 1.5 -2.0625 1.5 0 0 Z M2 6 C1.34 7.32 0.68 8.64 0 10 C0.99 9.67 1.98 9.34 3 9 C2.67 8.01 2.34 7.02 2 6 Z " fill="#42AEB7" transform="translate(40,65)"/>
<path d="M0 0 C1.37478516 0.01740234 1.37478516 0.01740234 2.77734375 0.03515625 C3.69644531 0.04417969 4.61554688 0.05320312 5.5625 0.0625 C6.27277344 0.07410156 6.98304687 0.08570312 7.71484375 0.09765625 C8.04484375 1.08765625 8.37484375 2.07765625 8.71484375 3.09765625 C7.71484375 4.09765625 7.71484375 4.09765625 5.8671875 4.1953125 C3.81640625 4.16276042 1.765625 4.13020833 -0.28515625 4.09765625 C-0.28515625 5.41765625 -0.28515625 6.73765625 -0.28515625 8.09765625 C0.37484375 7.76765625 1.03484375 7.43765625 1.71484375 7.09765625 C1.71484375 6.43765625 1.71484375 5.77765625 1.71484375 5.09765625 C3.36484375 5.09765625 5.01484375 5.09765625 6.71484375 5.09765625 C6.38484375 5.75765625 6.05484375 6.41765625 5.71484375 7.09765625 C6.37484375 7.42765625 7.03484375 7.75765625 7.71484375 8.09765625 C7.71484375 9.08765625 7.71484375 10.07765625 7.71484375 11.09765625 C5.40484375 11.09765625 3.09484375 11.09765625 0.71484375 11.09765625 C0.71484375 12.41765625 0.71484375 13.73765625 0.71484375 15.09765625 C3.02484375 15.09765625 5.33484375 15.09765625 7.71484375 15.09765625 C8.04484375 16.08765625 8.37484375 17.07765625 8.71484375 18.09765625 C6.9030297 18.29167258 5.09035843 18.4777 3.27734375 18.66015625 C2.26800781 18.76457031 1.25867188 18.86898437 0.21875 18.9765625 C-0.60753906 19.01652344 -1.43382813 19.05648437 -2.28515625 19.09765625 C-4.17068155 17.21213095 -3.41762314 14.51996794 -3.421875 12.015625 C-3.41800781 11.21769531 -3.41414063 10.41976562 -3.41015625 9.59765625 C-3.41402344 8.79972656 -3.41789062 8.00179687 -3.421875 7.1796875 C-3.40993279 0.14572362 -3.40993279 0.14572362 0 0 Z " fill="#D05FA2" transform="translate(88.28515625,93.90234375)"/>
<path d="M0 0 C0.66 0 1.32 0 2 0 C2.07347656 0.95712891 2.07347656 0.95712891 2.1484375 1.93359375 C2.22320313 2.75988281 2.29796875 3.58617188 2.375 4.4375 C2.44460937 5.26121094 2.51421875 6.08492188 2.5859375 6.93359375 C2.72257812 7.61550781 2.85921875 8.29742187 3 9 C3.66 9.33 4.32 9.66 5 10 C6.37096913 13.56451974 6.20923543 17.23376233 6 21 C4 23 4 23 1.5 23.25 C-1 23 -1 23 -3 21 C-3.23046875 18.90625 -3.23046875 18.90625 -3.1875 16.5 C-3.18105469 15.7059375 -3.17460937 14.911875 -3.16796875 14.09375 C-3 12 -3 12 -2 10 C-1.69208131 7.66922657 -1.49104726 5.33758104 -1.28125 2.99609375 C-1 1 -1 1 0 0 Z " fill="#4DCAD1" transform="translate(23,84)"/>
<path d="M0 0 C0.99 0.66 1.98 1.32 3 2 C3 1.34 3 0.68 3 0 C4.32 0 5.64 0 7 0 C7.33 1.32 7.66 2.64 8 4 C5.12835434 6.70272533 3.69008159 7.94791837 -0.3125 8.25 C-1.199375 8.1675 -2.08625 8.085 -3 8 C-3 7.34 -3 6.68 -3 6 C-7.455 6.495 -7.455 6.495 -12 7 C-12 5.68 -12 4.36 -12 3 C-7.80058648 0.60033513 -4.85515649 -0.53946183 0 0 Z " fill="#42BCC6" transform="translate(64,39)"/>
<path d="M0 0 C0.33 2.64 0.66 5.28 1 8 C0.67 7.01 0.34 6.02 0 5 C-0.66 5 -1.32 5 -2 5 C-2 4.34 -2 3.68 -2 3 C-3.01320313 3.41572266 -3.01320313 3.41572266 -4.046875 3.83984375 C-4.93890625 4.20207031 -5.8309375 4.56429687 -6.75 4.9375 C-7.63171875 5.29714844 -8.5134375 5.65679687 -9.421875 6.02734375 C-13.92139738 7.72489083 -13.92139738 7.72489083 -16 8 C-16.99 7.34 -17.98 6.68 -19 6 C-19 5.01 -19 4.02 -19 3 C-17.7625 2.71125 -16.525 2.4225 -15.25 2.125 C-12.86466717 1.54433229 -11.07354948 1.04234667 -8.9375 -0.1875 C-5.87045122 -1.47368175 -3.18376071 -0.61226167 0 0 Z " fill="#4ECED9" transform="translate(93,60)"/>
<path d="M0 0 C3.1461011 1.21553906 4.27961311 2.03523288 5.75 5.0625 C5.4375 7.3125 5.4375 7.3125 4.75 9.0625 C1.78 8.5675 1.78 8.5675 -1.25 8.0625 C-1.25 7.4025 -1.25 6.7425 -1.25 6.0625 C-5.705 6.5575 -5.705 6.5575 -10.25 7.0625 C-10.25 5.0625 -10.25 5.0625 -8.9296875 3.73828125 C-5.77045947 1.35176484 -4.05397788 0.07796111 0 0 Z " fill="#44C6CD" transform="translate(108.25,18.9375)"/>
<path d="M0 0 C7.75 0.75 7.75 0.75 10 3 C10.92697349 6.77919961 11.36528237 9.10708755 9.875 12.75 C7.72592334 15.32889199 6.12123519 16.7366429 3 18 C0.1875 17.1875 0.1875 17.1875 -2 16 C0.33214148 14.79371992 2.49642139 13.8345262 5 13 C6.39935013 10.20129973 6.25265405 8.09501208 6 5 C4.25910957 2.67881276 2.45558321 1.63705547 0 0 Z " fill="#D65CA4" transform="translate(58,95)"/>
<path d="M0 0 C3.875 1.75 3.875 1.75 5 4 C5.99 4 6.98 4 8 4 C9.04005702 7.38018531 9.08004482 10.4780279 9 14 C7.1875 14.6875 7.1875 14.6875 5 15 C2.50739387 13.25517571 2.01555572 12.06213971 1.26953125 9.08203125 C1.11871094 8.00308594 0.96789062 6.92414062 0.8125 5.8125 C0.65394531 4.72582031 0.49539062 3.63914063 0.33203125 2.51953125 C0.22246094 1.68808594 0.11289063 0.85664062 0 0 Z " fill="#32C5CA" transform="translate(75,40)"/>
<path d="M0 0 C4.28364261 0.47596029 6.26023924 2.83873758 9 6 C11 9 11 9 12 12 C10.6875 14.875 10.6875 14.875 9 17 C8.01 16.67 7.02 16.34 6 16 C6.66 15.01 7.32 14.02 8 13 C7.236875 12.2575 6.47375 11.515 5.6875 10.75 C0 4.93023256 0 4.93023256 0 0 Z " fill="#4CC7C7" transform="translate(85,38)"/>
<path d="M0 0 C0.99 0.33 1.98 0.66 3 1 C3 2.32 3 3.64 3 5 C3.66 4.01 4.32 3.02 5 2 C5.66 2.33 6.32 2.66 7 3 C6.34 5.31 5.68 7.62 5 10 C6.65 10 8.3 10 10 10 C9.67 11.32 9.34 12.64 9 14 C6.69 13.67 4.38 13.34 2 13 C0.57775885 9.01772477 -0.51064387 5.20846271 -1 1 C-0.67 0.67 -0.34 0.34 0 0 Z " fill="#45C6C7" transform="translate(55,48)"/>
<path d="M0 0 C0.99 0.33 1.98 0.66 3 1 C3 3.31 3 5.62 3 8 C3.66 8 4.32 8 5 8 C5 5.36 5 2.72 5 0 C5.33 0 5.66 0 6 0 C6 4.29 6 8.58 6 13 C5.01 13.495 5.01 13.495 4 14 C4.99 14.33 5.98 14.66 7 15 C7.33 12.03 7.66 9.06 8 6 C10 10 10 10 10 14 C9.34 14 8.68 14 8 14 C8 14.66 8 15.32 8 16 C6.33388095 16.042721 4.66617115 16.04063832 3 16 C1.18808118 14.18808118 1.5276487 11.27648701 1.28125 8.8125 C1.18001957 6.9832467 1.18001957 6.9832467 0 6 C-0.04080783 4.00041636 -0.04254356 1.99954746 0 0 Z " fill="#3BA4B4" transform="translate(66,76)"/>
<path d="M0 0 C0.99 0.33 1.98 0.66 3 1 C2.34 2.32 1.68 3.64 1 5 C1.99 4.67 2.98 4.34 4 4 C4 4.66 4 5.32 4 6 C3.34 6 2.68 6 2 6 C1.690625 6.78375 1.38125 7.5675 1.0625 8.375 C0 11 0 11 -1 13 C-5.29 12.67 -9.58 12.34 -14 12 C-14 11.34 -14 10.68 -14 10 C-14.66 9.67 -15.32 9.34 -16 9 C-15.01 8.67 -14.02 8.34 -13 8 C-13 8.99 -13 9.98 -13 11 C-11.329375 10.7215625 -11.329375 10.7215625 -9.625 10.4375 C-6 10 -6 10 -4 11 C-3.8453125 10.2265625 -3.8453125 10.2265625 -3.6875 9.4375 C-2.75736134 6.13973565 -1.38604488 3.13366668 0 0 Z " fill="#47BCC1" transform="translate(117,45)"/>
<path d="M0 0 C0.79921875 0.00902344 1.5984375 0.01804687 2.421875 0.02734375 C3.02515625 0.03894531 3.6284375 0.05054687 4.25 0.0625 C0.21707255 2.2969598 -3.19967434 2.60746743 -7.75 3.0625 C-7.75 4.0525 -7.75 5.0425 -7.75 6.0625 C-10.72 7.3825 -13.69 8.7025 -16.75 10.0625 C-16.75 9.4025 -16.75 8.7425 -16.75 8.0625 C-17.74 8.3925 -18.73 8.7225 -19.75 9.0625 C-18.75 6.0625 -18.75 6.0625 -16.60546875 4.7109375 C-15.72503906 4.29070313 -14.84460937 3.87046875 -13.9375 3.4375 C-13.06480469 3.01210938 -12.19210938 2.58671875 -11.29296875 2.1484375 C-7.38850788 0.48109476 -4.23964214 -0.06234768 0 0 Z " fill="#55C1CC" transform="translate(65.75,30.9375)"/>
<path d="M0 0 C0.66 0.33 1.32 0.66 2 1 C0.515 2.485 0.515 2.485 -1 4 C0.65 3.67 2.3 3.34 4 3 C4.33 4.32 4.66 5.64 5 7 C4.34 7 3.68 7 3 7 C3 8.32 3 9.64 3 11 C1.68 11.33 0.36 11.66 -1 12 C-1 11.01 -1 10.02 -1 9 C-1.7425 8.87625 -2.485 8.7525 -3.25 8.625 C-5.80141485 8.04513299 -7.7267573 7.26291261 -10 6 C-9.278125 5.7525 -8.55625 5.505 -7.8125 5.25 C-4.75286734 3.89016326 -2.5326262 2.17082246 0 0 Z M0 6 C-0.33 6.99 -0.66 7.98 -1 9 C-0.34 9 0.32 9 1 9 C1.33 8.01 1.66 7.02 2 6 C1.34 6 0.68 6 0 6 Z " fill="#46B6BE" transform="translate(86,25)"/>
<path d="M0 0 C4.875 3.625 4.875 3.625 6 7 C6.07029121 9.57265818 6.09370832 12.11641431 6.0625 14.6875 C6.05798828 15.38939453 6.05347656 16.09128906 6.04882812 16.81445312 C6.03706927 18.54300538 6.01913454 20.27151365 6 22 C5.34 22 4.68 22 4 22 C3.92652344 20.93458984 3.92652344 20.93458984 3.8515625 19.84765625 C3.73941406 18.46900391 3.73941406 18.46900391 3.625 17.0625 C3.55539063 16.14597656 3.48578125 15.22945312 3.4140625 14.28515625 C3.20910156 13.15400391 3.20910156 13.15400391 3 12 C2.34 11.67 1.68 11.34 1 11 C0.5859375 9.00390625 0.5859375 9.00390625 0.375 6.5625 C0.30023438 5.75941406 0.22546875 4.95632812 0.1484375 4.12890625 C0.05264572 2.75505053 0 1.3771912 0 0 Z " fill="#4BBEC5" transform="translate(113,22)"/>
<path d="M0 0 C0.66 0 1.32 0 2 0 C4.47346304 2.47346304 4.98313144 3.70761168 5.1875 7.25 C5.125625 8.1575 5.06375 9.065 5 10 C3.1875 10.6875 3.1875 10.6875 1 11 C-0.8125 9.9375 -0.8125 9.9375 -2 8 C-1.75528519 5.00224356 -1.34661086 2.69322172 0 0 Z " fill="#3FB0BB" transform="translate(78,72)"/>
<path d="M0 0 C0.66 0.99 1.32 1.98 2 3 C-0.3125 3.625 -0.3125 3.625 -3 4 C-3.99 3.34 -4.98 2.68 -6 2 C-6 4.64 -6 7.28 -6 10 C-6.99 10.33 -7.98 10.66 -9 11 C-9 9.02 -9 7.04 -9 5 C-9.99 4.67 -10.98 4.34 -12 4 C-10.68 3.67 -9.36 3.34 -8 3 C-8 2.34 -8 1.68 -8 1 C-5.01726077 0.00575359 -3.10494126 -0.31845551 0 0 Z " fill="#3BC8D1" transform="translate(41,42)"/>
<path d="M0 0 C3.12501639 0.37294434 6.06418547 0.84070212 9 2 C10.5625 5.125 10.5625 5.125 11 8 C10.01 8 9.02 8 8 8 C8 6.35 8 4.7 8 3 C7.34 3 6.68 3 6 3 C6 5.31 6 7.62 6 10 C5.67 8.68 5.34 7.36 5 6 C4.34 6 3.68 6 3 6 C2.67 6.66 2.34 7.32 2 8 C1.34 8 0.68 8 0 8 C0 5.36 0 2.72 0 0 Z " fill="#45B1B9" transform="translate(35,44)"/>
<path d="M0 0 C2.64 0.33 5.28 0.66 8 1 C7.01 1.495 7.01 1.495 6 2 C6.52268466 4.76276177 7.10869587 7.3260876 8 10 C8.068991 12.06145107 8.08467727 14.12501401 8.0625 16.1875 C8.05347656 17.27417969 8.04445313 18.36085938 8.03515625 19.48046875 C8.02355469 20.31191406 8.01195313 21.14335938 8 22 C7.34 21.67 6.68 21.34 6 21 C5.65283203 19.17407227 5.65283203 19.17407227 5.5078125 16.81640625 C5.40919922 15.54893555 5.40919922 15.54893555 5.30859375 14.25585938 C5.18649802 12.46468897 5.07187577 10.672993 4.96484375 8.88085938 C4.89652344 8.03458984 4.82820313 7.18832031 4.7578125 6.31640625 C4.68264404 5.14766968 4.68264404 5.14766968 4.60595703 3.95532227 C4.17108468 1.79629081 4.17108468 1.79629081 1.95263672 0.73022461 C1.3082666 0.48925049 0.66389648 0.24827637 0 0 Z " fill="#24ABB3" transform="translate(89,58)"/>
<path d="M0 0 C-0.33 0.99 -0.66 1.98 -1 3 C-2.65 3 -4.3 3 -6 3 C-6.33 6.3 -6.66 9.6 -7 13 C-7.66 13 -8.32 13 -9 13 C-9.16873478 11.56274129 -9.33490737 10.12518162 -9.5 8.6875 C-9.5928125 7.88699219 -9.685625 7.08648437 -9.78125 6.26171875 C-10 4 -10 4 -10 1 C-6.78548731 -0.60725635 -3.56387464 -0.05748185 0 0 Z " fill="#DD5AB9" transform="translate(79,96)"/>
<path d="M0 0 C0.66 0 1.32 0 2 0 C1.67 1.32 1.34 2.64 1 4 C0.34 4 -0.32 4 -1 4 C-1 8.62 -1 13.24 -1 18 C-1.66 18 -2.32 18 -3 18 C-3.144375 17.0925 -3.28875 16.185 -3.4375 15.25 C-3.86409473 12.78523044 -4.35074221 10.41152893 -5 8 C-4.01 7.67 -3.02 7.34 -2 7 C-1.855625 6.030625 -1.71125 5.06125 -1.5625 4.0625 C-1 1 -1 1 0 0 Z " fill="#4FB3BB" transform="translate(72,66)"/>
<path d="M0 0 C1.00109515 3.31070838 1.10356134 6.30084769 1.0625 9.75 C1.05347656 10.73484375 1.04445313 11.7196875 1.03515625 12.734375 C1.02355469 13.48203125 1.01195313 14.2296875 1 15 C0.01 15.495 0.01 15.495 -1 16 C-1.66 15.67 -2.32 15.34 -3 15 C-3.55353075 4.44191344 -3.55353075 4.44191344 0 0 Z " fill="#4ACBD4" transform="translate(114,58)"/>
<path d="M0 0 C1.32 0 2.64 0 4 0 C4 0.66 4 1.32 4 2 C5.32 1.67 6.64 1.34 8 1 C8 1.66 8 2.32 8 3 C7.34 3 6.68 3 6 3 C6 6.63 6 10.26 6 14 C5.67 14 5.34 14 5 14 C4.67 10.7 4.34 7.4 4 4 C3.67 7.3 3.34 10.6 3 14 C2.67 14 2.34 14 2 14 C2 10.37 2 6.74 2 3 C1.01 2.67 0.02 2.34 -1 2 C-0.67 1.34 -0.34 0.68 0 0 Z " fill="#4AD2DA" transform="translate(44,74)"/>
<path d="M0 0 C2.625 -0.1875 2.625 -0.1875 5 0 C5.33 0.66 5.66 1.32 6 2 C4.35 2.66 2.7 3.32 1 4 C1.56371414 7.26954202 2.49962266 8.82575883 5 11 C-0.875 10.125 -0.875 10.125 -2 9 C-2.26293056 4.96839809 -2.29404844 3.44107266 0 0 Z " fill="#46D1D5" transform="translate(25,52)"/>
<path d="M0 0 C0.66 0.33 1.32 0.66 2 1 C2 4.3 2 7.6 2 11 C1.67 11 1.34 11 1 11 C0.67 9.02 0.34 7.04 0 5 C-0.33 6.32 -0.66 7.64 -1 9 C-2.32 9 -3.64 9 -5 9 C-5 6.69 -5 4.38 -5 2 C-4.34 2.66 -3.68 3.32 -3 4 C-2.67 3.01 -2.34 2.02 -2 1 C-1.34 0.67 -0.68 0.34 0 0 Z " fill="#47BCC6" transform="translate(116,77)"/>
<path d="M0 0 C0.99 0 1.98 0 3 0 C2.46968862 4.5076467 0.74778884 7.41954788 -2 11 C-2.66 11 -3.32 11 -4 11 C-4.33 10.01 -4.66 9.02 -5 8 C-3.6875 5.5 -3.6875 5.5 -2 3 C-1.34 2.01 -0.68 1.02 0 0 Z " fill="#51BFC4" transform="translate(111,43)"/>
<path d="M0 0 C0.33 0 0.66 0 1 0 C1.17835515 4.54805635 0.99785435 7.8794254 -1 12 C-1.66 12 -2.32 12 -3 12 C-5.125 5.25 -5.125 5.25 -4 3 C-3.34 3 -2.68 3 -2 3 C-1.34 2.01 -0.68 1.02 0 0 Z " fill="#D361AE" transform="translate(45,100)"/>
<path d="M0 0 C0.33 0.66 0.66 1.32 1 2 C2.2375 2.495 2.2375 2.495 3.5 3 C6 4 6 4 7 6 C3.04 6 -0.92 6 -5 6 C-5 4.35 -5 2.7 -5 1 C-3.35 0.67 -1.7 0.34 0 0 Z " fill="#944F8B" transform="translate(74,91)"/>
<path d="M0 0 C3 1 3 1 4 3 C4.66 2.34 5.32 1.68 6 1 C6.66 3.31 7.32 5.62 8 8 C6.1875 8.6875 6.1875 8.6875 4 9 C2.3125 7.9375 2.3125 7.9375 1 6 C0.3125 2.8125 0.3125 2.8125 0 0 Z " fill="#4ACAD1" transform="translate(76,46)"/>
<path d="M0 0 C1.98 0 3.96 0 6 0 C6 1.32 6 2.64 6 4 C5.01 4 4.02 4 3 4 C3 4.99 3 5.98 3 7 C2.34 7 1.68 7 1 7 C0.67 7.99 0.34 8.98 0 10 C-1.2380014 6.42355152 -0.74926071 3.66305234 0 0 Z " fill="#44CFD4" transform="translate(103,30)"/>
<path d="M0 0 C0.90492187 0.02320312 1.80984375 0.04640625 2.7421875 0.0703125 C4.10730469 0.09738281 4.10730469 0.09738281 5.5 0.125 C6.19867188 0.14820312 6.89734375 0.17140625 7.6171875 0.1953125 C6.6271875 0.6903125 6.6271875 0.6903125 5.6171875 1.1953125 C5.6171875 1.8553125 5.6171875 2.5153125 5.6171875 3.1953125 C6.9371875 3.5253125 8.2571875 3.8553125 9.6171875 4.1953125 C6.07051572 5.44659156 3.89465312 4.91816303 0.3671875 3.7578125 C-0.52484375 3.47035156 -1.416875 3.18289062 -2.3359375 2.88671875 C-3.01140625 2.65855469 -3.686875 2.43039063 -4.3828125 2.1953125 C-2.3828125 0.1953125 -2.3828125 0.1953125 0 0 Z " fill="#4CB9C0" transform="translate(92.3828125,22.8046875)"/>
<path d="M0 0 C0.66 0 1.32 0 2 0 C2 2.31 2 4.62 2 7 C2.66 6.67 3.32 6.34 4 6 C4.125 8.375 4.125 8.375 4 11 C2 13 2 13 -0.625 13.125 C-1.40875 13.08375 -2.1925 13.0425 -3 13 C-2.484375 12.29875 -1.96875 11.5975 -1.4375 10.875 C0.31774668 7.36450663 -0.16735628 5.74689673 -1 2 C-0.67 1.34 -0.34 0.68 0 0 Z " fill="#47BDBE" transform="translate(101,31)"/>
<path d="M0 0 C1.0828125 0.37125 1.0828125 0.37125 2.1875 0.75 C1.1875 3.75 1.1875 3.75 -1.8125 5.75 C-5 5.875 -5 5.875 -7.8125 5.75 C-7.8125 3.75 -7.8125 3.75 -5.625 1.5625 C-2.8125 -0.25 -2.8125 -0.25 0 0 Z " fill="#43D3DB" transform="translate(105.8125,20.25)"/>
<path d="M0 0 C1.5625 1.75 1.5625 1.75 3 4 C2.75 5.75 2.75 5.75 2 8 C1.60600034 10.66077696 1.31174943 13.32786202 1 16 C-0.89879606 12.70875349 -1.69675394 9.79057581 -2 6 C-1.0625 2.625 -1.0625 2.625 0 0 Z " fill="#B45292" transform="translate(47,92)"/>
<path d="M0 0 C0.66 0 1.32 0 2 0 C2 0.66 2 1.32 2 2 C5.3 2 8.6 2 12 2 C12 4 12 6 12 8 C11.34 8 10.68 8 10 8 C9.67 7.01 9.34 6.02 9 5 C6.36 5 3.72 5 1 5 C0.67 3.35 0.34 1.7 0 0 Z " fill="#35CAD1" transform="translate(101,55)"/>
<path d="M0 0 C1.65 0 3.3 0 5 0 C4.67 0.66 4.34 1.32 4 2 C4.66 2.33 5.32 2.66 6 3 C6 3.99 6 4.98 6 6 C3.69 6 1.38 6 -1 6 C-1.33 7.32 -1.66 8.64 -2 10 C-2 8.35 -2 6.7 -2 5 C-1.01 5 -0.02 5 1 5 C0.67 3.35 0.34 1.7 0 0 Z " fill="#C0509E" transform="translate(90,99)"/>
<path d="M0 0 C0.33 0 0.66 0 1 0 C1 2.97 1 5.94 1 9 C-0.65 9 -2.3 9 -4 9 C-4.33 7.68 -4.66 6.36 -5 5 C-3.68 5 -2.36 5 -1 5 C-0.67 3.35 -0.34 1.7 0 0 Z " fill="#3BCFDB" transform="translate(116,81)"/>
<path d="M0 0 C1.32 0 2.64 0 4 0 C4.33 1.32 4.66 2.64 5 4 C2.12835434 6.70272533 0.69008159 7.94791837 -3.3125 8.25 C-4.199375 8.1675 -5.08625 8.085 -6 8 C-5.67 7.01 -5.34 6.02 -5 5 C-2.9375 4.3125 -2.9375 4.3125 -1 4 C-1 4.66 -1 5.32 -1 6 C0.70840281 4.36587557 1.93453047 3.13093906 3 1 C2.01 0.67 1.02 0.34 0 0 Z " fill="#43A8B3" transform="translate(67,39)"/>
<path d="M0 0 C0.66 0 1.32 0 2 0 C2 0.66 2 1.32 2 2 C2.99 2 3.98 2 5 2 C5 2.66 5 3.32 5 4 C4.01 4 3.02 4 2 4 C2.33 5.98 2.66 7.96 3 10 C2.01 10.33 1.02 10.66 0 11 C-0.19491452 9.54263913 -0.38069358 8.08405407 -0.5625 6.625 C-0.66691406 5.81289062 -0.77132812 5.00078125 -0.87890625 4.1640625 C-1 2 -1 2 0 0 Z " fill="#DA5EB5" transform="translate(86,100)"/>
<path d="M0 0 C4.67692308 1.47692308 4.67692308 1.47692308 6.3125 4.125 C6.539375 4.74375 6.76625 5.3625 7 6 C5.1875 6.6875 5.1875 6.6875 3 7 C1.25 5.8125 1.25 5.8125 0 4 C0 2.68 0 1.36 0 0 Z " fill="#4ECFD6" transform="translate(17,76)"/>
<path d="M0 0 C0.66 0.66 1.32 1.32 2 2 C-0.22748572 2.5774963 -2.33378762 3.03973662 -4.625 3.3125 C-7.17014416 3.76563526 -7.17014416 3.76563526 -8.3125 6.0625 C-8.539375 6.701875 -8.76625 7.34125 -9 8 C-9.33 6.35 -9.66 4.7 -10 3 C-6.70335635 -0.04305568 -4.44038228 -0.48265025 0 0 Z " fill="#C05B99" transform="translate(63,94)"/>
<path d="M0 0 C2.64 0 5.28 0 8 0 C8.66 1.32 9.32 2.64 10 4 C9.34 4 8.68 4 8 4 C8 3.34 8 2.68 8 2 C7.01 2.66 6.02 3.32 5 4 C2.3125 3.625 2.3125 3.625 0 3 C0 2.01 0 1.02 0 0 Z " fill="#47CDDC" transform="translate(70,32)"/>
<path d="M0 0 C0.99 0 1.98 0 3 0 C3.33 3.3 3.66 6.6 4 10 C3.01 10.495 3.01 10.495 2 11 C-0.67927341 6.98108988 -0.15601248 4.75838077 0 0 Z " fill="#49CDD4" transform="translate(12,59)"/>
<path d="M0 0 C2.97 0.99 5.94 1.98 9 3 C9 4.32 9 5.64 9 7 C7.68 6.67 6.36 6.34 5 6 C5.33 5.34 5.66 4.68 6 4 C5.34 4 4.68 4 4 4 C3.01 5.485 3.01 5.485 2 7 C1.34 4.69 0.68 2.38 0 0 Z " fill="#3CB3B7" transform="translate(56,47)"/>
<path d="M0 0 C2.31 0.33 4.62 0.66 7 1 C6.01 1.33 5.02 1.66 4 2 C3.67 2.99 3.34 3.98 3 5 C1.02 5.33 -0.96 5.66 -3 6 C-2.01 4.02 -1.02 2.04 0 0 Z " fill="#47D0D7" transform="translate(20,46)"/>
<path d="M0 0 C0.66 1.32 1.32 2.64 2 4 C1.34 4 0.68 4 0 4 C0 5.32 0 6.64 0 8 C-1.32 8.33 -2.64 8.66 -4 9 C-4 8.01 -4 7.02 -4 6 C-3.34 6 -2.68 6 -2 6 C-2.33 5.34 -2.66 4.68 -3 4 C-3 3.01 -3 2.02 -3 1 C-2.01 0.67 -1.02 0.34 0 0 Z " fill="#3FACB0" transform="translate(89,28)"/>
<path d="M0 0 C0.66 0 1.32 0 2 0 C2 0.99 2 1.98 2 3 C3.32 3.33 4.64 3.66 6 4 C3.69 5.32 1.38 6.64 -1 8 C-3 5 -3 5 -2.625 2.8125 C-2.41875 2.214375 -2.2125 1.61625 -2 1 C-2 1.99 -2 2.98 -2 4 C-1.34 4 -0.68 4 0 4 C0 2.68 0 1.36 0 0 Z " fill="#40ADBB" transform="translate(27,72)"/>
<path d="M0 0 C0 3 0 3 -1.375 4.6875 C-3 6 -3 6 -5 6 C-5.33 6.66 -5.66 7.32 -6 8 C-6 5.69 -6 3.38 -6 1 C-4 0 -4 0 0 0 Z " fill="#42C9D4" transform="translate(101,59)"/>
<path d="M0 0 C1.0828125 0.37125 1.0828125 0.37125 2.1875 0.75 C1.8575 1.74 1.5275 2.73 1.1875 3.75 C0.1975 3.75 -0.7925 3.75 -1.8125 3.75 C-3.82401741 4.38106429 -5.82613702 5.04373761 -7.8125 5.75 C-7.8125 3.75 -7.8125 3.75 -5.625 1.5625 C-2.8125 -0.25 -2.8125 -0.25 0 0 Z " fill="#3FCBD6" transform="translate(90.8125,25.25)"/>
<path d="M0 0 C2 2 2 2 2.1953125 3.9453125 C2.13020833 5.96354167 2.06510417 7.98177083 2 10 C0.68 10.33 -0.64 10.66 -2 11 C-1.34 7.37 -0.68 3.74 0 0 Z " fill="#48D9E3" transform="translate(25,95)"/>
<path d="M0 0 C0.66 0 1.32 0 2 0 C2 2.97 2 5.94 2 9 C1.01 9.33 0.02 9.66 -1 10 C-2 9 -2 9 -2.0625 5.9375 C-2.041875 4.968125 -2.02125 3.99875 -2 3 C-1.34 3 -0.68 3 0 3 C0 2.01 0 1.02 0 0 Z " fill="#27CAD0" transform="translate(23,95)"/>
<path d="M0 0 C0 0.99 0 1.98 0 3 C-0.66 3 -1.32 3 -2 3 C-2.33 4.32 -2.66 5.64 -3 7 C-3.99 7 -4.98 7 -6 7 C-6 5.35 -6 3.7 -6 2 C-2.25 0 -2.25 0 0 0 Z " fill="#40BFC5" transform="translate(42,67)"/>
<path d="M0 0 C1.4540625 0.0309375 1.4540625 0.0309375 2.9375 0.0625 C2.6075 2.3725 2.2775 4.6825 1.9375 7.0625 C0.6175 6.4025 -0.7025 5.7425 -2.0625 5.0625 C-2.0625 4.0725 -2.0625 3.0825 -2.0625 2.0625 C-2.7225 1.7325 -3.3825 1.4025 -4.0625 1.0625 C-3.0625 0.0625 -3.0625 0.0625 0 0 Z " fill="#43B6BC" transform="translate(69.0625,47.9375)"/>
<path d="M0 0 C0.66 0.33 1.32 0.66 2 1 C1.34 3.31 0.68 5.62 0 8 C-0.66 7.67 -1.32 7.34 -2 7 C-2 6.34 -2 5.68 -2 5 C-3.32 5.99 -4.64 6.98 -6 8 C-6 6.35 -6 4.7 -6 3 C-4.68 3.33 -3.36 3.66 -2 4 C-1.34 2.68 -0.68 1.36 0 0 Z " fill="#46ACB4" transform="translate(23,52)"/>
<path d="M0 0 C2 2 2 2 2.1953125 4.6015625 C2.17210937 5.59929687 2.14890625 6.59703125 2.125 7.625 C2.10695312 8.62789062 2.08890625 9.63078125 2.0703125 10.6640625 C2.03550781 11.82035156 2.03550781 11.82035156 2 13 C1.34 13 0.68 13 0 13 C-1.06671952 9.79984144 -0.94845472 8.11455706 -0.5625 4.8125 C-0.46066406 3.91144531 -0.35882813 3.01039062 -0.25390625 2.08203125 C-0.17011719 1.39496094 -0.08632813 0.70789063 0 0 Z " fill="#E459B3" transform="translate(48,98)"/>
<path d="M0 0 C0.99 0.99 1.98 1.98 3 3 C2.67 3.99 2.34 4.98 2 6 C1.34 5.67 0.68 5.34 0 5 C-0.33 5.99 -0.66 6.98 -1 8 C-2.0625 6.1875 -2.0625 6.1875 -3 4 C-2.67 3.01 -2.34 2.02 -2 1 C-1.34 0.67 -0.68 0.34 0 0 Z " fill="#55C4CB" transform="translate(17,71)"/>
<path d="M0 0 C2.17288535 2.17288535 2.64827002 3.01029519 3 6 C2.0625 8.25 2.0625 8.25 1 10 C-1 8 -1 8 -1.1875 4.4375 C-1 1 -1 1 0 0 Z " fill="#39C5C9" transform="translate(45,42)"/>
<path d="M0 0 C2 1 2 1 2.74609375 2.77734375 C3.20603348 4.21433058 3.66437437 5.65183015 4.12109375 7.08984375 C4.95959902 9.35151853 4.95959902 9.35151853 8 11 C5.6875 10.8125 5.6875 10.8125 3 10 C0.31551796 6.66753954 -0.36325349 4.23795734 0 0 Z " fill="#4BB4BD" transform="translate(107,80)"/>
<path d="M0 0 C4 0 4 0 5.75 1.375 C7 3 7 3 7 5 C6.34 5 5.68 5 5 5 C4.67 5.66 4.34 6.32 4 7 C2.35 6.01 0.7 5.02 -1 4 C0.32 3.67 1.64 3.34 3 3 C2.01 2.01 1.02 1.02 0 0 Z " fill="#4CC0C6" transform="translate(26,59)"/>
<path d="M0 0 C2.375 0.1875 2.375 0.1875 5 1 C6.3125 3.5625 6.3125 3.5625 7 6 C5.68 6 4.36 6 3 6 C0 2.78571429 0 2.78571429 0 0 Z " fill="#4BCED9" transform="translate(45,62)"/>
<path d="M0 0 C0 1.98 0 3.96 0 6 C-1.32 6.33 -2.64 6.66 -4 7 C-4.33 6.34 -4.66 5.68 -5 5 C-4.01 5 -3.02 5 -2 5 C-2.99 4.01 -3.98 3.02 -5 2 C-2 0 -2 0 0 0 Z " fill="#47C6C6" transform="translate(40,50)"/>
<path d="M0 0 C0.66 0 1.32 0 2 0 C2 4.95 2 9.9 2 15 C1.01 15.33 0.02 15.66 -1 16 C-0.67 15.01 -0.34 14.02 0 13 C0.06937062 10.77181559 0.08457084 8.54165476 0.0625 6.3125 C0.05347656 5.13300781 0.04445313 3.95351563 0.03515625 2.73828125 C0.02355469 1.83464844 0.01195313 0.93101563 0 0 Z " fill="#43D4E2" transform="translate(119,34)"/>
<path d="M0 0 C-2 3 -2 3 -4.4375 3.875 C-7 4 -7 4 -8.8125 2.5625 C-9.204375 2.046875 -9.59625 1.53125 -10 1 C-6.61981469 -0.04005702 -3.5219721 -0.08004482 0 0 Z " fill="#DC6FAF" transform="translate(66,109)"/>
<path d="M0 0 C0.33 0.99 0.66 1.98 1 3 C1.66 3 2.32 3 3 3 C2.67 4.98 2.34 6.96 2 9 C1.01 9.33 0.02 9.66 -1 10 C-0.67 6.7 -0.34 3.4 0 0 Z " fill="#E95DB8" transform="translate(66,99)"/>
<path d="M0 0 C0.66 0 1.32 0 2 0 C2.33 2.64 2.66 5.28 3 8 C2.01 8.66 1.02 9.32 0 10 C0 6.7 0 3.4 0 0 Z " fill="#3CCFDA" transform="translate(93,72)"/>
<path d="M0 0 C0.66 0.33 1.32 0.66 2 1 C2 3.64 2 6.28 2 9 C1.34 9 0.68 9 0 9 C-0.144375 8.05125 -0.28875 7.1025 -0.4375 6.125 C-0.82935399 3.1065506 -0.82935399 3.1065506 -2 1 C-1.34 0.67 -0.68 0.34 0 0 Z " fill="#45CCD7" transform="translate(69,75)"/>
<path d="M0 0 C0 1.32 0 2.64 0 4 C-1.98 4.33 -3.96 4.66 -6 5 C-5.6875 3.0625 -5.6875 3.0625 -5 1 C-2 0 -2 0 0 0 Z " fill="#24A2B1" transform="translate(55,69)"/>
<path d="M0 0 C0.99 0.99 1.98 1.98 3 3 C1.515 5.475 1.515 5.475 0 8 C-0.99 7.67 -1.98 7.34 -3 7 C-2.34 6.01 -1.68 5.02 -1 4 C-1 3.01 -1 2.02 -1 1 C-0.67 0.67 -0.34 0.34 0 0 Z " fill="#4DB3B9" transform="translate(94,47)"/>
<path d="M0 0 C1.125 4.75 1.125 4.75 0 7 C-0.66 7 -1.32 7 -2 7 C-2.66 5.02 -3.32 3.04 -4 1 C-2 0 -2 0 0 0 Z " fill="#33B5BB" transform="translate(95,27)"/>
<path d="M0 0 C2.64 0 5.28 0 8 0 C7.34 1.65 6.68 3.3 6 5 C5.34 3.68 4.68 2.36 4 1 C2.68 1.33 1.36 1.66 0 2 C0 1.34 0 0.68 0 0 Z " fill="#36C0C6" transform="translate(48,74)"/>
<path d="M0 0 C0.99 0 1.98 0 3 0 C3 0.99 3 1.98 3 3 C2.34 3 1.68 3 1 3 C1 4.32 1 5.64 1 7 C0.34 7 -0.32 7 -1 7 C-1.04254356 5.00045254 -1.04080783 2.99958364 -1 1 C-0.67 0.67 -0.34 0.34 0 0 Z " fill="#3DC6CB" transform="translate(26,69)"/>
<path d="M0 0 C-0.99 0 -1.98 0 -3 0 C-3 0.66 -3 1.32 -3 2 C-3.66 2 -4.32 2 -5 2 C-5.33 2.66 -5.66 3.32 -6 4 C-6.99 4 -7.98 4 -9 4 C-9.33 3.01 -9.66 2.02 -10 1 C-3.71428571 -1.42857143 -3.71428571 -1.42857143 0 0 Z " fill="#42BDCA" transform="translate(58,67)"/>
<path d="M0 0 C1.32 0.33 2.64 0.66 4 1 C4 1.66 4 2.32 4 3 C3.34 3 2.68 3 2 3 C2 4.65 2 6.3 2 8 C1.34 8 0.68 8 0 8 C0 5.36 0 2.72 0 0 Z " fill="#D860AD" transform="translate(79,97)"/>
<path d="M0 0 C1.65 0 3.3 0 5 0 C4.67 1.32 4.34 2.64 4 4 C2.35 4 0.7 4 -1 4 C-0.34 3.67 0.32 3.34 1 3 C0.67 2.01 0.34 1.02 0 0 Z " fill="#4EB4B8" transform="translate(60,58)"/>
<path d="M0 0 C1.32 0.33 2.64 0.66 4 1 C3.67 2.65 3.34 4.3 3 6 C2.01 5.67 1.02 5.34 0 5 C0 3.35 0 1.7 0 0 Z " fill="#50D2D9" transform="translate(41,58)"/>
<path d="M0 0 C0.99 1.485 0.99 1.485 2 3 C2.66 3 3.32 3 4 3 C4 4.32 4 5.64 4 7 C2.68 7 1.36 7 0 7 C0 4.69 0 2.38 0 0 Z " fill="#37AFC8" transform="translate(111,79)"/>
<path d="M0 0 C1.98 0.495 1.98 0.495 4 1 C3.34 2.65 2.68 4.3 2 6 C1.34 6 0.68 6 0 6 C-1 3 -1 3 0 0 Z " fill="#4EB5B8" transform="translate(107,48)"/>
<path d="" fill="#808080" transform="translate(0,0)"/>
</svg>
