<?xml version="1.0" encoding="UTF-8"?>
<svg version="1.1" xmlns="http://www.w3.org/2000/svg" width="218" height="442">
<path d="M0 0 C2.89696854 0.36982577 5.37621929 0.68810965 8 2 C8 2.66 8 3.32 8 4 C8.94875 4.309375 9.8975 4.61875 10.875 4.9375 C14 6 14 6 16 7 C16 7.66 16 8.32 16 9 C16.763125 9.12375 17.52625 9.2475 18.3125 9.375 C21 10 21 10 24 12 C24 12.66 24 13.32 24 14 C24.763125 14.12375 25.52625 14.2475 26.3125 14.375 C29 15 29 15 32 17 C32 17.66 32 18.32 32 19 C32.72316406 19.10828125 33.44632812 19.2165625 34.19140625 19.328125 C37.21538607 20.0515249 39.29328841 21.12921943 41.9375 22.75 C42.75089844 23.23984375 43.56429687 23.7296875 44.40234375 24.234375 C45.25957031 24.81703125 46.11679688 25.3996875 47 26 C48.02859131 26.59707764 49.05718262 27.19415527 50.11694336 27.80932617 C52.34007524 29.69696867 52.94452496 30.73694959 53.55363464 33.62521362 C53.76301809 37.03613811 53.77864609 40.39934954 53.7265625 43.81640625 C53.72805801 45.68932594 53.72805801 45.68932594 53.72958374 47.6000824 C53.72490473 50.23814937 53.70865019 52.87299227 53.67236328 55.51049805 C53.62693797 58.88582249 53.62591181 62.25935772 53.63939857 65.63490391 C53.6476977 68.8622057 53.6237305 72.08919118 53.6015625 75.31640625 C53.60429672 77.13211876 53.60429672 77.13211876 53.60708618 78.98451233 C53.58802216 80.10925461 53.56895813 81.23399689 53.54931641 82.39282227 C53.54010162 83.38145767 53.53088684 84.37009308 53.52139282 85.38868713 C52.85791276 88.7116213 51.6055576 89.90146136 49 92 C46.75 92.75 46.75 92.75 45 93 C45 93.66 45 94.32 45 95 C43.906875 95.433125 42.81375 95.86625 41.6875 96.3125 C39.49305549 97.24294447 38.13454859 97.86545141 36.4375 99.5625 C34.30862413 101.69137587 31.84345949 102.17855615 29 103 C29 103.66 29 104.32 29 105 C28.49210937 105.24234375 27.98421875 105.4846875 27.4609375 105.734375 C24.03866909 107.40064801 20.75738369 109.07904101 17.625 111.25 C15 113 15 113 13 113 C13 113.66 13 114.32 13 115 C7.25 118 7.25 118 5 118 C5 118.66 5 119.32 5 120 C3.35 120 1.7 120 0 120 C0 119.34 0 118.68 0 118 C-0.94875 117.690625 -1.8975 117.38125 -2.875 117.0625 C-6 116 -6 116 -8 115 C-8 114.34 -8 113.68 -8 113 C-8.94875 112.690625 -9.8975 112.38125 -10.875 112.0625 C-14 111 -14 111 -16 110 C-16 109.34 -16 108.68 -16 108 C-16.94875 107.690625 -17.8975 107.38125 -18.875 107.0625 C-22 106 -22 106 -24 105 C-24 104.34 -24 103.68 -24 103 C-25.175625 102.7215625 -25.175625 102.7215625 -26.375 102.4375 C-30.49562628 100.80345854 -33.60697297 98.58609217 -37.14453125 95.94921875 C-39.78523815 93.98218002 -39.78523815 93.98218002 -42.20407104 93.16770935 C-44.91855792 92.05075908 -46.83837228 90.999521 -49 89 C-50.3889206 84.74832754 -50.28239664 80.59162699 -50.23828125 76.1484375 C-50.25722946 74.8974527 -50.27617767 73.6464679 -50.29570007 72.35757446 C-50.32684624 69.71418179 -50.34121736 67.07742924 -50.32592773 64.43457031 C-50.30716307 61.04928192 -50.34544331 57.66771334 -50.40368366 54.28296471 C-50.45513404 51.05074294 -50.47143156 47.81849849 -50.48828125 44.5859375 C-50.50256668 43.37030121 -50.51685211 42.15466492 -50.53157043 40.90219116 C-50.52284409 39.77737335 -50.51411774 38.65255554 -50.50512695 37.49365234 C-50.50462845 36.50279633 -50.50412994 35.51194031 -50.50361633 34.49105835 C-50 32 -50 32 -48.09342957 30.15664673 C-46 29 -46 29 -44 29 C-43.67 28.01 -43.34 27.02 -43 26 C-41.03696582 24.92925408 -39.0302589 23.93704257 -37 23 C-36.13375 22.46375 -35.2675 21.9275 -34.375 21.375 C-32 20 -32 20 -29.75 19.5 C-28.88375 19.2525 -28.88375 19.2525 -28 19 C-27.67 18.01 -27.34 17.02 -27 16 C-25.22265625 14.83203125 -25.22265625 14.83203125 -23.0625 13.8125 C-22.35222656 13.46832031 -21.64195313 13.12414063 -20.91015625 12.76953125 C-19 12 -19 12 -17 12 C-17 11.34 -17 10.68 -17 10 C-15.35 9.67 -13.7 9.34 -12 9 C-12 8.34 -12 7.68 -12 7 C-11.21753906 6.57847656 -10.43507812 6.15695313 -9.62890625 5.72265625 C-8.61699219 5.17480469 -7.60507812 4.62695312 -6.5625 4.0625 C-5.55316406 3.51722656 -4.54382812 2.97195312 -3.50390625 2.41015625 C-1.13329507 1.22300532 -1.13329507 1.22300532 0 0 Z M-5 10 C-5.7425 10.350625 -6.485 10.70125 -7.25 11.0625 C-9.18053285 11.88003585 -9.18053285 11.88003585 -10 14 C-12.30965848 15.05352843 -14.6429774 16.05719096 -17 17 C-17 17.66 -17 18.32 -17 19 C-17.5775 19.12375 -18.155 19.2475 -18.75 19.375 C-21.02335767 20.00648824 -22.9253529 20.88858191 -25 22 C-25 22.66 -25 23.32 -25 24 C-26.3921875 24.433125 -26.3921875 24.433125 -27.8125 24.875 C-31.09791667 25.8875 -31.09791667 25.8875 -34 28 C-34 28.66 -34 29.32 -34 30 C-34.928125 30.268125 -35.85625 30.53625 -36.8125 30.8125 C-39.89342537 31.96029573 -41.06488579 32.46203728 -43 35 C-43.43386379 37.31738866 -43.43386379 37.31738866 -43.34057617 39.93041992 C-43.34034958 40.93123093 -43.34012299 41.93204193 -43.33988953 42.96318054 C-43.32440567 44.04138565 -43.30892181 45.11959076 -43.29296875 46.23046875 C-43.28872391 47.33602615 -43.28447906 48.44158356 -43.28010559 49.5806427 C-43.26329437 53.11650812 -43.22563685 56.65180645 -43.1875 60.1875 C-43.17245636 62.58267407 -43.1587674 64.97785706 -43.14648438 67.37304688 C-43.11338285 73.24889185 -43.06315893 79.12440542 -43 85 C-42.195625 85.268125 -41.39125 85.53625 -40.5625 85.8125 C-39.716875 86.204375 -38.87125 86.59625 -38 87 C-37.67 87.99 -37.34 88.98 -37 90 C-33.23134752 92.27361255 -33.23134752 92.27361255 -29 93 C-29 93.66 -29 94.32 -29 95 C-25.19572508 97.2013866 -25.19572508 97.2013866 -21 98 C-21 98.66 -21 99.32 -21 100 C-17.19572508 102.2013866 -17.19572508 102.2013866 -13 103 C-13 103.66 -13 104.32 -13 105 C-12.21753906 105.42152344 -11.43507813 105.84304687 -10.62890625 106.27734375 C-9.61699219 106.82519531 -8.60507812 107.37304688 -7.5625 107.9375 C-6.55316406 108.48277344 -5.54382812 109.02804688 -4.50390625 109.58984375 C-2 111 -2 111 -1 112 C6.09687047 111.87096599 11.38836657 109.33521681 17 105 C17 104.34 17 103.68 17 103 C18.175625 102.690625 18.175625 102.690625 19.375 102.375 C28.46253861 98.9280026 41.60605065 92.09092402 47 84 C47.35340384 81.79657245 47.35340384 81.79657245 47.38232422 79.33251953 C47.41510468 78.38788849 47.44788513 77.44325745 47.48165894 76.47000122 C47.50575836 75.45122894 47.52985779 74.43245667 47.5546875 73.3828125 C47.58354034 72.33350555 47.61239319 71.28419861 47.64212036 70.20309448 C47.69920283 67.98236569 47.75097267 65.76149496 47.79785156 63.54052734 C47.87455897 60.1445254 47.98338983 56.75052213 48.09375 53.35546875 C48.14520741 51.19796294 48.19474982 49.04041043 48.2421875 46.8828125 C48.27843231 45.86808868 48.31467712 44.85336487 48.35202026 43.80789185 C48.44067947 38.08517502 48.44067947 38.08517502 46.16845703 32.92138672 C43.61619562 30.65992564 41.10555052 29.39432881 38 28 C35.30385882 26.48753056 32.95507248 24.9631364 30.5625 23 C27.83373244 20.87023019 25.11579285 19.49298407 22 18 C21.13375 17.46375 20.2675 16.9275 19.375 16.375 C17.19163586 15.11094707 15.46159205 14.45585038 13 14 C13 13.34 13 12.68 13 12 C11.2984375 11.0409375 11.2984375 11.0409375 9.5625 10.0625 C6.125 8.125 6.125 8.125 5 7 C0.69876778 6.52208531 -1.4597731 7.63984873 -5 10 Z " fill="#42AFBE" transform="translate(67,5)"/>
<path d="M0 0 C1.00122171 3.00366514 1.12112011 4.97739593 1.11352539 8.11401367 C1.11344986 9.15486618 1.11337433 10.19571869 1.11329651 11.26811218 C1.10813522 12.39006485 1.10297394 13.51201752 1.09765625 14.66796875 C1.0962413 15.81791824 1.09482635 16.96786774 1.09336853 18.15266418 C1.08776429 21.83096908 1.07521104 25.50921345 1.0625 29.1875 C1.05748555 31.67903558 1.05292255 34.17057211 1.04882812 36.66210938 C1.03779347 42.77476029 1.02105118 48.88737582 1 55 C-1.475 55.495 -1.475 55.495 -4 56 C-8.25833809 50.79536456 -10.22505639 45.9259768 -12.10546875 39.4765625 C-12.73407641 36.84575046 -12.73407641 36.84575046 -15 36 C-15.33 41.28 -15.66 46.56 -16 52 C-17.98 52 -19.96 52 -22 52 C-24.08046353 48.87930471 -24.24461515 48.26958382 -24.18286133 44.74389648 C-24.17237259 43.88968613 -24.16188385 43.03547577 -24.15107727 42.15538025 C-24.12829208 41.2365657 -24.1055069 40.31775116 -24.08203125 39.37109375 C-24.06412033 38.42565201 -24.04620941 37.48021027 -24.02775574 36.50611877 C-23.98656736 34.50795159 -23.93998609 32.50988939 -23.88842773 30.51196289 C-23.81271484 27.44619919 -23.76378184 24.38077557 -23.71679688 21.31445312 C-23.67350089 19.37496302 -23.62863243 17.43550725 -23.58203125 15.49609375 C-23.56936722 14.57525497 -23.55670319 13.6544162 -23.5436554 12.70567322 C-23.51740585 11.85461502 -23.49115631 11.00355682 -23.46411133 10.12670898 C-23.44697586 9.37630844 -23.42984039 8.6259079 -23.41218567 7.85276794 C-23 6 -23 6 -20 4 C-17.9375 4.09765625 -17.9375 4.09765625 -16 5 C-14.875 6.93359375 -14.875 6.93359375 -14 9.4375 C-13.71125 10.24058594 -13.4225 11.04367188 -13.125 11.87109375 C-12.75375 12.90363281 -12.3825 13.93617187 -12 15 C-10.68430816 18.34046567 -9.34476189 21.67114313 -8 25 C-7.98541748 24.34926514 -7.97083496 23.69853027 -7.95581055 23.02807617 C-7.88135451 20.08061694 -7.78468734 17.13429358 -7.6875 14.1875 C-7.66494141 13.16333984 -7.64238281 12.13917969 -7.61914062 11.08398438 C-7.58369141 10.10107422 -7.54824219 9.11816406 -7.51171875 8.10546875 C-7.48553467 7.19949951 -7.45935059 6.29353027 -7.43237305 5.36010742 C-7 3 -7 3 -5.71801758 1.1809082 C-4 0 -4 0 0 0 Z " fill="#3DB0C2" transform="translate(54,36)"/>
<path d="M0 0 C0.87454834 0.00523682 1.74909668 0.01047363 2.65014648 0.01586914 C3.59438477 0.0190918 4.53862305 0.02231445 5.51147461 0.02563477 C6.50469727 0.03401367 7.49791992 0.04239258 8.52124023 0.05102539 C9.51833008 0.05553711 10.51541992 0.06004883 11.54272461 0.06469727 C14.0147551 0.07652516 16.48675496 0.09446124 18.95874023 0.11352539 C19.61874023 3.41352539 20.27874023 6.71352539 20.95874023 10.11352539 C16.00874023 10.11352539 11.05874023 10.11352539 5.95874023 10.11352539 C5.95874023 15.72352539 5.95874023 21.33352539 5.95874023 27.11352539 C8.65030273 27.08258789 8.65030273 27.08258789 11.39624023 27.05102539 C13.25040146 27.02971319 15.10586522 27.04126037 16.95874023 27.11352539 C17.95874023 28.11352539 17.95874023 28.11352539 18.05639648 29.96118164 C18.0238444 32.01196289 17.99129232 34.06274414 17.95874023 36.11352539 C12.01874023 36.60852539 12.01874023 36.60852539 5.95874023 37.11352539 C5.95874023 47.01352539 5.95874023 56.91352539 5.95874023 67.11352539 C2.33547284 68.32128119 1.31727655 67.65663667 -2.04125977 66.11352539 C-2.18648002 59.91038047 -2.32874331 53.70717654 -2.46850586 47.50390625 C-2.51623617 45.40265159 -2.56471337 43.30141373 -2.61401367 41.20019531 C-2.8640554 30.52239285 -3.08949731 19.84522355 -3.13500977 9.16430664 C-3.14149536 8.35978561 -3.14798096 7.55526459 -3.15466309 6.72636414 C-3.15621405 4.8550367 -3.10458098 2.98378185 -3.04125977 1.11352539 C-2.04125977 0.11352539 -2.04125977 0.11352539 0 0 Z " fill="#31C0D2" transform="translate(64.041259765625,30.886474609375)"/>
<path d="M0 0 C0.50402344 0.12632813 1.00804688 0.25265625 1.52734375 0.3828125 C3.5385757 0.88482616 5.55215854 1.37741424 7.56640625 1.8671875 C8.89858427 2.20254252 10.23061177 2.53849593 11.5625 2.875 C12.23474609 3.03613281 12.90699219 3.19726562 13.59960938 3.36328125 C19.99648452 5.00220259 19.99648452 5.00220259 22 8 C22.1875 11.1875 22.1875 11.1875 22 14 C19.69 13.67 17.38 13.34 15 13 C15 25.54 15 38.08 15 51 C14.34 51 13.68 51 13 51 C12.67 51.99 12.34 52.98 12 54 C10 54.75 10 54.75 8 55 C6.30265874 53.30265874 6.77041617 51.10361222 6.68359375 48.77734375 C6.64161865 47.6879248 6.59964355 46.59850586 6.55639648 45.47607422 C6.51716064 44.30834473 6.4779248 43.14061523 6.4375 41.9375 C6.37381226 40.1743042 6.37381226 40.1743042 6.30883789 38.37548828 C6.0089475 29.5791058 5.88035307 20.80069617 6 12 C5.02933594 11.566875 4.05867188 11.13375 3.05859375 10.6875 C0 9 0 9 -0.9375 6 C-1 3 -1 3 0 0 Z " fill="#3FB6C6" transform="translate(87,37)"/>
<path d="M0 0 C0 1.32 0 2.64 0 4 C-1.98 4.66 -3.96 5.32 -6 6 C-6 6.66 -6 7.32 -6 8 C-6.78375 8.2475 -7.5675 8.495 -8.375 8.75 C-11.13427027 9.71248315 -11.13427027 9.71248315 -11.875 12 C-13 14 -13 14 -16.625 15.25 C-17.73875 15.4975 -18.8525 15.745 -20 16 C-20 16.66 -20 17.32 -20 18 C-25.75 21 -25.75 21 -28 21 C-28 21.66 -28 22.32 -28 23 C-34.75 27 -34.75 27 -37 27 C-37 27.66 -37 28.32 -37 29 C-38.29569804 29.67048085 -39.61235405 30.30067053 -40.9375 30.91088867 C-43.63405588 32.54433067 -44.79091424 33.3399292 -45.75390625 36.3800354 C-46.02312861 39.41850217 -46.05545628 42.37575781 -46 45.42578125 C-46.01087646 46.52850876 -46.02175293 47.63123627 -46.03295898 48.76737976 C-46.05911844 52.28341312 -46.03027062 55.79654383 -46 59.3125 C-46.00809116 61.69858277 -46.01976768 64.08465626 -46.03515625 66.47070312 C-46.0650126 72.3143321 -46.04973365 78.1565356 -46 84 C-46.33 84 -46.66 84 -47 84 C-47.81081495 77.63452147 -48.1360145 71.45158946 -48.09765625 65.0390625 C-48.0962413 64.12667816 -48.09482635 63.21429382 -48.09336853 62.27426147 C-48.08782401 59.39113931 -48.07529124 56.50809818 -48.0625 53.625 C-48.05747699 51.66796989 -48.05291549 49.71093854 -48.04882812 47.75390625 C-48.03904869 43.46747591 -48.02487927 39.18108659 -48.00672913 34.89468384 C-48.00093453 33.26313131 -48 31.63156282 -48 30 C-49.26184609 31.0386489 -49.26184609 31.0386489 -49.12025452 33.32215881 C-49.11803391 34.35030197 -49.11581329 35.37844513 -49.11352539 36.43774414 C-49.11344986 37.59887222 -49.11337433 38.76000031 -49.11329651 39.95631409 C-49.10813522 41.219832 -49.10297394 42.48334991 -49.09765625 43.78515625 C-49.0962413 45.07111191 -49.09482635 46.35706757 -49.09336853 47.68199158 C-49.08954418 51.10643443 -49.07971462 54.53083509 -49.06866455 57.95526123 C-49.05844864 61.44738189 -49.05387053 64.93950934 -49.04882812 68.43164062 C-49.03809227 75.28777778 -49.02101684 82.14388687 -49 89 C-49.99 88.67 -50.98 88.34 -52 88 C-52.2233404 80.62046962 -52.42483174 73.24068445 -52.59840012 65.85980511 C-52.67968228 62.4325823 -52.7684969 59.00589972 -52.87451172 55.5793457 C-52.99604406 51.64057949 -53.08484141 47.70140456 -53.171875 43.76171875 C-53.21439392 42.53039719 -53.25691284 41.29907562 -53.30072021 40.03044128 C-53.32104309 38.88948502 -53.34136597 37.74852875 -53.36230469 36.57299805 C-53.38895203 35.567061 -53.41559937 34.56112396 -53.4430542 33.52470398 C-53 31 -53 31 -51.10235596 29.15168762 C-49 28 -49 28 -47 28 C-46.67 27.01 -46.34 26.02 -46 25 C-44.03696582 23.92925408 -42.0302589 22.93704257 -40 22 C-39.13375 21.46375 -38.2675 20.9275 -37.375 20.375 C-35 19 -35 19 -32.75 18.5 C-31.88375 18.2525 -31.88375 18.2525 -31 18 C-30.67 17.01 -30.34 16.02 -30 15 C-28.22265625 13.83203125 -28.22265625 13.83203125 -26.0625 12.8125 C-25.35222656 12.46832031 -24.64195313 12.12414063 -23.91015625 11.76953125 C-22 11 -22 11 -20 11 C-20 10.34 -20 9.68 -20 9 C-18.35 8.67 -16.7 8.34 -15 8 C-15 7.34 -15 6.68 -15 6 C-13.58671871 5.18162558 -12.16921654 4.37053781 -10.75 3.5625 C-9.96109375 3.11003906 -9.1721875 2.65757813 -8.359375 2.19140625 C-5.53285173 0.76410559 -3.1656163 0 0 0 Z " fill="#42B4BF" transform="translate(70,6)"/>
<path d="M0 0 C0.66 0 1.32 0 2 0 C3.14315747 2.28631494 3.12112732 3.54347406 3.11352539 6.08251953 C3.11344986 6.92324005 3.11337433 7.76396057 3.11329651 8.63015747 C3.10555458 9.99272171 3.10555458 9.99272171 3.09765625 11.3828125 C3.0962413 12.31221649 3.09482635 13.24162048 3.09336853 14.19918823 C3.08776053 17.17449124 3.07520668 20.14971964 3.0625 23.125 C3.05748603 25.13932183 3.05292295 27.15364484 3.04882812 29.16796875 C3.0377885 34.11200802 3.02051849 39.05599135 3 44 C-1.72460938 43.31347656 -1.72460938 43.31347656 -4.203125 40.4921875 C-6.33199413 36.35477662 -7.09230557 32.69017307 -7.75 28.125 C-7.93755859 26.949375 -7.93755859 26.949375 -8.12890625 25.75 C-8.4324443 23.8353754 -8.7180776 21.91792661 -9 20 C-9.66 20 -10.32 20 -11 20 C-11 19.01 -11 18.02 -11 17 C-8.5 15.3125 -8.5 15.3125 -6 14 C-5.34 16.97 -4.68 19.94 -4 23 C-3.34 23 -2.68 23 -2 23 C-2.02320313 21.84242187 -2.04640625 20.68484375 -2.0703125 19.4921875 C-2.08908148 17.95313149 -2.10728046 16.41406845 -2.125 14.875 C-2.14175781 14.11445312 -2.15851562 13.35390625 -2.17578125 12.5703125 C-2.21546246 7.96729269 -1.75907577 4.33535996 0 0 Z M-8 20 C-7 22 -7 22 -7 22 Z " fill="#31C2D2" transform="translate(51,48)"/>
<path d="M0 0 C0.87454834 0.00523682 1.74909668 0.01047363 2.65014648 0.01586914 C3.59438477 0.0190918 4.53862305 0.02231445 5.51147461 0.02563477 C6.50469727 0.03401367 7.49791992 0.04239258 8.52124023 0.05102539 C9.51833008 0.05553711 10.51541992 0.06004883 11.54272461 0.06469727 C14.0147551 0.07652516 16.48675496 0.09446124 18.95874023 0.11352539 C19.61874023 3.41352539 20.27874023 6.71352539 20.95874023 10.11352539 C16.00874023 10.11352539 11.05874023 10.11352539 5.95874023 10.11352539 C5.95874023 14.40352539 5.95874023 18.69352539 5.95874023 23.11352539 C5.29874023 23.11352539 4.63874023 23.11352539 3.95874023 23.11352539 C3.62874023 24.43352539 3.29874023 25.75352539 2.95874023 27.11352539 C2.62874023 26.12352539 2.29874023 25.13352539 1.95874023 24.11352539 C1.29874023 24.11352539 0.63874023 24.11352539 -0.04125977 24.11352539 C-0.57101631 20.30220903 -1.08856916 16.48933577 -1.60375977 12.67602539 C-1.75522461 11.58741211 -1.90668945 10.49879883 -2.06274414 9.37719727 C-2.20131836 8.34272461 -2.33989258 7.30825195 -2.48266602 6.24243164 C-2.61358643 5.28409424 -2.74450684 4.32575684 -2.87939453 3.33837891 C-2.93281006 2.60417725 -2.98622559 1.86997559 -3.04125977 1.11352539 C-2.04125977 0.11352539 -2.04125977 0.11352539 0 0 Z " fill="#40B5C4" transform="translate(64.041259765625,30.886474609375)"/>
<path d="M0 0 C0.99 0.33 1.98 0.66 3 1 C2.01 1.33 1.02 1.66 0 2 C0 2.66 0 3.32 0 4 C-1.29569804 4.67048085 -2.61235405 5.30067053 -3.9375 5.91088867 C-6.63405588 7.54433067 -7.79091424 8.3399292 -8.75390625 11.3800354 C-9.02312861 14.41850217 -9.05545628 17.37575781 -9 20.42578125 C-9.01087646 21.52850876 -9.02175293 22.63123627 -9.03295898 23.76737976 C-9.05911844 27.28341312 -9.03027062 30.79654383 -9 34.3125 C-9.00809116 36.69858277 -9.01976768 39.08465626 -9.03515625 41.47070312 C-9.0650126 47.3143321 -9.04973365 53.1565356 -9 59 C-9.33 59 -9.66 59 -10 59 C-10.81081495 52.63452147 -11.1360145 46.45158946 -11.09765625 40.0390625 C-11.0962413 39.12667816 -11.09482635 38.21429382 -11.09336853 37.27426147 C-11.08782401 34.39113931 -11.07529124 31.50809818 -11.0625 28.625 C-11.05747699 26.66796989 -11.05291549 24.71093854 -11.04882812 22.75390625 C-11.03904869 18.46747591 -11.02487927 14.18108659 -11.00672913 9.89468384 C-11.00093453 8.26313131 -11 6.63156282 -11 5 C-12.26184609 6.0386489 -12.26184609 6.0386489 -12.12025452 8.32215881 C-12.11803391 9.35030197 -12.11581329 10.37844513 -12.11352539 11.43774414 C-12.11344986 12.59887222 -12.11337433 13.76000031 -12.11329651 14.95631409 C-12.10813522 16.219832 -12.10297394 17.48334991 -12.09765625 18.78515625 C-12.0962413 20.07111191 -12.09482635 21.35706757 -12.09336853 22.68199158 C-12.08954418 26.10643443 -12.07971462 29.53083509 -12.06866455 32.95526123 C-12.05844864 36.44738189 -12.05387053 39.93950934 -12.04882812 43.43164062 C-12.03809227 50.28777778 -12.02101684 57.14388687 -12 64 C-12.99 63.67 -13.98 63.34 -15 63 C-15.2233404 55.62046962 -15.42483174 48.24068445 -15.59840012 40.85980511 C-15.67968228 37.4325823 -15.7684969 34.00589972 -15.87451172 30.5793457 C-15.99604406 26.64057949 -16.08484141 22.70140456 -16.171875 18.76171875 C-16.21439392 17.53039719 -16.25691284 16.29907562 -16.30072021 15.03044128 C-16.32104309 13.88948502 -16.34136597 12.74852875 -16.36230469 11.57299805 C-16.38895203 10.567061 -16.41559937 9.56112396 -16.4430542 8.52470398 C-16 6 -16 6 -14.10235596 4.15168762 C-12 3 -12 3 -10 3 C-10 2.34 -10 1.68 -10 1 C-9.34 1 -8.68 1 -8 1 C-8 1.99 -8 2.98 -8 4 C-4.31245243 3.50168276 -2.39509338 2.89932357 0 0 Z " fill="#3DACC2" transform="translate(33,31)"/>
<path d="M0 0 C0.50402344 0.12632813 1.00804688 0.25265625 1.52734375 0.3828125 C3.5385757 0.88482616 5.55215854 1.37741424 7.56640625 1.8671875 C8.89858427 2.20254252 10.23061177 2.53849593 11.5625 2.875 C12.23474609 3.03613281 12.90699219 3.19726562 13.59960938 3.36328125 C19.99648452 5.00220259 19.99648452 5.00220259 22 8 C22.1875 11.1875 22.1875 11.1875 22 14 C19.69 13.67 17.38 13.34 15 13 C15 16.3 15 19.6 15 23 C12.28156562 19.37542083 11.58210456 18.19115285 11 14 C10.01 13.67 9.02 13.34 8 13 C7.67 14.65 7.34 16.3 7 18 C6.67 18 6.34 18 6 18 C6 16.02 6 14.04 6 12 C5.030625 11.62875 4.06125 11.2575 3.0625 10.875 C0 9 0 9 -0.9375 6 C-1 3 -1 3 0 0 Z " fill="#41B2BD" transform="translate(87,37)"/>
<path d="M0 0 C0.33 0 0.66 0 1 0 C1.53124117 3.12332403 2.04821133 6.24884354 2.5625 9.375 C2.71396484 10.26445313 2.86542969 11.15390625 3.02148438 12.0703125 C3.16005859 12.92109375 3.29863281 13.771875 3.44140625 14.6484375 C3.57232666 15.43395996 3.70324707 16.21948242 3.83813477 17.02880859 C4 19 4 19 3 21 C3.66 21 4.32 21 5 21 C5.33 21.66 5.66 22.32 6 23 C6.33 22.01 6.66 21.02 7 20 C7.66 20 8.32 20 9 20 C9 21.32 9 22.64 9 24 C9.78246094 23.98839844 10.56492187 23.97679688 11.37109375 23.96484375 C12.38300781 23.95582031 13.39492187 23.94679688 14.4375 23.9375 C15.44683594 23.92589844 16.45617187 23.91429688 17.49609375 23.90234375 C20 24 20 24 21 25 C21.14115161 27.67058851 21.04247107 30.32432238 21 33 C17.7 33 14.4 33 11 33 C11 32.67 11 32.34 11 32 C13.97 32 16.94 32 20 32 C20 30.02 20 28.04 20 26 C16.37 26.33 12.74 26.66 9 27 C8.67 28.32 8.34 29.64 8 31 C7.01 31.33 6.02 31.66 5 32 C4.67 31.01 4.34 30.02 4 29 C4 40.22 4 51.44 4 63 C3.01 63 2.02 63 1 63 C0.85509514 56.76022703 0.71280474 50.52040138 0.57275391 44.28051758 C0.52493906 42.16559306 0.47645652 40.05068352 0.42724609 37.93579102 C0.13346275 25.28811826 -0.0774106 12.65125691 0 0 Z " fill="#32A5B8" transform="translate(61,34)"/>
<path d="M0 0 C0.66 0.33 1.32 0.66 2 1 C1.67 1.99 1.34 2.98 1 4 C0.91245202 5.67220971 0.88234005 7.34772199 0.88647461 9.0222168 C0.88655014 10.04304855 0.88662567 11.06388031 0.88670349 12.11564636 C0.89186478 13.21572525 0.89702606 14.31580414 0.90234375 15.44921875 C0.9037587 16.5769722 0.90517365 17.70472565 0.90663147 18.86665344 C0.9122353 22.47362912 0.92478847 26.08054304 0.9375 29.6875 C0.94251451 32.13085848 0.9470775 34.57421793 0.95117188 37.01757812 C0.96220597 43.01173987 0.97894785 49.00586552 1 55 C1.91072266 55.18755859 1.91072266 55.18755859 2.83984375 55.37890625 C5.82713101 56.23781886 7.6457588 58.00794976 10 60 C10.99 60.66 11.98 61.32 13 62 C13 62.99 13 63.98 13 65 C11.35 65 9.7 65 8 65 C8 64.34 8 63.68 8 63 C7.36191406 62.89042969 6.72382813 62.78085938 6.06640625 62.66796875 C4.82697266 62.43013672 4.82697266 62.43013672 3.5625 62.1875 C2.73878906 62.03667969 1.91507813 61.88585937 1.06640625 61.73046875 C0.38449219 61.48941406 -0.29742188 61.24835938 -1 61 C-2.0279739 57.91607829 -2.13272058 55.78236427 -2.14526367 52.55053711 C-2.15164352 51.43605698 -2.15802338 50.32157684 -2.16459656 49.17332458 C-2.16570938 47.97015091 -2.1668222 46.76697723 -2.16796875 45.52734375 C-2.17129715 44.29335342 -2.17462555 43.0593631 -2.17805481 41.78797913 C-2.1831205 39.17791111 -2.18546325 36.5678366 -2.18530273 33.95776367 C-2.18522116 31.2757294 -2.19221039 28.59386475 -2.20581055 25.91186523 C-2.22404714 22.05447116 -2.22903525 18.1972765 -2.23046875 14.33984375 C-2.23765427 13.13464584 -2.24483978 11.92944794 -2.25224304 10.68772888 C-2.24916641 9.57640091 -2.24608978 8.46507294 -2.24291992 7.32006836 C-2.24505745 5.84805214 -2.24505745 5.84805214 -2.24723816 4.34629822 C-2 2 -2 2 0 0 Z " fill="#3BBFCE" transform="translate(22,35)"/>
<path d="M0 0 C0.33 0 0.66 0 1 0 C1.02538248 6.31712993 1.04288057 12.63424668 1.05493164 18.95141602 C1.05995629 21.09985852 1.06677708 23.2482976 1.07543945 25.39672852 C1.08758678 28.4871505 1.09324705 31.57752722 1.09765625 34.66796875 C1.10281754 35.62648239 1.10797882 36.58499603 1.11329651 37.57255554 C1.11337204 38.47311172 1.11344757 39.37366791 1.11352539 40.30151367 C1.115746 41.08983078 1.11796661 41.87814789 1.12025452 42.69035339 C0.98936816 45.20419855 0.54820896 47.54610177 0 50 C-1.0725 50.28875 -2.145 50.5775 -3.25 50.875 C-6.09400364 51.72820109 -8.43508983 52.5636503 -11 54 C-11.495 52.515 -11.495 52.515 -12 51 C-11.21625 50.4225 -10.4325 49.845 -9.625 49.25 C-7.15143113 47.12979811 -6.28957943 45.87675412 -5 43 C-4.01 42.505 -4.01 42.505 -3 42 C-2.970271 40.51790039 -2.970271 40.51790039 -2.93994141 39.00585938 C-2.86334395 35.30802747 -2.77471438 31.61056158 -2.68261719 27.91308594 C-2.64454948 26.3187589 -2.60965963 24.72435245 -2.578125 23.12988281 C-2.53198737 20.8258849 -2.47407935 18.52242334 -2.4140625 16.21875 C-2.39673569 15.16512268 -2.39673569 15.16512268 -2.37905884 14.09020996 C-2.23447026 9.14122061 -1.33294469 4.77053887 0 0 Z " fill="#38C2D2" transform="translate(118,46)"/>
<path d="M0 0 C6.93 0 13.86 0 21 0 C21 2.31 21 4.62 21 7 C19.75283203 7.07347656 19.75283203 7.07347656 18.48046875 7.1484375 C17.39378906 7.22320312 16.30710937 7.29796875 15.1875 7.375 C14.10855469 7.44460937 13.02960938 7.51421875 11.91796875 7.5859375 C8.81373814 7.81195733 8.81373814 7.81195733 6 10 C6 9.01 6 8.02 6 7 C5.01 7.99 4.02 8.98 3 10 C2.92652344 9.04287109 2.92652344 9.04287109 2.8515625 8.06640625 C2.77679688 7.24011719 2.70203125 6.41382813 2.625 5.5625 C2.55539063 4.73878906 2.48578125 3.91507813 2.4140625 3.06640625 C2.27742188 2.38449219 2.14078125 1.70257813 2 1 C1.34 0.67 0.68 0.34 0 0 Z " fill="#38CADC" transform="translate(61,32)"/>
<path d="M0 0 C1.88671875 0.2109375 1.88671875 0.2109375 4 1 C6.2790409 5.2947991 7 9.93585225 7 14.75 C5.72430275 18.89601605 4.01669574 20.90788687 1 24 C0.67 24 0.34 24 0 24 C-2.10306242 16.22617999 -3.97729334 7.45742502 0 0 Z " fill="#39C0CF" transform="translate(95,50)"/>
<path d="M0 0 C0 10.23 0 20.46 0 31 C-0.99 31.33 -1.98 31.66 -3 32 C-3.66 31.34 -4.32 30.68 -5 30 C-4.01 30 -3.02 30 -2 30 C-2.33 27.03 -2.66 24.06 -3 21 C-3.66 21 -4.32 21 -5 21 C-5.08086376 18.06195004 -5.1404283 15.12611925 -5.1875 12.1875 C-5.21263672 11.35412109 -5.23777344 10.52074219 -5.26367188 9.66210938 C-5.27333984 8.85966797 -5.28300781 8.05722656 -5.29296875 7.23046875 C-5.3086792 6.49207764 -5.32438965 5.75368652 -5.34057617 4.99291992 C-4.80256652 1.84469572 -3.26358412 0 0 0 Z " fill="#35B0C0" transform="translate(70,67)"/>
<path d="M0 0 C0.66 0.33 1.32 0.66 2 1 C2.33 20.14 2.66 39.28 3 59 C2.01 58.67 1.02 58.34 0 58 C-0.15361312 50.58550536 -0.30179477 43.17092344 -0.4429636 35.75618076 C-0.50868009 32.31354881 -0.57629621 28.87097566 -0.64819336 25.4284668 C-0.73068929 21.47454777 -0.80503145 17.52049615 -0.87890625 13.56640625 C-0.90594131 12.32476212 -0.93297638 11.08311798 -0.96083069 9.80384827 C-0.98092697 8.66274094 -1.00102325 7.52163361 -1.02172852 6.34594727 C-1.04171402 5.335569 -1.06169952 4.32519073 -1.08229065 3.28419495 C-1 1 -1 1 0 0 Z " fill="#3197A4" transform="translate(18,36)"/>
<path d="M0 0 C0 1.32 0 2.64 0 4 C-1.98 4.66 -3.96 5.32 -6 6 C-6 6.66 -6 7.32 -6 8 C-11.625 11 -11.625 11 -15 11 C-15 11.66 -15 12.32 -15 13 C-16.32 12.34 -17.64 11.68 -19 11 C-18.67 10.01 -18.34 9.02 -18 8 C-17.01 8 -16.02 8 -15 8 C-15 7.34 -15 6.68 -15 6 C-13.58671871 5.18162558 -12.16921654 4.37053781 -10.75 3.5625 C-9.56664062 2.88380859 -9.56664062 2.88380859 -8.359375 2.19140625 C-5.53285173 0.76410559 -3.1656163 0 0 0 Z " fill="#41C0CC" transform="translate(70,6)"/>
<path d="M0 0 C0.33 1.32 0.66 2.64 1 4 C-0.45706726 4.50367757 -1.91570096 5.00282556 -3.375 5.5 C-4.59316406 5.91765625 -4.59316406 5.91765625 -5.8359375 6.34375 C-8 7 -8 7 -10 7 C-10.33 7.99 -10.66 8.98 -11 10 C-12.65 10 -14.3 10 -16 10 C-16.33 8.68 -16.66 7.36 -17 6 C-16.113125 5.566875 -15.22625 5.13375 -14.3125 4.6875 C-11.0656199 3.11845548 -11.0656199 3.11845548 -8.5 1.3125 C-5.48265996 -0.27160352 -3.36050087 -0.23445355 0 0 Z " fill="#3EB9C4" transform="translate(41,25)"/>
<path d="M0 0 C0.33 0 0.66 0 1 0 C1 13.86 1 27.72 1 42 C-4 41 -4 41 -6.3125 38.0625 C-8 35 -8 35 -8 33 C-7.34 33 -6.68 33 -6 33 C-6 33.99 -6 34.98 -6 36 C-4.02 36 -2.04 36 0 36 C0 24.12 0 12.24 0 0 Z " fill="#3CB7C8" transform="translate(53,50)"/>
<path d="M0 0 C5.75 0.875 5.75 0.875 8 2 C8 2.66 8 3.32 8 4 C9.98 4.66 11.96 5.32 14 6 C12 7 12 7 8.875 6.0625 C7.92625 5.711875 6.9775 5.36125 6 5 C6.57944932 6.99863756 6.57944932 6.99863756 8 9 C9.99172182 9.69100553 11.99161804 10.35902703 14 11 C14.33 11.99 14.66 12.98 15 14 C14.34 14 13.68 14 13 14 C13 13.34 13 12.68 13 12 C12.13375 11.8453125 12.13375 11.8453125 11.25 11.6875 C9 11 9 11 7.0625 9.4375 C4.43156875 7.60382064 3.15371817 7.53848027 0 8 C-1.69514137 8.95093297 -3.36368108 9.95107762 -5 11 C-7.3125 11.6875 -7.3125 11.6875 -9 12 C-7.6875 10.5 -7.6875 10.5 -6 9 C-5.01 9 -4.02 9 -3 9 C-3 8.34 -3 7.68 -3 7 C-1.02 6.34 0.96 5.68 3 5 C3 3.68 3 2.36 3 1 C1.68 1.33 0.36 1.66 -1 2 C-0.67 1.34 -0.34 0.68 0 0 Z " fill="#47AFBB" transform="translate(67,5)"/>
<path d="M0 0 C0.33 0 0.66 0 1 0 C1.66 2.31 2.32 4.62 3 7 C3.66 7 4.32 7 5 7 C5 10.96 5 14.92 5 19 C3.35 19.33 1.7 19.66 0 20 C0 13.4 0 6.8 0 0 Z " fill="#29C0D2" transform="translate(32,68)"/>
<path d="M0 0 C3.63 0.33 7.26 0.66 11 1 C11 1.66 11 2.32 11 3 C11.99 3.33 12.98 3.66 14 4 C9.09350507 6.12172754 5.99214311 6.07628948 0.8125 5 C-0.08855469 4.814375 -0.98960938 4.62875 -1.91796875 4.4375 C-2.60503906 4.293125 -3.29210937 4.14875 -4 4 C-3.67 3.01 -3.34 2.02 -3 1 C-2.01 1.33 -1.02 1.66 0 2 C0 1.34 0 0.68 0 0 Z " fill="#3CC2CE" transform="translate(92,41)"/>
<path d="M0 0 C0.33 0 0.66 0 1 0 C1.0825 0.94875 1.165 1.8975 1.25 2.875 C1.65074923 6.10461791 1.65074923 6.10461791 4.0625 7.375 C4.701875 7.58125 5.34125 7.7875 6 8 C6 8.66 6 9.32 6 10 C8.64 10.33 11.28 10.66 14 11 C14 12.32 14 13.64 14 15 C12.35 15 10.7 15 9 15 C9 14.34 9 13.68 9 13 C8.36191406 12.89042969 7.72382813 12.78085938 7.06640625 12.66796875 C6.24011719 12.50941406 5.41382813 12.35085937 4.5625 12.1875 C3.73878906 12.03667969 2.91507813 11.88585937 2.06640625 11.73046875 C1.38449219 11.48941406 0.70257812 11.24835938 0 11 C-1.16461426 7.50615721 -1.13568319 4.66344611 -1 1 C-0.67 0.67 -0.34 0.34 0 0 Z " fill="#3DC8D9" transform="translate(21,85)"/>
<path d="M0 0 C1.27445454 0.42683632 2.54445882 0.86697202 3.8125 1.3125 C4.52019531 1.55613281 5.22789063 1.79976562 5.95703125 2.05078125 C8.15996248 3.07432291 9.31728515 4.28040373 11 6 C11.99 6.33 12.98 6.66 14 7 C14 7.66 14 8.32 14 9 C15.32 9.66 16.64 10.32 18 11 C18 11.66 18 12.32 18 13 C16.88625 12.505 16.88625 12.505 15.75 12 C12.86116688 10.77217129 12.86116688 10.77217129 9 11 C8.773125 10.38125 8.54625 9.7625 8.3125 9.125 C6.60599474 6.36208673 4.97260714 6.16004181 2 5 C0.1875 2.875 0.1875 2.875 -1 1 C-0.67 0.67 -0.34 0.34 0 0 Z " fill="#43CADA" transform="translate(73,9)"/>
<path d="M0 0 C2.97 0.495 2.97 0.495 6 1 C6 1.66 6 2.32 6 3 C6.66 3 7.32 3 8 3 C8 3.66 8 4.32 8 5 C9.32 5.33 10.64 5.66 12 6 C12 6.66 12 7.32 12 8 C12.66 8.33 13.32 8.66 14 9 C10.37673261 10.2077558 9.35853631 9.54311128 6 8 C6 7.34 6 6.68 6 6 C5.21625 5.690625 4.4325 5.38125 3.625 5.0625 C1 4 1 4 -1 3 C-0.67 2.01 -0.34 1.02 0 0 Z " fill="#41C3D3" transform="translate(93,21)"/>
<path d="M0 0 C4.9758938 0.47389465 8.33900394 1.51333709 12 5 C12.50679419 8.06188158 12.35464447 10.9264146 12 14 C11.34 13.67 10.68 13.34 10 13 C9.59270772 10.67843403 9.25561323 8.3431213 9 6 C8.443125 5.87625 7.88625 5.7525 7.3125 5.625 C4.77885636 4.94023145 2.42078968 4.00866237 0 3 C0 2.01 0 1.02 0 0 Z " fill="#3EC8D6" transform="translate(107,31)"/>
<path d="M0 0 C0.33 0 0.66 0 1 0 C1.99 6.27 2.98 12.54 4 19 C3.34 19 2.68 19 2 19 C2 20.98 2 22.96 2 25 C1.34 25.33 0.68 25.66 0 26 C0 17.42 0 8.84 0 0 Z " fill="#469CB0" transform="translate(61,34)"/>
<path d="M0 0 C0.66 0 1.32 0 2 0 C2 0.99 2 1.98 2 3 C0.02 3.66 -1.96 4.32 -4 5 C-4 5.66 -4 6.32 -4 7 C-1.36 6.01 1.28 5.02 4 4 C4 4.66 4 5.32 4 6 C3.34 6 2.68 6 2 6 C2 6.66 2 7.32 2 8 C0.03533587 9.06775224 -1.96855359 10.06553465 -4 11 C-4.66 10.67 -5.32 10.34 -6 10 C-6 9.01 -6 8.02 -6 7 C-6.99 7 -7.98 7 -9 7 C-9 6.34 -9 5.68 -9 5 C-8.43410156 4.72285156 -7.86820312 4.44570312 -7.28515625 4.16015625 C-6.55167969 3.79792969 -5.81820312 3.43570313 -5.0625 3.0625 C-3.96615234 2.52302734 -3.96615234 2.52302734 -2.84765625 1.97265625 C-1.03750973 1.13628173 -1.03750973 1.13628173 0 0 Z " fill="#3EB3BE" transform="translate(78,112)"/>
<path d="M0 0 C0.66 0 1.32 0 2 0 C2 3.63 2 7.26 2 11 C1.01 11.495 1.01 11.495 0 12 C-0.65555119 14.52733235 -0.65555119 14.52733235 -1 17 C-1.33 17 -1.66 17 -2 17 C-2.05383848 14.54137599 -2.09359038 12.0839245 -2.125 9.625 C-2.14175781 8.92632812 -2.15851562 8.22765625 -2.17578125 7.5078125 C-2.19344267 5.67102514 -2.10303261 3.83398037 -2 2 C-1.34 1.34 -0.68 0.68 0 0 Z " fill="#38B9CB" transform="translate(51,37)"/>
<path d="M0 0 C0.33 0 0.66 0 1 0 C1 8.91 1 17.82 1 27 C0.34 27 -0.32 27 -1 27 C-2.125 23.6875 -2.125 23.6875 -3 20 C-2.01 18.515 -2.01 18.515 -1 17 C-0.6373883 15.07255631 -0.6373883 15.07255631 -0.5859375 12.98828125 C-0.54726563 12.23095703 -0.50859375 11.47363281 -0.46875 10.69335938 C-0.4378125 9.90767578 -0.406875 9.12199219 -0.375 8.3125 C-0.33632813 7.51521484 -0.29765625 6.71792969 -0.2578125 5.89648438 C-0.16367506 3.93136525 -0.08075368 1.9657146 0 0 Z " fill="#2EAABB" transform="translate(48,44)"/>
<path d="M0 0 C0.66 0.33 1.32 0.66 2 1 C1.67 1.99 1.34 2.98 1 4 C0.78816292 5.55178929 0.61380063 7.10888672 0.46484375 8.66796875 C0.37783203 9.56064453 0.29082031 10.45332031 0.20117188 11.37304688 C0.11416016 12.30181641 0.02714844 13.23058594 -0.0625 14.1875 C-0.15337891 15.12787109 -0.24425781 16.06824219 -0.33789062 17.03710938 C-0.56171283 19.3577922 -0.78229246 21.67873689 -1 24 C-1.33 24 -1.66 24 -2 24 C-2.05787784 20.37506666 -2.0935542 16.75025143 -2.125 13.125 C-2.14175781 12.09246094 -2.15851562 11.05992188 -2.17578125 9.99609375 C-2.18222656 9.00996094 -2.18867188 8.02382813 -2.1953125 7.0078125 C-2.20578613 6.09660645 -2.21625977 5.18540039 -2.22705078 4.24658203 C-2 2 -2 2 0 0 Z " fill="#41C9D3" transform="translate(22,35)"/>
<path d="M0 0 C0.99 0.33 1.98 0.66 3 1 C2.01 1.33 1.02 1.66 0 2 C0 2.66 0 3.32 0 4 C-2.97 5.65 -5.94 7.3 -9 9 C-9 7.35 -9 5.7 -9 4 C-10.65 4.66 -12.3 5.32 -14 6 C-13.34 5.01 -12.68 4.02 -12 3 C-11.34 3 -10.68 3 -10 3 C-10 2.34 -10 1.68 -10 1 C-9.34 1 -8.68 1 -8 1 C-8 1.99 -8 2.98 -8 4 C-4.31245243 3.50168276 -2.39509338 2.89932357 0 0 Z " fill="#3CAAB9" transform="translate(33,31)"/>
<path d="M0 0 C2.38564077 0.57584432 4.66682784 1.22227595 7 2 C10.15771033 8.49084901 9.9236504 12.21064564 8 19 C7.67 19 7.34 19 7 19 C6.97421875 18.27554688 6.9484375 17.55109375 6.921875 16.8046875 C6.47983655 9.26994127 5.38537748 5.38537748 0 0 Z " fill="#3BB8C8" transform="translate(109,35)"/>
<path d="M0 0 C4.85963179 0.60745397 8.7405518 2.72758967 13 5 C13 5.99 13 6.98 13 8 C6.96500128 6.65888917 3.66954923 5.16455077 0 0 Z " fill="#39C1D4" transform="translate(51,111)"/>
<path d="M0 0 C1.65 0.33 3.3 0.66 5 1 C5 1.99 5 2.98 5 4 C3.73160474 4.50615298 2.46016898 5.00469099 1.1875 5.5 C0.12595703 5.91765625 0.12595703 5.91765625 -0.95703125 6.34375 C-3 7 -3 7 -6 7 C-6 6.34 -6 5.68 -6 5 C-3 3 -3 3 0 3 C0 2.01 0 1.02 0 0 Z " fill="#3CC4D4" transform="translate(80,112)"/>
<path d="M0 0 C4.1666604 0.47348414 6.92884715 1.04696841 10 4 C10 4.66 10 5.32 10 6 C10.7425 6.0825 11.485 6.165 12.25 6.25 C15.51221354 7.1396946 16.80954878 8.48503749 19 11 C16.525 10.505 16.525 10.505 14 10 C14 9.34 14 8.68 14 8 C13.05125 7.690625 12.1025 7.38125 11.125 7.0625 C8 6 8 6 6 5 C6 4.34 6 3.68 6 3 C4.02 2.34 2.04 1.68 0 1 C0 0.67 0 0.34 0 0 Z " fill="#4AB0C3" transform="translate(45,110)"/>
<path d="M0 0 C1.32 0.33 2.64 0.66 4 1 C4 2.98 4 4.96 4 7 C3.67 6.34 3.34 5.68 3 5 C2.34 5 1.68 5 1 5 C0.67 6.65 0.34 8.3 0 10 C-0.66 9.67 -1.32 9.34 -2 9 C-1.41196203 5.97580475 -0.77321882 2.98241547 0 0 Z " fill="#30C5D1" transform="translate(95,50)"/>
<path d="M0 0 C0.33 0.99 0.66 1.98 1 3 C-2 5 -2 5 -5 5 C-5 5.66 -5 6.32 -5 7 C-6.32 6.34 -7.64 5.68 -9 5 C-8.67 4.01 -8.34 3.02 -8 2 C-5.27366306 0.89786379 -2.95855967 0 0 0 Z " fill="#3BCCD8" transform="translate(60,12)"/>
<path d="M0 0 C0.33 0.99 0.66 1.98 1 3 C0.01 3.33 -0.98 3.66 -2 4 C-2.33 4.99 -2.66 5.98 -3 7 C-4.65 7 -6.3 7 -8 7 C-8.33 5.68 -8.66 4.36 -9 3 C-8.071875 2.87625 -7.14375 2.7525 -6.1875 2.625 C-2.86074765 2.18466918 -2.86074765 2.18466918 0 0 Z " fill="#39C4D3" transform="translate(33,28)"/>
<path d="M0 0 C0.33 0 0.66 0 1 0 C3 6.625 3 6.625 3 10 C2.34 10 1.68 10 1 10 C1 12.97 1 15.94 1 19 C1.66 19.33 2.32 19.66 3 20 C2.01 20 1.02 20 0 20 C0 13.4 0 6.8 0 0 Z " fill="#3CC4D5" transform="translate(32,68)"/>
<path d="M0 0 C1.32 0.33 2.64 0.66 4 1 C4 1.66 4 2.32 4 3 C5.32 3.66 6.64 4.32 8 5 C8 5.66 8 6.32 8 7 C6.88625 6.505 6.88625 6.505 5.75 6 C2.86116688 4.77217129 2.86116688 4.77217129 -1 5 C-1.33 4.01 -1.66 3.02 -2 2 C-1.34 2 -0.68 2 0 2 C0 1.34 0 0.68 0 0 Z " fill="#3FC1CF" transform="translate(83,15)"/>
<path d="M0 0 C1.485 0.99 1.485 0.99 3 2 C3.1875 4.625 3.1875 4.625 3 7 C3.66 7.33 4.32 7.66 5 8 C4.34 8 3.68 8 3 8 C3 8.66 3 9.32 3 10 C2.01 10 1.02 10 0 10 C0 6.7 0 3.4 0 0 Z " fill="#35BDCD" transform="translate(95,80)"/>
<path d="M0 0 C0.80824219 0.11085937 1.61648437 0.22171875 2.44921875 0.3359375 C3.37154297 0.47902344 3.37154297 0.47902344 4.3125 0.625 C1.99430575 2.94319425 0.48685434 3.81295587 -2.6875 4.625 C-5.5 3.25 -5.5 3.25 -7.6875 1.625 C-4.33422361 -0.61051759 -3.78006343 -0.54783528 0 0 Z " fill="#2FC1CB" transform="translate(101.6875,43.375)"/>
<path d="M0 0 C1.670625 0.061875 1.670625 0.061875 3.375 0.125 C3.375 1.775 3.375 3.425 3.375 5.125 C1.395 5.125 -0.585 5.125 -2.625 5.125 C-2.625 4.465 -2.625 3.805 -2.625 3.125 C-3.615 2.795 -4.605 2.465 -5.625 2.125 C-3.625 0.125 -3.625 0.125 0 0 Z " fill="#33C2D7" transform="translate(78.625,31.875)"/>
<path d="M0 0 C0.66 0.33 1.32 0.66 2 1 C1.01 2.485 1.01 2.485 0 4 C-0.99 4 -1.98 4 -3 4 C-3 4.66 -3 5.32 -3 6 C-5.31 5.67 -7.62 5.34 -10 5 C-8 3 -8 3 -4.875 2.875 C-3.92625 2.91625 -2.9775 2.9575 -2 3 C-2 2.34 -2 1.68 -2 1 C-1.34 0.67 -0.68 0.34 0 0 Z " fill="#39B6C4" transform="translate(90,107)"/>
<path d="M0 0 C1.65 0.33 3.3 0.66 5 1 C4.67 2.65 4.34 4.3 4 6 C2.35 6.33 0.7 6.66 -1 7 C-0.67 4.69 -0.34 2.38 0 0 Z " fill="#2FB7C1" transform="translate(94,102)"/>
<path d="M0 0 C0.33 0 0.66 0 1 0 C2.23076923 5.41538462 2.23076923 5.41538462 1.0625 8.375 C0.711875 8.91125 0.36125 9.4475 0 10 C-1.32 10 -2.64 10 -4 10 C-3.625 8.0625 -3.625 8.0625 -3 6 C-2.34 5.67 -1.68 5.34 -1 5 C-0.34444881 2.47266765 -0.34444881 2.47266765 0 0 Z " fill="#35B8C4" transform="translate(116,83)"/>
<path d="M0 0 C0.66 0 1.32 0 2 0 C1.67 5.61 1.34 11.22 1 17 C0.01 16.67 -0.98 16.34 -2 16 C-1.34 16 -0.68 16 0 16 C-0.08378906 15.01257813 -0.16757812 14.02515625 -0.25390625 13.0078125 C-0.35574219 11.72648437 -0.45757812 10.44515625 -0.5625 9.125 C-0.66691406 7.84882812 -0.77132812 6.57265625 -0.87890625 5.2578125 C-1 2 -1 2 0 0 Z " fill="#3FACC1" transform="translate(37,71)"/>
<path d="M0 0 C0.33 0 0.66 0 1 0 C1 5.28 1 10.56 1 16 C0.67 16 0.34 16 0 16 C-1.79172099 9.92193109 -2.28545662 5.96758117 0 0 Z " fill="#23A8BC" transform="translate(63,53)"/>
<path d="M0 0 C0.66 0 1.32 0 2 0 C2 0.99 2 1.98 2 3 C-1.08809695 4.76462683 -2.23312136 5 -6 5 C-6 5.66 -6 6.32 -6 7 C-6.99 7 -7.98 7 -9 7 C-9 6.34 -9 5.68 -9 5 C-8.43410156 4.72285156 -7.86820312 4.44570312 -7.28515625 4.16015625 C-6.55167969 3.79792969 -5.81820312 3.43570313 -5.0625 3.0625 C-3.96615234 2.52302734 -3.96615234 2.52302734 -2.84765625 1.97265625 C-1.03750973 1.13628173 -1.03750973 1.13628173 0 0 Z " fill="#44AABA" transform="translate(78,112)"/>
<path d="M0 0 C0.268125 0.556875 0.53625 1.11375 0.8125 1.6875 C1.9783124 4.05953491 1.9783124 4.05953491 3.5625 6.375 C5.1558667 9.28462614 5.61916299 11.72480174 6 15 C4.25372522 12.38058783 3.61277612 10.96175123 3 8 C2.34 8 1.68 8 1 8 C0.67 5.36 0.34 2.72 0 0 Z " fill="#479FB1" transform="translate(39,46)"/>
<path d="M0 0 C0.66 0.33 1.32 0.66 2 1 C0.6875 3 0.6875 3 -1 5 C-1.99 5 -2.98 5 -4 5 C-5.68236471 5.62599617 -7.3523962 6.28752268 -9 7 C-3.51752022 1.21293801 -3.51752022 1.21293801 0 0 Z " fill="#47B3C0" transform="translate(35,25)"/>
<path d="M0 0 C4.10958767 1.45044271 7.43258745 3.51110752 11 6 C10.01 6.495 10.01 6.495 9 7 C6.8359375 6.00390625 6.8359375 6.00390625 4.375 4.5625 C3.55773438 4.08941406 2.74046875 3.61632812 1.8984375 3.12890625 C1.27195313 2.75636719 0.64546875 2.38382812 0 2 C0 1.34 0 0.68 0 0 Z " fill="#48AFC0" transform="translate(55,110)"/>
<path d="M0 0 C0.33 0.99 0.66 1.98 1 3 C-0.98 3.66 -2.96 4.32 -5 5 C-5 5.66 -5 6.32 -5 7 C-6.32 7 -7.64 7 -9 7 C-9 6.34 -9 5.68 -9 5 C-8.43410156 4.72285156 -7.86820312 4.44570312 -7.28515625 4.16015625 C-6.55167969 3.79792969 -5.81820312 3.43570313 -5.0625 3.0625 C-3.96615234 2.52302734 -3.96615234 2.52302734 -2.84765625 1.97265625 C-1.03750973 1.13628173 -1.03750973 1.13628173 0 0 Z " fill="#3FA2AF" transform="translate(93,103)"/>
<path d="M0 0 C3.3 0.33 6.6 0.66 10 1 C9.01 1.495 9.01 1.495 8 2 C8.33 3.32 8.66 4.64 9 6 C5.88802644 4.50164236 2.91164984 2.86022073 0 1 C0 0.67 0 0.34 0 0 Z " fill="#4CB8C9" transform="translate(99,29)"/>
<path d="M0 0 C4.41889613 1.35021826 6.34345343 3.26115668 9 7 C7.02 6.34 5.04 5.68 3 5 C3 4.34 3 3.68 3 3 C2.01 2.67 1.02 2.34 0 2 C0 1.34 0 0.68 0 0 Z " fill="#45B5BD" transform="translate(24,90)"/>
<path d="M0 0 C2.1385485 2.1385485 2.42655063 3.13275314 3 6 C1 6 -1 6 -3 6 C-2.42655063 3.13275314 -2.1385485 2.1385485 0 0 Z " fill="#2DAFC0" transform="translate(36,59)"/>
<path d="M0 0 C3.73487777 0.4979837 5.81237635 0.87491756 9 3 C5.79937313 4.60031344 3.27728194 3.03173691 0 2 C0 1.34 0 0.68 0 0 Z " fill="#35BFD1" transform="translate(35,101)"/>
<path d="M0 0 C2.38564077 0.57584432 4.66682784 1.22227595 7 2 C7 3.98 7 5.96 7 8 C6.401875 7.236875 5.80375 6.47375 5.1875 5.6875 C3.53040668 3.6516425 1.89702326 1.8021721 0 0 Z " fill="#3DB2BB" transform="translate(109,35)"/>
<path d="M0 0 C0.66 0.99 1.32 1.98 2 3 C1.01 3.99 0.02 4.98 -1 6 C-1.99 5.67 -2.98 5.34 -4 5 C-3.67 4.01 -3.34 3.02 -3 2 C-2.01 2 -1.02 2 0 2 C0 1.34 0 0.68 0 0 Z " fill="#3DC3D8" transform="translate(72,118)"/>
</svg>
