<?xml version="1.0" encoding="UTF-8"?>
<svg version="1.1" xmlns="http://www.w3.org/2000/svg" width="218" height="442">
<path d="M0 0 C3.01683618 0.92185728 5.42800561 2.19703485 8.14794922 3.79589844 C9.700625 4.7046875 9.700625 4.7046875 11.28466797 5.63183594 C12.89148438 6.58703125 12.89148438 6.58703125 14.53076172 7.56152344 C15.59423828 8.18285156 16.65771484 8.80417969 17.75341797 9.44433594 C32.94460415 18.3892083 32.94460415 18.3892083 34.65576172 21.81152344 C34.9409426 27.48265205 34.96950845 33.1548982 35.00585938 38.83251953 C35.02243078 40.73173262 35.04973649 42.63088304 35.08789062 44.52978516 C35.1426115 47.26725628 35.16452386 50.00326685 35.17919922 52.74121094 C35.20186859 53.58924286 35.22453796 54.43727478 35.24789429 55.31100464 C35.22677319 61.19573048 35.22677319 61.19573048 32.45483398 64.18505859 C31.53114014 64.72179199 30.60744629 65.25852539 29.65576172 65.81152344 C28.80312744 66.33423828 27.95049316 66.85695313 27.07202148 67.39550781 C26.17281982 67.89373047 25.27361816 68.39195313 24.34716797 68.90527344 C22.85540039 69.73865234 22.85540039 69.73865234 21.33349609 70.58886719 C20.30546875 71.15734375 19.27744141 71.72582031 18.21826172 72.31152344 C16.17667409 73.44473948 14.13627374 74.5800976 12.09716797 75.71777344 C11.14471191 76.24757813 10.19225586 76.77738281 9.2109375 77.32324219 C7.10046923 78.55250022 5.15082083 79.84111499 3.18310547 81.28027344 C0.65576172 82.81152344 0.65576172 82.81152344 -1.18310547 82.57788086 C-3.78458388 81.65537287 -6.04673976 80.44140225 -8.44970703 79.08105469 C-9.92600586 78.24670898 -9.92600586 78.24670898 -11.43212891 77.39550781 C-12.455 76.81091797 -13.47787109 76.22632812 -14.53173828 75.62402344 C-15.53527344 75.05876953 -16.53880859 74.49351563 -17.57275391 73.91113281 C-20.5146582 72.2401618 -23.43399636 70.53698514 -26.34423828 68.81152344 C-27.23836426 68.2873584 -28.13249023 67.76319336 -29.05371094 67.22314453 C-29.86759277 66.71992676 -30.68147461 66.21670898 -31.52001953 65.69824219 C-32.5957019 65.04214966 -32.5957019 65.04214966 -33.69311523 64.37280273 C-36.78919292 61.44519416 -36.33800654 57.97953951 -36.48950195 53.89501953 C-36.502773 52.37503909 -36.51002191 50.85499774 -36.51220703 49.33496094 C-36.51553543 48.52789703 -36.51886383 47.72083313 -36.52229309 46.88931274 C-36.52733935 45.18988615 -36.52970213 43.49044971 -36.52954102 41.79101562 C-36.53173677 39.18831248 -36.54994177 36.58602721 -36.56884766 33.98339844 C-36.57178018 32.32975405 -36.57376592 30.67610766 -36.57470703 29.02246094 C-36.58189255 28.24430023 -36.58907806 27.46613953 -36.59648132 26.66439819 C-36.58025012 22.84270765 -36.51582668 21.06890604 -34.34423828 17.81152344 C-31.73486328 16.34667969 -31.73486328 16.34667969 -28.59423828 14.87402344 C-24.24971865 12.77649142 -20.33423864 10.52811942 -16.34423828 7.81152344 C-13.5240678 6.23386285 -10.6831262 4.70061159 -7.83251953 3.17871094 C-1.78593378 -0.14358893 -1.78593378 -0.14358893 0 0 Z M-7.51611328 19.96386719 C-8.63566406 20.63385742 -8.63566406 20.63385742 -9.77783203 21.31738281 C-10.92445312 22.02604492 -10.92445312 22.02604492 -12.09423828 22.74902344 C-12.87412109 23.21759766 -13.65400391 23.68617187 -14.45751953 24.16894531 C-18.1009247 26.22382743 -18.1009247 26.22382743 -21.34423828 28.81152344 C-21.43161473 30.66521955 -21.45121981 32.52219885 -21.44189453 34.37792969 C-21.43867187 35.50263672 -21.43544922 36.62734375 -21.43212891 37.78613281 C-21.42375 38.97013672 -21.41537109 40.15414062 -21.40673828 41.37402344 C-21.40222656 42.56189453 -21.39771484 43.74976563 -21.39306641 44.97363281 C-21.38123503 47.9196457 -21.36475115 50.86556024 -21.34423828 53.81152344 C-20.68423828 53.81152344 -20.02423828 53.81152344 -19.34423828 53.81152344 C-19.34423828 54.47152344 -19.34423828 55.13152344 -19.34423828 55.81152344 C-16.62772514 57.35582109 -13.89437552 58.8675395 -11.15673828 60.37402344 C-10.00334961 61.03047852 -10.00334961 61.03047852 -8.82666016 61.70019531 C-4.40369375 64.1802895 -4.40369375 64.1802895 0.53076172 64.68652344 C3.08606378 63.63434024 5.34833791 62.32783052 7.65576172 60.81152344 C7.34672189 59.47235083 7.0055293 58.14064026 6.65576172 56.81152344 C6.49076172 55.80089844 6.32576172 54.79027344 6.15576172 53.74902344 C4.37406038 50.25985831 3.6184472 50.12304638 0.03076172 48.93652344 C-1.41298828 48.56527344 -2.85673828 48.19402344 -4.34423828 47.81152344 C-4.67423828 43.85152344 -5.00423828 39.89152344 -5.34423828 35.81152344 C2.90576172 35.81152344 11.15576172 35.81152344 19.65576172 35.81152344 C19.98576172 33.50152344 20.31576172 31.19152344 20.65576172 28.81152344 C17.33326722 26.79305601 13.99709133 24.79863728 10.65576172 22.81152344 C9.83333984 22.31265625 9.01091797 21.81378906 8.16357422 21.29980469 C7.39787109 20.84992187 6.63216797 20.40003906 5.84326172 19.93652344 C5.15619141 19.52660156 4.46912109 19.11667969 3.76123047 18.69433594 C-0.47889359 16.91647316 -3.6890618 17.64068907 -7.51611328 19.96386719 Z " fill="#D1569F" transform="translate(60.34423828125,17.1884765625)"/>
<path d="M0 0 C2.98951447 0.92290772 5.308253 2.21900521 7.95703125 3.87890625 C8.84003906 4.42675781 9.72304687 4.97460938 10.6328125 5.5390625 C11.29667969 5.96058594 11.96054688 6.38210937 12.64453125 6.81640625 C11.65453125 7.14640625 10.66453125 7.47640625 9.64453125 7.81640625 C7.97389378 6.82305424 6.30777526 5.82208867 4.64453125 4.81640625 C1.73448222 3.73417259 1.73448222 3.73417259 -1.35546875 3.81640625 C-4.44840445 5.6561386 -4.44840445 5.6561386 -7.35546875 7.81640625 C-10.23046875 8.56640625 -10.23046875 8.56640625 -12.35546875 8.81640625 C-12.68546875 10.13640625 -13.01546875 11.45640625 -13.35546875 12.81640625 C-14.67546875 13.14640625 -15.99546875 13.47640625 -17.35546875 13.81640625 C-17.35546875 14.47640625 -17.35546875 15.13640625 -17.35546875 15.81640625 C-17.93554688 15.92597656 -18.515625 16.03554688 -19.11328125 16.1484375 C-23.97464099 17.13514913 -27.95049998 18.45276447 -32.35546875 20.81640625 C-33.01546875 20.81640625 -33.67546875 20.81640625 -34.35546875 20.81640625 C-34.35546875 21.47640625 -34.35546875 22.13640625 -34.35546875 22.81640625 C-35.01546875 22.81640625 -35.67546875 22.81640625 -36.35546875 22.81640625 C-35.41121745 19.413647 -34.77573433 18.08379079 -31.74609375 16.15625 C-30.7096875 15.69347656 -29.67328125 15.23070312 -28.60546875 14.75390625 C-24.22774979 12.71304795 -20.35165387 10.53721314 -16.35546875 7.81640625 C-13.53529826 6.23874566 -10.69435667 4.70549441 -7.84375 3.18359375 C-1.79497844 -0.13990711 -1.79497844 -0.13990711 0 0 Z " fill="#C55F9D" transform="translate(60.35546875,17.18359375)"/>
<path d="M0 0 C0.99 0.33 1.98 0.66 3 1 C2.34 1 1.68 1 1 1 C1.33 4.3 1.66 7.6 2 11 C5.3 11.99 8.6 12.98 12 14 C12 15.98 12 17.96 12 20 C12.78375 20.28875 13.5675 20.5775 14.375 20.875 C17 22 17 22 19 24 C12.6 28.06153846 12.6 28.06153846 9.5625 27.75 C9.046875 27.5025 8.53125 27.255 8 27 C9.32 26.34 10.64 25.68 12 25 C11.855625 24.46375 11.71125 23.9275 11.5625 23.375 C10.90546252 20.60084173 10.44780052 17.81474612 10 15 C9.36191406 14.86722656 8.72382812 14.73445313 8.06640625 14.59765625 C7.24011719 14.42105469 6.41382813 14.24445313 5.5625 14.0625 C4.73878906 13.88847656 3.91507813 13.71445313 3.06640625 13.53515625 C1 13 1 13 0 12 C-0.07244053 9.98035801 -0.08377188 7.95832876 -0.0625 5.9375 C-0.05347656 4.83277344 -0.04445312 3.72804687 -0.03515625 2.58984375 C-0.02355469 1.73519531 -0.01195312 0.88054688 0 0 Z " fill="#BD659B" transform="translate(55,53)"/>
<path d="M0 0 C-13.71428571 8 -13.71428571 8 -17 8 C-17 8.66 -17 9.32 -17 10 C-17.66 10 -18.32 10 -19 10 C-18.06832947 6.88047394 -17.47969609 5.33094016 -14.7578125 3.453125 C-13.88898437 3.05609375 -13.02015625 2.6590625 -12.125 2.25 C-11.26132812 1.84265625 -10.39765625 1.4353125 -9.5078125 1.015625 C-3.83966245 -1.27988748 -3.83966245 -1.27988748 0 0 Z " fill="#CA67A2" transform="translate(43,30)"/>
<path d="M0 0 C0.66 0 1.32 0 2 0 C2.042721 1.66611905 2.04063832 3.33382885 2 5 C-0.09378992 7.09378992 -4.49160032 6.18514428 -7.375 6.1875 C-8.54675781 6.20586914 -8.54675781 6.20586914 -9.7421875 6.22460938 C-13.67635523 6.23471426 -15.65592449 6.22938367 -19 4 C-12.73 4 -6.46 4 0 4 C0 2.68 0 1.36 0 0 Z " fill="#C15F99" transform="translate(80,49)"/>
<path d="M0 0 C2.25478773 1.2419419 4.50358301 2.49307621 6.75 3.75 C7.38421875 4.09804687 8.0184375 4.44609375 8.671875 4.8046875 C12.29658867 6.84358894 15.19784412 8.85818887 18 12 C15.22215463 10.93788265 12.58957226 9.79059809 9.9375 8.4375 C7.21201268 6.97294366 7.21201268 6.97294366 4.9375 6.5 C2.3048774 5.82061352 0.27731514 4.45495134 -2 3 C-1.34 2.01 -0.68 1.02 0 0 Z " fill="#DF61AC" transform="translate(35,82)"/>
<path d="M0 0 C6.14587738 0.2410148 6.14587738 0.2410148 8.578125 2.40234375 C9.78844931 3.88046971 10.90220903 5.43647953 12 7 C7.58682597 6.74040153 5.48336872 6.41137763 2.0625 3.5 C0 1 0 1 0 0 Z " fill="#D55FA6" transform="translate(64,34)"/>
<path d="M0 0 C0.99 0 1.98 0 3 0 C3.33 3.3 3.66 6.6 4 10 C2.68 10.33 1.36 10.66 0 11 C0 7.37 0 3.74 0 0 Z " fill="#C44C90" transform="translate(78,62)"/>
<path d="M0 0 C3.13119954 0.94664172 5.78983735 1.86672612 8.5625 3.625 C11.29984674 5.16914432 12.90981733 5.2648728 16 5 C16 5.66 16 6.32 16 7 C11.98417068 8.60633173 8.91324696 7.52181826 5 6 C3.75 3.9375 3.75 3.9375 3 2 C2.01 1.67 1.02 1.34 0 1 C0 0.67 0 0.34 0 0 Z " fill="#C7629F" transform="translate(47,76)"/>
<path d="M0 0 C6.34339651 1.80610595 11.56938255 4.25627734 17 8 C13.28871422 9.23709526 12.45266987 8.64412851 9 7 C7.32260138 6.01810813 5.65532623 5.01866229 4 4 C2.67391178 3.31903578 1.34313399 2.64669414 0 2 C0 1.34 0 0.68 0 0 Z " fill="#D26BA7" transform="translate(73,26)"/>
<path d="M0 0 C2.475 0.99 2.475 0.99 5 2 C1.39042389 5.2910841 -1.12637153 6.54663921 -6 7 C-5.195625 6.21625 -4.39125 5.4325 -3.5625 4.625 C-1.01309583 2.28017144 -1.01309583 2.28017144 0 0 Z " fill="#C15B95" transform="translate(69,74)"/>
<path d="M0 0 C-3.63 1.98 -7.26 3.96 -11 6 C-11 4.68 -11 3.36 -11 2 C-9.35 2 -7.7 2 -6 2 C-6 1.34 -6 0.68 -6 0 C-4 -1 -4 -1 0 0 Z " fill="#CD66A2" transform="translate(93,81)"/>
<path d="M0 0 C3.41021743 0.78697325 6.68885166 1.87119943 10 3 C6.31109101 4.22963633 2.86300794 4.55670401 -1 5 C-0.67 3.35 -0.34 1.7 0 0 Z " fill="#C15E99" transform="translate(55,32)"/>
<path d="M0 0 C0.99 0.33 1.98 0.66 3 1 C3.33 2.98 3.66 4.96 4 7 C2.68 6.67 1.36 6.34 0 6 C-0.38218767 4.34385343 -0.71395102 2.67542976 -1 1 C-0.67 0.67 -0.34 0.34 0 0 Z " fill="#DF5BAA" transform="translate(67,67)"/>
<path d="M0 0 C0.59296875 0.21527344 1.1859375 0.43054687 1.796875 0.65234375 C0.51163239 1.51614634 -0.78154919 2.36814744 -2.078125 3.21484375 C-2.79742187 3.69050781 -3.51671875 4.16617188 -4.2578125 4.65625 C-4.89976563 4.98496094 -5.54171875 5.31367187 -6.203125 5.65234375 C-6.863125 5.32234375 -7.523125 4.99234375 -8.203125 4.65234375 C-2.74543269 -0.43323317 -2.74543269 -0.43323317 0 0 Z " fill="#D261A6" transform="translate(50.203125,36.34765625)"/>
<path d="M0 0 C1.98 0.99 3.96 1.98 6 3 C5.67 3.66 5.34 4.32 5 5 C2.03 4.505 2.03 4.505 -1 4 C-1 1 -1 1 0 0 Z " fill="#D669A5" transform="translate(35,82)"/>
<path d="M0 0 C1.98 0.99 1.98 0.99 4 2 C3.34 3.32 2.68 4.64 2 6 C1.34 6 0.68 6 0 6 C0 4.02 0 2.04 0 0 Z " fill="#CB679E" transform="translate(90,35)"/>
</svg>
