<?xml version="1.0" encoding="UTF-8"?>
<svg version="1.1" xmlns="http://www.w3.org/2000/svg" width="218" height="442">
<path d="M0 0 C1.39959739 0.67980445 2.79580838 1.36665419 4.1875 2.0625 C4.8475 1.0725 5.5075 0.0825 6.1875 -0.9375 C8.4296875 -1.3359375 8.4296875 -1.3359375 11.0625 -1.3125 C11.92617187 -1.32023437 12.78984375 -1.32796875 13.6796875 -1.3359375 C16.67313945 -0.86034233 18.05819161 -0.08152711 20.1875 2.0625 C20.4375 5.75 20.4375 5.75 20.1875 9.0625 C21.074375 9.083125 21.96125 9.10375 22.875 9.125 C26.89725126 10.263373 28.0931221 11.57272819 30.2578125 15.0390625 C31.87107549 18.55028195 32.2889552 21.32743718 31.1875 25.0625 C29.31835777 28.35601869 27.27142059 30.84899438 24.1875 33.0625 C21.2068464 33.72601941 19.26955649 33.49506933 16.1875 33.0625 C16.16171875 33.81015625 16.1359375 34.5578125 16.109375 35.328125 C15.65121435 43.28345989 15.65121435 43.28345989 13.625 46.6875 C10.22803606 48.60373607 7.03956393 49.24769538 3.1875 49.0625 C-0.70143851 47.76618716 -2.30799544 47.04857709 -4.1875 43.375 C-4.39375 42.611875 -4.6 41.84875 -4.8125 41.0625 C-5.24820313 41.48402344 -5.68390625 41.90554687 -6.1328125 42.33984375 C-6.72835937 42.88769531 -7.32390625 43.43554688 -7.9375 44 C-8.51757812 44.54527344 -9.09765625 45.09054688 -9.6953125 45.65234375 C-14.68890718 48.97833578 -21.55102045 48.33840677 -27.375 48.4375 C-28.63086914 48.49357422 -28.63086914 48.49357422 -29.91210938 48.55078125 C-34.32782045 48.613713 -36.21849946 48.50914565 -39.8515625 45.77734375 C-42.21663415 42.50299156 -42.57772794 40.05362502 -42.8125 36.0625 C-43.864375 36.165625 -44.91625 36.26875 -46 36.375 C-49.8125 36.0625 -49.8125 36.0625 -52.6875 33.6875 C-55.97337102 29.62848286 -56.25677743 27.30497372 -55.8125 22.0625 C-53.67517471 18.62751293 -51.65645408 16.42648371 -47.8125 15.0625 C-46.8225 15.0625 -45.8325 15.0625 -44.8125 15.0625 C-44.915625 14.03125 -45.01875 13 -45.125 11.9375 C-44.72853391 7.02132053 -43.37937853 5.39675602 -39.8125 2.0625 C-34.8840003 -0.45651096 -31.07408753 -0.05882193 -25.8125 1.0625 C-23.875 2.125 -23.875 2.125 -22.8125 4.0625 C-22.28244863 6.74455991 -22.03674315 9.32673356 -21.8125 12.0625 C-19.5025 12.0625 -17.1925 12.0625 -14.8125 12.0625 C-15.06 10.825 -15.3075 9.5875 -15.5625 8.3125 C-16.06733569 4.40521007 -16.06733569 4.40521007 -14 1.625 C-9.48762566 -1.59812453 -5.29659018 -1.76553006 0 0 Z M9.1875 4.0625 C8.8575 6.7025 8.5275 9.3425 8.1875 12.0625 C1.4375 12.1875 1.4375 12.1875 -0.8125 11.0625 C-1.4375 8 -1.4375 8 -1.8125 5.0625 C-4.4525 5.0625 -7.0925 5.0625 -9.8125 5.0625 C-9.77125 6.114375 -9.73 7.16625 -9.6875 8.25 C-9.80397875 11.80260173 -10.28458068 13.91116641 -11.8125 17.0625 C-12.4725 17.0625 -13.1325 17.0625 -13.8125 17.0625 C-13.4825 18.3825 -13.1525 19.7025 -12.8125 21.0625 C-12.1525 21.0625 -11.4925 21.0625 -10.8125 21.0625 C-10.544375 21.619375 -10.27625 22.17625 -10 22.75 C-9.608125 23.513125 -9.21625 24.27625 -8.8125 25.0625 C-8.420625 25.84625 -8.02875 26.63 -7.625 27.4375 C-5.90413577 29.92978613 -4.48381283 31.178578 -2.125 33 C1.13199726 35.63433602 1.13199726 35.63433602 1.625 39.4375 C1.480625 40.30375 1.33625 41.17 1.1875 42.0625 C3.1365625 42.3409375 3.1365625 42.3409375 5.125 42.625 C6.22134766 42.78162109 6.22134766 42.78162109 7.33984375 42.94140625 C7.94957031 42.98136719 8.55929688 43.02132812 9.1875 43.0625 C11.04435405 41.20564595 10.53427463 38.12312071 10.6875 35.625 C11.07736233 29.28277534 11.07736233 29.28277534 12.1875 27.0625 C14.91015625 26.4296875 14.91015625 26.4296875 18.25 25.9375 C19.35472656 25.76992188 20.45945313 25.60234375 21.59765625 25.4296875 C22.87962891 25.24792969 22.87962891 25.24792969 24.1875 25.0625 C25.86312774 21.02701393 25.86312774 21.02701393 25.8125 16.75 C23.5537197 14.40434353 21.30758503 14.44418781 18.16015625 14.23828125 C16.1875 14.0625 16.1875 14.0625 13.1875 13.0625 C13.1875 10.4225 13.1875 7.7825 13.1875 5.0625 C11.8675 4.7325 10.5475 4.4025 9.1875 4.0625 Z M-37.8125 7.0625 C-40.10479939 10.18002718 -39.86200466 12.68507489 -39.4375 16.375 C-39.23125 17.591875 -39.025 18.80875 -38.8125 20.0625 C-40.05 20.000625 -41.2875 19.93875 -42.5625 19.875 C-45.36883773 19.88495155 -46.72943253 20.02304295 -49.3125 21.25 C-51.00651406 23.00535404 -51.00651406 23.00535404 -51.3125 25.5625 C-51.01172756 28.13175479 -51.01172756 28.13175479 -49.25 29.875 C-46.00821384 31.45433172 -43.36961122 31.26771796 -39.8125 31.0625 C-39.8125 31.7225 -39.8125 32.3825 -39.8125 33.0625 C-39.1525 33.0625 -38.4925 33.0625 -37.8125 33.0625 C-37.1525 35.7025 -36.4925 38.3425 -35.8125 41.0625 C-35.090625 40.918125 -34.36875 40.77375 -33.625 40.625 C-32.2328125 40.3465625 -32.2328125 40.3465625 -30.8125 40.0625 C-29.966875 39.794375 -29.12125 39.52625 -28.25 39.25 C-25.8125 39.0625 -25.8125 39.0625 -23.5 41 C-22.943125 41.680625 -22.38625 42.36125 -21.8125 43.0625 C-18.8154853 42.46309706 -17.186066 41.5693382 -15.3671875 39.1015625 C-12.91726043 34.88768795 -11.50512935 32.02434053 -11.8125 27.0625 C-13.1325 27.0625 -14.4525 27.0625 -15.8125 27.0625 C-18 26.75 -18 26.75 -19.8125 26.0625 C-20.90908936 22.77273192 -20.61203138 21.34946233 -19.8125 18.0625 C-21.235625 17.4746875 -21.235625 17.4746875 -22.6875 16.875 C-25.8125 15.0625 -25.8125 15.0625 -27.125 12.6875 C-27.78826085 10.15504949 -28.37015599 7.64284006 -28.8125 5.0625 C-31.91301869 5.0625 -34.9560194 5.93057512 -37.8125 7.0625 Z " fill="#45C0C8" transform="translate(67.8125,31.9375)"/>
<path d="M0 0 C2.8125 -0.25 2.8125 -0.25 6 0 C8.04040776 2.04040776 9 3.08325244 9 6 C9.5775 6.2475 10.155 6.495 10.75 6.75 C13.44195992 8.24553329 15.14385446 9.52513927 17 12 C16.75 15.25 16.75 15.25 16 18 C16.99 17.67 17.98 17.34 19 17 C21.6875 17.4375 21.6875 17.4375 24 18 C24.04898438 17.09636719 24.09796875 16.19273438 24.1484375 15.26171875 C24.22320312 14.08222656 24.29796875 12.90273437 24.375 11.6875 C24.44460937 10.51574219 24.51421875 9.34398438 24.5859375 8.13671875 C25 5 25 5 27 2 C30.625 1.8125 30.625 1.8125 34 2 C31 4 31 4 28 4 C26.58365167 6.83269666 26.6536995 9.47466438 26.4375 12.625 C26.35371094 13.81351563 26.26992187 15.00203125 26.18359375 16.2265625 C26.09271484 17.59941406 26.09271484 17.59941406 26 19 C26.99 19 27.98 19 29 19 C28.505 13.555 28.505 13.555 28 8 C28.99 7.67 29.98 7.34 31 7 C31.20304356 12.88826316 31.08406669 17.642337 27.875 22.8125 C24.79587576 24.76261202 21.56577248 25.10784945 18 25 C14.11106149 23.70368716 12.50450456 22.98607709 10.625 19.3125 C10.41875 18.549375 10.2125 17.78625 10 17 C9.56429687 17.433125 9.12859375 17.86625 8.6796875 18.3125 C3.75471698 22.91766724 3.75471698 22.91766724 -0.4375 23.375 C-1.283125 23.25125 -2.12875 23.1275 -3 23 C0 21 0 21 4 21 C4 18.69 4 16.38 4 14 C3.01 14.33 2.02 14.66 1 15 C1.66 15.33 2.32 15.66 3 16 C2.67 17.32 2.34 18.64 2 20 C-4.23047859 21.34382872 -4.23047859 21.34382872 -7.9375 19.6875 C-8.618125 19.130625 -9.29875 18.57375 -10 18 C-10 17.34 -10 16.68 -10 16 C-10.99 15.67 -11.98 15.34 -13 15 C-12.34 14.67 -11.68 14.34 -11 14 C-9 15.375 -9 15.375 -7 17 C-7 17.66 -7 18.32 -7 19 C-3.66713353 17.92872149 -2.48989056 16.40015637 -0.875 13.4375 C1 10 1 10 3 9 C3.25015873 5.58357241 3.25015873 5.58357241 3 2 C2.01 1.34 1.02 0.68 0 0 Z " fill="#41BFC9" transform="translate(53,56)"/>
<path d="M0 0 C1.65 0.33 3.3 0.66 5 1 C5 3.31 5 5.62 5 8 C5.886875 8.020625 6.77375 8.04125 7.6875 8.0625 C11.70975126 9.200873 12.9056221 10.51022819 15.0703125 13.9765625 C16.68231418 17.48503674 17.10747627 20.26843985 16 24 C14.10664699 27.2481276 12.01612611 29.74522611 9 32 C5.01345464 32.5979818 2.78765213 32.26255071 -1 31 C-1 34.63 -1 38.26 -1 42 C-1.99 42 -2.98 42 -4 42 C-4.05402274 39.89611431 -4.09280256 37.79183286 -4.125 35.6875 C-4.14820312 34.51574219 -4.17140625 33.34398437 -4.1953125 32.13671875 C-4 29 -4 29 -2 26 C-0.01178687 25.60235737 1.99124558 25.27571139 4 25 C6.7970198 24.38249718 6.7970198 24.38249718 9 23 C10.21537818 19.70111637 10.10272046 17.30816138 9 14 C6.36 14 3.72 14 1 14 C1.33 13.34 1.66 12.68 2 12 C1.93882556 9.88324356 1.93882556 9.88324356 1.625 7.5625 C1.53476563 6.78003906 1.44453125 5.99757813 1.3515625 5.19140625 C1.03348872 2.83053014 1.03348872 2.83053014 0 0 Z " fill="#44CAD6" transform="translate(83,33)"/>
<path d="M0 0 C0.33 0.66 0.66 1.32 1 2 C-0.98 2.99 -0.98 2.99 -3 4 C-0.03 4 2.94 4 6 4 C5.67 4.66 5.34 5.32 5 6 C2.93359375 6.6328125 2.93359375 6.6328125 0.4375 7.125 C-0.38878906 7.29257812 -1.21507812 7.46015625 -2.06640625 7.6328125 C-2.70449219 7.75398438 -3.34257812 7.87515625 -4 8 C-4.90789649 10.97069071 -5.00449054 13.13189255 -4.5 16.1875 C-4.335 17.445625 -4.17 18.70375 -4 20 C-5 21 -5 21 -7.06640625 21.09765625 C-7.89011719 21.08605469 -8.71382812 21.07445313 -9.5625 21.0625 C-10.38878906 21.05347656 -11.21507812 21.04445313 -12.06640625 21.03515625 C-13.02353516 21.01775391 -13.02353516 21.01775391 -14 21 C-14 19.68 -14 18.36 -14 17 C-14.66 16.67 -15.32 16.34 -16 16 C-14.35 15.67 -12.7 15.34 -11 15 C-11.103125 13.96875 -11.20625 12.9375 -11.3125 11.875 C-10.91603391 6.95882053 -9.56687853 5.33425602 -6 2 C-2.6875 0.625 -2.6875 0.625 0 0 Z " fill="#44B9C5" transform="translate(34,32)"/>
<path d="M0 0 C-0.875 4.875 -0.875 4.875 -2 6 C-2.29386153 9.72224599 -2.14809171 10.77786243 0 14 C1.134375 14.103125 2.26875 14.20625 3.4375 14.3125 C7 15 7 15 8.8125 17.5625 C10.12351569 21.35754543 11.12195388 25.08256346 12 29 C11.01 28.67 10.02 28.34 9 28 C8.05078125 25.71484375 8.05078125 25.71484375 7.3125 22.9375 C7.06113281 22.01839844 6.80976563 21.09929687 6.55078125 20.15234375 C6.36902344 19.44207031 6.18726563 18.73179688 6 18 C5.39671875 18.04640625 4.7934375 18.0928125 4.171875 18.140625 C-2.4158215 18.43813387 -2.4158215 18.43813387 -5.5 16.125 C-8.219456 12.27243733 -8.40154756 9.73826123 -8 5 C-5.0212766 0 -5.0212766 0 0 0 Z " fill="#4DC7D1" transform="translate(20,49)"/>
<path d="M0 0 C0.53625 0.165 1.0725 0.33 1.625 0.5 C4.45886009 1.09660212 7.1119806 1.0656368 10 1 C10.33 3.31 10.66 5.62 11 8 C9.68 8 8.36 8 7 8 C6.21625 8.825 5.4325 9.65 4.625 10.5 C2 13 2 13 -1.3125 13.3125 C-2.6428125 13.1578125 -2.6428125 13.1578125 -4 13 C-1 11 -1 11 3 11 C3 8.69 3 6.38 3 4 C2.01 4.33 1.02 4.66 0 5 C0.66 5.33 1.32 5.66 2 6 C1.67 7.32 1.34 8.64 1 10 C-5.23047859 11.34382872 -5.23047859 11.34382872 -8.9375 9.6875 C-9.618125 9.130625 -10.29875 8.57375 -11 8 C-11 7.34 -11 6.68 -11 6 C-11.99 5.67 -12.98 5.34 -14 5 C-13.34 4.67 -12.68 4.34 -12 4 C-10 5.375 -10 5.375 -8 7 C-8 7.66 -8 8.32 -8 9 C-3.33845958 7.50164772 -2.13389249 4.11536409 0 0 Z " fill="#39B8C0" transform="translate(54,66)"/>
<path d="M0 0 C2.475 0.495 2.475 0.495 5 1 C5 3.31 5 5.62 5 8 C5.94875 8.12375 6.8975 8.2475 7.875 8.375 C11 9 11 9 13 11 C13.97407638 13.89756899 14.1351779 16.5818076 14.125 19.625 C14.12757812 20.40101562 14.13015625 21.17703125 14.1328125 21.9765625 C14 24 14 24 13 26 C12.01 25.67 11.02 25.34 10 25 C10.66 25 11.32 25 12 25 C11.34 21.37 10.68 17.74 10 14 C8.865625 13.855625 7.73125 13.71125 6.5625 13.5625 C3 13 3 13 2 12 C1.79160764 10.54704215 1.63246419 9.0868369 1.5 7.625 C1.24478838 4.82678686 0.8972983 2.69189489 0 0 Z " fill="#44E1E8" transform="translate(83,33)"/>
<path d="M0 0 C3 0.25 3 0.25 5 2.25 C5.4140625 4.6328125 5.4140625 4.6328125 5.625 7.375 C5.69976562 8.28507812 5.77453125 9.19515625 5.8515625 10.1328125 C5.90054688 10.83148438 5.94953125 11.53015625 6 12.25 C3.525 11.755 3.525 11.755 1 11.25 C0.67 8.61 0.34 5.97 0 3.25 C-0.99 2.92 -1.98 2.59 -3 2.25 C-2.979375 3.549375 -2.95875 4.84875 -2.9375 6.1875 C-2.91600546 7.54165633 -2.92851801 8.89756083 -3 10.25 C-4 11.25 -4 11.25 -7.375 11.4375 C-11 11.25 -11 11.25 -14 9.25 C-14 7.93 -14 6.61 -14 5.25 C-13.34 5.25 -12.68 5.25 -12 5.25 C-11.34 6.57 -10.68 7.89 -10 9.25 C-8.35 9.25 -6.7 9.25 -5 9.25 C-5.04125 8.13625 -5.0825 7.0225 -5.125 5.875 C-4.96926443 1.35866838 -4.55295726 0.3794131 0 0 Z " fill="#32B8BE" transform="translate(80,33.75)"/>
<path d="M0 0 C2.97 0 5.94 0 9 0 C6 2 6 2 3.3125 1.625 C2.549375 1.41875 1.78625 1.2125 1 1 C1.3403125 2.5778125 1.3403125 2.5778125 1.6875 4.1875 C2.03113289 8.37982123 1.62248477 9.79474083 -1 13 C-1.66 13 -2.32 13 -3 13 C-2.0022242 15.99332739 -1.2477975 16.94766315 1 19 C0.34 19.66 -0.32 20.32 -1 21 C-0.67 21.33 -0.34 21.66 0 22 C0.04092937 24.33297433 0.04241723 26.66705225 0 29 C-0.66 29.33 -1.32 29.66 -2 30 C-2 27.69 -2 25.38 -2 23 C-3.98 23.33 -5.96 23.66 -8 24 C-8.66 22.68 -9.32 21.36 -10 20 C-8.35 20.33 -6.7 20.66 -5 21 C-5.268125 19.7625 -5.53625 18.525 -5.8125 17.25 C-6.10546875 15.01171875 -6.10546875 15.01171875 -6 13 C-4.34614767 11.65080468 -2.678298 10.31866272 -1 9 C-0.23804048 5.94683352 -0.13979677 3.16872673 0 0 Z " fill="#49BBC2" transform="translate(57,36)"/>
<path d="M0 0 C1.32 0.33 2.64 0.66 4 1 C3.67 3.31 3.34 5.62 3 8 C0.69 8.33 -1.62 8.66 -4 9 C-4 9.66 -4 10.32 -4 11 C-6.97 11 -9.94 11 -13 11 C-12.67 9.02 -12.34 7.04 -12 5 C-13.65 5.33 -15.3 5.66 -17 6 C-16.34 4.35 -15.68 2.7 -15 1 C-14.67 1.66 -14.34 2.32 -14 3 C-13.01 3 -12.02 3 -11 3 C-10.01 4.485 -10.01 4.485 -9 6 C-5.36829715 7.17784957 -2.66538364 6.94252722 1 6 C1.33 5.01 1.66 4.02 2 3 C1.01 2.67 0.02 2.34 -1 2 C-0.67 1.34 -0.34 0.68 0 0 Z " fill="#3ACDD9" transform="translate(54,69)"/>
<path d="M0 0 C3.625 -0.1875 3.625 -0.1875 7 0 C7.33 1.32 7.66 2.64 8 4 C9.32 4.33 10.64 4.66 12 5 C11 6 11 6 7.625 6.125 C4 6 4 6 1 5 C1 8.63 1 12.26 1 16 C0.01 16 -0.98 16 -2 16 C-2.05402274 13.89611431 -2.09280256 11.79183286 -2.125 9.6875 C-2.14820312 8.51574219 -2.17140625 7.34398438 -2.1953125 6.13671875 C-2 3 -2 3 0 0 Z " fill="#33C4D0" transform="translate(81,59)"/>
<path d="M0 0 C1.65 0 3.3 0 5 0 C5.185625 1.258125 5.37125 2.51625 5.5625 3.8125 C6.01886514 6.03713381 6.01886514 6.03713381 7 8 C10.47307328 9.86983745 10.47307328 9.86983745 14 11 C15.15941038 14.47823115 14.70820884 16.45895578 14 20 C12.68 19.34 11.36 18.68 10 18 C10.66 18 11.32 18 12 18 C12 16.35 12 14.7 12 13 C10.906875 12.855625 9.81375 12.71125 8.6875 12.5625 C5 12 5 12 2 11 C2.33 10.34 2.66 9.68 3 9 C3.33333333 5.5 3.33333333 5.5 3 2 C2.01 1.34 1.02 0.68 0 0 Z " fill="#41D8DF" transform="translate(53,56)"/>
<path d="M0 0 C0.33 0.66 0.66 1.32 1 2 C2.78167253 2.31338865 4.57686803 2.55178073 6.375 2.75 C11.72476576 3.64970187 11.72476576 3.64970187 14.0625 6.625 C15.1139245 10.41012819 16.14062316 14.16585717 17 18 C16.01 17.67 15.02 17.34 14 17 C13.05078125 14.71484375 13.05078125 14.71484375 12.3125 11.9375 C12.06113281 11.01839844 11.80976563 10.09929687 11.55078125 9.15234375 C11.36902344 8.44207031 11.18726563 7.73179688 11 7 C8.36 7 5.72 7 3 7 C3 6.34 3 5.68 3 5 C2.01 4.67 1.02 4.34 0 4 C0 2.68 0 1.36 0 0 Z " fill="#2FCED9" transform="translate(15,60)"/>
<path d="M0 0 C0.33 0.66 0.66 1.32 1 2 C-0.98 2.99 -0.98 2.99 -3 4 C-0.03 4 2.94 4 6 4 C5.67 4.66 5.34 5.32 5 6 C2.93359375 6.6328125 2.93359375 6.6328125 0.4375 7.125 C-0.38878906 7.29257812 -1.21507812 7.46015625 -2.06640625 7.6328125 C-2.70449219 7.75398438 -3.34257812 7.87515625 -4 8 C-4.90239959 10.967892 -5.02161032 13.18926456 -4.5625 16.25 C-4.376875 17.4875 -4.19125 18.725 -4 20 C-6.94022178 15.58966733 -7.19031465 13.32881031 -7 8 C-6.67 7.34 -6.34 6.68 -6 6 C-6.99 6.33 -7.98 6.66 -9 7 C-8.25675659 4.60510457 -7.52942646 3.29222384 -5.30859375 2.06640625 C-3.55926499 1.32780077 -1.78065851 0.65950315 0 0 Z " fill="#4EB4C4" transform="translate(34,32)"/>
<path d="M0 0 C1.39959739 0.67980445 2.79580838 1.36665419 4.1875 2.0625 C4.8475 1.4025 5.5075 0.7425 6.1875 0.0625 C6.3125 6.8125 6.3125 6.8125 5.1875 9.0625 C4.1975 9.0625 3.2075 9.0625 2.1875 9.0625 C1.5275 6.7525 0.8675 4.4425 0.1875 2.0625 C-1.41657328 2.03541433 -3.0207785 2.01606517 -4.625 2 C-5.51832031 1.98839844 -6.41164063 1.97679687 -7.33203125 1.96484375 C-9.94663791 1.95240033 -9.94663791 1.95240033 -12.8125 3.0625 C-13.1425 2.4025 -13.4725 1.7425 -13.8125 1.0625 C-9.40161792 -1.76046453 -4.87460915 -1.62486972 0 0 Z " fill="#4CB1BE" transform="translate(67.8125,31.9375)"/>
<path d="M0 0 C1.588125 -0.061875 3.17625 -0.12375 4.8125 -0.1875 C6.15248047 -0.23970703 6.15248047 -0.23970703 7.51953125 -0.29296875 C10.41647515 0.04918998 11.22555028 0.75393573 13 3 C12.28972656 3.06058594 11.57945313 3.12117188 10.84765625 3.18359375 C9.92855469 3.26738281 9.00945312 3.35117187 8.0625 3.4375 C6.68771484 3.55931641 6.68771484 3.55931641 5.28515625 3.68359375 C3.03840268 3.76044976 3.03840268 3.76044976 2 5 C1.63239269 7.32817964 1.29758419 9.6618385 1 12 C-0.65 12.33 -2.3 12.66 -4 13 C-4 12.01 -4 11.02 -4 10 C-3.01 10 -2.02 10 -1 10 C-0.67 6.7 -0.34 3.4 0 0 Z " fill="#4BC6D1" transform="translate(74,31)"/>
<path d="M0 0 C0.66 0.33 1.32 0.66 2 1 C2 3.31 2 5.62 2 8 C4.64 9.32 7.28 10.64 10 12 C9.979375 12.78375 9.95875 13.5675 9.9375 14.375 C9.81315937 16.98114961 9.81315937 16.98114961 11 19 C10.67 19.66 10.34 20.32 10 21 C8.02 20.67 6.04 20.34 4 20 C4.33 19.34 4.66 18.68 5 18 C5.66 18 6.32 18 7 18 C7.33 16.02 7.66 14.04 8 12 C7.071875 12.061875 6.14375 12.12375 5.1875 12.1875 C2 12 2 12 0.28125 10.78125 C-1.43533674 8.39477575 -1.14346129 7.17262084 -0.6875 4.3125 C-0.56761719 3.50425781 -0.44773438 2.69601563 -0.32421875 1.86328125 C-0.21722656 1.24839844 -0.11023437 0.63351563 0 0 Z " fill="#44DAE4" transform="translate(42,36)"/>
<path d="M0 0 C3.625 -0.1875 3.625 -0.1875 7 0 C4 2 4 2 1 2 C-0.82111836 5.64223672 -0.35446207 10.01141343 -0.5234375 14.03125 C-0.68070313 15.0109375 -0.83796875 15.990625 -1 17 C-4 19 -4 19 -7.125 18.75 C-8.07375 18.5025 -9.0225 18.255 -10 18 C-10.33 17.34 -10.66 16.68 -11 16 C-7.71023192 14.90341064 -6.28696233 15.20046862 -3 16 C-2.95101562 15.09636719 -2.90203125 14.19273438 -2.8515625 13.26171875 C-2.77679688 12.08222656 -2.70203125 10.90273437 -2.625 9.6875 C-2.55539063 8.51574219 -2.48578125 7.34398438 -2.4140625 6.13671875 C-2 3 -2 3 0 0 Z " fill="#42AFBA" transform="translate(80,58)"/>
<path d="M0 0 C0.33 0.66 0.66 1.32 1 2 C3.31 1.34 5.62 0.68 8 0 C8.33 0.99 8.66 1.98 9 3 C9.66 3 10.32 3 11 3 C11.33 4.65 11.66 6.3 12 8 C10.68 8.33 9.36 8.66 8 9 C8 7.68 8 6.36 8 5 C7.05125 5.020625 6.1025 5.04125 5.125 5.0625 C2 5 2 5 0 4 C0 2.68 0 1.36 0 0 Z " fill="#43AAB5" transform="translate(31,71)"/>
<path d="M0 0 C0.33 0 0.66 0 1 0 C1.02689216 1.47906892 1.04634621 2.95827483 1.0625 4.4375 C1.07410156 5.26121094 1.08570312 6.08492187 1.09765625 6.93359375 C1 9 1 9 0 10 C-6.46153846 10.35897436 -6.46153846 10.35897436 -10 8 C-10 6.68 -10 5.36 -10 4 C-9.34 4 -8.68 4 -8 4 C-7.34 5.32 -6.68 6.64 -6 8 C-4.35 8 -2.7 8 -1 8 C-1.020625 6.865625 -1.04125 5.73125 -1.0625 4.5625 C-1 1 -1 1 0 0 Z " fill="#44B1C1" transform="translate(76,35)"/>
<path d="M0 0 C2.97 0 5.94 0 9 0 C11.35333796 4.70667591 11.17102038 6.8693886 11 12 C8.69 12.66 6.38 13.32 4 14 C3.67 13.34 3.34 12.68 3 12 C4.2065625 11.6596875 4.2065625 11.6596875 5.4375 11.3125 C8.20957326 10.25795178 8.20957326 10.25795178 8.875 7.625 C8.99364487 5.13345783 8.78392236 3.35176707 8 1 C5.36 1 2.72 1 0 1 C0 0.67 0 0.34 0 0 Z " fill="#4BC1C8" transform="translate(84,46)"/>
<path d="M0 0 C0 4.29 0 8.58 0 13 C-1.98 13 -3.96 13 -6 13 C-5.67 12.34 -5.34 11.68 -5 11 C-4.67 11 -4.34 11 -4 11 C-3.67 8.36 -3.34 5.72 -3 3 C-3.66 2.67 -4.32 2.34 -5 2 C-2 0 -2 0 0 0 Z " fill="#41CFDE" transform="translate(28,38)"/>
<path d="M0 0 C0.99 0 1.98 0 3 0 C3 4.29 3 8.58 3 13 C2.01 13 1.02 13 0 13 C0 8.71 0 4.42 0 0 Z " fill="#33D3E0" transform="translate(79,62)"/>
<path d="M0 0 C0.33 0 0.66 0 1 0 C1 2.31 1 4.62 1 7 C2.423125 7.12375 2.423125 7.12375 3.875 7.25 C7 8 7 8 8.375 10.0625 C8.58125 10.701875 8.7875 11.34125 9 12 C7.68647977 11.69181644 6.37420428 11.37832335 5.0625 11.0625 C4.33160156 10.88847656 3.60070312 10.71445312 2.84765625 10.53515625 C1 10 1 10 0 9 C-0.07179964 7.48071962 -0.08392007 5.95832518 -0.0625 4.4375 C-0.05347656 3.61121094 -0.04445313 2.78492188 -0.03515625 1.93359375 C-0.02355469 1.29550781 -0.01195313 0.65742187 0 0 Z " fill="#4BC6CA" transform="translate(87,34)"/>
<path d="M0 0 C2.375 1.25 2.375 1.25 3.375 4.25 C1.065 4.25 -1.245 4.25 -3.625 4.25 C-4.285 2.93 -4.945 1.61 -5.625 0.25 C-2.625 -0.75 -2.625 -0.75 0 0 Z " fill="#38C7CD" transform="translate(69.625,74.75)"/>
<path d="M0 0 C1.65 0 3.3 0 5 0 C7.21399303 3.79541663 8.00980198 7.75629421 9 12 C8.01 11.67 7.02 11.34 6 11 C5.04501962 8.45338565 4.47470072 5.89398398 3.84375 3.25 C3.5653125 2.5075 3.286875 1.765 3 1 C2.01 0.67 1.02 0.34 0 0 Z " fill="#3DE4EB" transform="translate(23,66)"/>
<path d="M0 0 C0.66 0 1.32 0 2 0 C2 0.66 2 1.32 2 2 C2.99 2 3.98 2 5 2 C5 2.66 5 3.32 5 4 C2.24921116 4.91692961 0.64051087 5.10886083 -2.1875 5.0625 C-4.0746875 5.0315625 -4.0746875 5.0315625 -6 5 C-4.6875 3.5 -4.6875 3.5 -3 2 C-2.01 2 -1.02 2 0 2 C0 1.34 0 0.68 0 0 Z " fill="#37CADB" transform="translate(35,32)"/>
<path d="M0 0 C0.804375 0.4640625 0.804375 0.4640625 1.625 0.9375 C4.3984957 2.17827439 7.00042837 2.5909675 10 3 C10 5.64 10 8.28 10 11 C9.67 10.34 9.34 9.68 9 9 C8.34 8.67 7.68 8.34 7 8 C7.33 7.01 7.66 6.02 8 5 C7.05125 4.731875 6.1025 4.46375 5.125 4.1875 C2 3 2 3 0 0 Z " fill="#40BEC9" transform="translate(40,45)"/>
<path d="M0 0 C1.32 0.33 2.64 0.66 4 1 C3.96519531 2.04800781 3.96519531 2.04800781 3.9296875 3.1171875 C3.91164063 4.02726562 3.89359375 4.93734375 3.875 5.875 C3.85179688 6.77992187 3.82859375 7.68484375 3.8046875 8.6171875 C3.75675164 11.18806994 3.75675164 11.18806994 6 13 C4.68 12.67 3.36 12.34 2 12 C1.93941406 11.38511719 1.87882812 10.77023438 1.81640625 10.13671875 C1.73261719 9.32847656 1.64882812 8.52023438 1.5625 7.6875 C1.48128906 6.88699219 1.40007812 6.08648437 1.31640625 5.26171875 C1.04734307 2.83912821 1.04734307 2.83912821 0 0 Z " fill="#49DADD" transform="translate(83,33)"/>
<path d="M0 0 C0.66 0.33 1.32 0.66 2 1 C2 1.66 2 2.32 2 3 C1.34 3.66 0.68 4.32 0 5 C0 6.32 0 7.64 0 9 C-1.98 9 -3.96 9 -6 9 C-4.02 6.03 -2.04 3.06 0 0 Z " fill="#3EADB8" transform="translate(54,66)"/>
<path d="M0 0 C0.33 0.66 0.66 1.32 1 2 C1.66 2 2.32 2 3 2 C3 4.97 3 7.94 3 11 C2.01 10.67 1.02 10.34 0 10 C-0.19412181 8.52168779 -0.38012131 7.04230684 -0.5625 5.5625 C-0.66691406 4.73878906 -0.77132812 3.91507813 -0.87890625 3.06640625 C-0.91886719 2.38449219 -0.95882812 1.70257813 -1 1 C-0.67 0.67 -0.34 0.34 0 0 Z " fill="#50B3B6" transform="translate(81,35)"/>
<path d="M0 0 C0.99 0.33 1.98 0.66 3 1 C3.33 4.3 3.66 7.6 4 11 C3.01 10.67 2.02 10.34 1 10 C0.67 6.7 0.34 3.4 0 0 Z " fill="#4EDCE3" transform="translate(53,34)"/>
<path d="M0 0 C0.33 0.66 0.66 1.32 1 2 C1.99 2 2.98 2 4 2 C5.6875 4.5 5.6875 4.5 7 7 C4 6 1 5 -2 4 C-1.34 2.68 -0.68 1.36 0 0 Z " fill="#30C6CF" transform="translate(39,70)"/>
<path d="M0 0 C0.66 0 1.32 0 2 0 C2.07654536 4.51617599 2.10228696 8.59085217 1 13 C0.67 13 0.34 13 0 13 C-0.19397476 11.02145742 -0.38001321 9.0421352 -0.5625 7.0625 C-0.66691406 5.96035156 -0.77132812 4.85820313 -0.87890625 3.72265625 C-0.91886719 2.82417969 -0.95882812 1.92570312 -1 1 C-0.67 0.67 -0.34 0.34 0 0 Z " fill="#3BB1BD" transform="translate(82,63)"/>
<path d="M0 0 C1.37562854 1.28965176 2.70766393 2.62689293 4 4 C4 4.66 4 5.32 4 6 C4.99 6.33 5.98 6.66 7 7 C4.82510133 8.08744934 3.41588781 8 1 8 C0.67 5.36 0.34 2.72 0 0 Z " fill="#4BC1C8" transform="translate(58,56)"/>
<path d="M0 0 C0.91007812 0.00902344 1.82015625 0.01804688 2.7578125 0.02734375 C3.45648438 0.03894531 4.15515625 0.05054688 4.875 0.0625 C5.205 1.0525 5.535 2.0425 5.875 3.0625 C4.2704444 2.92101011 2.66636233 2.77414314 1.0625 2.625 C0.16917969 2.54378906 -0.72414063 2.46257813 -1.64453125 2.37890625 C-4.125 2.0625 -4.125 2.0625 -7.125 1.0625 C-4.60024538 -0.19987731 -2.81299534 -0.03606404 0 0 Z " fill="#4FDBE9" transform="translate(63.125,32.9375)"/>
<path d="M0 0 C1.98 0.495 1.98 0.495 4 1 C4 2.65 4 4.3 4 6 C3.01 6.495 3.01 6.495 2 7 C2 5.68 2 4.36 2 3 C1.01 2.67 0.02 2.34 -1 2 C-0.67 1.34 -0.34 0.68 0 0 Z " fill="#41DBE6" transform="translate(54,69)"/>
<path d="M0 0 C0.66 0 1.32 0 2 0 C2.309375 0.9590625 2.309375 0.9590625 2.625 1.9375 C3.89538209 4.34925077 3.89538209 4.34925077 7.125 4.75 C8.07375 4.8325 9.0225 4.915 10 5 C10 5.33 10 5.66 10 6 C3.375 6.25 3.375 6.25 0 4 C0 2.68 0 1.36 0 0 Z " fill="#4CADB7" transform="translate(66,39)"/>
<path d="M0 0 C1.98 0 3.96 0 6 0 C6 1.32 6 2.64 6 4 C4.35 4 2.7 4 1 4 C1.66 3.67 2.32 3.34 3 3 C3 2.34 3 1.68 3 1 C2.01 1.33 1.02 1.66 0 2 C0 1.34 0 0.68 0 0 Z " fill="#40C4CE" transform="translate(33,76)"/>
<path d="M0 0 C0.33 1.65 0.66 3.3 1 5 C-0.32 5.33 -1.64 5.66 -3 6 C-3 4.68 -3 3.36 -3 2 C-3.66 1.67 -4.32 1.34 -5 1 C-2 0 -2 0 0 0 Z " fill="#28ACBB" transform="translate(42,74)"/>
<path d="M0 0 C6.0546875 -0.1953125 6.0546875 -0.1953125 8 0 C8.66 0.66 9.32 1.32 10 2 C6.7 2.33 3.4 2.66 0 3 C0 2.01 0 1.02 0 0 Z " fill="#3BD0D8" transform="translate(56,65)"/>
<path d="M0 0 C0.33 0.66 0.66 1.32 1 2 C1.66 2.144375 2.32 2.28875 3 2.4375 C3.66 2.623125 4.32 2.80875 5 3 C5.33 3.99 5.66 4.98 6 6 C4.35 5.67 2.7 5.34 1 5 C0.67 3.35 0.34 1.7 0 0 Z " fill="#40D6E0" transform="translate(15,60)"/>
<path d="M0 0 C1.125 3.75 1.125 3.75 0 6 C-0.99 6 -1.98 6 -3 6 C-3.33 4.68 -3.66 3.36 -4 2 C-2.68 1.34 -1.36 0.68 0 0 Z " fill="#33B2BE" transform="translate(73,35)"/>
<path d="M0 0 C1.98 0.495 1.98 0.495 4 1 C3.67 1.99 3.34 2.98 3 4 C2.34 4 1.68 4 1 4 C0.34 4.66 -0.32 5.32 -1 6 C-0.67 4.02 -0.34 2.04 0 0 Z " fill="#47AEB6" transform="translate(60,70)"/>
</svg>
