<?xml version="1.0" encoding="UTF-8"?>
<svg version="1.1" xmlns="http://www.w3.org/2000/svg" width="218" height="442">
<path d="M0 0 C4.76437365 2.47380939 8.90999318 5.60339812 10.60546875 10.88671875 C11.35902359 14.80371174 11.20120121 16.59759759 9.375 20.25 C6.59057989 23.47406539 3.82740304 26.08629848 0 28 C-3.86522675 28.22736628 -6.64820222 28.12792647 -10.30859375 26.796875 C-15.56914865 25.66126315 -18.17568103 27.3769024 -22.60424805 30.14233398 C-25.52050879 32.2109499 -26.95292633 33.88801134 -28.33984375 37.1875 C-28.98618959 41.80272978 -29.16146897 45.31908008 -26.4453125 49.25 C-24.40360135 51.09310112 -22.32608365 52.53789028 -20 54 C-18.4840625 55.2684375 -18.4840625 55.2684375 -16.9375 56.5625 C-14.00582431 58.37394054 -14.00582431 58.37394054 -10.5625 57.25 C-9.386875 56.8375 -8.21125 56.425 -7 56 C-2.77049799 55.55478926 -0.61937201 55.68424172 3.1875 57.625 C6.7074252 60.59738128 9.46703379 63.28078465 10.3828125 67.953125 C10.59399981 71.64186332 10.06771561 73.85328285 8.5 77.25 C4.95718303 81.14709867 1.26825019 83.69398406 -4.0859375 84.1953125 C-9.44032179 83.8465595 -12.34096666 81.83327303 -16 78 C-17.88534189 74.82919773 -18.02038509 72.57428231 -17.8125 69 C-17.76519561 65.83060566 -17.85904776 65.19441688 -19.8125 62.5 C-20.84984074 61.63554938 -21.9186399 60.80870948 -23 60 C-23.87140625 59.30132812 -24.7428125 58.60265625 -25.640625 57.8828125 C-30.34896337 53.60136846 -30.34896337 53.60136846 -36.09765625 52.25390625 C-36.72542969 52.50011719 -37.35320313 52.74632812 -38 53 C-42.68803083 53.378067 -45.02609673 53.48695164 -49.25 51.375 C-53.37859409 47.80939601 -55.71675172 44.98273798 -56.5 39.5 C-55.73972776 34.17809431 -53.38458197 31.28073832 -49.5 27.6875 C-46.44261615 25.6237659 -44.43459001 24.80606929 -40.74609375 25.3046875 C-39.98425781 25.49289063 -39.22242187 25.68109375 -38.4375 25.875 C-37.67308594 26.05804688 -36.90867187 26.24109375 -36.12109375 26.4296875 C-34.39685193 26.8932958 -32.69385603 27.43538132 -31 28 C-26.11229337 26.00552022 -21.94934127 23.50931838 -18 20 C-16.98715213 16.9911214 -16.92862327 14.71231567 -17.01171875 11.5546875 C-16.99422039 7.74004547 -15.49865246 5.77628051 -13 3 C-9.05568058 -0.28693285 -4.9920295 -0.88267712 0 0 Z " fill="#2FADC1" transform="translate(81,25)"/>
<path d="M0 0 C0.90105469 0.19464844 1.80210938 0.38929687 2.73046875 0.58984375 C3.76107422 0.82380859 3.76107422 0.82380859 4.8125 1.0625 C5.1425 2.0525 5.4725 3.0425 5.8125 4.0625 C7.13553717 4.4346042 8.46987935 4.76880173 9.8125 5.0625 C12.06931381 9.57612761 10.10681049 16.05838184 8.75 20.6875 C8.440625 21.47125 8.13125 22.255 7.8125 23.0625 C9.1325 23.3925 10.4525 23.7225 11.8125 24.0625 C11.1525 24.3925 10.4925 24.7225 9.8125 25.0625 C9.4825 25.7225 9.1525 26.3825 8.8125 27.0625 C8.049375 26.876875 7.28625 26.69125 6.5 26.5 C3.72282625 25.83430827 3.72282625 25.83430827 0.8125 27.0625 C-3.85257623 27.4448833 -6.22877641 27.54186179 -10.4375 25.4375 C-14.56609409 21.87189601 -16.90425172 19.04523798 -17.6875 13.5625 C-16.92415638 8.21909463 -14.57172143 5.31167543 -10.625 1.75 C-6.68797874 -0.9756301 -4.5313305 -1.00042362 0 0 Z " fill="#32B1C6" transform="translate(42.1875,50.9375)"/>
<path d="M0 0 C8.73868778 -0.91628959 8.73868778 -0.91628959 11.7421875 1.265625 C15.15626608 5.42716458 16.37659962 8.53336476 16.26953125 13.90625 C15.80825024 17.48953434 14.40400177 19.35559806 12 22 C8.21082538 24.77481593 4.62304464 26.37175961 -0.125 26.0625 C-4.54968643 25.20020875 -6.90973645 23.23741895 -10 20 C-12.52377756 15.755465 -12.07624776 11.80360873 -12 7 C-12.31674575 5.66262906 -12.64270064 4.32711192 -13 3 C-12.67 2.34 -12.34 1.68 -12 1 C-8.04 1.33 -4.08 1.66 0 2 C0 1.34 0 0.68 0 0 Z " fill="#31B0C5" transform="translate(75,83)"/>
<path d="M0 0 C0.33 0 0.66 0 1 0 C1.04898438 0.78246094 1.09796875 1.56492188 1.1484375 2.37109375 C1.22320312 3.38300781 1.29796875 4.39492188 1.375 5.4375 C1.44460937 6.44683594 1.51421875 7.45617188 1.5859375 8.49609375 C1.72257812 9.32238281 1.85921875 10.14867187 2 11 C2.66 11.33 3.32 11.66 4 12 C5.0409066 13.64142963 6.04504326 15.30712215 7 17 C6.12988281 17.10828125 5.25976562 17.2165625 4.36328125 17.328125 C-1.36139437 18.47173035 -5.88185354 20.84053434 -10 25 C-11.76060648 29.52078308 -12.02795766 33.26063709 -11 38 C-8.81851413 41.17857917 -6.23400356 42.96719776 -3 45 C-1.989375 45.845625 -0.97875 46.69125 0.0625 47.5625 C2.99417569 49.37394054 2.99417569 49.37394054 6.4375 48.25 C7.613125 47.8375 8.78875 47.425 10 47 C13.8125 46.75 13.8125 46.75 17 47 C17.66 47.66 18.32 48.32 19 49 C16.36 49 13.72 49 11 49 C11 49.66 11 50.32 11 51 C9.56260487 51.02712066 8.12506137 51.04645067 6.6875 51.0625 C5.88699219 51.07410156 5.08648437 51.08570313 4.26171875 51.09765625 C2 51 2 51 -1 50 C-1.33 50.99 -1.66 51.98 -2 53 C-5.2826932 51.50923566 -7.93077441 49.61379679 -10.75 47.375 C-11.54921875 46.74335937 -12.3484375 46.11171875 -13.171875 45.4609375 C-13.77515625 44.97882813 -14.3784375 44.49671875 -15 44 C-13.68 43.01 -12.36 42.02 -11 41 C-11.99 40.67 -12.98 40.34 -14 40 C-13.71382812 38.21142578 -13.71382812 38.21142578 -13.421875 36.38671875 C-13.19678602 34.82047457 -12.97288951 33.25405869 -12.75 31.6875 C-12.62109375 30.90181641 -12.4921875 30.11613281 -12.359375 29.30664062 C-12.06465136 27.14226386 -11.83128488 25.17885171 -12 23 C-13.78664003 20.88433926 -13.78664003 20.88433926 -16 20 C-14.92878906 19.47792969 -13.85757813 18.95585938 -12.75390625 18.41796875 C-4.80943008 14.6555364 -4.80943008 14.6555364 0.21875 7.953125 C0.41835538 5.2014222 0.40257228 2.72628064 0 0 Z " fill="#2F9AB1" transform="translate(64,34)"/>
<path d="M0 0 C0.33 0 0.66 0 1 0 C1.04898438 0.78246094 1.09796875 1.56492188 1.1484375 2.37109375 C1.22320312 3.38300781 1.29796875 4.39492188 1.375 5.4375 C1.44460937 6.44683594 1.51421875 7.45617188 1.5859375 8.49609375 C1.72257812 9.32238281 1.85921875 10.14867187 2 11 C2.66 11.33 3.32 11.66 4 12 C5.0409066 13.64142963 6.04504326 15.30712215 7 17 C6.113125 17.103125 5.22625 17.20625 4.3125 17.3125 C0.99704221 17.80101184 0.99704221 17.80101184 -1.5 19.5625 C-4.52962925 21.30453682 -6.56159089 21.23988901 -10 21 C-10 18.8125 -10 18.8125 -9 16 C-7.1875 14.94140625 -7.1875 14.94140625 -5 13.875 C-2.75946196 12.75160473 -2.75946196 12.75160473 -1 11 C0.00045229 7.31604288 0.10655864 3.80281142 0 0 Z " fill="#3597A8" transform="translate(64,34)"/>
<path d="M0 0 C0.66 0 1.32 0 2 0 C2 0.66 2 1.32 2 2 C3.32 2.33 4.64 2.66 6 3 C6 3.99 6 4.98 6 6 C5.01 6.495 5.01 6.495 4 7 C3.34227572 10.02934491 3.34227572 10.02934491 3 13 C4.32 13 5.64 13 7 13 C7.2475 13.61875 7.495 14.2375 7.75 14.875 C9.20628639 17.35068687 10.37812506 17.95125002 13 19 C13 19.66 13 20.32 13 21 C14.32 21.33 15.64 21.66 17 22 C10.51604586 21.66462306 7.51877809 20.733958 3 16 C0.47850662 11.75930659 0.92261174 7.79807204 1 3 C0.67 2.01 0.34 1.02 0 0 Z " fill="#278392" transform="translate(62,87)"/>
<path d="M0 0 C0.66 0.33 1.32 0.66 2 1 C1.67 1.99 1.34 2.98 1 4 C2.65 4 4.3 4 6 4 C5.19175781 4.51046875 4.38351563 5.0209375 3.55078125 5.546875 C0.19303412 8.77607132 0.31479297 10.66745304 0.1875 15.25 C0.13980469 16.51328125 0.09210937 17.7765625 0.04296875 19.078125 C0.02878906 20.04234375 0.01460937 21.0065625 0 22 C-0.66 22 -1.32 22 -2 22 C-1.88140625 20.87980469 -1.7628125 19.75960937 -1.640625 18.60546875 C-1.50931406 17.13291041 -1.37916621 15.66024802 -1.25 14.1875 C-1.16878906 13.44951172 -1.08757813 12.71152344 -1.00390625 11.95117188 C-0.76041729 9.52276885 -0.76041729 9.52276885 -1 6 C-2.82425773 3.92924985 -2.82425773 3.92924985 -5 3 C-2.625 1.4375 -2.625 1.4375 0 0 Z " fill="#1D6677" transform="translate(53,51)"/>
<path d="M0 0 C0.66 0.66 1.32 1.32 2 2 C-0.64 2 -3.28 2 -6 2 C-6 2.66 -6 3.32 -6 4 C-7.45823212 4.0270043 -8.91660675 4.04639787 -10.375 4.0625 C-11.18710938 4.07410156 -11.99921875 4.08570312 -12.8359375 4.09765625 C-15 4 -15 4 -17 3 C-16.67 2.34 -16.34 1.68 -16 1 C-15.443125 1.20625 -14.88625 1.4125 -14.3125 1.625 C-11.95132455 2.21326571 -11.95132455 2.21326571 -9.6875 1.0625 C-6.29671872 -0.27804144 -3.61546591 -0.27286535 0 0 Z " fill="#1B606D" transform="translate(81,81)"/>
<path d="M0 0 C0.33 0 0.66 0 1 0 C1.07347656 1.17369141 1.07347656 1.17369141 1.1484375 2.37109375 C1.22320312 3.38300781 1.29796875 4.39492188 1.375 5.4375 C1.44460937 6.44683594 1.51421875 7.45617188 1.5859375 8.49609375 C1.72257812 9.32238281 1.85921875 10.14867187 2 11 C2.66 11.33 3.32 11.66 4 12 C5.0409066 13.64142963 6.04504326 15.30712215 7 17 C5.02 17 3.04 17 1 17 C0.87625 16.360625 0.7525 15.72125 0.625 15.0625 C0.41875 14.381875 0.2125 13.70125 0 13 C-0.66 12.67 -1.32 12.34 -2 12 C-1.67 11.67 -1.34 11.34 -1 11 C-0.76636119 9.15108054 -0.58696365 7.29511969 -0.4375 5.4375 C-0.35371094 4.42558594 -0.26992188 3.41367187 -0.18359375 2.37109375 C-0.12300781 1.58863281 -0.06242187 0.80617187 0 0 Z " fill="#1E6D7F" transform="translate(64,34)"/>
<path d="M0 0 C0.33 0.99 0.66 1.98 1 3 C1.5775 3.12375 2.155 3.2475 2.75 3.375 C6.06910681 4.29697411 7.70889648 6.51797119 10 9 C8.35 9 6.7 9 5 9 C4.67 9.99 4.34 10.98 4 12 C2.35 10.35 0.7 8.7 -1 7 C0.32 6.34 1.64 5.68 3 5 C2.01 4.67 1.02 4.34 0 4 C0 2.68 0 1.36 0 0 Z " fill="#288093" transform="translate(50,70)"/>
<path d="M0 0 C0.66 0 1.32 0 2 0 C2 0.66 2 1.32 2 2 C3.32 2.33 4.64 2.66 6 3 C6 3.99 6 4.98 6 6 C5.01 6.495 5.01 6.495 4 7 C3.59270772 9.32156597 3.25561323 11.6568787 3 14 C0.94604441 10.91906662 0.77497334 10.43256308 0.9375 7 C1.06063177 4.17332281 0.92549006 2.77647019 0 0 Z " fill="#1F7382" transform="translate(62,87)"/>
<path d="M0 0 C1.33998047 0.31324219 1.33998047 0.31324219 2.70703125 0.6328125 C3.60808594 0.83648437 4.50914063 1.04015625 5.4375 1.25 C6.46810547 1.50136719 6.46810547 1.50136719 7.51953125 1.7578125 C7.51953125 2.7478125 7.51953125 3.7378125 7.51953125 4.7578125 C4.87953125 4.4278125 2.23953125 4.0978125 -0.48046875 3.7578125 C-0.48046875 3.4278125 -0.48046875 3.0978125 -0.48046875 2.7578125 C-2.13046875 2.4278125 -3.78046875 2.0978125 -5.48046875 1.7578125 C-2.48046875 -0.2421875 -2.48046875 -0.2421875 0 0 Z " fill="#297F8D" transform="translate(39.48046875,50.2421875)"/>
<path d="M0 0 C1.4552777 2.9105554 0.63516661 4.95849052 0.0625 8.125 C-0.13214844 9.22070312 -0.32679687 10.31640625 -0.52734375 11.4453125 C-0.68332031 12.28835937 -0.83929687 13.13140625 -1 14 C-3 12 -3 12 -3.3125 8.6875 C-2.98867205 4.86633018 -2.22414284 3.05819641 0 0 Z " fill="#195B64" transform="translate(28,56)"/>
<path d="M0 0 C4.875 1.75 4.875 1.75 6 4 C5.9129796 5.71233688 5.75902838 7.42175406 5.5625 9.125 C5.46066406 10.03507812 5.35882813 10.94515625 5.25390625 11.8828125 C5.17011719 12.58148438 5.08632813 13.28015625 5 14 C4.67 14 4.34 14 4 14 C3.81824219 12.98679687 3.81824219 12.98679687 3.6328125 11.953125 C3.46523438 11.06109375 3.29765625 10.1690625 3.125 9.25 C2.96257813 8.36828125 2.80015625 7.4865625 2.6328125 6.578125 C2.03203736 4.13052256 1.22002883 2.19400143 0 0 Z " fill="#3CB3C2" transform="translate(47,54)"/>
<path d="M0 0 C0.33 0 0.66 0 1 0 C1 1.65 1 3.3 1 5 C0.01 5 -0.98 5 -2 5 C-1.125 1.125 -1.125 1.125 0 0 Z M-5 3 C-4.34 3 -3.68 3 -3 3 C-2.67 4.32 -2.34 5.64 -2 7 C-3.32 7 -4.64 7 -6 7 C-5.67 5.68 -5.34 4.36 -5 3 Z " fill="#34B8D2" transform="translate(71,90)"/>
<path d="M0 0 C0.33 0.66 0.66 1.32 1 2 C0.34 2 -0.32 2 -1 2 C-0.34 4.31 0.32 6.62 1 9 C0.34 9.66 -0.32 10.32 -1 11 C-3 9 -3 9 -3.3125 6.0625 C-3 3 -3 3 -1.5 1.125 C-1.005 0.75375 -0.51 0.3825 0 0 Z " fill="#37B7CC" transform="translate(31,55)"/>
<path d="M0 0 C5.39449293 -0.27429625 8.51925805 -0.36055646 13 3 C12.01 3.495 12.01 3.495 11 4 C10.0925 3.690625 9.185 3.38125 8.25 3.0625 C4.94947426 1.98348197 2.44292743 1.83605107 -1 2 C-0.67 1.34 -0.34 0.68 0 0 Z " fill="#195C6B" transform="translate(73,25)"/>
<path d="M0 0 C1.32 0.33 2.64 0.66 4 1 C3.67 1.99 3.34 2.98 3 4 C2.34 4 1.68 4 1 4 C1 5.65 1 7.3 1 9 C0.67 9 0.34 9 0 9 C0 6.03 0 3.06 0 0 Z " fill="#40B2CA" transform="translate(65,34)"/>
<path d="M0 0 C1.98 0.495 1.98 0.495 4 1 C4 1.99 4 2.98 4 4 C2.35 4 0.7 4 -1 4 C-0.67 2.68 -0.34 1.36 0 0 Z " fill="#3DB9CE" transform="translate(55,51)"/>
<path d="M0 0 C2.97 0.495 2.97 0.495 6 1 C4.35 2.32 2.7 3.64 1 5 C1 4.34 1 3.68 1 3 C0.34 2.67 -0.32 2.34 -1 2 C-0.67 1.34 -0.34 0.68 0 0 Z " fill="#31A7C0" transform="translate(63,84)"/>
</svg>
