<svg id="svg" version="1.1" xmlns="http://www.w3.org/2000/svg" xmlns:xlink="http://www.w3.org/1999/xlink" width="400" height="811.0091743119266" viewBox="0, 0, 400,811.0091743119266"><g id="svgg"><path id="path0" d="M144.634 129.013 C 143.992 129.348,142.102 129.734,140.434 129.871 C 138.075 130.065,137.148 130.330,136.269 131.060 C 135.647 131.577,134.632 132.000,134.012 132.000 C 133.364 132.000,132.785 132.263,132.648 132.619 C 132.517 132.959,131.868 133.427,131.205 133.658 C 130.542 133.889,130.000 134.302,130.000 134.575 C 130.000 134.848,129.550 135.277,129.000 135.527 C 128.450 135.778,128.000 136.171,128.000 136.401 C 128.000 136.631,127.550 136.991,127.000 137.200 C 126.450 137.409,126.000 137.826,126.000 138.126 C 126.000 138.743,124.360 139.600,123.181 139.600 C 122.752 139.600,122.400 139.777,122.400 139.992 C 122.400 140.685,119.638 144.728,118.732 145.363 C 117.916 145.934,117.900 146.027,118.507 146.697 C 119.086 147.337,119.132 148.463,118.917 156.709 C 118.675 165.988,118.676 166.000,119.523 166.000 C 120.241 166.000,120.414 166.312,120.640 168.015 C 120.821 169.383,121.146 170.157,121.653 170.429 C 122.088 170.661,122.400 171.262,122.400 171.868 C 122.400 172.464,122.827 173.304,123.400 173.835 C 123.950 174.345,124.400 175.130,124.400 175.581 C 124.400 176.031,124.619 176.400,124.886 176.400 C 125.153 176.400,125.738 176.755,126.186 177.188 C 128.631 179.557,129.686 180.400,130.200 180.400 C 130.514 180.400,130.965 180.760,131.200 181.200 C 131.435 181.640,131.956 182.000,132.356 182.000 C 132.756 182.000,133.569 182.450,134.162 183.000 C 134.756 183.550,135.727 184.003,136.321 184.006 C 137.780 184.014,138.482 184.521,138.168 185.339 C 137.702 186.553,155.095 186.112,155.907 184.890 C 156.371 184.191,156.881 184.000,158.286 184.000 C 159.731 184.000,160.115 183.848,160.282 183.210 C 160.415 182.698,160.960 182.331,161.830 182.168 C 162.650 182.014,163.266 181.621,163.413 181.158 C 163.566 180.678,164.024 180.400,164.664 180.400 C 165.317 180.400,165.745 180.134,165.871 179.649 C 166.041 179.001,168.051 177.679,168.283 178.063 C 168.472 178.375,169.576 176.545,169.587 175.900 C 169.594 175.515,169.875 175.200,170.210 175.200 C 170.566 175.200,170.919 174.706,171.058 174.012 C 171.192 173.342,171.624 172.719,172.048 172.585 C 172.592 172.412,172.800 171.966,172.800 170.969 C 172.800 170.088,173.088 169.346,173.598 168.909 C 174.037 168.533,174.487 167.635,174.598 166.913 C 174.709 166.191,174.898 164.970,175.018 164.200 C 175.152 163.342,175.461 162.800,175.818 162.800 C 176.465 162.800,176.562 161.734,176.454 155.800 C 176.401 152.900,176.253 152.100,175.694 151.683 C 175.159 151.285,174.986 150.505,174.938 148.283 C 174.881 145.608,174.802 145.362,173.838 144.878 C 173.122 144.518,172.800 144.035,172.800 143.320 C 172.800 142.750,172.438 141.905,171.994 141.442 C 166.170 135.354,164.147 133.600,162.944 133.600 C 162.260 133.600,161.856 133.336,161.715 132.797 C 161.566 132.227,161.045 131.921,159.915 131.740 C 159.040 131.600,158.027 131.175,157.662 130.794 C 157.142 130.252,155.968 130.042,152.200 129.819 C 148.962 129.627,147.195 129.350,146.769 128.967 C 145.994 128.272,146.058 128.271,144.634 129.013 " stroke="none" fill="#b24c90" fill-rule="evenodd"></path><path id="path1" d="M141.208 27.921 C 139.525 28.000,138.365 28.270,137.902 28.689 C 137.504 29.049,136.224 29.415,135.012 29.516 C 133.564 29.636,132.610 29.947,132.157 30.448 C 131.782 30.862,131.239 31.200,130.948 31.200 C 129.378 31.200,119.200 41.417,119.200 42.994 C 119.200 43.260,118.840 43.893,118.400 44.400 C 117.898 44.979,117.600 45.897,117.600 46.866 C 117.600 47.715,117.252 49.665,116.827 51.199 C 115.985 54.237,115.932 58.461,116.719 59.800 C 116.977 60.240,117.444 62.040,117.756 63.800 C 118.067 65.560,118.510 67.720,118.739 68.600 C 118.968 69.480,119.255 70.683,119.378 71.273 C 119.514 71.923,119.956 72.454,120.501 72.619 C 120.995 72.768,122.364 73.545,123.542 74.345 C 126.641 76.451,127.296 76.788,128.300 76.794 C 128.831 76.798,129.200 77.046,129.200 77.400 C 129.200 78.256,129.940 78.139,132.000 76.959 C 133.485 76.108,134.394 75.910,137.200 75.826 C 139.103 75.769,141.305 75.448,142.200 75.096 C 143.700 74.507,143.878 74.515,145.047 75.234 C 146.780 76.298,147.706 76.194,148.723 74.818 C 149.308 74.027,150.093 73.547,151.098 73.366 C 151.924 73.217,152.806 72.933,153.058 72.734 C 153.309 72.535,154.479 72.267,155.658 72.139 C 156.836 72.011,158.396 71.567,159.125 71.152 C 160.036 70.633,160.786 70.486,161.525 70.680 C 162.962 71.057,163.915 70.878,164.765 70.070 C 165.153 69.701,165.801 69.209,166.205 68.975 C 166.705 68.686,166.966 68.022,167.020 66.899 C 167.080 65.664,167.371 65.014,168.173 64.324 C 170.336 62.460,172.639 51.934,171.250 50.260 C 171.003 49.962,170.685 48.617,170.544 47.271 C 170.374 45.638,170.041 44.599,169.544 44.150 C 169.135 43.779,168.800 43.097,168.800 42.634 C 168.800 41.324,161.388 33.200,160.193 33.200 C 159.935 33.200,159.381 32.815,158.962 32.345 C 158.543 31.874,157.615 31.242,156.900 30.939 C 156.185 30.637,155.600 30.236,155.600 30.050 C 155.600 29.863,154.571 29.589,153.313 29.441 C 152.055 29.293,150.210 28.891,149.213 28.547 C 147.275 27.878,145.346 27.728,141.208 27.921 M50.200 82.261 C 49.540 82.339,48.055 82.505,46.900 82.630 C 45.745 82.755,44.522 83.136,44.182 83.475 C 43.842 83.815,42.840 84.256,41.955 84.455 C 41.070 84.654,39.778 85.218,39.083 85.708 C 36.791 87.328,33.099 90.444,32.243 91.482 C 31.779 92.044,30.997 92.936,30.504 93.466 C 30.011 93.995,29.500 94.859,29.368 95.385 C 29.236 95.911,28.784 96.652,28.364 97.033 C 27.944 97.413,27.600 98.021,27.600 98.384 C 27.600 98.747,27.150 99.655,26.600 100.400 C 25.912 101.333,25.600 102.273,25.600 103.414 C 25.600 104.326,25.332 105.956,25.004 107.036 C 24.250 109.522,24.237 112.312,24.971 114.068 C 25.285 114.820,25.671 116.597,25.829 118.017 C 25.999 119.547,26.418 120.989,26.858 121.554 C 27.266 122.079,27.600 122.816,27.600 123.192 C 27.600 123.568,27.960 124.202,28.400 124.600 C 28.840 124.998,29.200 125.579,29.200 125.892 C 29.200 126.746,33.588 131.176,35.300 132.050 C 36.125 132.472,36.800 132.971,36.800 133.160 C 36.800 133.348,37.327 133.721,37.971 133.988 C 38.615 134.255,39.233 134.709,39.343 134.997 C 39.454 135.285,40.261 135.641,41.137 135.789 C 42.012 135.937,43.043 136.405,43.426 136.829 C 43.919 137.374,44.664 137.603,45.962 137.610 C 46.973 137.615,48.520 137.791,49.400 138.001 C 51.899 138.598,61.514 137.726,62.860 136.780 C 63.443 136.370,64.375 135.921,64.930 135.782 C 65.486 135.642,66.252 135.184,66.633 134.764 C 67.013 134.344,67.553 134.000,67.833 134.000 C 68.421 134.000,68.748 133.692,71.200 130.834 C 72.190 129.680,73.495 128.476,74.100 128.158 C 74.705 127.840,75.200 127.314,75.200 126.990 C 75.200 126.338,75.393 126.297,78.000 126.390 C 79.229 126.434,79.990 126.694,80.400 127.209 C 80.814 127.730,81.598 127.993,82.927 128.058 C 84.281 128.124,84.964 128.359,85.226 128.849 C 85.431 129.232,86.004 129.669,86.500 129.820 C 86.995 129.971,87.697 130.355,88.060 130.673 C 89.143 131.622,90.924 131.440,92.105 130.259 C 92.687 129.676,93.352 129.200,93.582 129.200 C 94.214 129.200,94.083 127.699,93.354 126.586 C 92.985 126.022,92.323 125.600,91.809 125.600 C 91.315 125.600,90.231 125.060,89.400 124.400 C 88.569 123.740,87.673 123.200,87.407 123.200 C 87.141 123.200,86.598 122.840,86.200 122.400 C 85.802 121.960,85.066 121.600,84.564 121.600 C 80.943 121.600,79.813 119.145,81.059 113.986 C 81.684 111.395,81.676 110.971,80.909 105.587 C 80.023 99.370,80.182 98.010,81.888 97.233 C 82.402 96.999,82.929 96.529,83.060 96.189 C 83.190 95.848,83.905 95.316,84.649 95.006 C 85.392 94.695,86.000 94.178,86.000 93.856 C 86.000 93.031,88.290 91.201,89.331 91.194 C 90.939 91.183,91.223 90.628,89.986 89.918 C 88.873 89.279,88.748 89.291,87.059 90.189 L 85.295 91.127 84.851 90.152 C 84.607 89.616,84.156 89.081,83.849 88.964 C 83.274 88.743,77.349 90.578,76.583 91.214 C 75.947 91.742,73.343 90.432,72.842 89.332 C 72.559 88.710,72.077 88.400,71.396 88.400 C 70.834 88.400,70.271 88.130,70.144 87.799 C 69.841 87.010,66.667 84.881,65.286 84.541 C 64.689 84.394,63.816 84.025,63.346 83.721 C 62.877 83.417,61.617 83.076,60.546 82.963 C 59.476 82.849,57.736 82.586,56.680 82.378 C 54.815 82.011,52.656 81.972,50.200 82.261 " stroke="none" fill="#34b2cc" fill-rule="evenodd"></path><path id="path2" d="M133.473 25.060 C 133.323 25.210,133.200 25.663,133.200 26.067 C 133.200 26.669,132.879 26.800,131.400 26.800 C 129.867 26.800,129.600 26.919,129.600 27.600 C 129.600 28.244,129.333 28.400,128.229 28.400 C 126.959 28.400,125.600 29.218,125.600 29.982 C 125.600 30.161,125.240 30.401,124.800 30.516 C 124.360 30.631,124.000 30.991,124.000 31.316 C 124.000 31.641,123.627 32.004,123.170 32.124 C 122.714 32.243,122.243 32.714,122.124 33.170 C 122.001 33.639,121.579 34.000,121.153 34.000 C 120.622 34.000,120.400 34.287,120.400 34.972 C 120.400 35.674,120.151 35.980,119.504 36.072 C 118.989 36.146,118.544 36.538,118.456 36.996 C 118.373 37.433,117.980 38.019,117.584 38.296 C 117.188 38.574,116.740 39.363,116.589 40.049 C 116.427 40.788,116.006 41.378,115.558 41.495 C 114.957 41.652,114.800 42.063,114.800 43.483 C 114.800 44.856,114.591 45.441,113.900 46.000 C 112.303 47.292,112.310 64.767,113.908 64.825 C 114.429 64.844,114.378 64.940,113.700 65.212 C 113.181 65.421,112.800 65.918,112.800 66.387 C 112.800 66.933,112.538 67.200,112.000 67.200 C 111.467 67.200,111.200 67.467,111.200 68.000 C 111.200 68.559,110.929 68.804,110.300 68.813 C 109.268 68.827,108.000 69.672,108.000 70.344 C 108.000 70.595,107.460 70.800,106.800 70.800 C 105.867 70.800,105.600 70.978,105.600 71.600 C 105.600 72.281,105.333 72.400,103.800 72.400 C 102.147 72.400,102.000 72.481,102.000 73.400 C 102.000 74.319,101.853 74.400,100.200 74.400 C 98.667 74.400,98.400 74.519,98.400 75.200 C 98.400 75.990,98.056 76.158,96.716 76.024 C 95.749 75.927,94.400 76.723,94.400 77.390 C 94.400 77.750,93.862 77.996,92.900 78.076 C 91.797 78.167,91.295 78.438,91.005 79.100 C 90.694 79.809,90.284 80.000,89.068 80.000 C 87.862 80.000,87.479 80.174,87.316 80.800 C 87.179 81.323,86.770 81.600,86.135 81.600 C 85.601 81.600,84.714 82.050,84.164 82.600 C 83.614 83.150,82.737 83.600,82.215 83.600 C 80.851 83.600,80.000 84.001,80.000 84.643 C 80.000 84.949,79.666 85.200,79.258 85.200 C 78.851 85.200,78.031 85.650,77.438 86.200 C 76.143 87.400,76.000 87.424,76.000 86.443 C 76.000 85.980,75.631 85.594,75.048 85.448 C 74.524 85.316,73.997 84.833,73.877 84.374 C 73.745 83.869,73.372 83.570,72.930 83.616 C 71.121 83.805,70.400 83.584,70.400 82.843 C 70.400 81.981,69.655 81.600,67.967 81.600 C 67.067 81.600,66.800 81.417,66.800 80.800 C 66.800 80.082,66.533 80.000,64.187 80.000 C 62.064 80.000,61.527 79.869,61.317 79.300 C 60.873 78.098,60.370 78.012,53.726 78.006 C 47.114 78.000,45.200 78.311,45.200 79.390 C 45.200 79.875,44.659 80.000,42.563 80.000 C 40.287 80.000,39.897 80.107,39.722 80.778 C 39.610 81.205,39.132 81.610,38.659 81.678 C 38.121 81.754,37.752 82.137,37.672 82.700 C 37.564 83.463,37.299 83.600,35.935 83.600 C 34.688 83.600,34.280 83.772,34.126 84.363 C 34.016 84.783,33.569 85.219,33.133 85.333 C 32.697 85.447,32.243 85.914,32.124 86.370 C 32.001 86.839,31.579 87.200,31.153 87.200 C 30.616 87.200,30.400 87.487,30.400 88.200 C 30.400 88.948,30.189 89.200,29.563 89.200 C 29.075 89.200,28.642 89.519,28.526 89.963 C 28.416 90.383,27.983 90.816,27.563 90.926 C 26.972 91.080,26.800 91.488,26.800 92.735 C 26.800 94.099,26.663 94.364,25.900 94.472 C 25.322 94.554,24.954 94.922,24.872 95.500 C 24.802 95.995,24.498 96.400,24.196 96.400 C 23.224 96.400,23.064 97.016,22.816 101.700 C 22.807 101.865,22.440 102.000,22.000 102.000 C 20.789 102.000,20.742 119.555,21.952 119.872 C 22.539 120.025,22.763 120.588,22.972 122.430 C 23.170 124.188,23.439 124.900,24.019 125.210 C 24.449 125.440,24.800 125.978,24.800 126.406 C 24.800 126.895,25.158 127.275,25.762 127.426 C 26.291 127.559,26.815 128.013,26.925 128.434 C 27.035 128.855,27.393 129.200,27.720 129.200 C 28.408 129.200,28.926 130.273,28.539 130.898 C 28.392 131.136,28.464 131.208,28.702 131.061 C 29.388 130.636,30.400 131.222,30.400 132.043 C 30.400 132.533,30.682 132.800,31.200 132.800 C 31.914 132.800,32.185 133.212,32.050 134.093 C 32.025 134.254,32.454 134.499,33.002 134.636 C 33.626 134.793,34.000 135.170,34.000 135.643 C 34.000 136.075,34.301 136.425,34.700 136.459 C 35.085 136.492,35.670 136.555,36.000 136.600 C 36.330 136.645,36.825 136.708,37.100 136.741 C 37.375 136.773,37.600 137.142,37.600 137.560 C 37.600 138.202,37.877 138.311,39.370 138.260 C 41.001 138.205,41.158 138.287,41.360 139.300 C 41.560 140.300,41.740 140.400,43.343 140.400 C 44.770 140.400,45.147 140.553,45.316 141.200 C 45.640 142.438,59.166 142.434,60.405 141.195 C 60.911 140.689,61.838 140.355,62.905 140.295 C 64.228 140.221,64.687 140.002,64.995 139.300 C 65.314 138.573,65.711 138.400,67.067 138.400 C 68.498 138.400,68.763 138.269,68.872 137.507 C 68.968 136.836,69.297 136.592,70.200 136.524 C 70.860 136.475,71.683 136.086,72.029 135.660 C 72.375 135.234,73.005 134.820,73.429 134.739 C 73.863 134.656,74.256 134.200,74.328 133.696 C 74.410 133.122,74.733 132.800,75.228 132.800 C 75.717 132.800,76.000 132.524,76.000 132.047 C 76.000 131.153,77.017 130.899,79.700 131.122 C 81.244 131.251,81.600 131.423,81.600 132.040 C 81.600 132.671,81.898 132.800,83.357 132.800 C 84.897 132.800,85.144 132.923,85.364 133.800 C 85.585 134.681,85.829 134.800,87.408 134.800 C 88.933 134.800,89.200 134.919,89.200 135.600 C 89.200 136.430,89.395 136.516,91.400 136.568 C 92.328 136.593,92.629 136.804,92.728 137.500 C 92.838 138.276,93.096 138.400,94.600 138.400 C 96.104 138.400,96.362 138.524,96.472 139.300 C 96.578 140.048,96.887 140.221,98.300 140.323 C 99.674 140.422,100.000 140.595,100.000 141.223 C 100.000 141.873,100.284 142.000,101.736 142.000 C 103.199 142.000,103.543 142.157,103.927 143.000 C 104.303 143.825,104.664 144.000,105.991 144.000 C 107.302 144.000,107.600 144.140,107.600 144.755 C 107.600 145.538,109.977 146.309,110.807 145.796 C 111.025 145.661,111.200 146.008,111.200 146.576 C 111.200 147.523,111.336 147.600,113.000 147.600 C 114.512 147.600,114.800 147.724,114.800 148.373 C 114.800 148.798,115.160 149.260,115.600 149.400 C 116.357 149.640,116.401 150.015,116.422 156.327 C 116.453 165.836,116.510 166.398,117.529 167.223 C 118.156 167.731,118.400 168.368,118.400 169.500 C 118.400 170.788,118.580 171.154,119.400 171.527 C 120.186 171.885,120.400 172.279,120.400 173.364 C 120.400 174.395,120.603 174.811,121.200 175.000 C 121.640 175.140,122.000 175.589,122.000 175.999 C 122.000 176.467,122.334 176.792,122.900 176.872 C 123.478 176.954,123.846 177.322,123.928 177.900 C 124.010 178.478,124.332 178.800,124.828 178.800 C 125.507 178.800,125.772 179.200,125.662 180.057 C 125.578 180.711,127.662 182.400,128.553 182.400 C 129.277 182.400,129.579 182.643,129.672 183.300 C 129.778 184.048,130.087 184.221,131.500 184.323 C 132.874 184.422,133.200 184.595,133.200 185.223 C 133.200 186.300,137.761 186.400,138.171 185.332 C 138.482 184.522,137.774 184.014,136.321 184.006 C 135.727 184.003,134.756 183.550,134.162 183.000 C 133.569 182.450,132.756 182.000,132.356 182.000 C 131.956 182.000,131.435 181.640,131.200 181.200 C 130.965 180.760,130.514 180.400,130.200 180.400 C 129.686 180.400,128.631 179.557,126.186 177.188 C 125.738 176.755,125.153 176.400,124.886 176.400 C 124.619 176.400,124.400 176.031,124.400 175.581 C 124.400 175.130,123.950 174.345,123.400 173.835 C 122.827 173.304,122.400 172.464,122.400 171.868 C 122.400 171.262,122.088 170.661,121.653 170.429 C 121.146 170.157,120.821 169.383,120.640 168.015 C 120.414 166.311,120.241 166.000,119.523 166.000 C 118.674 166.000,118.673 165.993,118.920 156.627 L 119.166 147.253 117.769 146.027 C 116.758 145.139,115.970 144.800,114.918 144.800 C 114.118 144.800,113.141 144.509,112.748 144.153 C 112.354 143.797,111.230 143.415,110.250 143.305 C 108.945 143.157,108.415 142.902,108.272 142.352 C 108.146 141.872,107.717 141.600,107.086 141.600 C 106.539 141.600,105.853 141.237,105.549 140.787 C 105.219 140.298,104.362 139.877,103.400 139.730 C 102.520 139.596,101.478 139.152,101.084 138.743 C 100.691 138.334,99.846 138.000,99.207 138.000 C 98.536 138.000,97.825 137.690,97.523 137.265 C 97.235 136.860,96.280 136.416,95.400 136.278 C 94.446 136.128,93.579 135.698,93.251 135.213 C 92.857 134.630,92.264 134.400,91.151 134.400 C 89.867 134.400,89.600 134.262,89.600 133.600 C 89.600 132.943,89.331 132.799,88.100 132.794 C 86.411 132.787,85.857 132.513,85.483 131.500 C 85.302 131.010,84.791 130.800,83.775 130.800 C 82.673 130.800,82.276 130.613,82.121 130.018 C 81.972 129.450,81.434 129.164,80.152 128.972 C 79.182 128.826,78.237 128.438,78.053 128.108 C 77.590 127.282,76.259 127.769,75.596 129.007 C 75.304 129.553,74.920 130.000,74.743 130.000 C 74.566 130.000,74.152 130.519,73.824 131.153 C 73.496 131.787,72.793 132.415,72.262 132.549 C 71.730 132.682,71.201 133.154,71.085 133.598 C 70.954 134.098,70.416 134.497,69.672 134.646 C 68.961 134.788,68.390 135.195,68.273 135.643 C 68.126 136.203,67.712 136.400,66.681 136.400 C 65.527 136.400,65.243 136.573,65.036 137.400 C 64.806 138.315,64.597 138.400,62.592 138.400 C 60.667 138.400,60.400 138.497,60.400 139.200 C 60.400 140.534,47.622 140.536,46.202 139.202 C 45.597 138.633,44.800 138.400,43.462 138.400 C 42.030 138.400,41.513 138.231,41.317 137.700 C 40.962 136.738,40.397 136.413,39.063 136.406 C 38.269 136.402,37.863 136.161,37.718 135.610 C 37.585 135.101,37.042 134.732,36.193 134.572 C 35.364 134.417,34.800 134.041,34.674 133.562 C 34.557 133.115,34.125 132.800,33.628 132.800 C 33.092 132.800,32.640 132.432,32.400 131.800 C 32.167 131.188,31.706 130.800,31.210 130.800 C 30.667 130.800,30.400 130.537,30.400 130.000 C 30.400 129.467,30.133 129.200,29.600 129.200 C 29.016 129.200,28.800 128.933,28.800 128.214 C 28.800 127.639,28.468 127.050,28.003 126.801 C 27.508 126.537,27.111 125.786,26.957 124.822 C 26.798 123.826,26.460 123.204,26.016 123.088 C 25.498 122.953,25.263 122.324,25.085 120.606 C 24.918 118.988,24.595 118.069,23.998 117.512 C 22.673 116.278,22.924 104.087,24.300 102.806 C 24.948 102.204,25.200 101.514,25.200 100.347 C 25.200 99.077,25.369 98.681,25.978 98.522 C 26.537 98.375,26.791 97.907,26.878 96.859 C 26.967 95.798,27.246 95.292,27.900 95.005 C 28.406 94.783,28.800 94.257,28.800 93.801 C 28.800 93.356,29.144 92.778,29.564 92.515 C 29.984 92.253,30.449 91.490,30.596 90.819 C 30.744 90.146,31.123 89.600,31.442 89.600 C 31.760 89.600,32.191 89.150,32.400 88.600 C 32.637 87.978,33.093 87.600,33.608 87.600 C 34.064 87.600,34.886 87.150,35.436 86.600 C 35.986 86.050,36.788 85.600,37.218 85.600 C 37.652 85.600,38.000 85.329,38.000 84.990 C 38.000 84.317,39.537 83.600,40.979 83.600 C 41.549 83.600,41.982 83.311,42.102 82.852 C 42.259 82.251,42.778 82.069,44.734 81.927 C 46.394 81.807,47.443 81.504,48.025 80.977 C 49.477 79.664,57.575 79.575,58.858 80.858 C 59.652 81.652,60.288 81.822,62.900 81.942 C 65.587 82.066,66.000 82.182,66.000 82.818 C 66.000 83.378,66.416 83.613,67.764 83.815 C 69.025 84.005,69.584 84.297,69.726 84.840 C 69.843 85.285,70.276 85.600,70.772 85.600 C 71.308 85.600,71.760 85.968,72.000 86.600 C 72.233 87.212,72.694 87.600,73.190 87.600 C 73.733 87.600,74.000 87.863,74.000 88.400 C 74.000 89.603,78.201 89.603,78.516 88.400 C 78.675 87.793,79.062 87.600,80.117 87.600 C 81.159 87.600,81.672 87.349,82.163 86.600 C 82.627 85.893,83.178 85.600,84.047 85.600 C 84.914 85.600,85.333 85.378,85.472 84.846 C 85.604 84.343,86.159 84.013,87.136 83.857 C 87.943 83.728,88.916 83.257,89.298 82.811 C 89.680 82.365,90.446 82.000,91.000 82.000 C 91.554 82.000,92.316 81.640,92.693 81.200 C 93.070 80.760,93.663 80.400,94.011 80.400 C 94.360 80.400,95.255 79.950,96.000 79.400 C 96.745 78.850,97.653 78.400,98.016 78.400 C 98.379 78.400,99.002 78.040,99.400 77.600 C 99.804 77.153,100.632 76.800,101.275 76.800 C 102.005 76.800,102.519 76.545,102.683 76.100 C 103.034 75.149,103.602 74.813,104.873 74.806 C 105.585 74.802,106.030 74.536,106.196 74.014 C 106.359 73.500,106.958 73.132,107.923 72.953 C 108.735 72.802,109.621 72.367,109.890 71.985 C 110.160 71.604,111.015 71.174,111.790 71.028 C 112.572 70.881,113.200 70.525,113.200 70.226 C 113.200 69.929,113.824 69.572,114.595 69.427 C 116.769 69.020,117.963 64.629,116.037 64.126 C 114.938 63.838,114.811 62.953,114.812 55.600 C 114.812 48.831,114.896 48.328,116.100 47.883 C 116.638 47.685,116.800 47.165,116.800 45.635 C 116.800 44.101,116.983 43.517,117.597 43.087 C 118.036 42.780,118.505 41.976,118.640 41.300 C 118.787 40.564,119.190 39.991,119.643 39.873 C 120.095 39.755,120.400 39.322,120.400 38.800 C 120.400 38.305,120.704 37.843,121.100 37.736 C 121.485 37.632,122.081 36.985,122.424 36.298 C 122.767 35.611,123.620 34.767,124.318 34.424 C 125.017 34.081,125.693 33.485,125.821 33.100 C 125.949 32.715,126.395 32.400,126.813 32.400 C 127.230 32.400,127.763 32.042,127.997 31.605 C 128.232 31.167,128.873 30.697,129.422 30.559 C 129.972 30.421,130.603 29.969,130.825 29.554 C 131.138 28.968,131.679 28.800,133.252 28.800 C 134.906 28.800,135.311 28.661,135.474 28.037 C 135.918 26.342,152.800 26.107,152.800 27.796 C 152.800 28.412,154.056 28.787,156.137 28.795 C 157.349 28.799,157.720 28.974,157.889 29.620 C 158.021 30.123,158.549 30.530,159.252 30.670 C 159.883 30.797,160.400 31.114,160.400 31.376 C 160.400 31.638,161.030 32.152,161.800 32.519 C 162.570 32.887,163.200 33.341,163.200 33.529 C 163.200 33.718,163.650 34.077,164.200 34.327 C 164.750 34.578,165.200 35.017,165.200 35.302 C 165.200 35.588,165.740 36.296,166.400 36.875 C 167.060 37.454,167.600 38.304,167.600 38.764 C 167.600 39.232,167.858 39.600,168.186 39.600 C 168.873 39.600,169.600 40.807,169.600 41.947 C 169.600 42.395,169.952 42.858,170.400 43.000 C 171.031 43.200,171.201 43.608,171.206 44.927 C 171.213 46.803,171.466 47.335,172.541 47.732 C 173.779 48.190,173.389 60.792,172.100 61.993 C 171.510 62.543,171.200 63.296,171.200 64.183 C 171.200 65.912,170.855 66.800,170.182 66.800 C 169.857 66.800,169.544 67.503,169.379 68.600 C 169.177 69.950,168.933 70.400,168.405 70.400 C 167.937 70.400,167.617 70.816,167.453 71.637 C 167.245 72.673,165.167 75.200,164.522 75.200 C 164.416 75.200,163.403 76.010,162.271 77.000 C 161.140 77.990,159.830 78.800,159.361 78.800 C 158.892 78.800,158.071 79.143,157.538 79.563 C 157.005 79.982,155.675 80.458,154.584 80.619 C 153.493 80.780,152.160 81.256,151.622 81.675 C 150.866 82.265,150.007 82.433,147.822 82.421 C 146.270 82.412,142.394 82.394,139.210 82.382 C 134.968 82.366,133.256 82.217,132.810 81.825 C 132.474 81.530,131.630 81.168,130.933 81.020 C 130.237 80.872,129.571 80.502,129.454 80.198 C 129.338 79.893,128.579 79.520,127.769 79.368 C 126.817 79.189,126.228 78.828,126.102 78.346 C 125.994 77.935,125.551 77.600,125.116 77.600 C 124.668 77.600,124.237 77.261,124.121 76.818 C 123.753 75.411,119.600 75.200,119.600 76.588 C 119.600 76.907,118.949 77.240,118.017 77.397 C 117.003 77.568,116.351 77.923,116.205 78.383 C 116.059 78.843,115.421 79.190,114.432 79.348 C 113.583 79.484,112.783 79.867,112.656 80.198 C 112.529 80.529,112.073 80.800,111.643 80.800 C 111.213 80.800,110.327 81.250,109.673 81.800 C 109.019 82.350,108.112 82.800,107.656 82.800 C 107.201 82.800,106.640 83.152,106.409 83.583 C 106.175 84.021,105.372 84.482,104.584 84.629 C 103.811 84.774,103.005 85.218,102.792 85.614 C 102.580 86.011,101.864 86.454,101.200 86.600 C 100.536 86.746,99.809 87.210,99.583 87.633 C 99.357 88.055,98.907 88.400,98.583 88.400 C 98.260 88.400,97.603 88.850,97.125 89.400 C 96.647 89.950,95.822 90.400,95.290 90.400 C 94.654 90.400,94.252 90.679,94.111 91.220 C 93.976 91.734,93.447 92.131,92.695 92.281 C 91.997 92.421,91.412 92.831,91.300 93.261 C 91.168 93.766,90.738 94.000,89.943 94.000 C 89.071 94.000,88.685 94.250,88.400 95.000 C 88.097 95.797,87.743 96.000,86.653 96.000 C 85.529 96.000,85.242 96.177,85.036 97.000 C 84.852 97.731,84.517 98.000,83.792 98.000 C 83.177 98.000,82.800 98.228,82.800 98.600 C 82.800 98.930,82.530 99.200,82.200 99.200 C 81.254 99.200,81.414 101.691,82.400 102.307 C 83.314 102.878,83.614 113.986,82.792 116.803 C 82.452 117.967,82.496 118.267,83.053 118.600 C 83.421 118.820,84.005 119.315,84.350 119.700 C 84.695 120.085,85.523 120.403,86.189 120.406 C 87.595 120.413,88.157 120.726,88.517 121.700 C 88.703 122.206,89.215 122.400,90.360 122.400 C 91.595 122.400,92.002 122.577,92.200 123.200 C 92.376 123.754,92.805 124.000,93.598 124.000 C 94.710 124.000,96.000 124.875,96.000 125.629 C 96.000 125.833,96.536 126.000,97.191 126.000 C 98.020 126.000,98.581 126.304,99.037 127.000 C 99.554 127.789,100.027 128.000,101.283 128.000 C 102.519 128.000,102.920 128.173,103.077 128.771 C 103.215 129.300,103.770 129.626,104.839 129.807 C 105.822 129.973,106.400 130.287,106.400 130.656 C 106.400 130.977,107.056 131.515,107.858 131.850 C 108.660 132.185,109.573 132.716,109.887 133.030 C 110.201 133.343,110.980 133.600,111.619 133.600 C 112.418 133.600,112.987 133.913,113.437 134.600 C 113.822 135.189,114.472 135.600,115.015 135.600 C 115.523 135.600,116.473 136.050,117.127 136.600 C 117.806 137.171,118.821 137.600,119.494 137.600 C 120.362 137.600,120.791 137.863,121.127 138.600 C 121.816 140.111,126.000 139.704,126.000 138.126 C 126.000 137.826,126.450 137.409,127.000 137.200 C 127.550 136.991,128.000 136.631,128.000 136.401 C 128.000 136.171,128.450 135.778,129.000 135.527 C 129.550 135.277,130.000 134.848,130.000 134.575 C 130.000 134.302,130.542 133.889,131.205 133.658 C 131.868 133.427,132.517 132.959,132.648 132.619 C 132.785 132.263,133.364 132.000,134.012 132.000 C 134.632 132.000,135.647 131.577,136.269 131.060 C 137.147 130.331,138.075 130.065,140.414 129.873 C 142.071 129.736,144.017 129.331,144.737 128.971 C 145.910 128.386,146.117 128.381,146.723 128.926 C 147.204 129.358,148.789 129.617,152.200 129.819 C 155.968 130.042,157.142 130.252,157.662 130.794 C 158.027 131.175,159.040 131.600,159.915 131.740 C 161.045 131.921,161.566 132.227,161.715 132.797 C 161.856 133.336,162.260 133.600,162.944 133.600 C 164.147 133.600,166.170 135.354,171.994 141.442 C 172.438 141.905,172.800 142.750,172.800 143.320 C 172.800 144.035,173.122 144.518,173.838 144.878 C 174.802 145.362,174.881 145.608,174.938 148.283 C 174.986 150.505,175.159 151.285,175.694 151.683 C 176.253 152.100,176.401 152.900,176.454 155.800 C 176.562 161.734,176.465 162.800,175.818 162.800 C 175.461 162.800,175.152 163.342,175.018 164.200 C 174.898 164.970,174.709 166.191,174.598 166.913 C 174.487 167.635,174.037 168.533,173.598 168.909 C 173.088 169.346,172.800 170.088,172.800 170.969 C 172.800 171.966,172.592 172.412,172.048 172.585 C 171.624 172.719,171.192 173.342,171.058 174.012 C 170.919 174.706,170.566 175.200,170.210 175.200 C 169.875 175.200,169.594 175.515,169.587 175.900 C 169.573 176.668,168.533 178.227,168.083 178.154 C 167.407 178.044,166.051 178.960,165.871 179.649 C 165.745 180.134,165.317 180.400,164.664 180.400 C 164.024 180.400,163.566 180.678,163.413 181.158 C 163.266 181.621,162.650 182.014,161.830 182.168 C 160.960 182.331,160.415 182.698,160.282 183.210 C 160.115 183.848,159.731 184.000,158.286 184.000 C 156.880 184.000,156.371 184.191,155.906 184.891 C 155.294 185.813,154.157 185.892,139.955 185.990 C 138.632 185.999,138.527 186.084,138.702 187.000 C 138.883 187.944,139.038 188.000,141.483 188.000 C 143.621 188.000,144.189 188.145,144.744 188.830 C 145.536 189.808,150.279 189.580,150.677 188.545 C 150.824 188.162,151.674 187.998,153.543 187.995 C 156.877 187.988,157.910 187.714,158.214 186.757 C 158.363 186.288,158.824 186.000,159.427 186.000 C 160.133 186.000,160.400 185.781,160.400 185.200 C 160.400 184.520,160.667 184.400,162.172 184.400 C 163.705 184.400,163.962 184.279,164.072 183.500 C 164.176 182.772,164.494 182.576,165.744 182.473 C 166.844 182.383,167.345 182.133,167.482 181.607 C 167.589 181.200,168.109 180.759,168.638 180.626 C 169.249 180.473,169.600 180.096,169.600 179.592 C 169.600 179.150,169.869 178.800,170.209 178.800 C 170.543 178.800,171.015 178.365,171.257 177.834 C 171.499 177.303,172.036 176.779,172.449 176.671 C 173.029 176.520,173.200 176.103,173.200 174.837 C 173.200 173.358,173.296 173.200,174.200 173.200 C 175.119 173.200,175.200 173.053,175.200 171.400 C 175.200 169.888,175.324 169.600,175.973 169.600 C 176.937 169.600,177.293 168.532,177.143 166.094 C 177.050 164.571,177.160 164.180,177.713 164.074 C 178.697 163.884,178.845 162.842,178.715 157.003 L 178.600 151.807 177.400 151.551 C 176.740 151.410,176.425 151.273,176.700 151.247 C 177.922 151.132,177.069 144.400,175.833 144.400 C 175.428 144.400,175.208 143.872,175.123 142.700 C 175.028 141.387,174.795 140.910,174.100 140.605 C 173.605 140.388,173.200 139.876,173.200 139.468 C 173.200 139.059,172.840 138.631,172.400 138.516 C 171.957 138.400,171.600 137.970,171.600 137.553 C 171.600 137.016,171.313 136.800,170.600 136.800 C 169.808 136.800,169.600 136.598,169.600 135.828 C 169.600 135.124,169.351 134.820,168.700 134.728 C 168.099 134.642,167.839 134.367,167.918 133.900 C 168.003 133.390,167.766 133.200,167.045 133.200 C 166.324 133.200,166.021 132.956,165.928 132.300 C 165.822 131.554,165.513 131.379,164.125 131.278 C 162.753 131.179,162.427 130.998,162.325 130.282 C 162.254 129.787,161.855 129.342,161.404 129.256 C 160.967 129.173,160.371 128.766,160.082 128.352 C 159.635 127.715,159.028 127.600,156.103 127.600 C 153.076 127.600,152.534 127.490,151.695 126.702 C 149.949 125.061,142.400 125.295,142.400 126.990 C 142.400 127.492,141.755 127.600,138.763 127.600 C 135.462 127.600,135.106 127.674,134.916 128.400 C 134.719 129.153,134.291 129.389,133.426 129.223 C 132.415 129.028,131.200 129.675,131.200 130.408 C 131.200 130.990,130.930 131.200,130.181 131.200 C 129.608 131.200,128.756 131.638,128.235 132.200 C 127.725 132.750,126.997 133.200,126.617 133.200 C 126.236 133.200,125.835 133.543,125.726 133.963 C 125.616 134.383,125.183 134.816,124.763 134.926 C 124.304 135.046,123.984 135.498,123.960 136.063 C 123.920 136.996,123.919 136.995,123.644 136.000 C 123.391 135.089,123.146 134.989,120.883 134.881 C 118.728 134.778,118.400 134.659,118.400 133.981 C 118.400 133.336,118.120 133.200,116.791 133.200 C 115.464 133.200,115.103 133.025,114.727 132.200 C 114.345 131.361,113.997 131.200,112.564 131.200 C 111.097 131.200,110.838 131.073,110.728 130.300 C 110.622 129.552,110.313 129.379,108.900 129.277 C 107.526 129.178,107.200 129.005,107.200 128.377 C 107.200 127.725,106.916 127.600,105.428 127.600 C 103.895 127.600,103.638 127.479,103.528 126.700 C 103.422 125.956,103.112 125.779,101.741 125.679 C 100.493 125.588,100.032 125.365,99.879 124.779 C 99.719 124.170,99.324 124.000,98.065 124.000 C 96.701 124.000,96.436 123.863,96.328 123.100 C 96.221 122.348,95.914 122.179,94.456 122.075 C 93.129 121.980,92.663 121.764,92.509 121.175 C 92.321 120.456,91.953 120.327,89.800 120.225 C 89.292 120.201,88.953 119.862,88.872 119.294 C 88.762 118.522,88.502 118.400,86.972 118.400 L 85.200 118.400 85.200 108.200 L 85.200 98.000 87.000 98.000 C 88.533 98.000,88.800 97.881,88.800 97.200 C 88.800 96.620,89.067 96.400,89.771 96.400 C 90.330 96.400,91.075 95.976,91.529 95.400 C 92.008 94.790,92.722 94.400,93.358 94.400 C 94.207 94.400,94.400 94.212,94.400 93.385 C 94.400 92.576,94.583 92.385,95.300 92.447 C 97.298 92.619,98.000 92.405,98.000 91.623 C 98.000 90.995,98.326 90.822,99.700 90.723 C 101.113 90.621,101.422 90.448,101.528 89.700 C 101.620 89.049,101.924 88.800,102.628 88.800 C 103.333 88.800,103.600 88.581,103.600 88.000 C 103.600 87.319,103.867 87.200,105.400 87.200 C 107.053 87.200,107.200 87.119,107.200 86.200 C 107.200 85.284,107.349 85.200,108.972 85.200 C 110.502 85.200,110.762 85.078,110.872 84.306 C 110.953 83.738,111.292 83.399,111.800 83.375 C 114.186 83.262,114.400 83.182,114.400 82.400 C 114.400 81.853,114.667 81.600,115.242 81.600 C 115.706 81.600,116.439 81.150,116.871 80.600 C 117.517 79.779,118.005 79.600,119.596 79.600 C 120.755 79.600,121.627 79.399,121.767 79.100 C 121.953 78.700,122.047 78.700,122.233 79.100 C 122.362 79.375,122.812 79.600,123.233 79.600 C 123.655 79.600,124.000 79.864,124.000 80.186 C 124.000 80.923,125.232 81.600,126.574 81.600 C 127.333 81.600,127.600 81.808,127.600 82.400 C 127.600 83.179,127.786 83.250,130.158 83.378 C 130.574 83.400,131.063 83.819,131.245 84.309 C 131.543 85.116,131.842 85.200,134.429 85.200 C 136.891 85.200,137.448 85.338,138.473 86.200 C 140.459 87.871,147.600 87.547,147.600 85.786 C 147.600 85.317,148.285 85.200,151.037 85.200 C 154.138 85.200,154.495 85.122,154.684 84.400 C 154.873 83.677,155.554 83.381,156.574 83.577 C 157.585 83.772,158.800 83.125,158.800 82.392 C 158.800 81.796,159.072 81.598,159.900 81.594 C 161.197 81.587,161.764 81.256,162.117 80.300 C 162.259 79.915,162.741 79.600,163.187 79.600 C 163.733 79.600,164.000 79.337,164.000 78.800 C 164.000 78.213,164.267 78.000,165.000 78.000 C 165.550 78.000,165.979 77.865,165.953 77.700 C 165.788 76.657,166.126 76.055,167.000 75.836 C 167.550 75.698,168.000 75.339,168.000 75.039 C 168.000 74.739,168.360 74.399,168.800 74.284 C 169.273 74.160,169.600 73.738,169.600 73.252 C 169.600 72.799,169.952 72.240,170.383 72.009 C 170.813 71.779,171.280 70.979,171.420 70.232 C 171.582 69.368,171.953 68.801,172.438 68.674 C 173.032 68.519,173.200 68.111,173.200 66.828 C 173.200 65.438,173.357 65.121,174.200 64.800 L 175.200 64.420 175.200 55.836 C 175.200 47.210,174.937 45.200,173.810 45.200 C 173.363 45.200,173.200 44.763,173.200 43.563 C 173.200 42.262,173.036 41.882,172.400 41.716 C 171.828 41.566,171.600 41.170,171.600 40.327 C 171.600 38.848,170.953 37.600,170.186 37.600 C 169.864 37.600,169.600 37.240,169.600 36.800 C 169.600 36.276,169.333 36.000,168.828 36.000 C 168.332 36.000,168.010 35.678,167.928 35.100 C 167.847 34.530,167.479 34.154,166.925 34.075 C 166.379 33.998,166.002 33.621,165.925 33.075 C 165.846 32.521,165.470 32.153,164.900 32.072 C 164.322 31.990,164.000 31.668,164.000 31.172 C 164.000 30.701,163.725 30.400,163.295 30.400 C 162.907 30.400,162.412 29.995,162.195 29.500 C 161.890 28.805,161.413 28.572,160.100 28.477 C 158.726 28.378,158.400 28.205,158.400 27.577 C 158.400 26.925,158.116 26.800,156.628 26.800 C 155.095 26.800,154.838 26.679,154.728 25.900 L 154.600 25.000 144.173 24.894 C 138.438 24.835,133.623 24.910,133.473 25.060 " stroke="none" fill="#385c7a" fill-rule="evenodd"></path><path id="path3" d="M136.915 28.063 C 136.306 28.672,135.461 28.969,134.121 29.044 C 132.703 29.123,132.056 29.367,131.651 29.976 C 131.349 30.429,130.679 30.800,130.160 30.800 C 129.597 30.800,128.955 31.202,128.563 31.800 C 128.203 32.350,127.722 32.800,127.494 32.800 C 127.266 32.800,126.315 33.610,125.380 34.600 C 124.444 35.590,123.481 36.400,123.240 36.400 C 122.998 36.400,122.800 36.598,122.800 36.840 C 122.800 37.081,122.305 37.787,121.700 38.408 C 119.085 41.091,118.800 41.472,118.800 42.291 C 118.800 42.766,118.468 43.390,118.063 43.677 C 117.548 44.043,117.253 44.921,117.084 46.600 C 116.901 48.401,116.636 49.137,116.020 49.549 C 114.828 50.346,114.769 60.142,115.948 61.646 C 117.941 64.189,117.700 70.000,115.600 70.000 C 115.214 70.000,114.675 70.269,114.402 70.597 C 114.130 70.926,113.211 71.382,112.360 71.611 C 111.510 71.840,110.624 72.381,110.393 72.814 C 110.161 73.246,109.627 73.600,109.207 73.600 C 108.786 73.600,107.968 74.039,107.389 74.575 C 106.810 75.111,105.823 75.663,105.196 75.801 C 104.569 75.939,103.841 76.310,103.579 76.626 C 103.317 76.942,102.878 77.200,102.605 77.200 C 102.332 77.200,101.679 77.537,101.154 77.948 C 100.629 78.359,99.634 78.819,98.941 78.971 C 98.249 79.122,97.366 79.595,96.979 80.023 C 96.593 80.450,95.882 80.800,95.400 80.800 C 94.918 80.800,94.198 81.160,93.800 81.600 C 93.402 82.040,92.689 82.400,92.216 82.400 C 91.743 82.400,90.745 82.850,90.000 83.400 C 89.255 83.950,88.270 84.400,87.811 84.400 C 87.353 84.400,86.670 84.760,86.293 85.200 C 85.916 85.640,85.260 86.000,84.835 86.000 C 84.409 86.000,83.527 86.450,82.873 87.000 C 82.170 87.592,81.183 88.000,80.456 88.000 C 79.638 88.000,79.085 88.267,78.800 88.800 C 78.167 89.983,74.025 89.983,73.716 88.800 C 73.601 88.360,73.282 88.000,73.008 88.000 C 72.734 88.000,71.831 87.460,71.000 86.800 C 70.169 86.140,69.335 85.600,69.145 85.600 C 68.955 85.600,68.440 85.240,68.000 84.800 C 67.560 84.360,66.847 84.000,66.416 84.000 C 65.984 84.000,65.309 83.663,64.916 83.250 C 64.378 82.688,63.440 82.454,61.150 82.314 C 58.968 82.180,57.701 81.881,56.702 81.263 C 54.970 80.193,52.877 80.163,50.652 81.176 C 49.663 81.627,47.888 81.991,46.422 82.044 C 44.409 82.117,43.691 82.325,42.889 83.068 C 42.323 83.592,41.383 84.000,40.739 84.000 C 40.017 84.000,39.274 84.369,38.725 85.000 C 38.247 85.550,37.625 86.000,37.342 86.000 C 37.059 86.000,36.635 86.360,36.400 86.800 C 36.165 87.240,35.753 87.601,35.486 87.602 C 34.729 87.606,30.800 91.397,30.800 92.124 C 30.800 92.480,30.459 92.954,30.042 93.177 C 29.625 93.401,29.095 94.127,28.863 94.792 C 28.631 95.456,28.259 96.000,28.036 96.000 C 27.813 96.000,27.427 96.758,27.177 97.684 C 26.928 98.610,26.467 99.555,26.154 99.784 C 25.840 100.014,25.431 101.101,25.246 102.201 C 25.060 103.300,24.615 104.740,24.257 105.400 C 23.252 107.250,23.342 113.730,24.400 115.704 C 24.845 116.535,25.200 117.961,25.200 118.921 C 25.200 120.131,25.498 121.048,26.200 122.000 C 26.750 122.745,27.200 123.653,27.200 124.016 C 27.200 124.379,27.560 125.002,28.000 125.400 C 28.440 125.798,28.800 126.349,28.800 126.624 C 28.800 127.356,33.645 132.240,34.700 132.571 C 35.196 132.727,35.787 133.202,36.014 133.627 C 36.242 134.052,36.775 134.400,37.200 134.400 C 37.625 134.400,38.153 134.739,38.375 135.153 C 38.602 135.577,39.434 136.030,40.276 136.188 C 41.099 136.342,42.000 136.793,42.277 137.189 C 42.656 137.730,43.455 137.947,45.499 138.062 C 47.700 138.187,48.396 138.396,49.163 139.163 C 50.307 140.307,55.670 140.170,57.534 138.949 C 58.118 138.567,59.708 138.200,61.266 138.088 C 63.422 137.934,64.027 137.746,64.208 137.175 C 64.334 136.777,65.009 136.330,65.718 136.175 C 66.423 136.021,67.396 135.469,67.881 134.948 C 68.365 134.426,69.040 134.000,69.381 134.000 C 69.721 134.000,70.000 133.736,70.000 133.414 C 70.000 133.092,70.405 132.614,70.900 132.352 C 72.153 131.689,73.585 130.293,73.593 129.727 C 73.597 129.467,73.970 129.136,74.423 128.993 C 74.876 128.849,75.420 128.274,75.632 127.715 C 76.105 126.472,78.208 126.608,79.570 127.970 C 80.026 128.426,80.810 128.800,81.311 128.800 C 81.812 128.800,82.530 129.160,82.907 129.600 C 83.284 130.040,84.018 130.400,84.538 130.400 C 85.058 130.400,85.969 130.850,86.562 131.400 C 87.182 131.974,88.121 132.400,88.767 132.400 C 89.386 132.400,90.350 132.760,90.909 133.200 C 91.469 133.640,92.305 134.000,92.767 134.000 C 93.229 134.000,93.916 134.360,94.293 134.800 C 94.670 135.240,95.454 135.600,96.035 135.600 C 96.616 135.600,97.552 135.962,98.114 136.404 C 98.675 136.845,99.735 137.323,100.468 137.466 C 101.200 137.608,102.229 138.056,102.754 138.462 C 103.279 138.868,104.222 139.200,104.851 139.200 C 105.560 139.200,106.183 139.503,106.493 140.000 C 106.768 140.440,107.285 140.800,107.642 140.800 C 107.999 140.800,108.765 141.274,109.345 141.854 C 110.270 142.780,110.618 142.879,112.176 142.665 C 113.733 142.452,113.985 142.524,114.214 143.245 C 114.413 143.870,114.700 144.012,115.407 143.834 C 116.057 143.671,116.699 143.904,117.531 144.603 L 118.723 145.607 119.784 144.346 C 120.513 143.479,120.716 142.956,120.432 142.672 C 120.149 142.389,120.404 142.026,121.249 141.512 L 122.478 140.764 121.439 139.801 C 120.868 139.272,120.400 138.646,120.400 138.411 C 120.400 138.167,120.010 138.083,119.487 138.214 C 118.888 138.364,118.079 138.106,117.129 137.461 C 116.333 136.922,115.259 136.347,114.741 136.185 C 114.224 136.023,113.390 135.570,112.888 135.178 C 112.387 134.787,111.259 134.345,110.383 134.197 C 109.423 134.035,108.627 133.624,108.381 133.164 C 108.156 132.744,107.740 132.400,107.456 132.400 C 107.172 132.400,106.517 131.950,106.000 131.400 C 105.483 130.850,104.652 130.400,104.153 130.400 C 103.654 130.400,102.999 130.049,102.698 129.619 C 102.397 129.189,101.380 128.665,100.437 128.453 C 99.494 128.241,98.373 127.692,97.946 127.234 C 97.518 126.775,96.826 126.400,96.407 126.400 C 95.988 126.400,95.406 126.058,95.113 125.640 C 94.820 125.222,93.820 124.675,92.890 124.424 C 91.961 124.174,91.200 123.730,91.200 123.437 C 91.200 123.122,90.567 122.820,89.644 122.697 C 88.788 122.582,87.708 122.108,87.244 121.644 C 86.768 121.168,85.887 120.800,85.222 120.800 C 84.448 120.800,83.552 120.349,82.608 119.484 L 81.171 118.167 82.016 116.257 C 83.151 113.692,83.067 104.207,81.900 103.042 C 80.964 102.107,80.964 99.402,81.900 98.602 C 82.285 98.273,83.212 97.463,83.959 96.802 C 84.707 96.141,85.642 95.600,86.037 95.600 C 86.432 95.600,86.990 95.285,87.277 94.900 C 87.935 94.019,90.710 92.166,91.900 91.813 C 92.396 91.666,92.987 91.198,93.214 90.773 C 93.442 90.348,93.864 90.000,94.152 90.000 C 94.440 90.000,95.199 89.550,95.838 89.000 C 96.477 88.451,97.221 88.001,97.491 88.000 C 97.761 88.000,98.278 87.548,98.640 86.995 C 99.002 86.443,99.731 85.882,100.260 85.749 C 100.788 85.617,101.403 85.169,101.625 84.754 C 101.847 84.339,102.427 83.997,102.914 83.994 C 103.970 83.987,104.449 83.673,105.044 82.600 C 105.288 82.160,105.887 81.800,106.376 81.800 C 106.865 81.800,107.498 81.480,107.784 81.090 C 108.101 80.656,108.877 80.358,109.773 80.324 C 110.749 80.287,111.374 80.022,111.635 79.534 C 111.851 79.130,112.437 78.800,112.936 78.800 C 113.436 78.800,114.455 78.350,115.200 77.800 C 115.945 77.250,116.916 76.800,117.356 76.800 C 117.796 76.800,118.635 76.341,119.221 75.780 C 120.449 74.603,123.288 74.950,124.637 76.441 C 125.015 76.859,125.538 77.200,125.800 77.200 C 126.062 77.200,126.602 77.560,127.000 78.000 C 127.398 78.440,128.014 78.800,128.368 78.800 C 128.722 78.800,129.654 79.144,130.438 79.564 C 132.598 80.722,135.663 80.995,137.257 80.170 C 138.341 79.610,139.214 79.539,142.328 79.758 C 144.810 79.932,146.268 79.876,146.611 79.591 C 146.897 79.354,148.047 79.083,149.166 78.988 C 150.286 78.894,151.656 78.520,152.211 78.156 C 152.947 77.674,153.698 77.560,154.976 77.735 C 156.992 78.011,160.193 77.106,161.316 75.942 C 161.709 75.534,162.191 75.200,162.387 75.200 C 162.731 75.200,164.819 73.177,167.500 70.245 C 168.249 69.425,168.800 68.394,168.800 67.811 C 168.800 67.255,169.132 66.468,169.537 66.063 C 169.942 65.658,170.393 64.456,170.539 63.393 C 170.685 62.329,171.168 60.842,171.614 60.087 C 172.956 57.812,173.235 50.315,172.026 49.027 C 171.447 48.412,171.083 47.454,171.001 46.336 C 170.932 45.381,170.858 44.396,170.837 44.147 C 170.817 43.897,170.440 43.599,170.000 43.484 C 169.426 43.334,169.200 42.938,169.200 42.083 C 169.200 41.254,168.896 40.693,168.200 40.237 C 167.650 39.876,167.200 39.322,167.200 39.005 C 167.200 38.688,166.852 38.242,166.427 38.014 C 166.002 37.787,165.540 37.241,165.400 36.800 C 165.260 36.360,164.888 36.000,164.573 36.000 C 164.258 36.000,164.000 35.724,164.000 35.387 C 164.000 35.051,163.685 34.659,163.300 34.518 C 162.915 34.377,162.240 33.926,161.800 33.515 C 159.714 31.568,158.644 30.829,157.568 30.593 C 156.926 30.452,156.400 30.098,156.400 29.806 C 156.400 29.468,155.636 29.172,154.300 28.992 C 153.096 28.830,151.905 28.399,151.510 27.982 C 150.356 26.765,138.145 26.833,136.915 28.063 M149.213 28.547 C 150.210 28.891,152.055 29.293,153.313 29.441 C 154.571 29.589,155.600 29.863,155.600 30.050 C 155.600 30.236,156.185 30.637,156.900 30.939 C 157.615 31.242,158.543 31.874,158.962 32.345 C 159.381 32.815,159.935 33.200,160.193 33.200 C 161.388 33.200,168.800 41.324,168.800 42.634 C 168.800 43.097,169.135 43.779,169.544 44.150 C 170.041 44.599,170.374 45.638,170.544 47.271 C 170.685 48.617,171.003 49.962,171.250 50.260 C 172.639 51.934,170.336 62.460,168.173 64.324 C 167.371 65.014,167.080 65.664,167.020 66.899 C 166.966 68.022,166.705 68.686,166.205 68.975 C 165.801 69.209,165.153 69.701,164.765 70.070 C 163.915 70.878,162.962 71.057,161.525 70.680 C 160.786 70.486,160.036 70.633,159.125 71.152 C 158.396 71.567,156.836 72.011,155.658 72.139 C 154.479 72.267,153.309 72.535,153.058 72.734 C 152.806 72.933,151.924 73.217,151.098 73.366 C 150.093 73.547,149.308 74.027,148.723 74.818 C 147.706 76.194,146.780 76.298,145.047 75.234 C 143.878 74.515,143.700 74.507,142.200 75.096 C 141.305 75.448,139.103 75.769,137.200 75.826 C 134.394 75.910,133.485 76.108,132.000 76.959 C 129.940 78.139,129.200 78.256,129.200 77.400 C 129.200 77.046,128.831 76.798,128.300 76.794 C 127.296 76.788,126.641 76.451,123.542 74.345 C 122.364 73.545,120.995 72.768,120.501 72.619 C 119.956 72.454,119.514 71.923,119.378 71.273 C 119.255 70.683,118.968 69.480,118.739 68.600 C 118.510 67.720,118.067 65.560,117.756 63.800 C 117.444 62.040,116.977 60.240,116.719 59.800 C 115.932 58.461,115.985 54.237,116.827 51.199 C 117.252 49.665,117.600 47.715,117.600 46.866 C 117.600 45.897,117.898 44.979,118.400 44.400 C 118.840 43.893,119.200 43.260,119.200 42.994 C 119.200 41.417,129.378 31.200,130.948 31.200 C 131.239 31.200,131.782 30.862,132.157 30.448 C 132.610 29.947,133.564 29.636,135.012 29.516 C 136.224 29.415,137.504 29.049,137.902 28.689 C 139.110 27.595,146.196 27.506,149.213 28.547 M56.680 82.378 C 57.736 82.586,59.476 82.849,60.546 82.963 C 61.617 83.076,62.877 83.417,63.346 83.721 C 63.816 84.025,64.689 84.394,65.286 84.541 C 66.667 84.881,69.841 87.010,70.144 87.799 C 70.271 88.130,70.834 88.400,71.396 88.400 C 72.077 88.400,72.559 88.710,72.842 89.332 C 73.343 90.432,75.947 91.742,76.583 91.214 C 77.349 90.578,83.274 88.743,83.849 88.964 C 84.156 89.081,84.607 89.616,84.851 90.152 L 85.295 91.127 87.059 90.189 C 88.748 89.291,88.873 89.279,89.986 89.918 C 91.223 90.628,90.939 91.183,89.331 91.194 C 88.290 91.201,86.000 93.031,86.000 93.856 C 86.000 94.178,85.392 94.695,84.649 95.006 C 83.905 95.316,83.190 95.848,83.060 96.189 C 82.929 96.529,82.402 96.999,81.888 97.233 C 80.182 98.010,80.023 99.370,80.909 105.587 C 81.676 110.971,81.684 111.395,81.059 113.986 C 79.813 119.145,80.943 121.600,84.564 121.600 C 85.066 121.600,85.802 121.960,86.200 122.400 C 86.598 122.840,87.141 123.200,87.407 123.200 C 87.673 123.200,88.569 123.740,89.400 124.400 C 90.231 125.060,91.315 125.600,91.809 125.600 C 92.323 125.600,92.985 126.022,93.354 126.586 C 94.083 127.699,94.214 129.200,93.582 129.200 C 93.352 129.200,92.687 129.676,92.105 130.259 C 90.924 131.440,89.143 131.622,88.060 130.673 C 87.697 130.355,86.995 129.971,86.500 129.820 C 86.004 129.669,85.431 129.232,85.226 128.849 C 84.964 128.359,84.281 128.124,82.927 128.058 C 81.598 127.993,80.814 127.730,80.400 127.209 C 79.990 126.694,79.229 126.434,78.000 126.390 C 75.393 126.297,75.200 126.338,75.200 126.990 C 75.200 127.314,74.705 127.840,74.100 128.158 C 73.495 128.476,72.190 129.680,71.200 130.834 C 68.748 133.692,68.421 134.000,67.833 134.000 C 67.553 134.000,67.013 134.344,66.633 134.764 C 66.252 135.184,65.486 135.642,64.930 135.782 C 64.375 135.921,63.443 136.370,62.860 136.780 C 61.514 137.726,51.899 138.598,49.400 138.001 C 48.520 137.791,46.973 137.615,45.962 137.610 C 44.664 137.603,43.919 137.374,43.426 136.829 C 43.043 136.405,42.012 135.937,41.137 135.789 C 40.261 135.641,39.454 135.285,39.343 134.997 C 39.233 134.709,38.615 134.255,37.971 133.988 C 37.327 133.721,36.800 133.348,36.800 133.160 C 36.800 132.971,36.125 132.472,35.300 132.050 C 33.588 131.176,29.200 126.746,29.200 125.892 C 29.200 125.579,28.840 124.998,28.400 124.600 C 27.960 124.202,27.600 123.568,27.600 123.192 C 27.600 122.816,27.266 122.079,26.858 121.554 C 26.418 120.989,25.999 119.547,25.829 118.017 C 25.671 116.597,25.285 114.820,24.971 114.068 C 24.237 112.312,24.250 109.522,25.004 107.036 C 25.332 105.956,25.600 104.326,25.600 103.414 C 25.600 102.273,25.912 101.333,26.600 100.400 C 27.150 99.655,27.600 98.747,27.600 98.384 C 27.600 98.021,27.944 97.413,28.364 97.033 C 28.784 96.652,29.236 95.911,29.368 95.385 C 29.500 94.859,30.011 93.995,30.504 93.466 C 30.997 92.936,31.779 92.044,32.243 91.482 C 33.099 90.444,36.791 87.328,39.083 85.708 C 39.778 85.218,41.070 84.654,41.955 84.455 C 42.840 84.256,43.842 83.815,44.182 83.475 C 44.522 83.136,45.745 82.755,46.900 82.630 C 48.055 82.505,49.540 82.339,50.200 82.261 C 52.656 81.972,54.815 82.011,56.680 82.378 " stroke="none" fill="#3482aa" fill-rule="evenodd"></path><path id="path4" d="M136.341 27.068 C 135.979 27.164,135.594 27.579,135.487 27.990 C 135.379 28.402,134.866 28.818,134.346 28.916 C 133.825 29.015,134.011 29.036,134.757 28.963 C 135.504 28.891,136.508 28.462,136.989 28.010 C 138.284 26.794,150.472 26.808,151.516 28.027 C 151.880 28.452,152.633 28.779,153.189 28.754 C 153.867 28.722,153.969 28.647,153.500 28.524 C 153.115 28.424,152.800 28.104,152.800 27.813 C 152.800 26.889,139.315 26.278,136.341 27.068 M130.825 29.554 C 130.603 29.969,129.972 30.421,129.422 30.559 C 128.873 30.697,128.232 31.167,127.997 31.605 C 127.763 32.042,127.230 32.400,126.813 32.400 C 126.395 32.400,125.949 32.715,125.821 33.100 C 125.693 33.485,125.017 34.081,124.318 34.424 C 123.620 34.767,122.767 35.611,122.424 36.298 C 122.081 36.985,121.485 37.632,121.100 37.736 C 120.704 37.843,120.400 38.305,120.400 38.800 C 120.400 39.338,120.092 39.755,119.600 39.884 C 119.160 39.999,118.800 40.344,118.800 40.650 C 118.800 41.430,120.325 40.466,120.635 39.490 C 120.759 39.099,121.297 38.493,121.830 38.143 C 122.364 37.794,122.800 37.259,122.800 36.954 C 122.800 36.649,122.998 36.400,123.240 36.400 C 123.481 36.400,124.444 35.590,125.380 34.600 C 126.315 33.610,127.266 32.800,127.494 32.800 C 127.722 32.800,128.203 32.350,128.563 31.800 C 128.924 31.250,129.599 30.800,130.063 30.800 C 130.528 30.800,131.325 30.350,131.835 29.800 C 132.697 28.870,132.708 28.800,131.995 28.800 C 131.573 28.800,131.047 29.139,130.825 29.554 M155.300 29.087 C 155.905 29.178,156.400 29.497,156.400 29.795 C 156.400 30.093,156.926 30.452,157.568 30.593 C 158.644 30.829,159.714 31.568,161.800 33.515 C 162.240 33.926,162.915 34.377,163.300 34.518 C 163.685 34.659,164.000 35.051,164.000 35.387 C 164.000 35.724,164.258 36.000,164.573 36.000 C 164.888 36.000,165.260 36.360,165.400 36.800 C 165.540 37.241,166.002 37.787,166.427 38.014 C 166.852 38.242,167.200 38.688,167.200 39.005 C 167.200 39.322,167.650 39.876,168.200 40.237 C 168.896 40.693,169.200 41.254,169.200 42.083 C 169.200 42.928,169.427 43.334,169.979 43.478 C 170.407 43.590,170.836 43.979,170.932 44.341 C 171.055 44.802,171.121 44.738,171.154 44.127 C 171.183 43.579,170.902 43.159,170.400 43.000 C 169.952 42.858,169.600 42.395,169.600 41.947 C 169.600 40.807,168.873 39.600,168.186 39.600 C 167.858 39.600,167.600 39.232,167.600 38.764 C 167.600 38.304,167.060 37.454,166.400 36.875 C 165.740 36.296,165.200 35.588,165.200 35.302 C 165.200 35.017,164.750 34.578,164.200 34.327 C 163.650 34.077,163.200 33.718,163.200 33.529 C 163.200 33.341,162.570 32.887,161.800 32.519 C 161.030 32.152,160.400 31.638,160.400 31.376 C 160.400 31.114,159.883 30.797,159.252 30.670 C 158.549 30.530,158.021 30.123,157.889 29.620 C 157.711 28.939,157.380 28.810,155.937 28.860 C 154.747 28.901,154.546 28.972,155.300 29.087 M118.446 42.004 C 118.421 42.336,118.040 42.832,117.600 43.107 C 116.972 43.499,116.800 44.040,116.800 45.616 C 116.800 47.164,116.639 47.684,116.100 47.883 C 114.896 48.328,114.812 48.831,114.812 55.600 C 114.811 62.953,114.938 63.838,116.037 64.126 C 117.963 64.629,116.769 69.020,114.595 69.427 C 113.824 69.572,113.200 69.929,113.200 70.226 C 113.200 70.525,112.572 70.881,111.790 71.028 C 111.015 71.174,110.160 71.604,109.890 71.985 C 109.621 72.367,108.735 72.802,107.923 72.953 C 106.958 73.132,106.359 73.500,106.196 74.014 C 106.030 74.536,105.585 74.802,104.873 74.806 C 103.602 74.813,103.034 75.149,102.683 76.100 C 102.519 76.545,102.005 76.800,101.275 76.800 C 100.632 76.800,99.804 77.153,99.400 77.600 C 99.002 78.040,98.379 78.400,98.016 78.400 C 97.653 78.400,96.745 78.850,96.000 79.400 C 95.255 79.950,94.360 80.400,94.011 80.400 C 93.663 80.400,93.070 80.760,92.693 81.200 C 92.316 81.640,91.554 82.000,91.000 82.000 C 90.446 82.000,89.680 82.365,89.298 82.811 C 88.916 83.257,87.943 83.728,87.136 83.857 C 86.159 84.013,85.604 84.343,85.472 84.846 C 85.333 85.378,84.914 85.600,84.047 85.600 C 83.178 85.600,82.627 85.893,82.163 86.600 C 81.672 87.349,81.159 87.600,80.117 87.600 C 79.062 87.600,78.675 87.793,78.516 88.400 C 78.339 89.075,77.970 89.200,76.153 89.200 C 74.267 89.200,74.000 89.101,74.000 88.400 C 74.000 87.863,73.733 87.600,73.190 87.600 C 72.694 87.600,72.233 87.212,72.000 86.600 C 71.760 85.968,71.308 85.600,70.772 85.600 C 70.276 85.600,69.843 85.285,69.726 84.840 C 69.584 84.297,69.025 84.005,67.764 83.815 C 66.416 83.613,66.000 83.378,66.000 82.818 C 66.000 82.182,65.587 82.066,62.900 81.942 C 60.288 81.822,59.652 81.652,58.858 80.858 C 57.666 79.665,49.504 79.659,48.140 80.849 C 47.733 81.205,47.130 81.595,46.800 81.716 C 46.470 81.838,46.830 81.945,47.600 81.955 C 48.370 81.965,49.720 81.625,50.600 81.200 C 52.733 80.169,54.970 80.193,56.702 81.263 C 57.701 81.881,58.968 82.180,61.150 82.314 C 63.440 82.454,64.378 82.688,64.916 83.250 C 65.309 83.663,65.984 84.000,66.416 84.000 C 66.847 84.000,67.560 84.360,68.000 84.800 C 68.440 85.240,68.955 85.600,69.145 85.600 C 69.335 85.600,70.169 86.140,71.000 86.800 C 71.831 87.460,72.734 88.000,73.008 88.000 C 73.282 88.000,73.601 88.360,73.716 88.800 C 73.893 89.479,74.262 89.600,76.148 89.600 C 77.962 89.600,78.451 89.453,78.800 88.800 C 79.085 88.267,79.638 88.000,80.456 88.000 C 81.183 88.000,82.170 87.592,82.873 87.000 C 83.527 86.450,84.409 86.000,84.835 86.000 C 85.260 86.000,85.916 85.640,86.293 85.200 C 86.670 84.760,87.353 84.400,87.811 84.400 C 88.270 84.400,89.255 83.950,90.000 83.400 C 90.745 82.850,91.743 82.400,92.216 82.400 C 92.689 82.400,93.402 82.040,93.800 81.600 C 94.198 81.160,94.918 80.800,95.400 80.800 C 95.882 80.800,96.593 80.450,96.979 80.023 C 97.366 79.595,98.249 79.122,98.941 78.971 C 99.634 78.819,100.629 78.359,101.154 77.948 C 101.679 77.537,102.332 77.200,102.605 77.200 C 102.878 77.200,103.317 76.942,103.579 76.626 C 103.841 76.310,104.569 75.939,105.196 75.801 C 105.823 75.663,106.810 75.111,107.389 74.575 C 107.968 74.039,108.786 73.600,109.207 73.600 C 109.627 73.600,110.161 73.246,110.393 72.814 C 110.624 72.381,111.510 71.840,112.360 71.611 C 113.211 71.382,114.130 70.926,114.402 70.597 C 114.675 70.269,115.214 70.000,115.600 70.000 C 117.700 70.000,117.941 64.189,115.948 61.646 C 114.769 60.142,114.828 50.346,116.020 49.549 C 116.635 49.138,116.902 48.400,117.086 46.611 C 117.257 44.935,117.563 44.035,118.110 43.591 C 118.584 43.207,118.812 42.655,118.691 42.180 C 118.569 41.702,118.475 41.633,118.446 42.004 M171.048 46.800 C 171.179 47.570,171.655 48.601,172.105 49.091 C 173.236 50.324,172.897 57.911,171.614 60.087 C 171.168 60.842,170.685 62.329,170.539 63.393 C 170.393 64.456,169.942 65.658,169.537 66.063 C 169.132 66.468,168.800 67.255,168.800 67.811 C 168.800 68.394,168.249 69.425,167.500 70.245 C 164.819 73.177,162.731 75.200,162.387 75.200 C 162.191 75.200,161.709 75.534,161.316 75.942 C 160.193 77.106,156.992 78.011,154.976 77.735 C 153.698 77.560,152.947 77.674,152.211 78.156 C 151.656 78.520,150.286 78.894,149.166 78.988 C 148.047 79.083,146.897 79.354,146.611 79.591 C 146.268 79.876,144.810 79.932,142.328 79.758 C 139.214 79.539,138.341 79.610,137.257 80.170 C 135.663 80.995,132.598 80.722,130.438 79.564 C 129.654 79.144,128.722 78.800,128.368 78.800 C 128.014 78.800,127.398 78.440,127.000 78.000 C 126.602 77.560,126.062 77.200,125.800 77.200 C 125.538 77.200,125.015 76.859,124.637 76.441 C 123.288 74.950,120.449 74.603,119.221 75.780 C 118.635 76.341,117.796 76.800,117.356 76.800 C 116.916 76.800,115.945 77.250,115.200 77.800 C 114.455 78.350,113.436 78.800,112.936 78.800 C 112.437 78.800,111.851 79.130,111.635 79.534 C 111.374 80.022,110.749 80.287,109.773 80.324 C 108.877 80.358,108.101 80.656,107.784 81.090 C 107.498 81.480,106.865 81.800,106.376 81.800 C 105.887 81.800,105.288 82.160,105.044 82.600 C 104.449 83.673,103.970 83.987,102.914 83.994 C 102.427 83.997,101.847 84.339,101.625 84.754 C 101.403 85.169,100.788 85.617,100.260 85.749 C 99.731 85.882,99.002 86.443,98.640 86.995 C 98.278 87.548,97.761 88.000,97.491 88.000 C 97.221 88.001,96.477 88.451,95.838 89.000 C 95.199 89.550,94.440 90.000,94.152 90.000 C 93.864 90.000,93.442 90.348,93.214 90.773 C 92.987 91.198,92.396 91.666,91.900 91.813 C 90.710 92.166,87.935 94.019,87.277 94.900 C 86.990 95.285,86.432 95.600,86.037 95.600 C 85.642 95.600,84.707 96.141,83.959 96.802 C 83.212 97.463,82.285 98.273,81.900 98.602 C 81.454 98.983,81.200 99.769,81.200 100.771 C 81.200 101.735,81.471 102.613,81.900 103.042 C 83.067 104.207,83.151 113.692,82.016 116.257 L 81.171 118.167 82.608 119.484 C 83.552 120.349,84.448 120.800,85.222 120.800 C 85.887 120.800,86.768 121.168,87.244 121.644 C 87.708 122.108,88.788 122.582,89.644 122.697 C 90.567 122.820,91.200 123.122,91.200 123.437 C 91.200 123.730,91.961 124.174,92.890 124.424 C 93.820 124.675,94.820 125.222,95.113 125.640 C 95.406 126.058,95.988 126.400,96.407 126.400 C 96.826 126.400,97.518 126.775,97.946 127.234 C 98.373 127.692,99.494 128.241,100.437 128.453 C 101.380 128.665,102.397 129.189,102.698 129.619 C 102.999 130.049,103.654 130.400,104.153 130.400 C 104.652 130.400,105.483 130.850,106.000 131.400 C 106.517 131.950,107.172 132.400,107.456 132.400 C 107.740 132.400,108.156 132.744,108.381 133.164 C 108.627 133.624,109.423 134.035,110.383 134.197 C 111.259 134.345,112.387 134.787,112.888 135.178 C 113.390 135.570,114.224 136.023,114.741 136.185 C 115.259 136.347,116.333 136.922,117.129 137.461 C 118.055 138.090,118.893 138.363,119.460 138.221 C 120.111 138.057,120.413 138.211,120.600 138.800 C 120.882 139.689,122.400 140.713,122.400 140.014 C 122.400 139.786,122.216 139.600,121.991 139.600 C 121.767 139.600,121.378 139.150,121.127 138.600 C 120.791 137.863,120.362 137.600,119.494 137.600 C 118.821 137.600,117.806 137.171,117.127 136.600 C 116.473 136.050,115.523 135.600,115.015 135.600 C 114.472 135.600,113.822 135.189,113.437 134.600 C 112.987 133.913,112.418 133.600,111.619 133.600 C 110.980 133.600,110.201 133.343,109.887 133.030 C 109.573 132.716,108.660 132.185,107.858 131.850 C 107.056 131.515,106.400 130.977,106.400 130.656 C 106.400 130.287,105.822 129.973,104.839 129.807 C 103.770 129.626,103.215 129.300,103.077 128.771 C 102.920 128.173,102.519 128.000,101.283 128.000 C 100.027 128.000,99.554 127.789,99.037 127.000 C 98.581 126.304,98.020 126.000,97.191 126.000 C 96.536 126.000,96.000 125.833,96.000 125.629 C 96.000 124.875,94.710 124.000,93.598 124.000 C 92.805 124.000,92.376 123.754,92.200 123.200 C 92.002 122.577,91.595 122.400,90.360 122.400 C 89.215 122.400,88.703 122.206,88.517 121.700 C 88.157 120.726,87.595 120.413,86.189 120.406 C 85.523 120.403,84.695 120.085,84.350 119.700 C 84.005 119.315,83.421 118.820,83.053 118.600 C 82.496 118.267,82.452 117.967,82.792 116.803 C 83.614 113.986,83.314 102.878,82.400 102.307 C 81.414 101.691,81.254 99.200,82.200 99.200 C 82.530 99.200,82.800 98.930,82.800 98.600 C 82.800 98.228,83.177 98.000,83.792 98.000 C 84.517 98.000,84.852 97.731,85.036 97.000 C 85.242 96.177,85.529 96.000,86.653 96.000 C 87.743 96.000,88.097 95.797,88.400 95.000 C 88.685 94.250,89.071 94.000,89.943 94.000 C 90.738 94.000,91.168 93.766,91.300 93.261 C 91.412 92.831,91.997 92.421,92.695 92.281 C 93.447 92.131,93.976 91.734,94.111 91.220 C 94.252 90.679,94.654 90.400,95.290 90.400 C 95.822 90.400,96.647 89.950,97.125 89.400 C 97.603 88.850,98.260 88.400,98.583 88.400 C 98.907 88.400,99.357 88.055,99.583 87.633 C 99.809 87.210,100.536 86.746,101.200 86.600 C 101.864 86.454,102.580 86.011,102.792 85.614 C 103.005 85.218,103.811 84.774,104.584 84.629 C 105.372 84.482,106.175 84.021,106.409 83.583 C 106.640 83.152,107.201 82.800,107.656 82.800 C 108.112 82.800,109.019 82.350,109.673 81.800 C 110.327 81.250,111.213 80.800,111.643 80.800 C 112.073 80.800,112.529 80.529,112.656 80.198 C 112.783 79.867,113.583 79.484,114.432 79.348 C 115.421 79.190,116.059 78.843,116.205 78.383 C 116.351 77.923,117.003 77.568,118.017 77.397 C 118.949 77.240,119.600 76.907,119.600 76.588 C 119.600 75.200,123.753 75.411,124.121 76.818 C 124.237 77.261,124.668 77.600,125.116 77.600 C 125.551 77.600,125.994 77.935,126.102 78.346 C 126.228 78.828,126.817 79.189,127.769 79.368 C 128.579 79.520,129.338 79.893,129.454 80.198 C 129.571 80.502,130.237 80.872,130.933 81.020 C 131.630 81.168,132.474 81.530,132.810 81.825 C 133.256 82.217,134.968 82.366,139.210 82.382 C 142.394 82.394,146.270 82.412,147.822 82.421 C 150.007 82.433,150.866 82.265,151.622 81.675 C 152.160 81.256,153.493 80.780,154.584 80.619 C 155.675 80.458,157.005 79.982,157.538 79.563 C 158.071 79.143,158.892 78.800,159.361 78.800 C 159.830 78.800,161.140 77.990,162.271 77.000 C 163.403 76.010,164.416 75.200,164.522 75.200 C 165.167 75.200,167.245 72.673,167.453 71.637 C 167.617 70.816,167.937 70.400,168.405 70.400 C 168.933 70.400,169.177 69.950,169.379 68.600 C 169.544 67.503,169.857 66.800,170.182 66.800 C 170.855 66.800,171.200 65.912,171.200 64.183 C 171.200 63.296,171.510 62.543,172.100 61.993 C 173.456 60.730,173.776 48.076,172.461 47.732 C 172.009 47.614,171.452 47.041,171.224 46.458 C 170.846 45.492,170.830 45.522,171.048 46.800 M42.116 82.800 C 41.983 83.310,41.570 83.600,40.979 83.600 C 39.537 83.600,38.000 84.317,38.000 84.990 C 38.000 85.329,37.652 85.600,37.218 85.600 C 36.788 85.600,35.986 86.050,35.436 86.600 C 34.886 87.150,34.064 87.600,33.608 87.600 C 33.093 87.600,32.637 87.978,32.400 88.600 C 32.191 89.150,31.760 89.600,31.442 89.600 C 31.123 89.600,30.744 90.146,30.596 90.819 C 30.449 91.490,29.984 92.253,29.564 92.515 C 29.144 92.778,28.800 93.301,28.800 93.677 C 28.800 94.259,28.950 94.222,29.800 93.435 C 30.350 92.925,30.800 92.276,30.800 91.992 C 30.800 91.361,34.808 87.606,35.486 87.602 C 35.753 87.601,36.165 87.240,36.400 86.800 C 36.635 86.360,37.059 86.000,37.342 86.000 C 37.625 86.000,38.247 85.550,38.725 85.000 C 39.274 84.369,40.017 84.000,40.739 84.000 C 41.405 84.000,42.334 83.582,42.962 83.000 C 43.991 82.046,44.002 82.000,43.183 82.000 C 42.662 82.000,42.243 82.314,42.116 82.800 M27.280 95.280 C 27.016 95.544,26.800 96.333,26.800 97.033 C 26.800 97.970,26.589 98.362,26.000 98.516 C 25.394 98.674,25.206 99.049,25.225 100.063 C 25.248 101.265,25.287 101.309,25.612 100.500 C 25.811 100.005,26.139 99.600,26.340 99.600 C 26.541 99.600,26.904 98.810,27.147 97.845 C 27.390 96.880,27.861 95.985,28.194 95.857 C 28.528 95.730,28.800 95.439,28.800 95.213 C 28.800 94.650,27.868 94.692,27.280 95.280 M24.200 102.889 C 22.970 104.067,22.743 116.337,23.930 117.460 C 24.361 117.867,24.802 118.560,24.910 119.000 C 25.040 119.525,25.123 119.352,25.154 118.499 C 25.179 117.783,24.840 116.525,24.400 115.704 C 23.236 113.532,23.249 107.243,24.423 105.054 C 25.505 103.034,25.374 101.764,24.200 102.889 M25.200 121.760 C 25.200 122.516,25.443 122.938,25.954 123.072 C 26.467 123.206,26.788 123.767,26.957 124.822 C 27.111 125.786,27.508 126.537,28.003 126.801 C 28.468 127.050,28.800 127.639,28.800 128.214 C 28.800 128.933,29.016 129.200,29.600 129.200 C 30.133 129.200,30.400 129.467,30.400 130.000 C 30.400 130.537,30.667 130.800,31.210 130.800 C 31.706 130.800,32.167 131.188,32.400 131.800 C 32.640 132.432,33.092 132.800,33.628 132.800 C 34.125 132.800,34.557 133.115,34.674 133.562 C 34.800 134.041,35.364 134.417,36.193 134.572 C 37.042 134.732,37.585 135.101,37.718 135.610 C 37.863 136.161,38.269 136.402,39.063 136.406 C 40.515 136.414,41.378 136.960,41.097 137.693 C 40.924 138.143,41.362 138.286,43.138 138.358 C 44.663 138.419,45.661 138.686,46.200 139.175 C 46.642 139.576,47.885 139.994,48.978 140.110 C 50.474 140.268,50.767 140.220,50.178 139.910 C 49.750 139.685,49.171 139.214,48.892 138.863 C 48.541 138.422,47.520 138.176,45.583 138.067 C 43.461 137.947,42.659 137.734,42.277 137.189 C 42.000 136.793,41.099 136.342,40.276 136.188 C 39.434 136.030,38.602 135.577,38.375 135.153 C 38.153 134.739,37.625 134.400,37.200 134.400 C 36.775 134.400,36.242 134.052,36.014 133.627 C 35.787 133.202,35.196 132.727,34.700 132.571 C 33.645 132.240,28.800 127.356,28.800 126.624 C 28.800 126.349,28.440 125.798,28.000 125.400 C 27.560 125.002,27.200 124.379,27.200 124.016 C 27.200 123.653,26.750 122.745,26.200 122.000 L 25.200 120.645 25.200 121.760 M75.632 127.715 C 75.420 128.274,74.876 128.849,74.423 128.993 C 73.970 129.136,73.597 129.467,73.593 129.727 C 73.585 130.293,72.153 131.689,70.900 132.352 C 70.405 132.614,70.000 133.092,70.000 133.414 C 70.000 133.736,69.721 134.000,69.381 134.000 C 69.040 134.000,68.365 134.428,67.880 134.952 C 67.395 135.475,66.638 135.994,66.199 136.105 C 65.679 136.237,65.868 136.323,66.737 136.354 C 67.737 136.388,68.125 136.209,68.273 135.643 C 68.390 135.195,68.961 134.788,69.672 134.646 C 70.416 134.497,70.954 134.098,71.085 133.598 C 71.201 133.154,71.730 132.682,72.262 132.549 C 72.793 132.415,73.496 131.787,73.824 131.153 C 74.152 130.519,74.566 130.000,74.743 130.000 C 74.920 130.000,75.304 129.553,75.596 129.007 C 76.259 127.769,77.590 127.282,78.053 128.108 C 78.237 128.438,79.182 128.826,80.152 128.972 C 81.434 129.164,81.972 129.450,82.121 130.018 C 82.276 130.613,82.673 130.800,83.775 130.800 C 84.791 130.800,85.302 131.010,85.483 131.500 C 85.857 132.513,86.411 132.787,88.100 132.794 C 89.331 132.799,89.600 132.943,89.600 133.600 C 89.600 134.262,89.867 134.400,91.151 134.400 C 92.264 134.400,92.857 134.630,93.251 135.213 C 93.579 135.698,94.446 136.128,95.400 136.278 C 96.280 136.416,97.235 136.860,97.523 137.265 C 97.825 137.690,98.536 138.000,99.207 138.000 C 99.846 138.000,100.691 138.334,101.084 138.743 C 101.478 139.152,102.520 139.596,103.400 139.730 C 104.362 139.877,105.219 140.298,105.549 140.787 C 105.853 141.237,106.539 141.600,107.086 141.600 C 107.717 141.600,108.146 141.872,108.272 142.352 C 108.415 142.902,108.945 143.157,110.250 143.305 C 111.230 143.415,112.354 143.797,112.748 144.153 C 113.141 144.509,114.084 144.800,114.842 144.800 C 115.601 144.800,116.610 145.072,117.085 145.404 C 118.352 146.292,118.598 145.414,117.356 144.437 C 116.674 143.900,115.982 143.690,115.389 143.838 C 114.702 144.011,114.411 143.864,114.214 143.245 C 113.985 142.524,113.733 142.452,112.176 142.665 C 110.618 142.879,110.270 142.780,109.345 141.854 C 108.765 141.274,107.999 140.800,107.642 140.800 C 107.285 140.800,106.768 140.440,106.493 140.000 C 106.183 139.503,105.560 139.200,104.851 139.200 C 104.222 139.200,103.279 138.868,102.754 138.462 C 102.229 138.056,101.200 137.608,100.468 137.466 C 99.735 137.323,98.675 136.845,98.114 136.404 C 97.552 135.962,96.616 135.600,96.035 135.600 C 95.454 135.600,94.670 135.240,94.293 134.800 C 93.916 134.360,93.229 134.000,92.767 134.000 C 92.305 134.000,91.469 133.640,90.909 133.200 C 90.350 132.760,89.386 132.400,88.767 132.400 C 88.121 132.400,87.182 131.974,86.562 131.400 C 85.969 130.850,85.058 130.400,84.538 130.400 C 84.018 130.400,83.284 130.040,82.907 129.600 C 82.530 129.160,81.812 128.800,81.311 128.800 C 80.810 128.800,80.026 128.426,79.570 127.970 C 78.208 126.608,76.105 126.472,75.632 127.715 M64.217 137.147 C 64.025 137.753,63.461 137.931,61.239 138.090 C 59.633 138.205,58.109 138.558,57.560 138.943 C 57.044 139.304,56.167 139.603,55.611 139.606 C 55.055 139.609,54.330 139.806,54.000 140.044 C 53.501 140.403,53.523 140.435,54.133 140.238 C 54.536 140.107,56.111 140.000,57.633 140.000 C 60.133 140.000,60.400 139.923,60.400 139.200 C 60.400 138.499,60.667 138.400,62.557 138.400 C 64.648 138.400,65.200 138.059,65.200 136.767 C 65.200 136.100,64.458 136.386,64.217 137.147 M120.457 141.956 C 120.128 142.165,120.071 142.396,120.312 142.546 C 120.531 142.681,120.932 142.523,121.204 142.196 C 121.743 141.545,121.320 141.409,120.457 141.956 " stroke="none" fill="#297991" fill-rule="evenodd"></path></g></svg>