<?xml version="1.0" encoding="UTF-8"?>
<svg version="1.1" xmlns="http://www.w3.org/2000/svg" width="218" height="442">
<path d="M0 0 C2.14867155 3.22300732 2.40779872 4.78318881 2.75 8.5625 C2.89695312 10.01849609 2.89695312 10.01849609 3.046875 11.50390625 C3 14 3 14 1 16 C0.57237954 19.0552117 0.57237954 19.0552117 0.4375 22.5 C0.0955335 28.808933 0.0955335 28.808933 -1 31 C-0.34 31 0.32 31 1 31 C1 31.66 1 32.32 1 33 C0.34 33 -0.32 33 -1 33 C-1.74957157 36.47147842 -1.74957157 36.47147842 -2 40 C-0.75605469 40.17015625 0.48789062 40.3403125 1.76953125 40.515625 C22.68266486 43.50801872 22.68266486 43.50801872 29.83203125 48.203125 C31.71413576 51.0986704 30.7944976 53.44168557 30.1875 56.75 C29.32339134 61.58900851 28.88015724 66.0801394 29 71 C29.598125 70.67 30.19625 70.34 30.8125 70 C33 69 33 69 36 69 C36 68.34 36 67.68 36 67 C41.29411765 63 41.29411765 63 45 63 C45.0825 61.96875 45.165 60.9375 45.25 59.875 C46.28727229 54.51575983 48.5036127 51.45700869 52.375 47.6875 C56.18436903 45.23861991 59.28836462 44.92219839 63.75 45.125 C66 46 66 46 67.3671875 48.05078125 C68.32116808 52.49680186 66.47442656 55.18034004 64.375 59.0625 C64.01792969 59.76955078 63.66085938 60.47660156 63.29296875 61.20507812 C60.74108397 66.11077721 58.4839864 70.17200453 53 72 C52.94328125 72.72960937 52.8865625 73.45921875 52.828125 74.2109375 C51.70675356 77.98763187 49.83389317 79.22550024 46.75 81.625 C45.79609375 82.38039063 44.8421875 83.13578125 43.859375 83.9140625 C36.88764045 89 36.88764045 89 33 89 C32.505 90.485 32.505 90.485 32 92 C28.52136647 94.62139884 24.72966467 96.75533979 21 99 C19.82244141 99.79277344 19.82244141 99.79277344 18.62109375 100.6015625 C13.63748387 103.79321247 10.11336071 104.5396046 4.2421875 103.59765625 C1.46008996 102.8560867 -0.71665317 101.7505659 -3 100 C-2.28979613 93.25306319 -0.19487536 86.56068792 4.25 81.375 C8.06300023 79.46849988 10.76787822 79.71307649 15 80 C15 80.99 15 81.98 15 83 C15.99 83 16.98 83 18 83 C18.62457273 86.43515002 19 89.49064814 19 93 C22.93673644 91.68775452 25.22719294 90.08089673 28 87 C26.515 86.505 26.515 86.505 25 86 C23.8125 82.9375 23.8125 82.9375 23 80 C21.35 80 19.7 80 18 80 C17.34 78.68 16.68 77.36 16 76 C16.66 75.34 17.32 74.68 18 74 C19.32 74 20.64 74 22 74 C22 70.7 22 67.4 22 64 C21.278125 64.7425 20.55625 65.485 19.8125 66.25 C13.6080402 72.31658291 13.6080402 72.31658291 9.5 74.0625 C7 74 7 74 4.5625 72.125 C3.67821621 71.10877546 2.82754145 70.06294181 2 69 C1.46761719 68.33226563 0.93523438 67.66453125 0.38671875 66.9765625 C-3.27787324 61.99131802 -5.61002232 57.32898161 -5 51 C-3 48 -3 48 -1 47 C-2.95803507 46.94610913 -4.91648909 46.90725783 -6.875 46.875 C-8.51082031 46.84019531 -8.51082031 46.84019531 -10.1796875 46.8046875 C-13.1371051 46.69939466 -13.1371051 46.69939466 -15 49 C-15.40809543 51.15383697 -15.73046599 53.32447547 -16 55.5 C-16.77777778 61.77777778 -16.77777778 61.77777778 -19 64 C-21.125 63.625 -21.125 63.625 -23 63 C-23 61.35 -23 59.7 -23 58 C-26.3 58.99 -29.6 59.98 -33 61 C-32.8590651 63.43787385 -32.71245458 65.87517853 -32.5625 68.3125 C-32.52318359 69.00279297 -32.48386719 69.69308594 -32.44335938 70.40429688 C-32.25072585 73.47161535 -31.97677283 76.06968152 -31 79 C-27.62507371 79.05845196 -24.25027913 79.09374742 -20.875 79.125 C-19.44800781 79.15013672 -19.44800781 79.15013672 -17.9921875 79.17578125 C-12.86287083 79.2114015 -8.83867205 78.89871941 -4 77 C-1.625 77.375 -1.625 77.375 0 78 C0 79.65 0 81.3 0 83 C-2.64 83 -5.28 83 -8 83 C-7.97679687 83.66386719 -7.95359375 84.32773438 -7.9296875 85.01171875 C-7.74195944 94.19698433 -7.74195944 94.19698433 -10 98 C-11.485 98.99 -11.485 98.99 -13 100 C-16.19143085 99.12146005 -19.06161498 97.510433 -22 96 C-22.99 95.505 -23.98 95.01 -25 94.5 C-27 93 -27 93 -27.9375 91.125 C-28.0186359 88.36637928 -27.16754401 86.47244615 -26 84 C-28.31 83.67 -30.62 83.34 -33 83 C-33 85.97 -33 88.94 -33 92 C-34.98 92.495 -34.98 92.495 -37 93 C-36.98839844 92.10796875 -36.97679687 91.2159375 -36.96484375 90.296875 C-36.95582031 89.12640625 -36.94679688 87.9559375 -36.9375 86.75 C-36.92589844 85.58984375 -36.91429687 84.4296875 -36.90234375 83.234375 C-36.87646034 80.18921735 -36.87646034 80.18921735 -37.49560547 78.06176758 C-38.39025352 74.40479624 -38.18452374 70.68461743 -38.1875 66.9375 C-38.19974609 66.12216797 -38.21199219 65.30683594 -38.22460938 64.46679688 C-38.22654297 63.68240234 -38.22847656 62.89800781 -38.23046875 62.08984375 C-38.23457764 61.37691162 -38.23868652 60.66397949 -38.24291992 59.92944336 C-38 58 -38 58 -36 55 C-36.71929687 54.51660156 -36.71929687 54.51660156 -37.453125 54.0234375 C-39.85185528 50.88570445 -39.61496228 47.43177767 -39.75 43.625 C-39.79253906 42.86960938 -39.83507812 42.11421875 -39.87890625 41.3359375 C-40.20408703 34.44692255 -39.71023705 29.4167726 -35 24 C-32.06275032 22.17061045 -29.48051259 21.09944322 -26 21 C-22.44145586 22.84199224 -19.79294863 25.41410274 -18 29 C-15.62374079 23.93064703 -14.19124384 18.42626849 -16 13 C-15.80078125 10.625 -15.80078125 10.625 -15.3125 8 C-15.16425781 7.13375 -15.01601563 6.2675 -14.86328125 5.375 C-13.79851214 2.44568045 -12.6503255 1.5734771 -10 0 C-6.23918426 -1.25360525 -3.84551868 -0.83902226 0 0 Z M-24.2421875 38.01953125 C-24.82226562 38.34308594 -25.40234375 38.66664062 -26 39 C-26.22245393 40.60226955 -26.42746669 42.20696767 -26.625 43.8125 C-26.74101562 44.70582031 -26.85703125 45.59914063 -26.9765625 46.51953125 C-27.23500743 49.25690391 -27.23500743 49.25690391 -25 52 C-23.01735205 51.34410262 -23.01735205 51.34410262 -21 50 C-20.773125 49.21625 -20.54625 48.4325 -20.3125 47.625 C-18.22063064 43.44126128 -14.2333512 42.55919725 -10 41 C-10.75011391 37.82275597 -10.75011391 37.82275597 -13.5 36.0625 C-18.10784069 34.66369122 -20.08829314 35.9014564 -24.2421875 38.01953125 Z M4 47 C6.81509993 49.2773501 6.81509993 49.2773501 10 49 C10 48.34 10 47.68 10 47 C8.02 47 6.04 47 4 47 Z M21 51 C21.66 52.98 22.32 54.96 23 57 C23.33 57 23.66 57 24 57 C24 55.35 24 53.7 24 52 C23.01 51.67 22.02 51.34 21 51 Z M-29 53 C-29.66 53.66 -30.32 54.32 -31 55 C-29.68 54.67 -28.36 54.34 -27 54 C-27.66 53.67 -28.32 53.34 -29 53 Z M47 66 C47.66 67.32 48.32 68.64 49 70 C49.66 69.67 50.32 69.34 51 69 C50.34 68.01 49.68 67.02 49 66 C48.34 66 47.68 66 47 66 Z " fill="#CD579E" transform="translate(58,20)"/>
<path d="M0 0 C1.2265625 1.99609375 1.2265625 1.99609375 2 5 C1.185503 7.89199921 -0.20015212 10.42773891 -1.625 13.0625 C-1.98207031 13.76955078 -2.33914062 14.47660156 -2.70703125 15.20507812 C-5.25891603 20.11077721 -7.5160136 24.17200453 -13 26 C-13.05671875 26.72960937 -13.1134375 27.45921875 -13.171875 28.2109375 C-14.29324644 31.98763187 -16.16610683 33.22550024 -19.25 35.625 C-20.20390625 36.38039062 -21.1578125 37.13578125 -22.140625 37.9140625 C-29.11235955 43 -29.11235955 43 -33 43 C-33.33 43.99 -33.66 44.98 -34 46 C-36.0625 46.6875 -36.0625 46.6875 -38 47 C-37.34 46.01 -36.68 45.02 -36 44 C-35.34 44 -34.68 44 -34 44 C-34 42.68 -34 41.36 -34 40 C-32.68 40.33 -31.36 40.66 -30 41 C-29.67 39.68 -29.34 38.36 -29 37 C-29.66 37 -30.32 37 -31 37 C-30.67 35.68 -30.34 34.36 -30 33 C-30.99 32.67 -31.98 32.34 -33 32 C-33 31.34 -33 30.68 -33 30 C-31.0085944 29.61866701 -29.00720923 29.28674418 -27 29 C-26.67 29.33 -26.34 29.66 -26 30 C-25.67 29.34 -25.34 28.68 -25 28 C-29.95 28.495 -29.95 28.495 -35 29 C-34.34 27.02 -33.68 25.04 -33 23 C-32.01 23 -31.02 23 -30 23 C-30 22.34 -30 21.68 -30 21 C-24.70588235 17 -24.70588235 17 -21 17 C-20.9175 15.96875 -20.835 14.9375 -20.75 13.875 C-19.51086261 7.47279016 -16.29545585 3.66608482 -11 0 C-6.94952424 -1.35015859 -4.2079832 -0.62084998 0 0 Z M-19 20 C-18.34 21.32 -17.68 22.64 -17 24 C-16.34 23.67 -15.68 23.34 -15 23 C-15.66 22.01 -16.32 21.02 -17 20 C-17.66 20 -18.32 20 -19 20 Z " fill="#BE5395" transform="translate(124,66)"/>
<path d="M0 0 C3.88150886 2.72531473 4.85474895 4.18131226 5.6875 8.875 C5.42017325 13.14412713 3.50068135 15.55101235 0.703125 18.65234375 C-1.19195545 20.15189135 -2.63866851 20.59446698 -5 21 C-5.12375 21.969375 -5.2475 22.93875 -5.375 23.9375 C-5.684375 25.4534375 -5.684375 25.4534375 -6 27 C-6.66 27.33 -7.32 27.66 -8 28 C-8.98097279 29.74929696 -8.98097279 29.74929696 -9.875 31.8125 C-12.94935832 38.05097893 -12.94935832 38.05097893 -16 40 C-20.00549958 40.24827477 -23.1014401 39.56159994 -26.5 37.4375 C-26.995 36.963125 -27.49 36.48875 -28 36 C-27.33642844 28.30256993 -25.67186441 23.48280226 -20 18 C-19.67 17.01 -19.34 16.02 -19 15 C-18.34 14.67 -17.68 14.34 -17 14 C-16.30509741 12.04765462 -15.61085182 10.09506943 -14.921875 8.140625 C-11.79332025 0.87601483 -7.78063118 -1.84625147 0 0 Z " fill="#CD5AA3" transform="translate(106,22)"/>
<path d="M0 0 C2.625 1.9375 2.625 1.9375 4 5 C3.89862159 8.53134802 3.37104203 11.73824677 2 15 C0.67147666 16.0063814 -0.66146129 17.0069784 -2 18 C-2.33380814 21.62563814 -2.33380814 21.62563814 -2 25 C-2.66 25 -3.32 25 -4 25 C-3.67 25.99 -3.34 26.98 -3 28 C-3.48828125 30.41015625 -3.48828125 30.41015625 -4.3125 33.0625 C-4.57675781 33.94035156 -4.84101562 34.81820312 -5.11328125 35.72265625 C-6 38 -6 38 -8 40 C-12.54786138 40.44733063 -14.93725367 40.55351371 -19 38.4375 C-21 36 -21 36 -21.4375 32.625 C-21.01867433 29.15473014 -20.26769267 26.24846248 -19 23 C-18.34 23 -17.68 23 -17 23 C-17.061875 21.8553125 -17.061875 21.8553125 -17.125 20.6875 C-17 18 -17 18 -15 15 C-15.33 14.34 -15.66 13.68 -16 13 C-16.04227317 8.62049912 -15.78687799 5.04917065 -13.125 1.5 C-8.8916773 -1.48822779 -4.8484338 -1.36999833 0 0 Z " fill="#D257A3" transform="translate(81,18)"/>
<path d="M0 0 C0.33 0 0.66 0 1 0 C1.06058594 0.97582031 1.12117188 1.95164062 1.18359375 2.95703125 C1.26738281 4.22933594 1.35117187 5.50164062 1.4375 6.8125 C1.51871094 8.07707031 1.59992187 9.34164062 1.68359375 10.64453125 C1.87184547 13.99181893 1.87184547 13.99181893 3 17 C6.37492629 17.05845196 9.74972087 17.09374742 13.125 17.125 C14.55199219 17.15013672 14.55199219 17.15013672 16.0078125 17.17578125 C21.13712917 17.2114015 25.16132795 16.89871941 30 15 C32.375 15.375 32.375 15.375 34 16 C34 17.65 34 19.3 34 21 C31.36 21 28.72 21 26 21 C26.02320312 21.66386719 26.04640625 22.32773438 26.0703125 23.01171875 C26.25804056 32.19698433 26.25804056 32.19698433 24 36 C23.01 36.66 22.02 37.32 21 38 C17.80856915 37.12146005 14.93838502 35.510433 12 34 C11.01 33.505 10.02 33.01 9 32.5 C7 31 7 31 6.0625 29.125 C5.9813641 26.36637928 6.83245599 24.47244615 8 22 C5.69 21.67 3.38 21.34 1 21 C1.33 20.34 1.66 19.68 2 19 C1.34 18.01 0.68 17.02 0 16 C-0.14245897 13.23344676 -0.18769445 10.57346694 -0.125 7.8125 C-0.11597656 7.06291016 -0.10695313 6.31332031 -0.09765625 5.54101562 C-0.07412578 3.69387346 -0.03825561 1.84689588 0 0 Z " fill="#D2529F" transform="translate(24,82)"/>
<path d="M0 0 C1.56646534 0.4015018 3.12806392 0.82200878 4.6875 1.25 C5.55761719 1.48203125 6.42773438 1.7140625 7.32421875 1.953125 C10.58420377 3.22856439 12.62228163 4.40811214 15 7 C15.05078125 10.20703125 15.05078125 10.20703125 14.3125 13.8125 C13.36785363 18.65183364 12.86723321 23.06233987 13 28 C13.99 27.67 14.98 27.34 16 27 C16 28.32 16 29.64 16 31 C18.97 31 21.94 31 25 31 C24.67 31.99 24.34 32.98 24 34 C23.67 33.34 23.34 32.68 23 32 C20.03 32.495 20.03 32.495 17 33 C17.7734375 33.61875 17.7734375 33.61875 18.5625 34.25 C19.036875 34.8275 19.51125 35.405 20 36 C19.6875 38.1875 19.6875 38.1875 19 40 C19.66 40 20.32 40 21 40 C20.67 41.32 20.34 42.64 20 44 C18.68 43.67 17.36 43.34 16 43 C16 44.32 16 45.64 16 47 C14.609375 48.66796875 14.609375 48.66796875 12.75 50.1875 C12.14671875 50.69667969 11.5434375 51.20585938 10.921875 51.73046875 C8.92876634 53.04705475 7.33408385 53.57139611 5 54 C6.24205807 50.27382578 8.1110675 48.60708543 11 46 C11.66 46 12.32 46 13 46 C12.34 44.9275 11.68 43.855 11 42.75 C9.11704193 39.69019314 9 38.8664136 9 35 C6.69 35 4.38 35 2 35 C2.33 34.01 2.66 33.02 3 32 C4.32 32 5.64 32 7 32 C7.05534912 31.44014404 7.11069824 30.88028809 7.16772461 30.3034668 C7.4207582 27.76444195 7.6790698 25.225981 7.9375 22.6875 C8.02451172 21.80642578 8.11152344 20.92535156 8.20117188 20.01757812 C8.28818359 19.17001953 8.37519531 18.32246094 8.46484375 17.44921875 C8.543396 16.66893311 8.62194824 15.88864746 8.70288086 15.0847168 C9 13 9 13 10 10 C9.34 9.67 8.68 9.34 8 9 C8 8.34 8 7.68 8 7 C3.05 5.68 -1.9 4.36 -7 3 C-6.67 2.34 -6.34 1.68 -6 1 C-3.03 1.495 -3.03 1.495 0 2 C0 1.34 0 0.68 0 0 Z " fill="#D35AA6" transform="translate(74,63)"/>
<path d="M0 0 C2.18994248 3.28491373 2.35277339 4.83095639 2.625 8.6875 C2.69976562 9.68136719 2.77453125 10.67523438 2.8515625 11.69921875 C2.90054688 12.45847656 2.94953125 13.21773437 3 14 C1.68 14.33 0.36 14.66 -1 15 C-1.0825 16.258125 -1.165 17.51625 -1.25 18.8125 C-1.62074634 21.68197513 -1.78307684 22.74290589 -3.6875 25 C-6.58554547 26.25320885 -8.87538839 26.2130417 -12 26 C-12.66 23.69 -13.32 21.38 -14 19 C-13.34 19 -12.68 19 -12 19 C-12.33 18.34 -12.66 17.68 -13 17 C-14.3152334 13.05429979 -14.26841061 10.16036444 -14 6 C-13.34 5.01 -12.68 4.02 -12 3 C-11.34 3 -10.68 3 -10 3 C-10 2.01 -10 1.02 -10 0 C-6.23918426 -1.25360525 -3.84551868 -0.83902226 0 0 Z " fill="#DB59AC" transform="translate(58,20)"/>
<path d="M0 0 C0.99 0.33 1.98 0.66 3 1 C3.061875 1.78375 3.12375 2.5675 3.1875 3.375 C3.455625 4.24125 3.72375 5.1075 4 6 C6.47636012 7.37466625 6.47636012 7.37466625 9 8 C8.01 8.495 8.01 8.495 7 9 C7 9.66 7 10.32 7 11 C9.64 11 12.28 11 15 11 C15.33 11.66 15.66 12.32 16 13 C12.37464179 16.17218843 8.48849722 17.42902597 4 19 C3.94592433 21.58361518 3.906293 24.16609255 3.875 26.75 C3.84986328 27.84441406 3.84986328 27.84441406 3.82421875 28.9609375 C3.78927761 32.8044624 3.82500316 35.74606772 6 39 C5.34 39 4.68 39 4 39 C4 42.3 4 45.6 4 49 C2.02 49.495 2.02 49.495 0 50 C0.01160156 49.10796875 0.02320312 48.2159375 0.03515625 47.296875 C0.04417969 46.12640625 0.05320312 44.9559375 0.0625 43.75 C0.07410156 42.58984375 0.08570312 41.4296875 0.09765625 40.234375 C0.12353966 37.18921735 0.12353966 37.18921735 -0.49560547 35.06176758 C-1.39025352 31.40479624 -1.18452374 27.68461743 -1.1875 23.9375 C-1.19974609 23.12216797 -1.21199219 22.30683594 -1.22460938 21.46679688 C-1.22654297 20.68240234 -1.22847656 19.89800781 -1.23046875 19.08984375 C-1.23457764 18.37691162 -1.23868652 17.66397949 -1.24291992 16.92944336 C-1 15 -1 15 1 12 C0.67 11.34 0.34 10.68 0 10 C-0.06996014 8.29297265 -0.08440154 6.58331997 -0.0625 4.875 C-0.05347656 3.96492188 -0.04445313 3.05484375 -0.03515625 2.1171875 C-0.02355469 1.41851562 -0.01195313 0.71984375 0 0 Z " fill="#D05FA5" transform="translate(21,63)"/>
<path d="M0 0 C2.5625 2.125 2.5625 2.125 4 5 C3.75 8.8125 3.75 8.8125 3 12 C2.34 12 1.68 12 1 12 C1 12.66 1 13.32 1 14 C-0.32 14 -1.64 14 -3 14 C-3.66 15.32 -4.32 16.64 -5 18 C-6.32 17.67 -7.64 17.34 -9 17 C-8.34 16.34 -7.68 15.68 -7 15 C-6.01 15 -5.02 15 -4 15 C-4 13.68 -4 12.36 -4 11 C-4.66 11 -5.32 11 -6 11 C-6.33 11.99 -6.66 12.98 -7 14 C-7.99 14.33 -8.98 14.66 -10 15 C-9.67 13.35 -9.34 11.7 -9 10 C-8.01 10 -7.02 10 -6 10 C-7.32 10 -8.64 10 -10 10 C-10.12375 10.61875 -10.2475 11.2375 -10.375 11.875 C-11 14 -11 14 -13 16 C-13 15.34 -13 14.68 -13 14 C-13.99 13.67 -14.98 13.34 -16 13 C-15.65256798 4.87009063 -15.65256798 4.87009063 -13.125 1.5 C-8.90629246 -1.47791121 -4.83315119 -1.39753769 0 0 Z " fill="#D457A8" transform="translate(81,18)"/>
<path d="M0 0 C0.99 0.33 1.98 0.66 3 1 C2.484375 1.37125 1.96875 1.7425 1.4375 2.125 C-0.34362471 4.0139508 -0.34362471 4.0139508 0.25 7.0625 C0.86622224 9.90915021 0.86622224 9.90915021 2 12 C2.99 11.67 3.98 11.34 5 11 C5.99 11.66 6.98 12.32 8 13 C7 16 7 16 5 18 C5 18.66 5 19.32 5 20 C4.34 20 3.68 20 3 20 C2.67 20.99 2.34 21.98 2 23 C1.34 23 0.68 23 0 23 C0 23.66 0 24.32 0 25 C-6.54929577 23.54460094 -6.54929577 23.54460094 -8.5 21.1875 C-9.38898797 17.29817762 -8.48591531 14.79690111 -6.4375 11.4375 C-4.66134332 8.89739071 -4.66134332 8.89739071 -5 5 C-3.33333333 3.33333333 -1.66666667 1.66666667 0 0 Z " fill="#D454A0" transform="translate(96,25)"/>
<path d="M0 0 C0.33 0 0.66 0 1 0 C1.06058594 0.97582031 1.12117188 1.95164062 1.18359375 2.95703125 C1.26738281 4.22933594 1.35117187 5.50164062 1.4375 6.8125 C1.51871094 8.07707031 1.59992187 9.34164062 1.68359375 10.64453125 C1.87184547 13.99181893 1.87184547 13.99181893 3 17 C6.37492629 17.05845196 9.74972087 17.09374742 13.125 17.125 C14.55199219 17.15013672 14.55199219 17.15013672 16.0078125 17.17578125 C21.13712917 17.2114015 25.16132795 16.89871941 30 15 C32.375 15.375 32.375 15.375 34 16 C34 17.65 34 19.3 34 21 C31.36 21 28.72 21 26 21 C26.02320312 21.66386719 26.04640625 22.32773438 26.0703125 23.01171875 C26.25804056 32.19698433 26.25804056 32.19698433 24 36 C23.01 36.66 22.02 37.32 21 38 C17.80856915 37.12146005 14.93838502 35.510433 12 34 C11.01 33.505 10.02 33.01 9 32.5 C7 31 7 31 6.0625 29.125 C5.9813641 26.36637928 6.83245599 24.47244615 8 22 C5.69 21.67 3.38 21.34 1 21 C1.33 20.34 1.66 19.68 2 19 C1.34 18.01 0.68 17.02 0 16 C-0.14245897 13.23344676 -0.18769445 10.57346694 -0.125 7.8125 C-0.11597656 7.06291016 -0.10695313 6.31332031 -0.09765625 5.54101562 C-0.07412578 3.69387346 -0.03825561 1.84689588 0 0 Z M8 19 C8.66 19.66 9.32 20.32 10 21 C9.7578125 22.9453125 9.7578125 22.9453125 9.125 25.125 C8.92132813 25.84945312 8.71765625 26.57390625 8.5078125 27.3203125 C8.34023438 27.87460938 8.17265625 28.42890625 8 29 C12.66804118 32.62011357 16.2392897 34.70677932 22 36 C24.43998537 33.56001463 24.67696676 31.60835246 25.046875 28.2421875 C24.96700061 24.42152898 23.54708993 21.46548145 22 18 C17.27813204 17.84768168 12.67710471 18.42937285 8 19 Z " fill="#B3538F" transform="translate(24,82)"/>
<path d="M0 0 C0.33 0.99 0.66 1.98 1 3 C0.01 3 -0.98 3 -2 3 C-2 4.32 -2 5.64 -2 7 C-1.54625 6.505 -1.0925 6.01 -0.625 5.5 C1 4 1 4 3 4 C3 5.32 3 6.64 3 8 C1.02 8.99 1.02 8.99 -1 10 C0.97536745 9.65213292 0.97536745 9.65213292 3 9 C3.33 8.34 3.66 7.68 4 7 C5.32 7 6.64 7 8 7 C8.33 6.34 8.66 5.68 9 5 C8.6875 6.875 8.6875 6.875 8 9 C7.01 9.66 6.02 10.32 5 11 C4.74984127 14.58357241 4.74984127 14.58357241 5 18 C4.34 18 3.68 18 3 18 C3.33 18.99 3.66 19.98 4 21 C3.51171875 23.41015625 3.51171875 23.41015625 2.6875 26.0625 C2.42324219 26.94035156 2.15898438 27.81820312 1.88671875 28.72265625 C1 31 1 31 -1 33 C-4.125 33.125 -4.125 33.125 -7 33 C-7 32.67 -7 32.34 -7 32 C-5.35 31.67 -3.7 31.34 -2 31 C-0.98459888 26.89776415 -0.98459888 26.89776415 -2 23 C-4.01669827 21.86649466 -4.01669827 21.86649466 -6 21 C-5.34 20.01 -4.68 19.02 -4 18 C-2.35 18.33 -0.7 18.66 1 19 C1 18.34 1 17.68 1 17 C1.66 17 2.32 17 3 17 C3 15.68 3 14.36 3 13 C-0.96 12.67 -4.92 12.34 -9 12 C-9.33 14.31 -9.66 16.62 -10 19 C-9.34 19.33 -8.68 19.66 -8 20 C-9.32 20 -10.64 20 -12 20 C-12.2954439 25.02254631 -11.98514628 27.89542386 -9 32 C-12.875 30.125 -12.875 30.125 -14 29 C-14.28362108 24.1784417 -13.75417412 20.49507119 -12 16 C-11.34 16 -10.68 16 -10 16 C-10.04125 15.2575 -10.0825 14.515 -10.125 13.75 C-9.99601866 10.91241048 -9.42948778 9.41226062 -8 7 C-7.01 7 -6.02 7 -5 7 C-5 5.02 -5 3.04 -5 1 C-3.35 1.33 -1.7 1.66 0 2 C0 1.34 0 0.68 0 0 Z " fill="#C05A99" transform="translate(74,25)"/>
<path d="M0 0 C1.5 2.0625 1.5 2.0625 2 4 C1.34 4 0.68 4 0 4 C-0.103125 4.763125 -0.20625 5.52625 -0.3125 6.3125 C-1.04364039 9.17059424 -1.76951913 10.15742885 -4 12 C-3.125 7.25 -3.125 7.25 -2 5 C-5.5219721 4.91995518 -8.61981469 4.95994298 -12 6 C-12 6.66 -12 7.32 -12 8 C-12.99 8.495 -12.99 8.495 -14 9 C-14 10.32 -14 11.64 -14 13 C-11.77351562 15.0507093 -9.70717195 16.64641403 -7 18 C-8.75 21.875 -8.75 21.875 -11 23 C-17.74559687 18.86105675 -17.74559687 18.86105675 -18.8125 15.25 C-18.874375 14.5075 -18.93625 13.765 -19 13 C-19.66 12.67 -20.32 12.34 -21 12 C-16.04081834 3.30560492 -10.72311765 -3.1034509 0 0 Z " fill="#D15EA2" transform="translate(124,66)"/>
<path d="M0 0 C0.66 0.33 1.32 0.66 2 1 C1.85930804 3.12534659 1.71229079 5.25027529 1.5625 7.375 C1.48128906 8.55835938 1.40007813 9.74171875 1.31640625 10.9609375 C1 14 1 14 0 16 C0.66 16 1.32 16 2 16 C2 16.66 2 17.32 2 18 C1.01 18.33 0.02 18.66 -1 19 C-1.433125 19.495 -1.86625 19.99 -2.3125 20.5 C-4.68067968 22.60504861 -6.91481553 22.65720173 -10 23 C-10 22.34 -10 21.68 -10 21 C-10.99 21 -11.98 21 -13 21 C-14.04449911 17.86650268 -13.93423645 17.01031744 -13 14 C-13.66 13.67 -14.32 13.34 -15 13 C-14.67 12.01 -14.34 11.02 -14 10 C-13.34 10 -12.68 10 -12 10 C-12 9.34 -12 8.68 -12 8 C-11.34 8.33 -10.68 8.66 -10 9 C-10 9.33 -10 9.66 -10 10 C-7.08347826 10.16681109 -7.08347826 10.16681109 -4 10 C-1.80202597 7.80202597 -1.54102483 6.82453855 -0.875 3.875 C-0.58625 2.59625 -0.2975 1.3175 0 0 Z " fill="#CF52A2" transform="translate(57,35)"/>
<path d="M0 0 C3.39286336 0.43498248 4.3384792 1.65374032 6.4375 4.3125 C7.49761943 6.28129323 8.51220849 8.27685867 9.4375 10.3125 C6.11442308 14.25096154 6.11442308 14.25096154 2.6875 14.5625 C1.945 14.48 1.2025 14.3975 0.4375 14.3125 C0.1075 13.6525 -0.2225 12.9925 -0.5625 12.3125 C0.7575 12.3125 2.0775 12.3125 3.4375 12.3125 C3.4375 9.6725 3.4375 7.0325 3.4375 4.3125 C1.1275 3.6525 -1.1825 2.9925 -3.5625 2.3125 C-3.5625 3.3025 -3.5625 4.2925 -3.5625 5.3125 C-4.2225 5.3125 -4.8825 5.3125 -5.5625 5.3125 C-5.5625 7.6225 -5.5625 9.9325 -5.5625 12.3125 C-5.2325 10.6625 -4.9025 9.0125 -4.5625 7.3125 C-2.5625 9.3125 -2.5625 9.3125 -2.4375 11.9375 C-2.47875 12.72125 -2.52 13.505 -2.5625 14.3125 C-1.9025 14.3125 -1.2425 14.3125 -0.5625 14.3125 C-0.5625 15.3025 -0.5625 16.2925 -0.5625 17.3125 C-3.61343939 17.60032447 -6.52103798 17.74314949 -9.5625 17.3125 C-11.6875 15.125 -11.6875 15.125 -12.5625 12.3125 C-12.44775509 7.83744854 -10.35034822 4.71987005 -7.5625 1.3125 C-4.97562322 0.38387756 -2.71445553 0.33103116 0 0 Z " fill="#D254A2" transform="translate(30.5625,42.6875)"/>
<path d="M0 0 C2.4294516 3.6441774 2.16179575 5.71241272 2 10 C1.01 10 0.02 10 -1 10 C-3.20142332 12.4390706 -3.20142332 12.4390706 -5 15 C-5.33 14.01 -5.66 13.02 -6 12 C-8.01508358 11.26676204 -8.01508358 11.26676204 -10 11 C-10 11.66 -10 12.32 -10 13 C-10.99 12.67 -11.98 12.34 -13 12 C-12.40138258 9.64828869 -11.73075648 7.3140622 -11 5 C-10.34 4.67 -9.68 4.34 -9 4 C-9 2.68 -9 1.36 -9 0 C-5.85135005 -1.57432497 -3.35512575 -0.71895552 0 0 Z " fill="#C75AA3" transform="translate(58,20)"/>
<path d="M0 0 C0.66 0.33 1.32 0.66 2 1 C0.49760034 4.61941735 -0.82145293 7.7321794 -3 11 C-3.24050807 14.05890142 -3.24050807 14.05890142 -2 17 C0.2836132 18.47506116 2.38080926 19.1428103 5 20 C5 19.34 5 18.68 5 18 C6.5 16.375 6.5 16.375 8 15 C8.66 15.33 9.32 15.66 10 16 C9 19 9 19 7 20 C5.86649466 22.01669827 5.86649466 22.01669827 5 24 C4.34 23.67 3.68 23.34 3 23 C2.401875 23.185625 1.80375 23.37125 1.1875 23.5625 C-1.82793721 24.16558744 -3.33686913 23.47173022 -6 22 C-7.3125 19.875 -7.3125 19.875 -8 18 C-8.66 18.33 -9.32 18.66 -10 19 C-9.51300383 14.61703444 -8.16604109 12.96816352 -5 10 C-4.67 9.01 -4.34 8.02 -4 7 C-3.34 6.67 -2.68 6.34 -2 6 C-1.27306096 4.02111039 -0.60183749 2.02045442 0 0 Z " fill="#C3579C" transform="translate(91,30)"/>
<path d="M0 0 C2.64 0.33 5.28 0.66 8 1 C8 1.66 8 2.32 8 3 C6.02 3 4.04 3 2 3 C2.99902344 3.25394531 3.99804688 3.50789063 5.02734375 3.76953125 C6.3309063 4.11652272 7.63428235 4.4642154 8.9375 4.8125 C9.59685547 4.97814453 10.25621094 5.14378906 10.93554688 5.31445312 C12.83984375 5.83203125 12.83984375 5.83203125 16 7 C16.33 7.99 16.66 8.98 17 10 C14.39555652 10.05394705 11.79223002 10.09364469 9.1875 10.125 C8.44951172 10.14175781 7.71152344 10.15851563 6.95117188 10.17578125 C3.08753574 10.21074628 1.29096332 10.19397555 -2 8 C-3.65549531 7.61500109 -5.3222433 7.27206865 -7 7 C-6.67 6.01 -6.34 5.02 -6 4 C-2.9375 2.8125 -2.9375 2.8125 0 2 C0 1.34 0 0.68 0 0 Z M-4 5 C-1.18490007 7.2773501 -1.18490007 7.2773501 2 7 C2 6.34 2 5.68 2 5 C0.02 5 -1.96 5 -4 5 Z " fill="#B85696" transform="translate(66,62)"/>
<path d="M0 0 C1.65 0.33 3.3 0.66 5 1 C4.88525534 3.54250021 4.7585303 6.08347338 4.625 8.625 C4.57859375 9.69427734 4.57859375 9.69427734 4.53125 10.78515625 C4.29119658 15.14612662 3.75518656 18.93601966 2 23 C-0.0625 23.75 -0.0625 23.75 -2 24 C-2.33 24.66 -2.66 25.32 -3 26 C-1.35 25.34 0.3 24.68 2 24 C2 24.66 2 25.32 2 26 C2.66 26 3.32 26 4 26 C7.28571429 33.42857143 7.28571429 33.42857143 8 37 C7.67 36.34 7.34 35.68 7 35 C6.01 34.67 5.02 34.34 4 34 C2.8125 30.9375 2.8125 30.9375 2 28 C0.35 28 -1.3 28 -3 28 C-3.66 26.68 -4.32 25.36 -5 24 C-4.34 23.34 -3.68 22.68 -3 22 C-1.68 22 -0.36 22 1 22 C1 18.7 1 15.4 1 12 C0.01 12.99 -0.98 13.98 -2 15 C-2.33 14.34 -2.66 13.68 -3 13 C-2.34 13 -1.68 13 -1 13 C-0.83052421 11.58366664 -0.66454493 10.16691467 -0.5 8.75 C-0.4071875 7.96109375 -0.314375 7.1721875 -0.21875 6.359375 C0.06154619 3.73109603 0.06154619 3.73109603 0 0 Z " fill="#B65C95" transform="translate(79,72)"/>
<path d="M0 0 C0.41894531 0.48082031 0.83789062 0.96164063 1.26953125 1.45703125 C3.88218064 3.78659448 6.60471479 3.67969007 10 4 C10 4.99 10 5.98 10 7 C10.66 7.33 11.32 7.66 12 8 C13.26229508 12.47540984 13.26229508 12.47540984 12 15 C9.03 14.505 9.03 14.505 6 14 C5.87625 13.030625 5.7525 12.06125 5.625 11.0625 C5.315625 9.5465625 5.315625 9.5465625 5 8 C4.34 7.67 3.68 7.34 3 7 C3.33 10.63 3.66 14.26 4 18 C3.34 18 2.68 18 2 18 C0.414131 14.828262 0.62133555 11.36486178 0.4375 7.875 C0.39431641 7.12089844 0.35113281 6.36679687 0.30664062 5.58984375 C0.2005168 3.72678112 0.09974999 1.86341476 0 0 Z " fill="#D256A3" transform="translate(18,56)"/>
<path d="M0 0 C0.90492187 0.02320312 1.80984375 0.04640625 2.7421875 0.0703125 C4.10730469 0.09738281 4.10730469 0.09738281 5.5 0.125 C6.19867188 0.14820312 6.89734375 0.17140625 7.6171875 0.1953125 C7.9471875 1.1853125 8.2771875 2.1753125 8.6171875 3.1953125 C7.6271875 3.6903125 7.6271875 3.6903125 6.6171875 4.1953125 C6.6171875 5.1853125 6.6171875 6.1753125 6.6171875 7.1953125 C5.2971875 6.8653125 3.9771875 6.5353125 2.6171875 6.1953125 C2.895625 7.1234375 2.895625 7.1234375 3.1796875 8.0703125 C3.6171875 10.1953125 3.6171875 10.1953125 2.6171875 12.1953125 C3.2153125 11.6796875 3.8134375 11.1640625 4.4296875 10.6328125 C5.5125 9.92125 5.5125 9.92125 6.6171875 9.1953125 C7.6071875 9.5253125 8.5971875 9.8553125 9.6171875 10.1953125 C8.18558482 11.20373703 6.74667297 12.20179141 5.3046875 13.1953125 C4.50417969 13.7521875 3.70367187 14.3090625 2.87890625 14.8828125 C0.6171875 16.1953125 0.6171875 16.1953125 -2.3828125 16.1953125 C-2.7128125 17.1853125 -3.0428125 18.1753125 -3.3828125 19.1953125 C-5.4453125 19.8828125 -5.4453125 19.8828125 -7.3828125 20.1953125 C-6.3928125 18.7103125 -6.3928125 18.7103125 -5.3828125 17.1953125 C-4.7228125 17.1953125 -4.0628125 17.1953125 -3.3828125 17.1953125 C-3.3828125 15.8753125 -3.3828125 14.5553125 -3.3828125 13.1953125 C-2.0628125 13.5253125 -0.7428125 13.8553125 0.6171875 14.1953125 C0.9471875 12.8753125 1.2771875 11.5553125 1.6171875 10.1953125 C0.9571875 10.1953125 0.2971875 10.1953125 -0.3828125 10.1953125 C-0.0528125 8.8753125 0.2771875 7.5553125 0.6171875 6.1953125 C-0.3728125 5.8653125 -1.3628125 5.5353125 -2.3828125 5.1953125 C-2.3828125 4.5353125 -2.3828125 3.8753125 -2.3828125 3.1953125 C-0.3914069 2.81397951 1.60997827 2.48205668 3.6171875 2.1953125 C3.9471875 2.5253125 4.2771875 2.8553125 4.6171875 3.1953125 C4.9471875 2.5353125 5.2771875 1.8753125 5.6171875 1.1953125 C2.3171875 1.5253125 -0.9828125 1.8553125 -4.3828125 2.1953125 C-2.3828125 0.1953125 -2.3828125 0.1953125 0 0 Z " fill="#C45197" transform="translate(93.3828125,92.8046875)"/>
<path d="M0 0 C6.875 0.875 6.875 0.875 8 2 C8.23529412 7.52941176 8.23529412 7.52941176 7 10 C6.01 10.33 5.02 10.66 4 11 C3.67 11.66 3.34 12.32 3 13 C1 12 1 12 0 9 C-0.99 9.495 -0.99 9.495 -2 10 C-3.125 5.25 -3.125 5.25 -2 3 C-1.34 3 -0.68 3 0 3 C0 2.01 0 1.02 0 0 Z " fill="#C14B94" transform="translate(27,45)"/>
<path d="M0 0 C0.33 0 0.66 0 1 0 C1 1.65 1 3.3 1 5 C1.66 5 2.32 5 3 5 C2.67 4.01 2.34 3.02 2 2 C2.66 1.34 3.32 0.68 4 0 C4.66 0.99 5.32 1.98 6 3 C6.99 3.33 7.98 3.66 9 4 C10.6875 6.0625 10.6875 6.0625 12 8 C11.01 9.485 11.01 9.485 10 11 C6.375 11.6875 6.375 11.6875 3 12 C-1.06153846 6.83076923 -1.06153846 6.83076923 -0.75 2.625 C-0.5025 1.75875 -0.255 0.8925 0 0 Z " fill="#CF55A1" transform="translate(62,46)"/>
<path d="M0 0 C0.66 0.33 1.32 0.66 2 1 C1.34 2.65 0.68 4.3 0 6 C1.58272601 7.58272601 3.38034003 7.34735747 5.5625 7.5625 C6.38878906 7.64628906 7.21507813 7.73007812 8.06640625 7.81640625 C8.70449219 7.87699219 9.34257813 7.93757813 10 8 C10 8.66 10 9.32 10 10 C9.35675781 9.98839844 8.71351562 9.97679687 8.05078125 9.96484375 C0.65385931 9.89098005 -6.63414095 10.34421605 -14 11 C-12.03617993 9.49440461 -10.21736634 8.10868317 -8 7 C-8 6.34 -8 5.68 -8 5 C-5.36 4.34 -2.72 3.68 0 3 C0 2.01 0 1.02 0 0 Z " fill="#B75B96" transform="translate(55,53)"/>
<path d="M0 0 C3.5456058 2.71134561 5.17443927 5.98376639 7 10 C3.67692308 13.93846154 3.67692308 13.93846154 0.25 14.25 C-0.4925 14.1675 -1.235 14.085 -2 14 C-2.33 13.34 -2.66 12.68 -3 12 C-1.68 12 -0.36 12 1 12 C1 9.36 1 6.72 1 4 C-4.05009595 3.06213918 -4.05009595 3.06213918 -9 4 C-9 3.01 -9 2.02 -9 1 C-5.9093494 0.08425167 -3.21587249 -0.40198406 0 0 Z " fill="#DE61AB" transform="translate(33,43)"/>
<path d="M0 0 C0 0.99 0 1.98 0 3 C-3.47025341 6.30884627 -6.39611006 8.50684651 -11 10 C-11.99 10.33 -12.98 10.66 -14 11 C-14 9.02 -14 7.04 -14 5 C-13.01 5 -12.02 5 -11 5 C-10.67 4.01 -10.34 3.02 -10 2 C-8.8553125 1.7834375 -8.8553125 1.7834375 -7.6875 1.5625 C-0.22222222 0 -0.22222222 0 0 0 Z " fill="#D55BA4" transform="translate(110,94)"/>
<path d="M0 0 C0.66 1.32 1.32 2.64 2 4 C1.01 4.33 0.02 4.66 -1 5 C-1.33 7.31 -1.66 9.62 -2 12 C-1.34 12.33 -0.68 12.66 0 13 C0 12.34 0 11.68 0 11 C1.65 11.33 3.3 11.66 5 12 C5 13.32 5 14.64 5 16 C3.68 15.67 2.36 15.34 1 15 C1 15.99 1 16.98 1 18 C-0.9375 17.6875 -0.9375 17.6875 -3 17 C-3.8814688 14.35559361 -4.16174818 12.71939248 -4.1875 10 C-4.20167969 9.319375 -4.21585938 8.63875 -4.23046875 7.9375 C-4 6 -4 6 -2 3 C-1.34 3 -0.68 3 0 3 C0 2.01 0 1.02 0 0 Z " fill="#E162B3" transform="translate(48,20)"/>
<path d="M0 0 C5 3 5 3 6 6 C5.34 6 4.68 6 4 6 C4 9.3 4 12.6 4 16 C2.68 16.33 1.36 16.66 0 17 C0 11.39 0 5.78 0 0 Z " fill="#CB65A3" transform="translate(21,96)"/>
<path d="M0 0 C0.66 0.33 1.32 0.66 2 1 C2.70978342 7.74294249 2.70978342 7.74294249 0.83984375 11.0546875 C-1.56120589 14.01454921 -3.20551475 15.74092872 -6.875 16.9375 C-7.57625 16.958125 -8.2775 16.97875 -9 17 C-8.2575 16.319375 -8.2575 16.319375 -7.5 15.625 C-5.77390663 14.12364481 -5.77390663 14.12364481 -6 12 C-7.89179203 11.3185177 -7.89179203 11.3185177 -10 11 C-10.66 11.66 -11.32 12.32 -12 13 C-11.67 11.68 -11.34 10.36 -11 9 C-8.36 8.67 -5.72 8.34 -3 8 C-3 8.99 -3 9.98 -3 11 C-0.60236815 8.60236815 -0.65719414 7.66726502 -0.375 4.375 C-0.30023438 3.55773437 -0.22546875 2.74046875 -0.1484375 1.8984375 C-0.09945312 1.27195312 -0.05046875 0.64546875 0 0 Z " fill="#C84F98" transform="translate(109,26)"/>
<path d="M0 0 C0 0.99 0 1.98 0 3 C0.99 3 1.98 3 3 3 C3.33 4.65 3.66 6.3 4 8 C-2.75 7.25 -2.75 7.25 -5 5 C-4.67 4.34 -4.34 3.68 -4 3 C-5.65 2.67 -7.3 2.34 -9 2 C-9 2.66 -9 3.32 -9 4 C-9.99 3.67 -10.98 3.34 -12 3 C-8.2391768 -0.7608232 -5.0273023 -0.25136512 0 0 Z " fill="#C05594" transform="translate(73,100)"/>
<path d="M0 0 C1.75 1.4375 1.75 1.4375 2.5 4.5625 C2.62375 5.985625 2.62375 5.985625 2.75 7.4375 C1.76 7.1075 0.77 6.7775 -0.25 6.4375 C-0.58 5.4475 -0.91 4.4575 -1.25 3.4375 C-2.24 3.1075 -3.23 2.7775 -4.25 2.4375 C-6.01462683 5.52559695 -6.25 6.67062136 -6.25 10.4375 C-6.91 10.4375 -7.57 10.4375 -8.25 10.4375 C-8.25 11.0975 -8.25 11.7575 -8.25 12.4375 C-9.24 12.1075 -10.23 11.7775 -11.25 11.4375 C-10.65138258 9.08578869 -9.98075648 6.7515622 -9.25 4.4375 C-8.59 4.1075 -7.93 3.7775 -7.25 3.4375 C-7.25 2.4475 -7.25 1.4575 -7.25 0.4375 C-4.56026772 -0.30964785 -2.73221402 -0.6830535 0 0 Z " fill="#D357A8" transform="translate(56.25,20.5625)"/>
<path d="M0 0 C1.51045259 1.51045259 3.00830865 3.03351637 4.5 4.5625 C6.7463376 6.99991661 6.7463376 6.99991661 9 8 C7.25 11.875 7.25 11.875 5 13 C1.38916346 10.68536119 0.15211392 9.63018624 -0.875 5.375 C-1 2 -1 2 0 0 Z " fill="#C9589F" transform="translate(108,76)"/>
<path d="M0 0 C0.66 0.33 1.32 0.66 2 1 C0.35 2.65 -1.3 4.3 -3 6 C-2.34 6.33 -1.68 6.66 -1 7 C-6.74129851 11.43830878 -11.56543295 14.43159472 -19 14 C-22.5625 13.0625 -22.5625 13.0625 -25 12 C-21.71480525 10.90493508 -19.26336585 10.90039392 -15.8125 10.9375 C-14.18248047 10.95103516 -14.18248047 10.95103516 -12.51953125 10.96484375 C-11.68808594 10.97644531 -10.85664062 10.98804687 -10 11 C-10 9.35 -10 7.7 -10 6 C-8.66666667 6.66666667 -7.33333333 7.33333333 -6 8 C-6 6.35 -6 4.7 -6 3 C-5.195625 2.690625 -4.39125 2.38125 -3.5625 2.0625 C-1.10919595 1.23664655 -1.10919595 1.23664655 0 0 Z " fill="#BC5B9A" transform="translate(83,110)"/>
<path d="M0 0 C0.99 0.33 1.98 0.66 3 1 C2.484375 1.37125 1.96875 1.7425 1.4375 2.125 C-0.34362471 4.0139508 -0.34362471 4.0139508 0.25 7.0625 C0.86622224 9.90915021 0.86622224 9.90915021 2 12 C2.66 12 3.32 12 4 12 C4 13.32 4 14.64 4 16 C3.38125 15.814375 2.7625 15.62875 2.125 15.4375 C-0.04160178 14.76313824 -0.04160178 14.76313824 -2 16 C-2 14.68 -2 13.36 -2 12 C-2.66 11.67 -3.32 11.34 -4 11 C-3.34 11 -2.68 11 -2 11 C-2 10.34 -2 9.68 -2 9 C-2.66 9 -3.32 9 -4 9 C-4.33 7.35 -4.66 5.7 -5 4 C-4.01 3.67 -3.02 3.34 -2 3 C-1.34 2.01 -0.68 1.02 0 0 Z " fill="#E35DB2" transform="translate(96,25)"/>
<path d="M0 0 C2.51720308 5.03440616 2.21361639 6.62541314 1 12 C-0.7890625 13.359375 -0.7890625 13.359375 -3 14 C-5.140625 13.3203125 -5.140625 13.3203125 -7.25 12.125 C-7.95640625 11.73570313 -8.6628125 11.34640625 -9.390625 10.9453125 C-9.92171875 10.63335937 -10.4528125 10.32140625 -11 10 C-10.34 9.67 -9.68 9.34 -9 9 C-8.67 8.34 -8.34 7.68 -8 7 C-7.67 7.66 -7.34 8.32 -7 9 C-6.071875 8.7215625 -6.071875 8.7215625 -5.125 8.4375 C-3 8 -3 8 -1 9 C-0.67 9.33 -0.34 9.66 0 10 C0 6.7 0 3.4 0 0 Z " fill="#D659A4" transform="translate(47,104)"/>
<path d="M0 0 C-4.75 3.875 -4.75 3.875 -7 5 C-6.855625 5.5775 -6.71125 6.155 -6.5625 6.75 C-6.04166667 8.83333333 -5.52083333 10.91666667 -5 13 C-6.32 12.34 -7.64 11.68 -9 11 C-9 10.34 -9 9.68 -9 9 C-9.99 8.67 -10.98 8.34 -12 8 C-11.67 6.35 -11.34 4.7 -11 3 C-10.34 3 -9.68 3 -9 3 C-9 2.34 -9 1.68 -9 1 C-6.04335481 -0.4783226 -3.25770263 -0.06032783 0 0 Z " fill="#AE4C92" transform="translate(121,71)"/>
<path d="M0 0 C0.66 0.33 1.32 0.66 2 1 C1.67 1.33 1.34 1.66 1 2 C0.6068352 3.67884238 0.25914548 5.36850045 -0.0625 7.0625 C-0.32740234 8.44115234 -0.32740234 8.44115234 -0.59765625 9.84765625 C-0.73042969 10.55792969 -0.86320312 11.26820312 -1 12 C-1.99 11.67 -2.98 11.34 -4 11 C-4.845625 11 -5.69125 11 -6.5625 11 C-9 11 -9 11 -11 10 C-11 9.34 -11 8.68 -11 8 C-10.34 8 -9.68 8 -9 8 C-9 7.01 -9 6.02 -9 5 C-8.34 5 -7.68 5 -7 5 C-6.67 5.66 -6.34 6.32 -6 7 C-2.7014861 6.27731765 -2.7014861 6.27731765 -1.3125 2.9375 C-0.879375 1.968125 -0.44625 0.99875 0 0 Z " fill="#BC5190" transform="translate(39,64)"/>
<path d="M0 0 C3.3 0.33 6.6 0.66 10 1 C10.33 1.99 10.66 2.98 11 4 C10.67 4.66 10.34 5.32 10 6 C9.34 6 8.68 6 8 6 C8 6.66 8 7.32 8 8 C5.36 7.67 2.72 7.34 0 7 C-0.33 5.35 -0.66 3.7 -1 2 C4.75 3.875 4.75 3.875 7 5 C7 4.34 7 3.68 7 3 C4.69 2.34 2.38 1.68 0 1 C0 0.67 0 0.34 0 0 Z " fill="#DB61AD" transform="translate(67,36)"/>
<path d="M0 0 C0.99 0.33 1.98 0.66 3 1 C3.061875 1.78375 3.12375 2.5675 3.1875 3.375 C3.455625 4.24125 3.72375 5.1075 4 6 C6.47636012 7.37466625 6.47636012 7.37466625 9 8 C8.01 8.495 8.01 8.495 7 9 C6.67 9.99 6.34 10.98 6 12 C3 12 3 12 1.32421875 10.79296875 C-0.38179304 8.48305898 -0.31091704 7.15109181 -0.1875 4.3125 C-0.16042969 3.50425781 -0.13335938 2.69601563 -0.10546875 1.86328125 C-0.07066406 1.24839844 -0.03585938 0.63351563 0 0 Z " fill="#E362AC" transform="translate(21,63)"/>
<path d="M0 0 C4.41889613 1.35021826 6.34345343 3.26115668 9 7 C7.02 7.99 5.04 8.98 3 10 C0.59185923 6.48812804 -0.36629408 4.27343092 0 0 Z " fill="#D34F9D" transform="translate(100,87)"/>
<path d="M0 0 C1.39899699 0.2316422 2.79418272 0.486338 4.1875 0.75 C4.96480469 0.88921875 5.74210937 1.0284375 6.54296875 1.171875 C9 2 9 2 14 6 C13.34 10.29 12.68 14.58 12 19 C11.34 19 10.68 19 10 19 C10 14.38 10 9.76 10 5 C5.05 3.02 5.05 3.02 0 1 C0 0.67 0 0.34 0 0 Z " fill="#BA5597" transform="translate(75,64)"/>
<path d="M0 0 C0.33 0.66 0.66 1.32 1 2 C0.32453125 1.94199219 -0.3509375 1.88398438 -1.046875 1.82421875 C-6.7856081 1.39828452 -6.7856081 1.39828452 -11.5625 4.1875 C-12.93516746 6.87315373 -13.65887841 9.01518607 -14 12 C-14.66 12 -15.32 12 -16 12 C-15.51094891 4.66423358 -15.51094891 4.66423358 -13.125 1.5625 C-8.61670381 -1.75242367 -5.21776283 -0.92573211 0 0 Z " fill="#BE6198" transform="translate(81,18)"/>
<path d="M0 0 C1.65 0.33 3.3 0.66 5 1 C1.57611908 4.82669043 -1.00724943 6.72278474 -6 8 C-7.65 6.35 -9.3 4.7 -11 3 C-10.34 2.67 -9.68 2.34 -9 2 C-8.67 2.66 -8.34 3.32 -8 4 C-6.02 4 -4.04 4 -2 4 C-1.34 2.68 -0.68 1.36 0 0 Z " fill="#C25C9B" transform="translate(71,86)"/>
<path d="M0 0 C0.66 0.33 1.32 0.66 2 1 C1.34 4.96 0.68 8.92 0 13 C-2.62113708 13 -4.50935112 12.68707555 -7 12 C-7 12.66 -7 13.32 -7 14 C-7.66 14 -8.32 14 -9 14 C-9.33 12.68 -9.66 11.36 -10 10 C-9.05125 10.04125 -8.1025 10.0825 -7.125 10.125 C-3.89755144 10.34973818 -3.89755144 10.34973818 -2 8 C-1.32707499 6.03309626 -1.32707499 6.03309626 -0.875 3.875 C-0.58625 2.59625 -0.2975 1.3175 0 0 Z " fill="#BC569A" transform="translate(57,35)"/>
<path d="M0 0 C0.33 0.99 0.66 1.98 1 3 C-1 5.5625 -1 5.5625 -4 8 C-6.99635609 8.25908342 -9.01424933 7.74643767 -12 7 C-12.33 6.34 -12.66 5.68 -13 5 C-11.02 5 -9.04 5 -7 5 C-6.67 4.01 -6.34 3.02 -6 2 C-4.35 2.33 -2.7 2.66 -1 3 C-0.67 2.01 -0.34 1.02 0 0 Z " fill="#C865A3" transform="translate(94,54)"/>
<path d="M0 0 C0.33 0.66 0.66 1.32 1 2 C-4.94 2.495 -4.94 2.495 -11 3 C-11 4.32 -11 5.64 -11 7 C-12.32 7.33 -13.64 7.66 -15 8 C-15.125 5.625 -15.125 5.625 -15 3 C-11.00349459 -0.99650541 -5.31261102 -0.09004425 0 0 Z " fill="#D35EA4" transform="translate(54,63)"/>
<path d="M0 0 C1.65 0 3.3 0 5 0 C5 0.66 5 1.32 5 2 C7.31 2 9.62 2 12 2 C12 3.98 12 5.96 12 8 C11.01 7.67 10.02 7.34 9 7 C9 6.34 9 5.68 9 5 C6.92446352 4.4465236 5.15634036 4 3 4 C3 4.66 3 5.32 3 6 C2.34 6 1.68 6 1 6 C0.67 4.02 0.34 2.04 0 0 Z " fill="#DC5BAA" transform="translate(62,45)"/>
<path d="M0 0 C1.65 0.33 3.3 0.66 5 1 C5 1.66 5 2.32 5 3 C4.34 3 3.68 3 3 3 C2.34 5.31 1.68 7.62 1 10 C-0.32 9.01 -1.64 8.02 -3 7 C-1.125 2.25 -1.125 2.25 0 0 Z " fill="#CE5BA0" transform="translate(22,45)"/>
<path d="M0 0 C1.984375 1.546875 1.984375 1.546875 4 4 C4.390625 7.453125 4.390625 7.453125 4.25 11.25 C4.21390625 12.51328125 4.1778125 13.7765625 4.140625 15.078125 C4.09421875 16.04234375 4.0478125 17.0065625 4 18 C3.34 18 2.68 18 2 18 C0.414131 14.828262 0.62133555 11.36486178 0.4375 7.875 C0.39431641 7.12089844 0.35113281 6.36679687 0.30664062 5.58984375 C0.2005168 3.72678112 0.09974999 1.86341476 0 0 Z " fill="#B75492" transform="translate(18,56)"/>
<path d="M0 0 C0.99 0 1.98 0 3 0 C3 0.66 3 1.32 3 2 C3.99 2.33 4.98 2.66 6 3 C5.67 3.66 5.34 4.32 5 5 C4.34 5 3.68 5 3 5 C3 5.66 3 6.32 3 7 C0.69 6.34 -1.62 5.68 -4 5 C-4 4.01 -4 3.02 -4 2 C-2.35 2.33 -0.7 2.66 1 3 C0.67 2.01 0.34 1.02 0 0 Z " fill="#E162AE" transform="translate(93,43)"/>
<path d="M0 0 C7.3028169 -0.35915493 7.3028169 -0.35915493 10.0625 1.0625 C11.55238061 4.1415866 10.67482518 6.74856958 10 10 C9.67 10 9.34 10 9 10 C8.67 8.02 8.34 6.04 8 4 C3.545 3.01 3.545 3.01 -1 2 C-0.67 1.34 -0.34 0.68 0 0 Z " fill="#EA6AB4" transform="translate(72,19)"/>
<path d="M0 0 C2.475 0.495 2.475 0.495 5 1 C4.67 6.28 4.34 11.56 4 17 C3.67 17 3.34 17 3 17 C1.65155132 11.3443706 0.63065155 5.7809725 0 0 Z " fill="#BB4C90" transform="translate(79,72)"/>
<path d="M0 0 C0.66 0.33 1.32 0.66 2 1 C1.52643877 5.26205106 -0.84698192 7.28693793 -4 10 C-6.3125 10.8125 -6.3125 10.8125 -8 11 C-6.75794193 7.27382578 -4.8889325 5.60708543 -2 3 C-1.34 3 -0.68 3 0 3 C0 2.01 0 1.02 0 0 Z " fill="#DE69AE" transform="translate(87,106)"/>
<path d="M0 0 C2.9375 0.75 2.9375 0.75 6 2 C6.875 4.125 6.875 4.125 7 6 C5.02 6.99 5.02 6.99 3 8 C0 3.375 0 3.375 0 0 Z " fill="#DC58B0" transform="translate(18,52)"/>
<path d="M0 0 C1.5625 1.0625 1.5625 1.0625 3 3 C2.6875 6.6875 2.6875 6.6875 2 10 C1.34 10 0.68 10 0 10 C0 10.66 0 11.32 0 12 C-1.32 12 -2.64 12 -4 12 C-4 11.01 -4 10.02 -4 9 C-2.68 8.34 -1.36 7.68 0 7 C0 4.69 0 2.38 0 0 Z " fill="#D35EA3" transform="translate(82,20)"/>
<path d="M0 0 C0.99 0.33 1.98 0.66 3 1 C3.08131463 2.43655854 3.13933559 3.8744483 3.1875 5.3125 C3.22230469 6.11300781 3.25710937 6.91351563 3.29296875 7.73828125 C2.93801608 10.47851584 2.10633718 11.29171079 0 13 C-1 11 -1 11 -0.5 7.5625 C0.26285394 4.04687076 0.26285394 4.04687076 -1 1 C-0.67 0.67 -0.34 0.34 0 0 Z " fill="#E361A8" transform="translate(106,25)"/>
<path d="M0 0 C2.475 0.99 2.475 0.99 5 2 C4 5 4 5 2 7 C-1 7 -1 7 -4 5 C-3.67 4.34 -3.34 3.68 -3 3 C-1.68 3.66 -0.36 4.32 1 5 C0.67 3.35 0.34 1.7 0 0 Z " fill="#D94FA3" transform="translate(99,36)"/>
<path d="M0 0 C1.23621824 2.47243647 0.98408601 3.77317939 0.6875 6.5 C0.60886719 7.2940625 0.53023438 8.088125 0.44921875 8.90625 C0 11 0 11 -2 13 C-2 12.34 -2 11.68 -2 11 C-2.99 10.67 -3.98 10.34 -5 10 C-4.34 9.67 -3.68 9.34 -3 9 C-2.66073053 6.66752239 -2.32759934 4.33414529 -2 2 C-1.34 1.34 -0.68 0.68 0 0 Z " fill="#DF5DB6" transform="translate(70,21)"/>
<path d="M0 0 C2.64 0.33 5.28 0.66 8 1 C8 1.99 8 2.98 8 4 C5.36 4 2.72 4 0 4 C0 2.68 0 1.36 0 0 Z " fill="#BA56A2" transform="translate(50,99)"/>
<path d="M0 0 C0.66 0.33 1.32 0.66 2 1 C2.61538462 8.26153846 2.61538462 8.26153846 -0.5 12 C-1.325 12.66 -2.15 13.32 -3 14 C-2.5359375 13.0409375 -2.5359375 13.0409375 -2.0625 12.0625 C-0.68064597 8.07950896 -0.3463457 4.18349151 0 0 Z " fill="#BE5D97" transform="translate(109,26)"/>
<path d="M0 0 C0.33 0 0.66 0 1 0 C1 1.98 1 3.96 1 6 C1.66 6.33 2.32 6.66 3 7 C2.01 7.495 2.01 7.495 1 8 C0.59270772 10.32156597 0.25561323 12.6568787 0 15 C-0.66 15 -1.32 15 -2 15 C-1.85930804 12.87465341 -1.71229079 10.74972471 -1.5625 8.625 C-1.48128906 7.44164063 -1.40007812 6.25828125 -1.31640625 5.0390625 C-1 2 -1 2 0 0 Z " fill="#DF59B2" transform="translate(84,77)"/>
<path d="M0 0 C1.5625 1.75 1.5625 1.75 3 4 C2.6875 6.25 2.6875 6.25 2 8 C-1 7 -1 7 -3 6 C-2.67 4.68 -2.34 3.36 -2 2 C-1.34 2 -0.68 2 0 2 C0 1.34 0 0.68 0 0 Z " fill="#D261A5" transform="translate(75,111)"/>
<path d="M0 0 C0.33 0.66 0.66 1.32 1 2 C1.66 2 2.32 2 3 2 C6.28571429 9.42857143 6.28571429 9.42857143 7 13 C6.67 12.34 6.34 11.68 6 11 C5.01 10.67 4.02 10.34 3 10 C2.33333333 8 1.66666667 6 1 4 C0.01 3.67 -0.98 3.34 -2 3 C-1 1 -1 1 0 0 Z " fill="#C4579C" transform="translate(80,96)"/>
<path d="M0 0 C0.66 0 1.32 0 2 0 C2.33 0.66 2.66 1.32 3 2 C4.32 1.67 5.64 1.34 7 1 C6 4 6 4 3 6 C0.3125 5.625 0.3125 5.625 -2 5 C-2 4.34 -2 3.68 -2 3 C-1.34 3 -0.68 3 0 3 C0 2.01 0 1.02 0 0 Z " fill="#B55B97" transform="translate(30,69)"/>
<path d="M0 0 C0.66 0.33 1.32 0.66 2 1 C1.29445932 4.66881155 -0.27735506 7.70450534 -2 11 C-3.46761039 7.18421299 -2.4801051 4.70026276 -1 1 C-0.67 0.67 -0.34 0.34 0 0 Z " fill="#DC5DAA" transform="translate(83,47)"/>
<path d="M0 0 C0.99 0.33 1.98 0.66 3 1 C3 1.99 3 2.98 3 4 C3.66 4 4.32 4 5 4 C5 5.32 5 6.64 5 8 C3.0625 7.375 3.0625 7.375 1 6 C0.25 2.875 0.25 2.875 0 0 Z " fill="#DF56AB" transform="translate(83,98)"/>
<path d="M0 0 C0.66 0.33 1.32 0.66 2 1 C1.67 3.97 1.34 6.94 1 10 C0.01 9.67 -0.98 9.34 -2 9 C-1.125 1.125 -1.125 1.125 0 0 Z " fill="#B45A90" transform="translate(80,49)"/>
<path d="M0 0 C1.32 0.33 2.64 0.66 4 1 C4 1.99 4 2.98 4 4 C2.35 4.33 0.7 4.66 -1 5 C-1.33 4.34 -1.66 3.68 -2 3 C-1.34 2.01 -0.68 1.02 0 0 Z " fill="#B9509A" transform="translate(100,29)"/>
<path d="M0 0 C0.99 0.99 1.98 1.98 3 3 C2.67 3.66 2.34 4.32 2 5 C1.236875 4.979375 0.47375 4.95875 -0.3125 4.9375 C-3.10185786 4.87057159 -3.10185786 4.87057159 -6 6 C-6 5.34 -6 4.68 -6 4 C-4.03852126 2.61061923 -2.03833424 1.2739589 0 0 Z " fill="#C25398" transform="translate(100,83)"/>
<path d="M0 0 C0.66 0.66 1.32 1.32 2 2 C-2.1795645 4.78637633 -4.14668677 3.79562512 -9 3 C-6.04288438 1.35715799 -3.37991574 0.3557806 0 0 Z " fill="#DC63AC" transform="translate(35,74)"/>
<path d="M0 0 C0.66 0 1.32 0 2 0 C2.66 1.98 3.32 3.96 4 6 C2.35 6.33 0.7 6.66 -1 7 C-1.33 6.01 -1.66 5.02 -2 4 C-1.34 4 -0.68 4 0 4 C0 2.68 0 1.36 0 0 Z " fill="#B04B88" transform="translate(103,79)"/>
<path d="M0 0 C1.32 0.33 2.64 0.66 4 1 C4 1.66 4 2.32 4 3 C3.01 3 2.02 3 1 3 C0.67 3.99 0.34 4.98 0 6 C-2.0625 6.6875 -2.0625 6.6875 -4 7 C-3.34 6.01 -2.68 5.02 -2 4 C-1.34 4 -0.68 4 0 4 C0 2.68 0 1.36 0 0 Z " fill="#B96097" transform="translate(90,106)"/>
<path d="M0 0 C1.125 1.625 1.125 1.625 1.125 2.625 C-5.02734375 2.0390625 -5.02734375 2.0390625 -6.875 1.625 C-7.205 0.965 -7.535 0.305 -7.875 -0.375 C-2.35227273 -1.725 -2.35227273 -1.725 0 0 Z " fill="#C65C9A" transform="translate(88.875,59.375)"/>
<path d="M0 0 C0.33 1.32 0.66 2.64 1 4 C0.34 4 -0.32 4 -1 4 C-1 4.66 -1 5.32 -1 6 C-1.99 6.33 -2.98 6.66 -4 7 C-4.33 6.01 -4.66 5.02 -5 4 C-3.35 2.68 -1.7 1.36 0 0 Z " fill="#DD5DA7" transform="translate(77,81)"/>
<path d="M0 0 C0.66 1.32 1.32 2.64 2 4 C-0.31 4.33 -2.62 4.66 -5 5 C-4.1875 3.0625 -4.1875 3.0625 -3 1 C-2.01 0.67 -1.02 0.34 0 0 Z " fill="#D14BAA" transform="translate(58,67)"/>
<path d="M0 0 C2.31 0 4.62 0 7 0 C7.33 0.99 7.66 1.98 8 3 C5.69 3 3.38 3 1 3 C0.67 2.01 0.34 1.02 0 0 Z " fill="#B4508D" transform="translate(75,69)"/>
<path d="M0 0 C0.33 0.99 0.66 1.98 1 3 C0.01 3 -0.98 3 -2 3 C-2.33 4.32 -2.66 5.64 -3 7 C-3.66 7 -4.32 7 -5 7 C-5 5.02 -5 3.04 -5 1 C-2.525 1.495 -2.525 1.495 0 2 C0 1.34 0 0.68 0 0 Z " fill="#C2479A" transform="translate(74,25)"/>
<path d="M0 0 C1.32 0 2.64 0 4 0 C4.33 1.98 4.66 3.96 5 6 C4.01 5.67 3.02 5.34 2 5 C0.8125 2.4375 0.8125 2.4375 0 0 Z " fill="#E05FB0" transform="translate(54,22)"/>
<path d="M0 0 C0.99 0 1.98 0 3 0 C3.33 0.99 3.66 1.98 4 3 C2.35 3.66 0.7 4.32 -1 5 C-0.67 3.35 -0.34 1.7 0 0 Z " fill="#C4609E" transform="translate(91,89)"/>
<path d="M0 0 C1.5 1.375 1.5 1.375 3 3 C3 3.66 3 4.32 3 5 C1.68 5.33 0.36 5.66 -1 6 C-1.042721 4.33388095 -1.04063832 2.66617115 -1 1 C-0.67 0.67 -0.34 0.34 0 0 Z " fill="#D457B1" transform="translate(40,65)"/>
<path d="M0 0 C0 3 0 3 -1 5 C-1.99 5 -2.98 5 -4 5 C-4 4.34 -4 3.68 -4 3 C-4.66 2.67 -5.32 2.34 -6 2 C-4.02 1.34 -2.04 0.68 0 0 Z " fill="#E261A8" transform="translate(94,52)"/>
</svg>
